<svg xmlns="http://www.w3.org/2000/svg" xmlns:v="https://svgstorm.com"
viewBox = "0 0 225 225"
width="225"
height="225">
<g fill="None" fill-opacity="0.0" stroke="#FEFEFD" stroke-opacity="1.00" stroke-width="0.3"><path d="
M 0.00 225.00 
L 225.00 225.00
L 225.00 0.00
L 180.00 0.00
C 194.43 2.17 194.95 25.72 178.98 26.98 C 163.00 28.24 159.46 3.48 175.00 0.00
L 0.00 0.00
L 0.00 225.00
M 195.00 75.00 
C 150.57 34.84 74.43 34.94 30.00 75.00
C 53.64 1.44 171.25 1.51 195.00 75.00
M 37.00 22.00 
C 47.45 25.86 40.10 45.62 28.93 40.07 C 17.75 34.53 24.06 17.22 37.00 22.00
M 148.00 93.00 
C 149.48 94.12 153.31 92.16 155.00 93.00
C 156.58 98.01 151.14 97.02 148.00 97.00
C 148.90 102.47 146.80 108.60 148.00 114.00
C 149.33 117.60 150.14 118.95 155.00 118.00
C 156.38 126.42 141.95 122.70 143.00 116.00
C 141.30 110.40 142.19 103.31 142.00 97.00
C 141.55 96.37 138.66 97.48 138.00 97.00
C 137.10 93.96 139.02 92.27 142.00 93.00
C 142.30 90.56 141.16 87.70 143.00 86.00
C 143.80 85.26 145.93 84.53 147.00 85.00
C 149.36 86.02 147.28 91.05 148.00 93.00
M 208.00 92.00 
C 210.47 99.21 200.03 95.89 199.23 102.23 C 198.43 108.57 199.35 115.58 199.00 122.00
C 191.51 123.62 194.38 115.06 194.00 110.00 C 193.62 104.94 194.28 98.21 194.00 93.00
C 197.78 91.76 198.54 94.98 198.00 98.00
C 200.52 94.86 203.68 92.39 208.00 92.00
M 24.00 121.00 
C 24.15 117.13 23.31 110.59 24.00 107.00 C 24.69 103.41 21.98 94.91 25.00 93.00
C 26.19 92.25 28.69 93.57 30.00 93.00
C 28.00 106.58 37.00 133.01 17.00 134.00
C 17.09 128.59 27.09 128.55 24.00 121.00
M 45.00 93.00 
C 46.66 100.24 40.17 118.17 52.00 118.00 C 63.84 117.82 57.33 100.36 59.00 93.00
C 66.49 91.38 63.62 99.94 64.00 105.00 C 64.38 110.06 63.72 116.79 64.00 122.00
C 59.99 123.43 60.55 119.83 59.00 118.00
C 56.05 124.84 42.28 124.04 41.08 116.92 C 39.88 109.81 36.23 93.38 45.00 93.00
M 79.00 98.00 
C 88.05 87.19 101.96 94.63 102.00 107.00 C 102.03 119.37 90.00 127.67 80.00 119.00
C 80.00 124.00 80.00 129.00 80.00 134.00
C 71.12 134.51 76.12 122.69 75.00 116.00 C 73.88 109.31 76.63 99.48 74.00 93.00
C 77.89 91.90 79.97 94.15 79.00 98.00
M 120.00 115.00 
C 125.45 108.84 122.38 92.84 133.00 93.00
C 130.65 99.02 126.83 110.90 124.22 116.22 C 121.62 121.54 117.72 135.15 110.77 134.77 C 103.82 134.40 121.40 122.31 115.68 116.32 C 109.96 110.33 110.94 99.53 106.00 93.00
C 117.07 92.06 114.66 108.66 120.00 115.00
M 185.00 104.00 
C 185.16 105.07 186.90 107.26 186.00 109.00
C 179.00 109.00 172.00 109.00 165.00 109.00
C 160.81 115.64 179.32 123.58 183.00 117.00
C 184.21 125.47 168.67 124.34 163.75 118.25 C 158.83 112.15 158.32 100.89 165.25 95.25 C 172.18 89.61 186.10 93.91 185.00 104.00
M 116.00 195.00 
C 113.81 195.21 111.13 195.21 109.00 195.00
C 73.90 195.00 40.85 170.88 29.00 138.00
C 72.66 179.92 150.79 179.90 195.00 139.00
C 184.10 171.51 150.26 195.09 116.00 195.00
M 49.00 190.00 
C 70.28 193.62 64.82 227.67 43.00 224.00 C 21.18 220.33 27.72 186.38 49.00 190.00 Z"/>
</g>
<g fill="None" fill-opacity="0.0" stroke="#767677" stroke-opacity="1.00" stroke-width="0.3"><path d="
M 180.00 0.00 
L 175.00 0.00
C 159.46 3.48 163.00 28.24 178.98 26.98 C 194.95 25.72 194.43 2.17 180.00 0.00 Z"/>
</g>
<g fill="None" fill-opacity="0.0" stroke="#F37829" stroke-opacity="1.00" stroke-width="0.3"><path d="
M 195.00 75.00 
C 171.25 1.51 53.64 1.44 30.00 75.00
C 74.43 34.94 150.57 34.84 195.00 75.00 Z"/>
</g>
<g fill="None" fill-opacity="0.0" stroke="#616262" stroke-opacity="1.00" stroke-width="0.3"><path d="
M 37.00 22.00 
C 24.06 17.22 17.75 34.53 28.93 40.07 C 40.10 45.62 47.45 25.86 37.00 22.00 Z"/>
</g>
<g fill="None" fill-opacity="0.0" stroke="#4D4D4D" stroke-opacity="1.00" stroke-width="0.3"><path d="
M 143.00 86.00 
C 141.80 87.60 143.34 91.13 142.00 93.00
C 139.02 92.27 137.10 93.96 138.00 97.00
C 138.66 97.48 141.55 96.37 142.00 97.00
C 145.17 101.44 142.07 110.50 143.00 116.00
C 141.95 122.70 156.38 126.42 155.00 118.00
C 150.14 118.95 149.33 117.60 148.00 114.00
C 146.99 111.25 145.12 99.18 148.00 97.00
C 151.14 97.02 156.58 98.01 155.00 93.00
C 153.31 92.16 149.48 94.12 148.00 93.00
C 145.86 91.37 147.56 87.41 147.00 85.00
C 145.93 84.53 143.80 85.26 143.00 86.00 Z"/>
</g>
<g fill="None" fill-opacity="0.0" stroke="#9C9C9C" stroke-opacity="1.00" stroke-width="0.3"><path d="
M 148.00 93.00 
C 147.28 91.05 149.36 86.02 147.00 85.00
C 147.56 87.41 145.86 91.37 148.00 93.00 Z"/>
</g>
<g fill="None" fill-opacity="0.0" stroke="#9D9D9D" stroke-opacity="1.00" stroke-width="0.3"><path d="
M 142.00 93.00 
C 143.34 91.13 141.80 87.60 143.00 86.00
C 141.16 87.70 142.30 90.56 142.00 93.00 Z"/>
</g>
<g fill="None" fill-opacity="0.0" stroke="#4B4B4B" stroke-opacity="1.00" stroke-width="0.3"><path d="
M 208.00 92.00 
C 203.68 92.39 200.52 94.86 198.00 98.00
C 198.54 94.98 197.78 91.76 194.00 93.00
C 194.28 98.21 193.62 104.94 194.00 110.00 C 194.38 115.06 191.51 123.62 199.00 122.00
C 199.35 115.58 198.43 108.57 199.23 102.23 C 200.03 95.89 210.47 99.21 208.00 92.00 Z"/>
</g>
<g fill="None" fill-opacity="0.0" stroke="#A4A4A4" stroke-opacity="1.00" stroke-width="0.3"><path d="
M 24.00 121.00 
C 25.23 112.42 25.16 102.29 25.00 93.00
C 21.98 94.91 24.69 103.41 24.00 107.00 C 23.31 110.59 24.15 117.13 24.00 121.00 Z"/>
</g>
<g fill="None" fill-opacity="0.0" stroke="#515151" stroke-opacity="1.00" stroke-width="0.3"><path d="
M 24.00 121.00 
C 27.09 128.55 17.09 128.59 17.00 134.00
C 37.00 133.01 28.00 106.58 30.00 93.00
C 28.69 93.57 26.19 92.25 25.00 93.00
C 25.16 102.29 25.23 112.42 24.00 121.00 Z"/>
</g>
<g fill="None" fill-opacity="0.0" stroke="#4B4B4B" stroke-opacity="1.00" stroke-width="0.3"><path d="
M 45.00 93.00 
C 36.23 93.38 39.88 109.81 41.08 116.92 C 42.28 124.04 56.05 124.84 59.00 118.00
C 60.55 119.83 59.99 123.43 64.00 122.00
C 63.72 116.79 64.38 110.06 64.00 105.00 C 63.62 99.94 66.49 91.38 59.00 93.00
C 57.33 100.36 63.84 117.82 52.00 118.00 C 40.17 118.17 46.66 100.24 45.00 93.00 Z"/>
</g>
<g fill="None" fill-opacity="0.0" stroke="#4D4D4D" stroke-opacity="1.00" stroke-width="0.3"><path d="
M 79.00 98.00 
C 79.97 94.15 77.89 91.90 74.00 93.00
C 76.63 99.48 73.88 109.31 75.00 116.00 C 76.12 122.69 71.12 134.51 80.00 134.00
C 80.00 129.00 80.00 124.00 80.00 119.00
C 90.00 127.67 102.03 119.37 102.00 107.00 C 101.96 94.63 88.05 87.19 79.00 98.00
M 90.00 96.00 
C 100.91 97.39 98.86 120.92 86.99 118.99 C 75.12 117.07 78.13 94.48 90.00 96.00 Z"/>
</g>
<g fill="None" fill-opacity="0.0" stroke="#4D4D4D" stroke-opacity="1.00" stroke-width="0.3"><path d="
M 120.00 115.00 
C 114.66 108.66 117.07 92.06 106.00 93.00
C 110.94 99.53 109.96 110.33 115.68 116.32 C 121.40 122.31 103.82 134.40 110.77 134.77 C 117.72 135.15 121.62 121.54 124.22 116.22 C 126.83 110.90 130.65 99.02 133.00 93.00
C 122.38 92.84 125.45 108.84 120.00 115.00 Z"/>
</g>
<g fill="None" fill-opacity="0.0" stroke="#4C4C4C" stroke-opacity="1.00" stroke-width="0.3"><path d="
M 165.00 109.00 
C 167.67 104.77 180.81 110.09 185.00 108.00
C 185.00 106.67 185.00 105.33 185.00 104.00
C 186.10 93.91 172.18 89.61 165.25 95.25 C 158.32 100.89 158.83 112.15 163.75 118.25 C 168.67 124.34 184.21 125.47 183.00 117.00
C 179.32 123.58 160.81 115.64 165.00 109.00
M 181.00 105.00 
C 175.67 105.00 170.33 105.00 165.00 105.00
C 164.23 93.83 182.75 92.99 181.00 105.00 Z"/>
</g>
<g fill="None" fill-opacity="0.0" stroke="#F8F8F8" stroke-opacity="1.00" stroke-width="0.3"><path d="
M 90.00 96.00 
C 78.13 94.48 75.12 117.07 86.99 118.99 C 98.86 120.92 100.91 97.39 90.00 96.00 Z"/>
</g>
<g fill="None" fill-opacity="0.0" stroke="#EFEFEF" stroke-opacity="1.00" stroke-width="0.3"><path d="
M 181.00 105.00 
C 182.75 92.99 164.23 93.83 165.00 105.00
C 170.33 105.00 175.67 105.00 181.00 105.00 Z"/>
</g>
<g fill="None" fill-opacity="0.0" stroke="#959595" stroke-opacity="1.00" stroke-width="0.3"><path d="
M 143.00 116.00 
C 142.07 110.50 145.17 101.44 142.00 97.00
C 142.19 103.31 141.30 110.40 143.00 116.00 Z"/>
</g>
<g fill="None" fill-opacity="0.0" stroke="#9D9D9D" stroke-opacity="1.00" stroke-width="0.3"><path d="
M 148.00 114.00 
C 146.80 108.60 148.90 102.47 148.00 97.00
C 145.12 99.18 146.99 111.25 148.00 114.00 Z"/>
</g>
<g fill="None" fill-opacity="0.0" stroke="#969696" stroke-opacity="1.00" stroke-width="0.3"><path d="
M 165.00 109.00 
C 172.00 109.00 179.00 109.00 186.00 109.00
C 186.90 107.26 185.16 105.07 185.00 104.00
C 185.00 105.33 185.00 106.67 185.00 108.00
C 180.81 110.09 167.67 104.77 165.00 109.00 Z"/>
</g>
<g fill="None" fill-opacity="0.0" stroke="#F3782A" stroke-opacity="1.00" stroke-width="0.3"><path d="
M 109.00 195.00 
C 111.33 195.00 113.67 195.00 116.00 195.00
C 150.26 195.09 184.10 171.51 195.00 139.00
C 150.79 179.90 72.66 179.92 29.00 138.00
C 40.85 170.88 73.90 195.00 109.00 195.00 Z"/>
</g>
<g fill="None" fill-opacity="0.0" stroke="#9E9E9E" stroke-opacity="1.00" stroke-width="0.3"><path d="
M 49.00 190.00 
C 27.72 186.38 21.18 220.33 43.00 224.00 C 64.82 227.67 70.28 193.62 49.00 190.00 Z"/>
</g>
<g fill="None" fill-opacity="0.0" stroke="#F8B897" stroke-opacity="1.00" stroke-width="0.3"><path d="
M 116.00 195.00 
C 113.67 195.00 111.33 195.00 109.00 195.00
C 111.13 195.21 113.81 195.21 116.00 195.00 Z"/>
</g>
<g fill="#FEFEFD" fill-opacity="1.00" stroke="None">
<path d="
M 0.00 225.00 
L 225.00 225.00
L 225.00 0.00
L 180.00 0.00
C 194.43 2.17 194.95 25.72 178.98 26.98 C 163.00 28.24 159.46 3.48 175.00 0.00
L 0.00 0.00
L 0.00 225.00
M 195.00 75.00 
C 150.57 34.84 74.43 34.94 30.00 75.00
C 53.64 1.44 171.25 1.51 195.00 75.00
M 37.00 22.00 
C 47.45 25.86 40.10 45.62 28.93 40.07 C 17.75 34.53 24.06 17.22 37.00 22.00
M 148.00 93.00 
C 149.48 94.12 153.31 92.16 155.00 93.00
C 156.58 98.01 151.14 97.02 148.00 97.00
C 148.90 102.47 146.80 108.60 148.00 114.00
C 149.33 117.60 150.14 118.95 155.00 118.00
C 156.38 126.42 141.95 122.70 143.00 116.00
C 141.30 110.40 142.19 103.31 142.00 97.00
C 141.55 96.37 138.66 97.48 138.00 97.00
C 137.10 93.96 139.02 92.27 142.00 93.00
C 142.30 90.56 141.16 87.70 143.00 86.00
C 143.80 85.26 145.93 84.53 147.00 85.00
C 149.36 86.02 147.28 91.05 148.00 93.00
M 208.00 92.00 
C 210.47 99.21 200.03 95.89 199.23 102.23 C 198.43 108.57 199.35 115.58 199.00 122.00
C 191.51 123.62 194.38 115.06 194.00 110.00 C 193.62 104.94 194.28 98.21 194.00 93.00
C 197.78 91.76 198.54 94.98 198.00 98.00
C 200.52 94.86 203.68 92.39 208.00 92.00
M 24.00 121.00 
C 24.15 117.13 23.31 110.59 24.00 107.00 C 24.69 103.41 21.98 94.91 25.00 93.00
C 26.19 92.25 28.69 93.57 30.00 93.00
C 28.00 106.58 37.00 133.01 17.00 134.00
C 17.09 128.59 27.09 128.55 24.00 121.00
M 45.00 93.00 
C 46.66 100.24 40.17 118.17 52.00 118.00 C 63.84 117.82 57.33 100.36 59.00 93.00
C 66.49 91.38 63.62 99.94 64.00 105.00 C 64.38 110.06 63.72 116.79 64.00 122.00
C 59.99 123.43 60.55 119.83 59.00 118.00
C 56.05 124.84 42.28 124.04 41.08 116.92 C 39.88 109.81 36.23 93.38 45.00 93.00
M 79.00 98.00 
C 88.05 87.19 101.96 94.63 102.00 107.00 C 102.03 119.37 90.00 127.67 80.00 119.00
C 80.00 124.00 80.00 129.00 80.00 134.00
C 71.12 134.51 76.12 122.69 75.00 116.00 C 73.88 109.31 76.63 99.48 74.00 93.00
C 77.89 91.90 79.97 94.15 79.00 98.00
M 120.00 115.00 
C 125.45 108.84 122.38 92.84 133.00 93.00
C 130.65 99.02 126.83 110.90 124.22 116.22 C 121.62 121.54 117.72 135.15 110.77 134.77 C 103.82 134.40 121.40 122.31 115.68 116.32 C 109.96 110.33 110.94 99.53 106.00 93.00
C 117.07 92.06 114.66 108.66 120.00 115.00
M 185.00 104.00 
C 185.16 105.07 186.90 107.26 186.00 109.00
C 179.00 109.00 172.00 109.00 165.00 109.00
C 160.81 115.64 179.32 123.58 183.00 117.00
C 184.21 125.47 168.67 124.34 163.75 118.25 C 158.83 112.15 158.32 100.89 165.25 95.25 C 172.18 89.61 186.10 93.91 185.00 104.00
M 116.00 195.00 
C 113.81 195.21 111.13 195.21 109.00 195.00
C 73.90 195.00 40.85 170.88 29.00 138.00
C 72.66 179.92 150.79 179.90 195.00 139.00
C 184.10 171.51 150.26 195.09 116.00 195.00
M 49.00 190.00 
C 70.28 193.62 64.82 227.67 43.00 224.00 C 21.18 220.33 27.72 186.38 49.00 190.00 Z"/>
</g>
<g fill="#767677" fill-opacity="1.00" stroke="None">
<path d="
M 180.00 0.00 
L 175.00 0.00
C 159.46 3.48 163.00 28.24 178.98 26.98 C 194.95 25.72 194.43 2.17 180.00 0.00 Z"/>
</g>
<g fill="#F37829" fill-opacity="1.00" stroke="None">
<path d="
M 195.00 75.00 
C 171.25 1.51 53.64 1.44 30.00 75.00
C 74.43 34.94 150.57 34.84 195.00 75.00 Z"/>
</g>
<g fill="#616262" fill-opacity="1.00" stroke="None">
<path d="
M 37.00 22.00 
C 24.06 17.22 17.75 34.53 28.93 40.07 C 40.10 45.62 47.45 25.86 37.00 22.00 Z"/>
</g>
<g fill="#4D4D4D" fill-opacity="1.00" stroke="None">
<path d="
M 143.00 86.00 
C 141.80 87.60 143.34 91.13 142.00 93.00
C 139.02 92.27 137.10 93.96 138.00 97.00
C 138.66 97.48 141.55 96.37 142.00 97.00
C 145.17 101.44 142.07 110.50 143.00 116.00
C 141.95 122.70 156.38 126.42 155.00 118.00
C 150.14 118.95 149.33 117.60 148.00 114.00
C 146.99 111.25 145.12 99.18 148.00 97.00
C 151.14 97.02 156.58 98.01 155.00 93.00
C 153.31 92.16 149.48 94.12 148.00 93.00
C 145.86 91.37 147.56 87.41 147.00 85.00
C 145.93 84.53 143.80 85.26 143.00 86.00 Z"/>
</g>
<g fill="#9C9C9C" fill-opacity="1.00" stroke="None">
<path d="
M 148.00 93.00 
C 147.28 91.05 149.36 86.02 147.00 85.00
C 147.56 87.41 145.86 91.37 148.00 93.00 Z"/>
</g>
<g fill="#9D9D9D" fill-opacity="1.00" stroke="None">
<path d="
M 142.00 93.00 
C 143.34 91.13 141.80 87.60 143.00 86.00
C 141.16 87.70 142.30 90.56 142.00 93.00 Z"/>
</g>
<g fill="#4B4B4B" fill-opacity="1.00" stroke="None">
<path d="
M 208.00 92.00 
C 203.68 92.39 200.52 94.86 198.00 98.00
C 198.54 94.98 197.78 91.76 194.00 93.00
C 194.28 98.21 193.62 104.94 194.00 110.00 C 194.38 115.06 191.51 123.62 199.00 122.00
C 199.35 115.58 198.43 108.57 199.23 102.23 C 200.03 95.89 210.47 99.21 208.00 92.00 Z"/>
</g>
<g fill="#A4A4A4" fill-opacity="1.00" stroke="None">
<path d="
M 24.00 121.00 
C 25.23 112.42 25.16 102.29 25.00 93.00
C 21.98 94.91 24.69 103.41 24.00 107.00 C 23.31 110.59 24.15 117.13 24.00 121.00 Z"/>
</g>
<g fill="#515151" fill-opacity="1.00" stroke="None">
<path d="
M 24.00 121.00 
C 27.09 128.55 17.09 128.59 17.00 134.00
C 37.00 133.01 28.00 106.58 30.00 93.00
C 28.69 93.57 26.19 92.25 25.00 93.00
C 25.16 102.29 25.23 112.42 24.00 121.00 Z"/>
</g>
<g fill="#4B4B4B" fill-opacity="1.00" stroke="None">
<path d="
M 45.00 93.00 
C 36.23 93.38 39.88 109.81 41.08 116.92 C 42.28 124.04 56.05 124.84 59.00 118.00
C 60.55 119.83 59.99 123.43 64.00 122.00
C 63.72 116.79 64.38 110.06 64.00 105.00 C 63.62 99.94 66.49 91.38 59.00 93.00
C 57.33 100.36 63.84 117.82 52.00 118.00 C 40.17 118.17 46.66 100.24 45.00 93.00 Z"/>
</g>
<g fill="#4D4D4D" fill-opacity="1.00" stroke="None">
<path d="
M 79.00 98.00 
C 79.97 94.15 77.89 91.90 74.00 93.00
C 76.63 99.48 73.88 109.31 75.00 116.00 C 76.12 122.69 71.12 134.51 80.00 134.00
C 80.00 129.00 80.00 124.00 80.00 119.00
C 90.00 127.67 102.03 119.37 102.00 107.00 C 101.96 94.63 88.05 87.19 79.00 98.00
M 90.00 96.00 
C 100.91 97.39 98.86 120.92 86.99 118.99 C 75.12 117.07 78.13 94.48 90.00 96.00 Z"/>
</g>
<g fill="#4D4D4D" fill-opacity="1.00" stroke="None">
<path d="
M 120.00 115.00 
C 114.66 108.66 117.07 92.06 106.00 93.00
C 110.94 99.53 109.96 110.33 115.68 116.32 C 121.40 122.31 103.82 134.40 110.77 134.77 C 117.72 135.15 121.62 121.54 124.22 116.22 C 126.83 110.90 130.65 99.02 133.00 93.00
C 122.38 92.84 125.45 108.84 120.00 115.00 Z"/>
</g>
<g fill="#4C4C4C" fill-opacity="1.00" stroke="None">
<path d="
M 165.00 109.00 
C 167.67 104.77 180.81 110.09 185.00 108.00
C 185.00 106.67 185.00 105.33 185.00 104.00
C 186.10 93.91 172.18 89.61 165.25 95.25 C 158.32 100.89 158.83 112.15 163.75 118.25 C 168.67 124.34 184.21 125.47 183.00 117.00
C 179.32 123.58 160.81 115.64 165.00 109.00
M 181.00 105.00 
C 175.67 105.00 170.33 105.00 165.00 105.00
C 164.23 93.83 182.75 92.99 181.00 105.00 Z"/>
</g>
<g fill="#F8F8F8" fill-opacity="1.00" stroke="None">
<path d="
M 90.00 96.00 
C 78.13 94.48 75.12 117.07 86.99 118.99 C 98.86 120.92 100.91 97.39 90.00 96.00 Z"/>
</g>
<g fill="#EFEFEF" fill-opacity="1.00" stroke="None">
<path d="
M 181.00 105.00 
C 182.75 92.99 164.23 93.83 165.00 105.00
C 170.33 105.00 175.67 105.00 181.00 105.00 Z"/>
</g>
<g fill="#959595" fill-opacity="1.00" stroke="None">
<path d="
M 143.00 116.00 
C 142.07 110.50 145.17 101.44 142.00 97.00
C 142.19 103.31 141.30 110.40 143.00 116.00 Z"/>
</g>
<g fill="#9D9D9D" fill-opacity="1.00" stroke="None">
<path d="
M 148.00 114.00 
C 146.80 108.60 148.90 102.47 148.00 97.00
C 145.12 99.18 146.99 111.25 148.00 114.00 Z"/>
</g>
<g fill="#969696" fill-opacity="1.00" stroke="None">
<path d="
M 165.00 109.00 
C 172.00 109.00 179.00 109.00 186.00 109.00
C 186.90 107.26 185.16 105.07 185.00 104.00
C 185.00 105.33 185.00 106.67 185.00 108.00
C 180.81 110.09 167.67 104.77 165.00 109.00 Z"/>
</g>
<g fill="#F3782A" fill-opacity="1.00" stroke="None">
<path d="
M 109.00 195.00 
C 111.33 195.00 113.67 195.00 116.00 195.00
C 150.26 195.09 184.10 171.51 195.00 139.00
C 150.79 179.90 72.66 179.92 29.00 138.00
C 40.85 170.88 73.90 195.00 109.00 195.00 Z"/>
</g>
<g fill="#9E9E9E" fill-opacity="1.00" stroke="None">
<path d="
M 49.00 190.00 
C 27.72 186.38 21.18 220.33 43.00 224.00 C 64.82 227.67 70.28 193.62 49.00 190.00 Z"/>
</g>
<g fill="#F8B897" fill-opacity="1.00" stroke="None">
<path d="
M 116.00 195.00 
C 113.67 195.00 111.33 195.00 109.00 195.00
C 111.13 195.21 113.81 195.21 116.00 195.00 Z"/>
</g>
</svg>