<svg version="1.1" id="Layer_1" xmlns="http://www.w3.org/2000/svg" xmlns:xlink="http://www.w3.org/1999/xlink" x="0px" y="0px"
	 width="100%" viewBox="0 0 192 192" enable-background="new 0 0 192 192" xml:space="preserve">
<path fill="#000000" opacity="1.000000" stroke="none" 
	d="
M193.000000,52.000000 
	C193.000000,99.302834 193.000000,146.105667 193.000000,192.954254 
	C129.072220,192.954254 65.144386,192.954254 1.108279,192.954254 
	C1.108279,129.114029 1.108279,65.227821 1.108279,1.170803 
	C64.999619,1.170803 128.999786,1.170803 193.000000,1.170803 
	C193.000000,17.855345 193.000000,34.677673 193.000000,52.000000 
M189.032593,89.261971 
	C188.987778,88.505638 188.942963,87.749306 189.016113,86.160919 
	C186.729355,78.087364 184.442596,70.013809 182.034805,61.200275 
	C178.722580,55.321163 175.744873,49.220428 172.027679,43.609612 
	C164.560013,32.337746 153.942871,24.381615 142.654663,17.308199 
	C141.096298,16.331694 138.942230,16.305855 137.035172,15.080241 
	C133.047943,13.654126 129.060715,12.228011 124.685333,10.146634 
	C118.124527,8.820697 111.563721,7.494759 104.107513,6.038404 
	C99.414474,6.230027 94.671616,6.057860 90.039185,6.692140 
	C81.487167,7.863098 72.990219,9.456044 64.507286,11.067719 
	C63.936852,11.176097 63.676170,12.914831 62.469273,13.860394 
	C60.322067,14.501346 58.174858,15.142297 55.243362,15.942785 
	C49.479660,19.319603 43.359787,22.224823 38.065571,26.223274 
	C33.871708,29.390684 30.690395,33.898785 26.819124,37.806198 
	C26.819124,37.806198 26.813583,38.046532 26.121824,38.000191 
	C22.138670,43.999622 18.155514,49.999054 13.845644,56.656403 
	C12.578639,60.097473 11.311635,63.538544 9.957489,67.689308 
	C9.977309,68.403297 9.997128,69.117294 9.331397,70.107239 
	C8.535254,71.300461 7.238444,72.413116 7.031186,73.701103 
	C6.212035,78.791626 5.734457,83.937111 4.293998,89.333481 
	C4.245722,93.882843 4.197446,98.432198 3.995891,103.824326 
	C5.373421,110.883293 6.750951,117.942261 8.008160,125.750031 
	C9.833411,129.839523 11.643507,133.935852 13.486614,138.017273 
	C20.355713,153.228378 31.320194,164.900101 45.099838,173.985764 
	C53.381992,179.446640 62.191391,183.873337 72.971542,185.238251 
	C74.641777,185.496155 76.312004,185.754044 78.302368,186.724487 
	C87.335785,190.041153 96.702400,189.008118 106.802109,188.681900 
	C109.661728,188.229980 112.534111,187.846420 115.378906,187.315109 
	C134.449951,183.753387 150.573120,174.596939 164.098480,160.921036 
	C167.858490,157.119141 170.626053,152.335709 174.157791,147.362686 
	C180.488022,139.283127 184.402832,130.148407 186.725677,119.707527 
	C186.789108,118.530312 186.852524,117.353104 187.164459,116.185265 
	C187.164459,116.185265 187.174026,115.936760 187.831909,115.560272 
	C188.176468,113.055580 188.521042,110.550880 189.030487,107.285812 
	C188.972397,106.514381 188.914291,105.742958 188.939987,104.500565 
	C188.939987,104.500565 188.835953,104.033661 188.994095,103.119324 
	C188.944504,99.409187 188.894928,95.699051 188.978943,91.334824 
	C188.947540,90.892601 188.916138,90.450371 189.032593,89.261971 
z"/>
<path fill="#164019" opacity="1.000000" stroke="none" 
	d="
M77.982239,186.011932 
	C76.312004,185.754044 74.641777,185.496155 72.534592,184.784760 
	C70.482811,183.577545 68.917450,182.684067 67.245308,182.092331 
	C54.526779,177.591721 43.394455,170.600967 33.719173,161.196411 
	C23.895550,151.647675 17.172771,140.130829 11.956762,127.416382 
	C11.959545,127.214073 11.733174,126.878639 11.707006,126.539017 
	C11.474842,125.799187 11.268844,125.398964 11.043230,124.599884 
	C9.630054,117.125885 8.236496,110.050758 6.902492,102.520142 
	C6.946033,98.382805 6.930020,94.700951 7.066476,90.642288 
	C8.151613,83.454079 9.084282,76.642677 10.016949,69.831284 
	C9.997128,69.117294 9.977309,68.403297 10.365982,67.399521 
	C12.609503,63.774849 14.444530,60.439957 16.514389,56.869007 
	C20.105757,51.494202 23.522030,46.392452 26.752983,41.175926 
	C27.225536,40.412971 26.815331,39.103256 26.813583,38.046532 
	C26.813583,38.046532 26.819124,37.806198 26.777790,38.316292 
	C27.938898,38.251415 29.301188,37.877537 30.318100,37.069172 
	C37.442474,31.405867 44.511177,25.671989 51.559322,19.913727 
	C53.127144,18.632833 54.542240,17.165007 56.027657,15.783250 
	C58.174858,15.142297 60.322067,14.501346 63.188026,13.696752 
	C77.281540,9.289948 90.931702,7.085220 105.377609,8.103339 
	C112.154114,9.526695 118.553787,10.827787 125.242218,12.327902 
	C129.345108,14.041362 133.159225,15.555798 137.211060,17.310114 
	C156.531830,27.522388 170.142090,42.642181 179.297058,62.356430 
	C181.534317,70.814980 183.725800,78.912483 185.863724,87.388229 
	C185.931015,88.516090 186.051865,89.265724 186.128586,90.344353 
	C186.156143,91.107826 186.227814,91.542297 186.223145,92.440094 
	C186.047836,98.239922 185.948868,103.576424 185.697235,109.414444 
	C185.307526,111.647667 185.070496,113.379356 184.744949,115.132133 
	C184.656418,115.153214 184.759949,115.445633 185.283371,115.962112 
	C186.262543,116.297989 186.718292,116.117378 187.174026,115.936768 
	C187.174026,115.936760 187.164459,116.185265 187.303833,115.526001 
	C183.276978,113.732422 184.767044,117.304535 183.788605,119.296783 
	C179.614304,128.684814 175.654510,137.777206 171.440613,147.076019 
	C160.902634,162.115189 147.740372,173.604279 130.833084,180.080383 
	C122.844849,183.140182 114.260056,184.642563 105.483368,186.795624 
	C96.008202,186.497742 86.995224,186.254837 77.982239,186.011932 
M80.830650,178.800369 
	C81.982841,178.982910 83.134293,179.170273 84.287331,179.347290 
	C118.000404,184.522461 151.527588,168.311935 168.565445,138.599503 
	C185.644775,108.814743 182.537537,71.467850 160.769257,44.895325 
	C139.081467,18.421019 103.294029,7.955970 70.911659,18.618937 
	C35.148476,30.395149 12.287445,63.773930 13.897991,101.863068 
	C15.466462,138.957108 42.047367,169.828156 80.830650,178.800369 
z"/>
<path fill="#7CD585" opacity="1.000000" stroke="none" 
	d="
M11.062844,124.998749 
	C11.268844,125.398964 11.474842,125.799187 11.675137,126.641777 
	C11.661510,127.312828 11.756359,127.491013 11.953980,127.618698 
	C17.172771,140.130829 23.895550,151.647675 33.719173,161.196411 
	C43.394455,170.600967 54.526779,177.591721 67.245308,182.092331 
	C68.917450,182.684067 70.482811,183.577545 72.182320,184.694916 
	C62.191391,183.873337 53.381992,179.446640 45.099838,173.985764 
	C31.320194,164.900101 20.355713,153.228378 13.486614,138.017273 
	C11.643507,133.935852 9.833411,129.839523 8.435110,125.372864 
	C9.595654,124.996719 10.329248,124.997734 11.062844,124.998749 
z"/>
<path fill="#7CD685" opacity="1.000000" stroke="none" 
	d="
M105.945541,186.850586 
	C114.260056,184.642563 122.844849,183.140182 130.833084,180.080383 
	C147.740372,173.604279 160.902634,162.115189 171.711365,147.214905 
	C172.773773,147.432449 173.311356,147.717529 173.848923,148.002594 
	C170.626053,152.335709 167.858490,157.119141 164.098480,160.921036 
	C150.573120,174.596939 134.449951,183.753387 115.378906,187.315109 
	C112.534111,187.846420 109.661728,188.229980 106.392723,188.431519 
	C105.970741,187.737625 105.958138,187.294113 105.945541,186.850586 
z"/>
<path fill="#7BD384" opacity="1.000000" stroke="none" 
	d="
M179.251266,61.995399 
	C170.142090,42.642181 156.531830,27.522388 137.234207,17.002567 
	C137.034424,16.250063 137.049194,16.044981 137.063950,15.839899 
	C138.942230,16.305855 141.096298,16.331694 142.654663,17.308199 
	C153.942871,24.381615 164.560013,32.337746 172.027679,43.609612 
	C175.744873,49.220428 178.722580,55.321163 181.732300,61.579559 
	C180.703629,61.971031 179.977448,61.983215 179.251266,61.995399 
z"/>
<path fill="#7AD283" opacity="1.000000" stroke="none" 
	d="
M174.003357,147.682648 
	C173.311356,147.717529 172.773773,147.432449 171.965454,147.008484 
	C175.654510,137.777206 179.614304,128.684814 184.050201,119.426102 
	C185.048431,119.520439 185.570572,119.781090 186.092697,120.041748 
	C184.402832,130.148407 180.488022,139.283127 174.003357,147.682648 
z"/>
<path fill="#7ED887" opacity="1.000000" stroke="none" 
	d="
M55.635509,15.863018 
	C54.542240,17.165007 53.127144,18.632833 51.559322,19.913727 
	C44.511177,25.671989 37.442474,31.405867 30.318100,37.069172 
	C29.301188,37.877537 27.938898,38.251415 26.897959,38.318970 
	C30.690395,33.898785 33.871708,29.390684 38.065571,26.223274 
	C43.359787,22.224823 49.479660,19.319603 55.635509,15.863018 
z"/>
<path fill="#7AD283" opacity="1.000000" stroke="none" 
	d="
M179.297058,62.356434 
	C179.977448,61.983215 180.703629,61.971031 181.792816,61.949547 
	C184.442596,70.013809 186.729355,78.087364 188.585327,86.584473 
	C187.408798,87.008690 186.663040,87.009338 185.917282,87.009995 
	C183.725800,78.912483 181.534317,70.814980 179.297058,62.356434 
z"/>
<path fill="#71C579" opacity="1.000000" stroke="none" 
	d="
M105.000771,7.981074 
	C90.931702,7.085220 77.281540,9.289948 63.589104,13.714198 
	C63.676170,12.914831 63.936852,11.176097 64.507286,11.067719 
	C72.990219,9.456044 81.487167,7.863098 90.039185,6.692140 
	C94.671616,6.057860 99.414474,6.230027 104.554916,6.405655 
	C105.001801,7.175628 105.001282,7.578351 105.000771,7.981074 
z"/>
<path fill="#7BD384" opacity="1.000000" stroke="none" 
	d="
M11.043228,124.599884 
	C10.329248,124.997734 9.595654,124.996719 8.495271,124.998466 
	C6.750951,117.942261 5.373421,110.883293 4.409123,103.417473 
	C5.495883,102.998955 6.169409,102.987289 6.842937,102.975616 
	C8.236496,110.050758 9.630054,117.125885 11.043228,124.599884 
z"/>
<path fill="#7ED887" opacity="1.000000" stroke="none" 
	d="
M26.467705,38.023361 
	C26.815331,39.103256 27.225536,40.412971 26.752983,41.175926 
	C23.522030,46.392452 20.105757,51.494202 16.249374,56.733727 
	C15.223803,56.555836 14.698080,56.277161 14.172358,55.998486 
	C18.155514,49.999054 22.138670,43.999622 26.467705,38.023361 
z"/>
<path fill="#76CC7F" opacity="1.000000" stroke="none" 
	d="
M9.674173,69.969261 
	C9.084282,76.642677 8.151613,83.454079 6.891091,90.565323 
	C6.085558,90.264191 5.607879,89.663200 5.130201,89.062218 
	C5.734457,83.937111 6.212035,78.791626 7.031186,73.701103 
	C7.238444,72.413116 8.535254,71.300461 9.674173,69.969261 
z"/>
<path fill="#7CD485" opacity="1.000000" stroke="none" 
	d="
M105.483368,186.795624 
	C105.958138,187.294113 105.970741,187.737625 105.992805,188.513794 
	C96.702400,189.008118 87.335785,190.041153 78.142303,186.368210 
	C86.995224,186.254837 96.008202,186.497742 105.483368,186.795624 
z"/>
<path fill="#73C77B" opacity="1.000000" stroke="none" 
	d="
M185.849899,108.912926 
	C185.948868,103.576424 186.047836,98.239922 186.540207,92.436775 
	C187.570862,91.976395 188.208115,91.982651 188.845352,91.988914 
	C188.894928,95.699051 188.944504,99.409187 188.824219,103.651443 
	C188.572845,104.271667 188.407272,104.414856 188.423157,104.439117 
	C188.547882,104.629440 188.707397,104.796974 188.856186,104.971527 
	C188.914291,105.742958 188.972397,106.514381 188.764053,107.854309 
	C187.615051,108.586174 186.732468,108.749550 185.849899,108.912926 
z"/>
<path fill="#73C77B" opacity="1.000000" stroke="none" 
	d="
M105.377609,8.103339 
	C105.001282,7.578351 105.001801,7.175628 105.002617,6.470863 
	C111.563721,7.494759 118.124527,8.820697 124.848267,10.805908 
	C124.991959,11.686414 124.972710,11.907646 124.953453,12.128880 
	C118.553787,10.827787 112.154114,9.526695 105.377609,8.103339 
z"/>
<path fill="#89E792" opacity="1.000000" stroke="none" 
	d="
M4.712099,89.197845 
	C5.607879,89.663200 6.085558,90.264191 6.738622,90.942139 
	C6.930020,94.700951 6.946033,98.382805 6.902492,102.520142 
	C6.169409,102.987289 5.495883,102.998955 4.485763,102.996094 
	C4.197446,98.432198 4.245722,93.882843 4.712099,89.197845 
z"/>
<path fill="#7CD585" opacity="1.000000" stroke="none" 
	d="
M14.009001,56.327446 
	C14.698080,56.277161 15.223803,56.555836 16.014542,56.969788 
	C14.444530,60.439957 12.609503,63.774849 10.409554,67.044678 
	C11.311635,63.538544 12.578639,60.097473 14.009001,56.327446 
z"/>
<path fill="#79D082" opacity="1.000000" stroke="none" 
	d="
M125.242218,12.327902 
	C124.972710,11.907646 124.991959,11.686414 125.042343,11.133539 
	C129.060715,12.228011 133.047943,13.654126 137.049561,15.460071 
	C137.049194,16.044981 137.034424,16.250063 136.996521,16.762688 
	C133.159225,15.555798 129.345108,14.041362 125.242218,12.327902 
z"/>
<path fill="#89E792" opacity="1.000000" stroke="none" 
	d="
M185.697235,109.414444 
	C186.732468,108.749550 187.615051,108.586174 188.681610,108.234497 
	C188.521042,110.550880 188.176468,113.055580 187.502960,115.748520 
	C186.718292,116.117378 186.262543,116.297989 185.351685,115.930267 
	C184.896561,115.381935 184.833481,115.111053 184.833481,115.111053 
	C185.070496,113.379356 185.307526,111.647667 185.697235,109.414444 
z"/>
<path fill="#89E792" opacity="1.000000" stroke="none" 
	d="
M186.409180,119.874634 
	C185.570572,119.781090 185.048431,119.520439 184.264709,119.130463 
	C184.767044,117.304535 183.276978,113.732422 187.179581,115.521317 
	C186.852524,117.353104 186.789108,118.530312 186.409180,119.874634 
z"/>
<path fill="#73C77B" opacity="1.000000" stroke="none" 
	d="
M185.863724,87.388229 
	C186.663040,87.009338 187.408798,87.008690 188.526352,87.000504 
	C188.942963,87.749306 188.987778,88.505638 188.619278,89.629570 
	C187.528214,90.003227 186.850464,90.009293 186.172714,90.015358 
	C186.051865,89.265724 185.931015,88.516090 185.863724,87.388229 
z"/>
<path fill="#7AD283" opacity="1.000000" stroke="none" 
	d="
M186.128586,90.344353 
	C186.850464,90.009293 187.528214,90.003227 188.545349,90.002655 
	C188.916138,90.450371 188.947540,90.892601 188.912140,91.661865 
	C188.208115,91.982651 187.570862,91.976395 186.616547,91.973450 
	C186.227814,91.542297 186.156143,91.107826 186.128586,90.344353 
z"/>
<path fill="#89E792" opacity="1.000000" stroke="none" 
	d="
M188.898087,104.736053 
	C188.707397,104.796974 188.547882,104.629440 188.423157,104.439117 
	C188.407272,104.414856 188.572845,104.271667 188.745148,104.108612 
	C188.835953,104.033661 188.939987,104.500565 188.898087,104.736053 
z"/>
<path fill="#75CA7D" opacity="1.000000" stroke="none" 
	d="
M80.413414,178.714905 
	C42.047367,169.828156 15.466462,138.957108 13.897991,101.863068 
	C12.287445,63.773930 35.148476,30.395149 70.911659,18.618937 
	C103.294029,7.955970 139.081467,18.421019 160.769257,44.895325 
	C182.537537,71.467850 185.644775,108.814743 168.565445,138.599503 
	C151.527588,168.311935 118.000404,184.522461 84.287331,179.347290 
	C83.134293,179.170273 81.982841,178.982910 80.413414,178.714905 
M17.199448,96.561150 
	C17.464554,100.546700 17.522364,104.558685 18.026594,108.513748 
	C23.512686,151.545319 63.868610,181.832901 107.905579,176.034180 
	C150.301102,170.451599 181.330154,129.771500 175.448364,87.483360 
	C169.598236,45.422707 134.348679,16.099789 92.038170,18.097206 
	C51.221527,20.024099 18.815941,53.619114 17.199448,96.561150 
z"/>
<path fill="#73C77B" opacity="1.000000" stroke="none" 
	d="
M184.744949,115.132133 
	C184.833481,115.111053 184.896561,115.381935 184.828247,115.413788 
	C184.759949,115.445633 184.656418,115.153214 184.744949,115.132133 
z"/>
<path fill="#7BD384" opacity="1.000000" stroke="none" 
	d="
M11.956762,127.416382 
	C11.756359,127.491013 11.661510,127.312828 11.701303,126.981400 
	C11.733174,126.878639 11.959545,127.214073 11.956762,127.416382 
z"/>
<path fill="#103813" opacity="1.000000" stroke="none" 
	d="
M17.205173,96.116058 
	C18.815941,53.619114 51.221527,20.024099 92.038170,18.097206 
	C134.348679,16.099789 169.598236,45.422707 175.448364,87.483360 
	C181.330154,129.771500 150.301102,170.451599 107.905579,176.034180 
	C63.868610,181.832901 23.512686,151.545319 18.026594,108.513748 
	C17.522364,104.558685 17.464554,100.546700 17.205173,96.116058 
M104.529282,91.717476 
	C105.171944,90.756012 105.814598,89.794548 106.457253,88.833084 
	C107.248032,89.729866 108.542160,90.535339 108.724846,91.542419 
	C109.105675,93.641747 108.626099,95.902969 109.048561,97.986450 
	C109.259773,99.028114 110.677193,99.825195 111.549042,100.732895 
	C112.327065,99.885674 113.576065,99.137802 113.780312,98.169556 
	C114.150253,96.415810 113.656982,94.486481 113.982796,92.714821 
	C114.230034,91.370476 115.189156,90.157059 115.831512,88.885384 
	C116.623611,90.143738 118.028809,91.368233 118.100517,92.666382 
	C118.393837,97.976265 118.266487,103.308830 118.341370,108.632378 
	C118.347519,109.069427 118.709602,109.501472 119.020859,110.188843 
	C120.258881,110.131569 121.508560,110.073761 123.058693,110.002052 
	C123.058693,103.247391 123.337845,96.777298 122.962639,90.345367 
	C122.703308,85.899788 119.148979,83.597496 114.990479,84.019943 
	C112.466141,84.276367 109.878845,83.872482 107.343086,84.067520 
	C104.323929,84.299751 99.915833,82.752525 99.655220,87.814781 
	C99.280884,95.086075 99.559692,102.390991 99.559692,109.663826 
	C103.059105,110.950356 104.643776,110.303841 104.529358,106.649841 
	C104.383606,101.995300 104.503342,97.332443 104.529282,91.717476 
M74.311195,89.988258 
	C71.689606,95.884415 71.472450,101.731110 75.804352,106.837303 
	C79.682076,111.408165 85.066277,111.483398 90.529465,110.511299 
	C93.750580,109.938141 94.857903,108.407967 92.951950,105.436508 
	C82.056229,106.670143 79.767265,105.747025 78.671989,99.052048 
	C84.290382,99.052048 89.812355,99.052048 95.202972,99.052048 
	C96.280914,91.718773 94.256210,86.914345 89.627953,84.830055 
	C84.458023,82.501839 79.124619,84.117638 74.311195,89.988258 
M148.289291,95.546333 
	C148.289291,91.967018 148.289291,88.387703 148.289291,85.064064 
	C143.812958,83.599403 142.744965,85.211464 142.890945,88.711052 
	C143.070908,93.025391 142.704758,97.368271 142.993851,101.670647 
	C143.279449,105.921425 140.732651,106.947678 137.841614,105.698792 
	C135.908737,104.863815 133.903854,102.173729 133.576904,100.059326 
	C132.872574,95.504440 133.245819,90.784996 133.126511,86.134216 
	C133.115311,85.697739 132.737488,85.270668 132.362350,84.491020 
	C131.018097,84.612701 129.631912,84.738174 127.968498,84.888733 
	C127.968498,90.116196 127.953522,94.923134 127.980827,99.729836 
	C127.986465,100.722488 128.069000,101.729462 128.253082,102.703964 
	C129.467239,109.132248 133.724396,111.637787 141.922943,110.790070 
	C148.287842,110.131950 148.287903,110.131958 148.289276,102.003731 
	C148.289581,100.175232 148.289291,98.346733 148.289291,95.546333 
M54.962788,103.577675 
	C55.739361,102.747826 56.515934,101.917976 57.294624,101.085861 
	C66.713005,110.190216 66.713005,110.190216 69.611610,109.292412 
	C67.735039,106.432602 66.262238,103.407394 64.075592,101.042145 
	C60.940254,97.650696 61.238907,94.885887 64.189278,91.676781 
	C65.915474,89.799194 67.184883,87.501656 68.864365,85.100571 
	C61.475399,82.489952 61.291649,90.179283 57.499157,91.924286 
	C53.501240,89.777306 52.838505,82.234978 45.506039,85.254898 
	C47.541607,87.960251 49.103573,90.532845 51.149841,92.633720 
	C53.889515,95.446526 53.859634,97.716759 51.248642,100.651497 
	C48.906391,103.284149 47.153587,106.441223 45.002838,109.567398 
	C51.393753,112.113953 51.986294,106.599358 54.962788,103.577675 
z"/>
<path fill="#79D182" opacity="1.000000" stroke="none" 
	d="
M104.518959,92.195328 
	C104.503342,97.332443 104.383606,101.995300 104.529358,106.649841 
	C104.643776,110.303841 103.059105,110.950356 99.559692,109.663826 
	C99.559692,102.390991 99.280884,95.086075 99.655220,87.814781 
	C99.915833,82.752525 104.323929,84.299751 107.343086,84.067520 
	C109.878845,83.872482 112.466141,84.276367 114.990479,84.019943 
	C119.148979,83.597496 122.703308,85.899788 122.962639,90.345367 
	C123.337845,96.777298 123.058693,103.247391 123.058693,110.002052 
	C121.508560,110.073761 120.258881,110.131569 119.020859,110.188843 
	C118.709602,109.501472 118.347519,109.069427 118.341370,108.632378 
	C118.266487,103.308830 118.393837,97.976265 118.100517,92.666382 
	C118.028809,91.368233 116.623611,90.143738 115.831512,88.885384 
	C115.189156,90.157059 114.230034,91.370476 113.982796,92.714821 
	C113.656982,94.486481 114.150253,96.415810 113.780312,98.169556 
	C113.576065,99.137802 112.327065,99.885674 111.549042,100.732895 
	C110.677193,99.825195 109.259773,99.028114 109.048561,97.986450 
	C108.626099,95.902969 109.105675,93.641747 108.724846,91.542419 
	C108.542160,90.535339 107.248032,89.729866 106.457253,88.833084 
	C105.814598,89.794548 105.171944,90.756012 104.518959,92.195328 
z"/>
<path fill="#79D082" opacity="1.000000" stroke="none" 
	d="
M74.509186,89.669334 
	C79.124619,84.117638 84.458023,82.501839 89.627953,84.830055 
	C94.256210,86.914345 96.280914,91.718773 95.202972,99.052048 
	C89.812355,99.052048 84.290382,99.052048 78.671989,99.052048 
	C79.767265,105.747025 82.056229,106.670143 92.951950,105.436508 
	C94.857903,108.407967 93.750580,109.938141 90.529465,110.511299 
	C85.066277,111.483398 79.682076,111.408165 75.804352,106.837303 
	C71.472450,101.731110 71.689606,95.884415 74.509186,89.669334 
M82.111389,94.644035 
	C84.673798,94.644035 87.236206,94.644035 89.798615,94.644035 
	C90.086510,94.072067 90.374413,93.500092 90.662308,92.928123 
	C89.047287,91.505867 87.528511,89.088165 85.792206,88.920280 
	C83.748512,88.722672 81.064400,89.999069 79.479462,91.502380 
	C77.471756,93.406662 78.838814,94.651604 82.111389,94.644035 
z"/>
<path fill="#79D182" opacity="1.000000" stroke="none" 
	d="
M148.289276,96.032288 
	C148.289291,98.346733 148.289581,100.175232 148.289276,102.003731 
	C148.287903,110.131958 148.287842,110.131950 141.922943,110.790070 
	C133.724396,111.637787 129.467239,109.132248 128.253082,102.703964 
	C128.069000,101.729462 127.986465,100.722488 127.980827,99.729836 
	C127.953522,94.923134 127.968498,90.116196 127.968498,84.888733 
	C129.631912,84.738174 131.018097,84.612701 132.362350,84.491020 
	C132.737488,85.270668 133.115311,85.697739 133.126511,86.134216 
	C133.245819,90.784996 132.872574,95.504440 133.576904,100.059326 
	C133.903854,102.173729 135.908737,104.863815 137.841614,105.698792 
	C140.732651,106.947678 143.279449,105.921425 142.993851,101.670647 
	C142.704758,97.368271 143.070908,93.025391 142.890945,88.711052 
	C142.744965,85.211464 143.812958,83.599403 148.289291,85.064064 
	C148.289291,88.387703 148.289291,91.967018 148.289276,96.032288 
z"/>
<path fill="#77CE80" opacity="1.000000" stroke="none" 
	d="
M54.747295,103.856468 
	C51.986294,106.599358 51.393753,112.113953 45.002838,109.567398 
	C47.153587,106.441223 48.906391,103.284149 51.248642,100.651497 
	C53.859634,97.716759 53.889515,95.446526 51.149841,92.633720 
	C49.103573,90.532845 47.541607,87.960251 45.506039,85.254898 
	C52.838505,82.234978 53.501240,89.777306 57.499157,91.924286 
	C61.291649,90.179283 61.475399,82.489952 68.864365,85.100571 
	C67.184883,87.501656 65.915474,89.799194 64.189278,91.676781 
	C61.238907,94.885887 60.940254,97.650696 64.075592,101.042145 
	C66.262238,103.407394 67.735039,106.432602 69.611610,109.292412 
	C66.713005,110.190216 66.713005,110.190216 57.294624,101.085861 
	C56.515934,101.917976 55.739361,102.747826 54.747295,103.856468 
z"/>
<path fill="#1F4E23" opacity="1.000000" stroke="none" 
	d="
M81.716293,94.639839 
	C78.838814,94.651604 77.471756,93.406662 79.479462,91.502380 
	C81.064400,89.999069 83.748512,88.722672 85.792206,88.920280 
	C87.528511,89.088165 89.047287,91.505867 90.662308,92.928123 
	C90.374413,93.500092 90.086510,94.072067 89.798615,94.644035 
	C87.236206,94.644035 84.673798,94.644035 81.716293,94.639839 
z"/>
</svg>