<?xml version="1.0" encoding="UTF-8"?>
<svg version="1.1" xmlns="http://www.w3.org/2000/svg" width="192" height="192">
<path d="M0 0 C1.42291351 0.00303635 1.42291351 0.00303635 2.87457275 0.00613403 C3.86797668 0.00438171 4.86138062 0.00262939 5.8848877 0.00082397 C9.18615437 -0.00359654 12.48736798 -0.00065585 15.78863525 0.00271606 C18.07167572 0.00204308 20.35471612 0.00107311 22.63775635 -0.00018311 C27.42959269 -0.00166035 32.22141044 0.00049533 37.01324463 0.00515747 C43.1708016 0.01085477 49.32831499 0.0075759 55.48587036 0.00158501 C60.20229422 -0.00201989 64.91870767 -0.00088235 69.63513184 0.0017128 C71.90625005 0.00238227 74.1773692 0.00155296 76.44848633 -0.00076675 C79.61658247 -0.00329211 82.78460698 0.00054567 85.95269775 0.00613403 C86.90130676 0.0041098 87.84991577 0.00208557 88.82727051 0 C95.29937302 0.02126633 95.29937302 0.02126633 96.41363525 1.13552856 C96.51480446 4.22634322 96.55332083 7.29435412 96.54644775 10.38552856 C96.54740448 11.31397583 96.54836121 12.2424231 96.54934692 13.19900513 C96.5500288 15.16612821 96.54817397 17.13325353 96.54400635 19.10037231 C96.53865821 22.12255883 96.54395108 25.14459671 96.550354 28.16677856 C96.54969322 30.07302889 96.54841206 31.97927913 96.54644775 33.88552856 C96.54847198 34.79592896 96.55049622 35.70632935 96.55258179 36.64431763 C96.52858494 43.02057888 96.52858494 43.02057888 95.41363525 44.13552856 C93.57245496 44.22934159 91.72765884 44.2529681 89.88409424 44.24905396 C88.7029454 44.24897842 87.52179657 44.24890289 86.30485535 44.24882507 C85.01946365 44.24366379 83.73407196 44.2385025 82.409729 44.23318481 C80.44750145 44.23106239 80.44750145 44.23106239 78.44563293 44.22889709 C74.96200666 44.22507266 71.47842186 44.21524303 67.99481201 44.20419312 C64.44236817 44.19397739 60.88991766 44.18939913 57.33746338 44.18435669 C50.36283522 44.17362068 43.38824149 44.15602449 36.41363525 44.13552856 C36.41363525 51.39552856 36.41363525 58.65552856 36.41363525 66.13552856 C39.59633057 65.95763794 39.59633057 65.95763794 42.84332275 65.77615356 C44.93166361 65.67493892 47.02021986 65.58139873 49.10894775 65.48855591 C50.544569 65.42069836 51.97984632 65.34504652 53.41461182 65.26101685 C63.27131451 64.69051034 70.66846453 65.45227882 79.47564697 70.26150513 C82.15628755 71.4704612 84.51283322 71.2673832 87.41363525 71.13552856 C90.18038286 65.32535859 91.76216749 59.37732507 93.35113525 53.14724731 C94.41363525 50.13552856 94.41363525 50.13552856 97.41363525 48.13552856 C99.98045537 47.94094242 102.41308675 47.85643057 104.97613525 47.88552856 C106.00384033 47.873927 106.00384033 47.873927 107.05230713 47.86209106 C112.16024855 47.88214186 112.16024855 47.88214186 114.41363525 50.13552856 C115.32626558 52.1939222 116.17186737 54.28242808 116.97613525 56.38552856 C117.41054932 57.50443481 117.84496338 58.62334106 118.2925415 59.77615356 C119.33969312 62.91395982 119.97242596 65.8636394 120.41363525 69.13552856 C127.52822861 70.063519 131.5933479 66.92593058 137.41363525 63.13552856 C142.7524122 60.07067513 142.7524122 60.07067513 145.2456665 60.31521606 C150.20796797 62.19284364 154.07486515 66.11237455 157.41363525 70.13552856 C158.1112052 76.31400524 155.28441488 80.99141608 152.472229 86.42459106 C151.27110422 89.50053425 151.22643262 91.86188246 151.41363525 95.13552856 C157.22380523 97.90227617 163.17183875 99.4840608 169.4019165 101.07302856 C172.41363525 102.13552856 172.41363525 102.13552856 174.41363525 105.13552856 C174.60822139 107.70234868 174.69273325 110.13498006 174.66363525 112.69802856 C174.67136963 113.38316528 174.679104 114.068302 174.68707275 114.77420044 C174.66702195 119.88214186 174.66702195 119.88214186 172.41363525 122.13552856 C170.35524162 123.04815889 168.26673574 123.89376068 166.16363525 124.69802856 C165.044729 125.13244263 163.92582275 125.56685669 162.77301025 126.01443481 C159.635204 127.06158644 156.68552442 127.69431927 153.41363525 128.13552856 C152.48564482 135.25012192 155.62323324 139.31524121 159.41363525 145.13552856 C162.47848869 150.47430551 162.47848869 150.47430551 162.23394775 152.96755981 C160.35632017 157.92986128 156.43678927 161.79675846 152.41363525 165.13552856 C146.23515858 165.83309851 141.55774774 163.00630819 136.12457275 160.19412231 C133.04862957 158.99299753 130.68728135 158.94832593 127.41363525 159.13552856 C124.64540813 164.94880552 123.10765536 170.87547264 121.5737915 177.12380981 C120.41363525 180.13552856 120.41363525 180.13552856 118.7300415 181.53787231 C115.53637608 182.36187031 112.58443138 182.39928972 109.28863525 182.38552856 C108.04855713 182.39068481 106.808479 182.39584106 105.53082275 182.40115356 C102.41363525 182.13552856 102.41363525 182.13552856 100.41363525 180.13552856 C99.30644738 177.49950354 98.27411961 174.87864032 97.28863525 172.19802856 C97.01148682 171.46906372 96.73433838 170.74009888 96.4487915 169.98904419 C95.30542333 166.91659423 94.41363525 164.44013483 94.41363525 161.13552856 C87.2990419 160.20753813 83.23392261 163.34512655 77.41363525 167.13552856 C72.07485831 170.200382 72.07485831 170.200382 69.581604 169.95584106 C64.61930254 168.07821348 60.75240536 164.15868258 57.41363525 160.13552856 C56.71606531 153.95705189 59.54285563 149.27964105 62.3550415 143.84646606 C63.55616629 140.77052288 63.60083789 138.40917467 63.41363525 135.13552856 C57.6003583 132.36730144 51.67369118 130.82954867 45.425354 129.29568481 C42.41363525 128.13552856 42.41363525 128.13552856 41.003479 126.45974731 C40.18114806 123.21943663 40.22682176 120.22345733 40.28863525 116.88552856 C40.30668213 115.62224731 40.324729 114.35896606 40.34332275 113.05740356 C40.36652588 112.09318481 40.389729 111.12896606 40.41363525 110.13552856 C39.09363525 110.13552856 37.77363525 110.13552856 36.41363525 110.13552856 C36.41585587 111.02280136 36.41807648 111.91007416 36.42036438 112.82423401 C36.44036486 121.16797513 36.45560814 129.51170825 36.46544743 137.8554678 C36.47067586 142.14552771 36.47777278 146.4355679 36.48907471 150.72561646 C36.499905 154.86232257 36.50591239 158.99900965 36.5085125 163.13572884 C36.51036649 164.7174516 36.51398661 166.29917328 36.51936531 167.88088799 C36.52657765 170.08875694 36.52762612 172.29654629 36.52716064 174.50442505 C36.52938126 175.76351181 36.53160187 177.02259857 36.53388977 178.31983948 C36.41363525 181.13552856 36.41363525 181.13552856 35.41363525 182.13552856 C32.3228206 182.23669777 29.2548097 182.27521414 26.16363525 182.26834106 C25.23518799 182.26929779 24.30674072 182.27025452 23.35015869 182.27124023 C21.38303561 182.27192212 19.41591029 182.27006728 17.4487915 182.26589966 C14.42660499 182.26055152 11.40456711 182.26584439 8.38238525 182.27224731 C6.47613492 182.27158653 4.56988469 182.27030537 2.66363525 182.26834106 C1.29803467 182.27137741 1.29803467 182.27137741 -0.09515381 182.2744751 C-6.47141506 182.25047825 -6.47141506 182.25047825 -7.58636475 181.13552856 C-7.68619039 178.81016001 -7.72079484 176.51444035 -7.71334839 174.18850708 C-7.71490838 173.4533188 -7.71646837 172.71813051 -7.71807563 171.9606638 C-7.7220883 169.47856753 -7.71889497 166.99653162 -7.71575928 164.51443481 C-7.7171132 162.742533 -7.71889308 160.97063146 -7.72106934 159.19873047 C-7.72564474 154.37242321 -7.72385367 149.54613722 -7.72069025 144.71982956 C-7.7181672 139.68074229 -7.72050403 134.64165691 -7.72207642 129.60256958 C-7.72389827 121.13861767 -7.72149138 112.67467447 -7.71673584 104.21072388 C-7.71129319 94.41036945 -7.71305583 84.61003582 -7.71856225 74.80968189 C-7.72309292 66.41141233 -7.72374415 58.01314904 -7.72112358 49.61487865 C-7.71956055 44.59190212 -7.71936774 39.56893538 -7.72266006 34.54595947 C-7.72553812 29.82483059 -7.72356431 25.10372865 -7.71776581 20.38260269 C-7.71643785 18.64468557 -7.71683292 16.90676619 -7.71902847 15.16884995 C-7.7217386 12.80671883 -7.71836057 10.44467548 -7.71334839 8.08255005 C-7.71557911 7.38577432 -7.71780983 6.68899858 -7.72010815 5.97110844 C-7.69275947 -0.6190689 -6.39864366 0.02102495 0 0 Z M92.41363525 104.13552856 C91.75363525 104.79552856 91.09363525 105.45552856 90.41363525 106.13552856 C88.62923083 111.42054804 88.78910271 117.5806227 90.10113525 122.94802856 C91.81991542 125.81266218 93.96885246 127.87410448 96.41363525 130.13552856 C97.07363525 130.79552856 97.73363525 131.45552856 98.41363525 132.13552856 C104.60304145 134.49090513 110.24096091 134.489311 116.41363525 132.13552856 C119.30365685 130.39143106 119.30365685 130.39143106 121.41363525 128.13552856 C121.97051025 127.57865356 122.52738525 127.02177856 123.10113525 126.44802856 C126.45425749 120.54014653 126.946657 114.64645472 125.17926025 108.14334106 C123.48211424 103.69266222 120.3985043 100.62607172 116.41363525 98.13552856 C106.87674985 95.16166107 99.12070931 96.8846377 92.41363525 104.13552856 Z " fill="#290000" transform="translate(12.58636474609375,4.864471435546875)"/>
<path d="M0 0 C29.7 0 59.4 0 90 0 C90 9.9 90 19.8 90 30 C70.2 30 50.4 30 30 30 C30 41.88 30 53.76 30 66 C41.88 66 53.76 66 66 66 C66 75.9 66 85.8 66 96 C54.12 96 42.24 96 30 96 C30 119.76 30 143.52 30 168 C20.1 168 10.2 168 0 168 C0 112.56 0 57.12 0 0 Z " fill="#DD1F1F" transform="translate(12,12)"/>
<path d="M0 0 C2.64 0 5.28 0 8 0 C10.27820211 4.3936755 12.24182389 8.63942046 13.875 13.3125 C15.24543008 16.79746086 15.76886775 17.82916312 18.875 20.125 C23.86892099 21.52329788 26.80362566 21.60884529 31.5078125 19.21484375 C32.72147603 18.46848017 33.92716403 17.7090094 35.125 16.9375 C41.31410363 12.96254491 41.31410363 12.96254491 44.2890625 13.125 C46.66041159 14.33774474 48.22724064 16.03730213 50 18 C48.58272796 22.63834485 47.0915157 26.98974228 44.75 31.25 C43.46350573 33.744123 42.99439656 34.76465565 43.0625 37.625 C44.20219009 40.5122149 45.58793218 43.23725862 47 46 C47 46.66 47 47.32 47 48 C47.7734375 48.10957031 48.546875 48.21914062 49.34375 48.33203125 C55.60651229 49.28539729 61.16421443 50.5310138 67 53 C67 55.64 67 58.28 67 61 C62.41663367 63.42140108 58.0752187 65.32275751 53.125 66.875 C48.88416997 68.29735257 48.88416997 68.29735257 46.3125 71.875 C45.54532316 79.54676841 47.11428825 83.53541122 51.24414062 89.87695312 C52.97826368 92.67917321 54.02448264 94.46657512 53.87109375 97.80859375 C53 100 53 100 51 102 C44.7599112 102.72621723 40.59704006 100.03844603 35.21875 97.21484375 C31.5490434 95.82979672 29.74837798 96.0563524 26 97 C24.948125 97.103125 23.89625 97.20625 22.8125 97.3125 C19.80643653 98.71818566 19.80643653 98.71818566 19.0625 101.51953125 C18.55336655 103.62766194 18.08455179 105.74585774 17.65234375 107.87109375 C15.6829653 117.3170347 15.6829653 117.3170347 13 120 C10.66702567 120.04092937 8.33294775 120.04241723 6 120 C2.98421843 113.73822453 0.41504672 107.81795238 -1 101 C-2.19625 100.67 -3.3925 100.34 -4.625 100 C-5.63433594 99.7215625 -5.63433594 99.7215625 -6.6640625 99.4375 C-12.10738864 98.41801417 -15.25740874 98.76761202 -19.953125 101.89257812 C-20.78070313 102.47168945 -20.78070313 102.47168945 -21.625 103.0625 C-27.32758381 107.03722719 -27.32758381 107.03722719 -30.2578125 106.875 C-32.65335486 105.67185765 -34.21602039 103.97512028 -36 102 C-34.58669747 97.37464628 -33.10936977 93.04789642 -30.75 88.8125 C-28.85175867 85.15367606 -28.77324793 83.03075681 -30 79 C-30.18691406 77.99710937 -30.37382813 76.99421875 -30.56640625 75.9609375 C-31.76492513 72.63380145 -31.76492513 72.63380145 -35.51953125 71.609375 C-36.9449655 71.29644246 -38.37661917 71.01083677 -39.8125 70.75 C-41.2363185 70.45621664 -42.65951615 70.15940594 -44.08203125 69.859375 C-45.09064209 69.65344727 -45.09064209 69.65344727 -46.11962891 69.44335938 C-48.52710376 68.87571794 -50.74571112 68.00977969 -53 67 C-53 64.36 -53 61.72 -53 59 C-51.75264433 58.3490741 -50.50198168 57.70448331 -49.25 57.0625 C-48.20585938 56.52302734 -48.20585938 56.52302734 -47.140625 55.97265625 C-40.8545107 53.11637439 -36.52562833 54 -29 54 C-29 42.45 -29 30.9 -29 19 C-24.05 20.98 -24.05 20.98 -19 23 C-13.45735577 24.10852885 -13.31846641 23.84109633 -9 21 C-8.01 21 -7.02 21 -6 21 C-5.73445313 19.90300781 -5.46890625 18.80601563 -5.1953125 17.67578125 C-4.83873185 16.22130753 -4.4819504 14.76688302 -4.125 13.3125 C-3.95097656 12.59126953 -3.77695313 11.87003906 -3.59765625 11.12695312 C-2.64902134 7.27971155 -1.59509159 3.64284431 0 0 Z M-8 49 C-8.66 49.66 -9.32 50.32 -10 51 C-11.78440442 56.28501947 -11.62453254 62.44509414 -10.3125 67.8125 C-8.59371983 70.67713361 -6.4447828 72.73857591 -4 75 C-3.34 75.66 -2.68 76.32 -2 77 C4.1894062 79.35537657 9.82732566 79.35378243 16 77 C18.8900216 75.25590249 18.8900216 75.25590249 21 73 C21.556875 72.443125 22.11375 71.88625 22.6875 71.3125 C26.04062224 65.40461796 26.53302174 59.51092615 24.765625 53.0078125 C23.06847898 48.55713366 19.98486905 45.49054315 16 43 C6.46311459 40.02613251 -1.29292595 41.74910913 -8 49 Z " fill="#5F8BBD" transform="translate(113,60)"/>
<path d="M0 0 C1.02770508 -0.01160156 1.02770508 -0.01160156 2.07617188 -0.0234375 C7.1841133 -0.0033867 7.1841133 -0.0033867 9.4375 2.25 C10.35013033 4.30839364 11.19573212 6.39689951 12 8.5 C12.65162109 10.17835937 12.65162109 10.17835937 13.31640625 11.890625 C14.36355787 15.02843125 14.9962907 17.97811084 15.4375 21.25 C22.55209336 22.17799044 26.61721264 19.04040201 32.4375 15.25 C37.77627695 12.18514657 37.77627695 12.18514657 40.26953125 12.4296875 C45.23183271 14.30731508 49.0987299 18.22684599 52.4375 22.25 C53.13506995 28.42847667 50.30827963 33.10588752 47.49609375 38.5390625 C46.29496896 41.61500568 46.25029736 43.9763539 46.4375 47.25 C52.24766998 50.01674761 58.19570349 51.59853224 64.42578125 53.1875 C67.4375 54.25 67.4375 54.25 69.4375 57.25 C69.63208614 59.81682012 69.716598 62.24945149 69.6875 64.8125 C69.69523438 65.49763672 69.70296875 66.18277344 69.7109375 66.88867188 C69.6908867 71.9966133 69.6908867 71.9966133 67.4375 74.25 C65.37910636 75.16263033 63.29060049 76.00823212 61.1875 76.8125 C59.50914062 77.46412109 59.50914062 77.46412109 57.796875 78.12890625 C54.65906875 79.17605787 51.70938916 79.8087907 48.4375 80.25 C47.50950956 87.36459336 50.64709799 91.42971264 54.4375 97.25 C57.50235343 102.58877695 57.50235343 102.58877695 57.2578125 105.08203125 C55.38018492 110.04433271 51.46065401 113.9112299 47.4375 117.25 C41.25902333 117.94756995 36.58161248 115.12077963 31.1484375 112.30859375 C28.07249432 111.10746896 25.7111461 111.06279736 22.4375 111.25 C19.66927288 117.06327696 18.13152011 122.98994407 16.59765625 129.23828125 C15.4375 132.25 15.4375 132.25 13.75390625 133.65234375 C10.56024082 134.47634174 7.60829613 134.51376115 4.3125 134.5 C3.07242188 134.50515625 1.83234375 134.5103125 0.5546875 134.515625 C-2.5625 134.25 -2.5625 134.25 -4.5625 132.25 C-5.66968788 129.61397498 -6.70201564 126.99311176 -7.6875 124.3125 C-7.96464844 123.58353516 -8.24179688 122.85457031 -8.52734375 122.10351562 C-9.67071193 119.03106567 -10.5625 116.55460627 -10.5625 113.25 C-17.67709336 112.32200956 -21.74221264 115.45959799 -27.5625 119.25 C-32.90127695 122.31485343 -32.90127695 122.31485343 -35.39453125 122.0703125 C-40.35683271 120.19268492 -44.2237299 116.27315401 -47.5625 112.25 C-48.26006995 106.07152333 -45.43327963 101.39411248 -42.62109375 95.9609375 C-41.41996896 92.88499432 -41.37529736 90.5236461 -41.5625 87.25 C-47.37577696 84.48177288 -53.30244407 82.94402011 -59.55078125 81.41015625 C-62.5625 80.25 -62.5625 80.25 -63.96875 78.5703125 C-64.79194298 75.353361 -64.78780939 72.37941457 -64.75 69.0625 C-64.74355469 67.81082031 -64.73710938 66.55914062 -64.73046875 65.26953125 C-64.5625 62.25 -64.5625 62.25 -63.5625 61.25 C-62.21982587 61.16368126 -60.87275678 61.14293527 -59.52734375 61.15234375 C-58.71845703 61.15556641 -57.90957031 61.15878906 -57.07617188 61.16210938 C-56.22603516 61.17048828 -55.37589844 61.17886719 -54.5 61.1875 C-53.64599609 61.19201172 -52.79199219 61.19652344 -51.91210938 61.20117188 C-49.79554337 61.21299627 -47.67901315 61.23093231 -45.5625 61.25 C-49.16896886 63.08515008 -52.83673485 64.67371474 -56.5625 66.25 C-56.5625 68.89 -56.5625 71.53 -56.5625 74.25 C-55.29792969 74.57613281 -54.03335938 74.90226562 -52.73046875 75.23828125 C-51.07017008 75.67915152 -49.41002152 76.12058733 -47.75 76.5625 C-46.91662109 76.77583984 -46.08324219 76.98917969 -45.22460938 77.20898438 C-44.42216797 77.42490234 -43.61972656 77.64082031 -42.79296875 77.86328125 C-42.05457764 78.05704346 -41.31618652 78.25080566 -40.55541992 78.45043945 C-37.13180489 79.82399565 -35.73218882 81.97728582 -33.8125 85.0625 C-32.32067015 88.86666611 -32.39550391 90.36001305 -33.5625 94.25 C-34.51264003 96.27008031 -35.5290576 98.24233961 -36.57421875 100.21484375 C-37.99965314 103.15022445 -38.77237609 106.08950436 -39.5625 109.25 C-37.83394074 111.39567913 -37.83394074 111.39567913 -35.5625 113.25 C-31.75859538 112.92608672 -29.04797626 110.6849724 -25.9375 108.625 C-20.81030026 105.5599625 -17.58789791 104.58230669 -11.71875 105.58984375 C-6.11335802 107.30598731 -6.11335802 107.30598731 -4.46582031 110.12939453 C-4.19350586 110.87302246 -3.92119141 111.61665039 -3.640625 112.3828125 C-3.33769531 113.18847656 -3.03476563 113.99414062 -2.72265625 114.82421875 C-2.42230469 115.66597656 -2.12195313 116.50773437 -1.8125 117.375 C-1.49667969 118.22449219 -1.18085937 119.07398438 -0.85546875 119.94921875 C-0.07832841 122.04514269 0.68531338 124.14501908 1.4375 126.25 C3.7475 126.25 6.0575 126.25 8.4375 126.25 C10.44277104 121.49964918 12.39954289 116.86331595 13.5 111.8125 C14.79070569 106.90781837 16.0681814 106.10202046 20.25 103.5 C24.14225799 101.97362432 25.44130743 102.04360224 29.4375 103.25 C32.20651503 104.51240596 34.94205652 105.81481099 37.65625 107.19140625 C40.81154898 108.39236977 43.08810823 108.58399834 46.4375 108.25 C47.0975 107.59 47.7575 106.93 48.4375 106.25 C48.17619472 101.38834641 46.489181 98.42052929 43.8125 94.4375 C40.90462621 89.65050941 39.70162683 86.70185472 40.77734375 81.1875 C42.64229886 75.71402228 42.64229886 75.71402228 45.31689453 74.15332031 C46.06052246 73.88100586 46.80415039 73.60869141 47.5703125 73.328125 C48.77880859 72.87373047 48.77880859 72.87373047 50.01171875 72.41015625 C50.85347656 72.10980469 51.69523437 71.80945313 52.5625 71.5 C53.41199219 71.18417969 54.26148438 70.86835937 55.13671875 70.54296875 C57.23264269 69.76582841 59.33251908 69.00218662 61.4375 68.25 C61.4375 65.61 61.4375 62.97 61.4375 60.25 C60.61342651 60.09349976 60.61342651 60.09349976 59.77270508 59.93383789 C44.20394707 56.83321756 44.20394707 56.83321756 40.02734375 53.08984375 C38.18087618 49.8652546 37.30007518 47.64521126 37.66796875 43.91015625 C38.83438059 39.87804223 40.60248655 36.1365624 42.35351562 32.33398438 C43.85081551 28.98046768 44.4375 27.00468883 44.4375 23.25 C42.15855578 21.81510919 40.87981203 21.20744077 38.1640625 21.46875 C33.78822131 22.72257269 30.27912873 25.31285228 26.47265625 27.75390625 C23.10747309 29.41267736 21.13768235 29.61950503 17.4375 29.25 C12.83493168 27.68512677 10.60842027 25.78194506 8.3828125 21.43359375 C6.514973 17.11903887 4.95017621 12.69952097 3.4375 8.25 C0.7975 8.25 -1.8425 8.25 -4.5625 8.25 C-4.70872803 8.7847998 -4.85495605 9.31959961 -5.00561523 9.87060547 C-5.66825521 12.28933339 -6.33408806 14.70717096 -7 17.125 C-7.23009766 17.96675781 -7.46019531 18.80851562 -7.69726562 19.67578125 C-7.91962891 20.48144531 -8.14199219 21.28710938 -8.37109375 22.1171875 C-8.57532959 22.86081543 -8.77956543 23.60444336 -8.98999023 24.37060547 C-9.71446775 26.74886898 -10.12742473 27.96232173 -12.234375 29.35546875 C-12.92015625 29.71253906 -13.6059375 30.06960937 -14.3125 30.4375 C-14.98796875 30.80230469 -15.6634375 31.16710937 -16.359375 31.54296875 C-20.09736531 32.74257202 -22.74723405 31.61300163 -26.23828125 30.05859375 C-27.10839844 29.60613281 -27.97851562 29.15367188 -28.875 28.6875 C-30.19951172 28.00494141 -30.19951172 28.00494141 -31.55078125 27.30859375 C-32.21464844 26.95925781 -32.87851563 26.60992187 -33.5625 26.25 C-33.5625 23.94 -33.5625 21.63 -33.5625 19.25 C-32.58410156 19.683125 -32.58410156 19.683125 -31.5859375 20.125 C-26.77008165 22.17067328 -22.9033982 23.81219981 -17.5625 23.25 C-14.79575239 17.43983002 -13.21396776 11.49179651 -11.625 5.26171875 C-9.56253354 -0.58446375 -5.3790673 -0.06106794 0 0 Z " fill="#020439" transform="translate(117.5625,52.75)"/>
<path d="M0 0 C7.40182439 5.21590549 12.75873478 11.09125232 15 20 C16.31855535 31.20178103 14.89337824 40.38605203 7.875 49.3125 C2.84812188 54.68756016 -4.61984039 58.65254911 -12.00390625 59.23828125 C-22.86266803 59.46475378 -31.09214019 57.77065159 -39.17578125 50.1953125 C-45.44024231 42.65649641 -48.63900416 33.74481346 -48 24 C-46.08306249 14.20412441 -41.53155108 5.91600264 -33.19140625 0.21875 C-22.71085575 -5.61000536 -10.42893474 -6.06714757 0 0 Z M-31 17 C-31.66 17.66 -32.32 18.32 -33 19 C-34.78440442 24.28501947 -34.62453254 30.44509414 -33.3125 35.8125 C-31.59371983 38.67713361 -29.4447828 40.73857591 -27 43 C-26.34 43.66 -25.68 44.32 -25 45 C-18.8105938 47.35537657 -13.17267434 47.35378243 -7 45 C-4.1099784 43.25590249 -4.1099784 43.25590249 -2 41 C-1.443125 40.443125 -0.88625 39.88625 -0.3125 39.3125 C3.04062224 33.40461796 3.53302174 27.51092615 1.765625 21.0078125 C0.06847898 16.55713366 -3.01513095 13.49054315 -7 11 C-16.53688541 8.02613251 -24.29292595 9.74910913 -31 17 Z " fill="#6D98C8" transform="translate(136,92)"/>
<path d="M0 0 C8.62729885 -0.47862962 13.81927998 2.10728781 20.31640625 7.59375 C26.21141641 14.66776219 27.22482976 19.24431627 26.94921875 28.55078125 C26.10674177 35.49013108 23.1545274 39.94659935 18.06640625 44.59375 C10.53208676 50.40179072 4.57668836 50.89473272 -4.703125 50.0078125 C-11.5294574 48.79603752 -16.0956796 44.47936099 -20.109375 39.02734375 C-24.15871245 32.10354705 -24.73925727 25.07410207 -23.49609375 17.21875 C-20.76200479 9.57152373 -15.7141728 4.74904684 -8.49609375 1.21875 C-5.58833088 0.33377869 -3.00593165 0.26343063 0 0 Z M-13.49609375 14.21875 C-14.15609375 14.87875 -14.81609375 15.53875 -15.49609375 16.21875 C-17.28049817 21.50376947 -17.12062629 27.66384414 -15.80859375 33.03125 C-14.08981358 35.89588361 -11.94087655 37.95732591 -9.49609375 40.21875 C-8.83609375 40.87875 -8.17609375 41.53875 -7.49609375 42.21875 C-1.30668755 44.57412657 4.33123191 44.57253243 10.50390625 42.21875 C13.39392785 40.47465249 13.39392785 40.47465249 15.50390625 38.21875 C16.06078125 37.661875 16.61765625 37.105 17.19140625 36.53125 C20.54452849 30.62336796 21.03692799 24.72967615 19.26953125 18.2265625 C17.57238523 13.77588366 14.4887753 10.70929315 10.50390625 8.21875 C0.96702084 5.24488251 -6.7890197 6.96785913 -13.49609375 14.21875 Z " fill="#020439" transform="translate(118.49609375,94.78125)"/>
</svg>
