<?xml version="1.0" encoding="UTF-8"?>
<svg version="1.1" xmlns="http://www.w3.org/2000/svg" width="1200" height="1200">
<path d="M0 0 C0.65891689 1.84242548 1.31775306 3.68487984 1.9765625 5.52734375 C2.39776367 6.70490234 2.81896484 7.88246094 3.25292969 9.09570312 C4.17037656 11.66244642 5.0848588 14.23021973 5.99707031 16.79882812 C7.98165881 22.38253622 9.96977292 27.96239268 12.0703125 33.50390625 C12.3595459 34.27935791 12.6487793 35.05480957 12.94677734 35.85375977 C13.46865537 37.24823688 14.00222277 38.6384148 14.54931641 40.02319336 C16.19512212 44.47203025 16.19512212 44.47203025 15.27709961 46.95605469 C13.84482424 49.24835241 12.26798474 50.94177483 10.33203125 52.828125 C9.23858398 53.90513672 9.23858398 53.90513672 8.12304688 55.00390625 C6.97932617 56.11572266 6.97932617 56.11572266 5.8125 57.25 C0.93120614 62.01698776 -3.77374778 66.81924132 -8.2199707 71.99511719 C-12.15149788 76.42327535 -16.46075357 80.49723383 -20.68359375 84.64453125 C-24.7182249 88.63538702 -28.53971738 92.71652009 -32.24023438 97.01757812 C-35.96391909 101.21240607 -40.03655539 105.07416927 -44.0390625 109 C-47.30665302 112.22974198 -50.47152333 115.48511625 -53.46875 118.96875 C-57.92560605 124.14314977 -62.8144639 128.86250569 -67.68359375 133.64453125 C-71.7182249 137.63538702 -75.53971738 141.71652009 -79.24023438 146.01757812 C-82.96391909 150.21240607 -87.03655539 154.07416927 -91.0390625 158 C-94.30665302 161.22974198 -97.47152333 164.48511625 -100.46875 167.96875 C-104.92560605 173.14314977 -109.8144639 177.86250569 -114.68359375 182.64453125 C-118.07918561 186.00328124 -121.38417769 189.37852424 -124.5 193 C-128.94435252 198.16560744 -133.82507088 202.87292293 -138.68359375 207.64453125 C-142.7182249 211.63538702 -146.53971738 215.71652009 -150.24023438 220.01757812 C-153.96391909 224.21240607 -158.03655539 228.07416927 -162.0390625 232 C-165.30665302 235.22974198 -168.47152333 238.48511625 -171.46875 241.96875 C-175.92560605 247.14314977 -180.8144639 251.86250569 -185.68359375 256.64453125 C-189.07918561 260.00328124 -192.38417769 263.37852424 -195.5 267 C-199.94435252 272.16560744 -204.82507088 276.87292293 -209.68359375 281.64453125 C-213.7182249 285.63538702 -217.53971738 289.71652009 -221.24023438 294.01757812 C-224.96391909 298.21240607 -229.03655539 302.07416927 -233.0390625 306 C-236.30665302 309.22974198 -239.47152333 312.48511625 -242.46875 315.96875 C-246.92560605 321.14314977 -251.8144639 325.86250569 -256.68359375 330.64453125 C-260.7182249 334.63538702 -264.53971738 338.71652009 -268.24023438 343.01757812 C-271.96391909 347.21240607 -276.03655539 351.07416927 -280.0390625 355 C-283.30665302 358.22974198 -286.47152333 361.48511625 -289.46875 364.96875 C-293.92560605 370.14314977 -298.8144639 374.86250569 -303.68359375 379.64453125 C-307.07918561 383.00328124 -310.38417769 386.37852424 -313.5 390 C-317.94435252 395.16560744 -322.82507088 399.87292293 -327.68359375 404.64453125 C-331.7182249 408.63538702 -335.53971738 412.71652009 -339.24023438 417.01757812 C-342.96391909 421.21240607 -347.03655539 425.07416927 -351.0390625 429 C-354.30665302 432.22974198 -357.47152333 435.48511625 -360.46875 438.96875 C-364.92560605 444.14314977 -369.8144639 448.86250569 -374.68359375 453.64453125 C-378.07918561 457.00328124 -381.38417769 460.37852424 -384.5 464 C-388.94435252 469.16560744 -393.82507088 473.87292293 -398.68359375 478.64453125 C-402.7182249 482.63538702 -406.53971738 486.71652009 -410.24023438 491.01757812 C-413.96391909 495.21240607 -418.03655539 499.07416927 -422.0390625 503 C-425.30665302 506.22974198 -428.47152333 509.48511625 -431.46875 512.96875 C-435.92560605 518.14314977 -440.8144639 522.86250569 -445.68359375 527.64453125 C-449.7182249 531.63538702 -453.53971738 535.71652009 -457.24023438 540.01757812 C-460.96391909 544.21240607 -465.03655539 548.07416927 -469.0390625 552 C-472.30665302 555.22974198 -475.47152333 558.48511625 -478.46875 561.96875 C-482.92560605 567.14314977 -487.8144639 571.86250569 -492.68359375 576.64453125 C-496.07918561 580.00328124 -499.38417769 583.37852424 -502.5 587 C-506.94435252 592.16560744 -511.82507088 596.87292293 -516.68359375 601.64453125 C-520.7182249 605.63538702 -524.53971738 609.71652009 -528.24023438 614.01757812 C-531.96391909 618.21240607 -536.03655539 622.07416927 -540.0390625 626 C-543.30665302 629.22974198 -546.47152333 632.48511625 -549.46875 635.96875 C-553.92560605 641.14314977 -558.8144639 645.86250569 -563.68359375 650.64453125 C-567.07918561 654.00328124 -570.38417769 657.37852424 -573.5 661 C-577.94435252 666.16560744 -582.82507088 670.87292293 -587.68359375 675.64453125 C-591.7182249 679.63538702 -595.53971738 683.71652009 -599.24023438 688.01757812 C-602.96391909 692.21240607 -607.03655539 696.07416927 -611.0390625 700 C-614.30665302 703.22974198 -617.47152333 706.48511625 -620.46875 709.96875 C-624.92560605 715.14314977 -629.8144639 719.86250569 -634.68359375 724.64453125 C-638.7182249 728.63538702 -642.53971738 732.71652009 -646.24023438 737.01757812 C-649.96391909 741.21240607 -654.03655539 745.07416927 -658.0390625 749 C-661.30665302 752.22974198 -664.47152333 755.48511625 -667.46875 758.96875 C-671.92560605 764.14314977 -676.8144639 768.86250569 -681.68359375 773.64453125 C-685.07918561 777.00328124 -688.38417769 780.37852424 -691.5 784 C-695.94435252 789.16560744 -700.82507088 793.87292293 -705.68359375 798.64453125 C-709.7182249 802.63538702 -713.53971738 806.71652009 -717.24023438 811.01757812 C-720.96391909 815.21240607 -725.03655539 819.07416927 -729.0390625 823 C-732.29888808 826.22206699 -735.45666026 829.46871703 -738.4453125 832.9453125 C-742.35923151 837.49043708 -746.59916174 841.67288309 -750.875 845.875 C-752.39550816 847.37008161 -753.91385411 848.86736644 -755.4296875 850.3671875 C-756.09210449 851.01800293 -756.75452148 851.66881836 -757.43701172 852.33935547 C-759.08544452 853.93142515 -759.08544452 853.93142515 -760 856 C-754.82804951 856.81286269 -749.72261794 857.2666739 -744.49609375 857.53515625 C-743.69575211 857.57813339 -742.89541046 857.62111053 -742.07081604 857.66539001 C-740.38249824 857.75513574 -738.69409513 857.84328915 -737.00561523 857.92993164 C-734.4689422 858.06087693 -731.93273488 858.19902949 -729.39648438 858.33789062 C-725.34645754 858.55557297 -721.29596345 858.73822461 -717.24337769 858.90093994 C-715.12383913 858.99453168 -713.00840156 859.12110842 -710.89086914 859.25146484 C-703.5875768 859.73407528 -703.5875768 859.73407528 -697.25390625 856.65625 C-695.82697977 855.14309985 -695.82697977 855.14309985 -694.5625 853.5 C-694.11197266 852.9946875 -693.66144531 852.489375 -693.19726562 851.96875 C-691.75954842 850.34191299 -690.37895293 848.67683698 -689 847 C-682.26599882 838.92192766 -674.72371357 831.65656386 -667.25195312 824.27246094 C-659.65558685 816.84441132 -659.65558685 816.84441132 -652.5 809 C-646.85188059 802.36415527 -640.44498609 796.39283821 -634.25195312 790.27246094 C-626.65558685 782.84441132 -626.65558685 782.84441132 -619.5 775 C-613.85188059 768.36415527 -607.44498609 762.39283821 -601.25195312 756.27246094 C-595.61067569 750.69146712 -590.02926538 745.15191709 -584.8828125 739.10546875 C-579.81032356 733.43312116 -574.23720062 728.19145232 -568.82470703 722.84521484 C-561.46379775 715.64067071 -561.46379775 715.64067071 -554.53125 708.03125 C-548.86910022 701.38738438 -542.45586116 695.40358569 -536.25195312 689.27246094 C-528.65558685 681.84441132 -528.65558685 681.84441132 -521.5 674 C-515.85188059 667.36415527 -509.44498609 661.39283821 -503.25195312 655.27246094 C-497.61067569 649.69146712 -492.02926538 644.15191709 -486.8828125 638.10546875 C-481.81032356 632.43312116 -476.23720062 627.19145232 -470.82470703 621.84521484 C-463.46379775 614.64067071 -463.46379775 614.64067071 -456.53125 607.03125 C-450.86910022 600.38738438 -444.45586116 594.40358569 -438.25195312 588.27246094 C-430.65558685 580.84441132 -430.65558685 580.84441132 -423.5 573 C-417.85188059 566.36415527 -411.44498609 560.39283821 -405.25195312 554.27246094 C-397.65558685 546.84441132 -397.65558685 546.84441132 -390.5 539 C-384.85188059 532.36415527 -378.44498609 526.39283821 -372.25195312 520.27246094 C-366.61067569 514.69146712 -361.02926538 509.15191709 -355.8828125 503.10546875 C-350.81032356 497.43312116 -345.23720062 492.19145232 -339.82470703 486.84521484 C-332.46379775 479.64067071 -332.46379775 479.64067071 -325.53125 472.03125 C-319.86910022 465.38738438 -313.45586116 459.40358569 -307.25195312 453.27246094 C-299.65558685 445.84441132 -299.65558685 445.84441132 -292.5 438 C-286.85188059 431.36415527 -280.44498609 425.39283821 -274.25195312 419.27246094 C-268.61067569 413.69146712 -263.02926538 408.15191709 -257.8828125 402.10546875 C-252.81032356 396.43312116 -247.23720062 391.19145232 -241.82470703 385.84521484 C-234.46379775 378.64067071 -234.46379775 378.64067071 -227.53125 371.03125 C-221.86910022 364.38738438 -215.45586116 358.40358569 -209.25195312 352.27246094 C-201.65558685 344.84441132 -201.65558685 344.84441132 -194.5 337 C-188.85188059 330.36415527 -182.44498609 324.39283821 -176.25195312 318.27246094 C-170.61067569 312.69146712 -165.02926538 307.15191709 -159.8828125 301.10546875 C-154.81032356 295.43312116 -149.23720062 290.19145232 -143.82470703 284.84521484 C-137.65377271 278.7430677 -131.59244809 272.64701825 -126 266 C-124.39406316 264.11044523 -122.91613385 262.60540944 -121 261 C-117.58963477 261.32250939 -116.02311521 262.66429761 -113.75 265.125 C-110.73090646 268.27927683 -107.59200489 271.18227271 -104.28515625 274.03125 C-103.53105469 274.6809375 -102.77695313 275.330625 -102 276 C-101.3614767 276.46049371 -100.72295339 276.92098741 -100.0650809 277.39543547 C-94.47046848 281.69447205 -94.47046848 281.69447205 -93.23981937 285.10946555 C-92.93938853 287.54523999 -92.8821866 289.87771873 -92.91226482 292.33191872 C-92.891949 293.25582771 -92.87163318 294.1797367 -92.85070172 295.13164294 C-92.79234334 298.23344714 -92.79074844 301.33265192 -92.78898621 304.43496704 C-92.75900367 306.67920059 -92.7256333 308.923391 -92.68916398 311.16752851 C-92.59935464 317.3397465 -92.55990243 323.51141871 -92.52909029 329.68417597 C-92.49183062 335.65725732 -92.41750056 341.62985383 -92.34541118 347.60259132 C-92.1548472 363.61148076 -92.04812672 379.62060361 -91.95747002 395.63032358 C-91.92733218 400.93986961 -91.8944006 406.24939211 -91.8596518 411.55890989 C-91.67479655 439.83910969 -91.51225094 468.11931463 -91.42589855 496.40000343 C-91.40557824 502.95124025 -91.38497052 509.50247612 -91.36401367 516.05371094 C-91.36143868 516.86756129 -91.35886368 517.68141164 -91.35621066 518.51992412 C-91.27195433 544.84383568 -91.0473305 571.16399958 -90.74073822 597.48619464 C-90.42564907 624.58779345 -90.23206202 651.68742412 -90.19640929 678.79090854 C-90.19135138 682.63200434 -90.18504306 686.47309721 -90.17803383 690.31418991 C-90.17671118 691.07001937 -90.17538853 691.82584883 -90.1740258 692.60458221 C-90.14960781 704.69332811 -90.0018832 716.7774517 -89.8075251 728.86452487 C-89.61447396 741.05911094 -89.56160239 753.24838204 -89.64434346 765.4442568 C-89.68545999 772.03525918 -89.66602993 778.6147836 -89.48173141 785.20450401 C-88.87119676 808.2619006 -88.43383873 828.14877763 -104.66057334 845.99666076 C-112.17236151 853.77115172 -120.35693084 860.70183302 -128.8884022 867.32195477 C-134.10634273 871.46854945 -139.04421847 875.90689407 -143.6875 880.6875 C-146.63346446 883.71963527 -149.68369913 886.37963255 -153 889 C-133.81256612 890.37709471 -114.62333391 891.57427055 -95.41458106 892.61629152 C-91.93262126 892.80563333 -88.45079325 892.99737099 -84.96894836 893.18881226 C-78.42867315 893.54807078 -71.88828868 893.90529587 -65.34785825 894.26171625 C-57.87928132 894.66882081 -50.4108354 895.07830521 -42.94239748 895.48795056 C-27.62840527 896.32787473 -12.31425809 897.16493687 3 898 C3.3782344 917.20534706 3.65804071 936.40991234 3.82899475 955.61824512 C3.91057769 964.54260548 4.02163667 973.46459573 4.20703125 982.38745117 C5.76908929 1059.03960928 5.76908929 1059.03960928 -13 1094 C-13.33 1094.66 -13.66 1095.32 -14 1096 C-27.32118644 1095.34291426 -40.59666575 1094.34981012 -53.88560486 1093.22279358 C-56.04388012 1093.04165194 -58.20217384 1092.86073015 -60.36048418 1092.68000692 C-66.2430391 1092.18677703 -72.12532118 1091.69035983 -78.0075587 1091.19336092 C-84.36916948 1090.65641102 -90.73102782 1090.12240838 -97.09284973 1089.58796692 C-111.69400452 1088.36072642 -126.29478955 1087.12912194 -140.89551306 1085.89676258 C-148.11401222 1085.28752342 -155.33256272 1084.67889371 -162.55111795 1084.07031937 C-187.27481219 1081.98591313 -211.99840291 1079.90028413 -236.7216711 1077.81083012 C-238.26992461 1077.67998476 -239.81817814 1077.54913966 -241.36643169 1077.41829481 C-242.13417387 1077.35341162 -242.90191606 1077.28852842 -243.69292316 1077.22167907 C-247.58230978 1076.89298078 -251.47169672 1076.56428628 -255.36108398 1076.2355957 C-256.51883494 1076.13775269 -256.51883494 1076.13775269 -257.6999748 1076.03793305 C-282.77914751 1073.91850804 -307.85890058 1071.8060525 -332.93900489 1069.69768204 C-359.4774486 1067.46668895 -386.01535618 1065.22942362 -412.55266386 1062.98495668 C-415.46231327 1062.7388888 -418.37196488 1062.49284692 -421.28161812 1062.24682426 C-421.99801709 1062.18624699 -422.71441607 1062.12566972 -423.4525241 1062.06325677 C-434.99351394 1061.0875232 -446.5349793 1060.11752901 -458.07662431 1059.14957974 C-469.6579729 1058.17815645 -481.23875447 1057.20021656 -492.81902485 1056.21601874 C-499.09546293 1055.68277022 -505.37210945 1055.15238292 -511.64941788 1054.62947083 C-517.38766538 1054.1513968 -523.12518626 1053.665433 -528.86221833 1053.17299371 C-530.94490902 1052.99565858 -533.02785521 1052.82129562 -535.11105954 1052.65009988 C-537.92815299 1052.41816706 -540.74414322 1052.17572046 -543.56010342 1051.93046665 C-544.79195342 1051.83288966 -544.79195342 1051.83288966 -546.04868928 1051.73334143 C-549.76758979 1051.39847566 -551.83485844 1051.11009437 -555 1049 C-552.00428676 1045.97489042 -549.00265195 1042.95572125 -546 1039.9375 C-545.16082031 1039.08994141 -544.32164062 1038.24238281 -543.45703125 1037.36914062 C-539.82417083 1033.72219935 -536.20912548 1030.11499054 -532.28125 1026.78515625 C-525.65127516 1021.09459426 -519.64118562 1014.70591079 -513.5 1008.5 C-499.2705857 994.12061446 -499.2705857 994.12061446 -493.17773438 988.95507812 C-487.3704852 983.74157461 -481.98758664 978.04542319 -476.5 972.5 C-462.2705857 958.12061446 -462.2705857 958.12061446 -456.17773438 952.95507812 C-450.3704852 947.74157461 -444.98758664 942.04542319 -439.5 936.5 C-425.2705857 922.12061446 -425.2705857 922.12061446 -419.17773438 916.95507812 C-413.3704852 911.74157461 -407.98758664 906.04542319 -402.5 900.5 C-388.2705857 886.12061446 -388.2705857 886.12061446 -382.17773438 880.95507812 C-376.3704852 875.74157461 -370.98758664 870.04542319 -365.5 864.5 C-351.2705857 850.12061446 -351.2705857 850.12061446 -345.17773438 844.95507812 C-339.3704852 839.74157461 -333.98758664 834.04542319 -328.5 828.5 C-325.95093376 825.92406781 -323.39838646 823.35165686 -320.84375 820.78125 C-320.27579712 820.20499878 -319.70784424 819.62874756 -319.12268066 819.03503418 C-314.10833641 813.99080141 -309.00923075 809.07471577 -303.14074707 805.02868652 C-293.11687928 798.11401046 -283.13747305 790.16156254 -280.72705078 777.62109375 C-278.81050075 763.53706347 -279.68890921 749.14386549 -280.35205078 734.99584961 C-280.60054106 729.12434415 -280.70778963 723.25028134 -280.828125 717.375 C-281.08318684 705.91003783 -281.49099323 694.45630722 -282 683 C-282.8971875 683.90242432 -283.794375 684.80484863 -284.71875 685.73461914 C-288.07828482 689.11238386 -291.44123444 692.48673165 -294.80517578 695.86010742 C-296.25498917 697.31492017 -297.70390017 698.77063283 -299.15185547 700.22729492 C-301.24464643 702.33234551 -303.34076374 704.43403619 -305.4375 706.53515625 C-306.07429687 707.17711441 -306.71109375 707.81907257 -307.3671875 708.48048401 C-310.4606307 711.57430404 -313.59783532 714.5574897 -316.91320801 717.41320801 C-321.47142747 721.35279598 -325.70652485 725.58114117 -329.95117188 729.85351562 C-330.80755753 730.71136154 -331.66394318 731.56920746 -332.54627991 732.45304871 C-334.87240062 734.78393779 -337.19631161 737.11700368 -339.5193882 739.45092583 C-341.96518524 741.90678436 -344.41429117 744.35933813 -346.86315918 746.81213379 C-353.07842481 753.03844745 -359.28943934 759.26899379 -365.5 765.5 C-372.20743514 772.22951643 -378.91562208 778.95827336 -385.62872171 785.68213987 C-388.05945553 788.11701463 -390.48911141 790.55294484 -392.91624451 792.9914093 C-395.62484752 795.71203025 -398.33652328 798.42955464 -401.04882812 801.14648438 C-401.83971329 801.94253586 -402.63059845 802.73858734 -403.44544983 803.5587616 C-406.87282611 806.98646076 -410.32118816 810.32988401 -413.9942627 813.4942627 C-418.56210598 817.43033566 -422.79472624 821.66964334 -427.04296875 825.9453125 C-427.90910797 826.81291199 -428.77524719 827.68051147 -429.66763306 828.57440186 C-431.5358685 830.4464238 -433.40317994 832.31931413 -435.26895142 834.19378662 C-438.22622291 837.16470542 -441.18741671 840.13169453 -444.14916992 843.09814453 C-450.43576481 849.39578833 -456.7181091 855.6976645 -463 862 C-469.78442475 868.80650487 -476.56960065 875.61225099 -483.35968876 882.41310692 C-486.29678856 885.35515395 -489.23144133 888.29961272 -492.16416931 891.24601746 C-494.42644662 893.51757991 -496.69201702 895.78585457 -498.95703125 898.0546875 C-499.75726715 898.86008972 -500.55750305 899.66549194 -501.38198853 900.49530029 C-504.83972705 903.95336094 -508.31699168 907.32566451 -512.02557373 910.5146637 C-516.47341531 914.34675639 -520.54539832 918.50146028 -524.63378906 922.71069336 C-526.34151674 924.45805412 -528.0494742 926.20519034 -529.75762939 927.95213318 C-530.65352028 928.86998533 -531.54941116 929.78783749 -532.47245026 930.73350334 C-535.31387149 933.6391813 -538.16298572 936.53705354 -541.01629639 939.43104553 C-541.50189506 939.92358714 -541.98749373 940.41612874 -542.48780751 940.92359585 C-544.48868752 942.95267665 -546.48991696 944.98141245 -548.49132013 947.00997722 C-554.11198564 952.70776098 -559.72228605 958.41491015 -565.30224609 964.15258789 C-607.56634482 1007.58689713 -607.56634482 1007.58689713 -630.32611084 1017.77645874 C-634.21999618 1019.55825637 -637.86528456 1021.7017682 -641.54296875 1023.88671875 C-642.67541016 1024.53447266 -643.80785156 1025.18222656 -644.97460938 1025.84960938 C-647.19097631 1027.1174521 -649.40710784 1028.38570642 -651.62304688 1029.65429688 C-653.78880535 1030.89277307 -655.95892736 1032.12366439 -658.13427734 1033.34521484 C-659.90077992 1034.36526549 -661.6431293 1035.43040915 -663.33837891 1036.56494141 C-673.6632457 1043.25042749 -687.77450245 1039.75369348 -699.47055054 1038.73614502 C-701.10227932 1038.59828632 -702.73404886 1038.46090933 -704.36585486 1038.3239677 C-708.8182022 1037.94893962 -713.26994627 1037.56714219 -717.72161674 1037.18417454 C-722.5372637 1036.77111299 -727.35344944 1036.36442423 -732.16957092 1035.9569397 C-740.51385088 1035.25007261 -748.85778233 1034.53920658 -757.20148849 1033.82559967 C-769.31608244 1032.78949003 -781.43119035 1031.75949552 -793.54642721 1030.73093399 C-813.27285404 1029.05603028 -832.99886122 1027.37623587 -852.72460938 1025.69335938 C-871.76378123 1024.06906786 -890.80314261 1022.4470281 -909.84277344 1020.828125 C-911.01056931 1020.72882876 -912.17836518 1020.62953253 -913.38154881 1020.52722731 C-919.24715698 1020.02849616 -925.11276899 1019.52981007 -930.97838283 1019.03114557 C-959.94235783 1016.56873815 -988.90622608 1014.10507872 -1017.86972046 1011.63702393 C-1018.8980452 1011.54940317 -1019.92636994 1011.46178241 -1020.98585604 1011.37150648 C-1031.81864066 1010.44845177 -1042.65137861 1009.52485419 -1053.48401451 1008.60005569 C-1057.10316911 1008.29113879 -1060.72232845 1007.98227743 -1064.3414917 1007.67346191 C-1065.20651747 1007.59964585 -1066.07154325 1007.52582978 -1066.96278192 1007.44977686 C-1077.95975884 1006.51162659 -1088.95737596 1005.58167611 -1099.95587158 1004.66149902 C-1102.2309438 1004.47053002 -1104.50601229 1004.27951663 -1106.78107643 1004.08845139 C-1110.69827375 1003.75948172 -1114.61573241 1003.43396196 -1118.53342247 1003.11091995 C-1120.17550224 1002.97324136 -1121.8175708 1002.83542902 -1123.45962524 1002.69744873 C-1124.52477022 1002.61129783 -1124.52477022 1002.61129783 -1125.61143327 1002.52340651 C-1129.13553278 1002.22390934 -1132.54829167 1001.77654246 -1136 1001 C-1134.0039651 998.66317865 -1132.00335954 996.33053011 -1130 994 C-1129.51660156 993.4328125 -1129.03320312 992.865625 -1128.53515625 992.28125 C-1123.96674955 986.98050329 -1119.18575453 981.8844467 -1114.40307617 976.77807617 C-1108.89072749 970.89215733 -1103.43927723 964.95347774 -1098 959 C-1096.16746981 956.99926338 -1094.33374439 954.99962374 -1092.5 953 C-1089.76092366 950.01244615 -1087.02222783 947.024547 -1084.28515625 944.03515625 C-1079.03061651 938.29744044 -1073.76253712 932.57254983 -1068.48291016 926.85791016 C-1063.30633676 921.25288452 -1058.15207502 915.62753688 -1053 910 C-1046.84145811 903.27311394 -1040.67188146 896.55681923 -1034.48291016 889.85791016 C-1029.30633676 884.25288452 -1024.15207502 878.62753688 -1019 873 C-1012.84145811 866.27311394 -1006.67188146 859.55681923 -1000.48291016 852.85791016 C-995.30633676 847.25288452 -990.15207502 841.62753688 -985 836 C-978.84075995 829.27235135 -972.67075416 822.55504247 -966.48071289 815.85571289 C-963.14547198 812.24473431 -959.81941515 808.62552836 -956.5 805 C-952.67664732 800.82406148 -948.84234195 796.65847228 -945 792.5 C-939.31670731 786.34851007 -933.65530879 780.17721184 -928 774 C-921.84145811 767.27311394 -915.67188146 760.55681923 -909.48291016 753.85791016 C-904.30633676 748.25288452 -899.15207502 742.62753688 -894 737 C-887.84145811 730.27311394 -881.67188146 723.55681923 -875.48291016 716.85791016 C-870.30633676 711.25288452 -865.15207502 705.62753688 -860 700 C-853.84145811 693.27311394 -847.67188146 686.55681923 -841.48291016 679.85791016 C-836.30633676 674.25288452 -831.15207502 668.62753688 -826 663 C-819.84075995 656.27235135 -813.67075416 649.55504247 -807.48071289 642.85571289 C-804.14547198 639.24473431 -800.81941515 635.62552836 -797.5 632 C-793.67664732 627.82406148 -789.84234195 623.65847228 -786 619.5 C-780.31670731 613.34851007 -774.65530879 607.17721184 -769 601 C-762.84145811 594.27311394 -756.67188146 587.55681923 -750.48291016 580.85791016 C-745.30633676 575.25288452 -740.15207502 569.62753688 -735 564 C-728.84145811 557.27311394 -722.67188146 550.55681923 -716.48291016 543.85791016 C-711.30633676 538.25288452 -706.15207502 532.62753688 -701 527 C-694.84145811 520.27311394 -688.67188146 513.55681923 -682.48291016 506.85791016 C-677.30633676 501.25288452 -672.15207502 495.62753688 -667 490 C-660.84075995 483.27235135 -654.67075416 476.55504247 -648.48071289 469.85571289 C-645.14547198 466.24473431 -641.81941515 462.62552836 -638.5 459 C-634.67664732 454.82406148 -630.84234195 450.65847228 -627 446.5 C-621.31670731 440.34851007 -615.65530879 434.17721184 -610 428 C-603.84145811 421.27311394 -597.67188146 414.55681923 -591.48291016 407.85791016 C-586.30633676 402.25288452 -581.15207502 396.62753688 -576 391 C-569.84145811 384.27311394 -563.67188146 377.55681923 -557.48291016 370.85791016 C-552.30633676 365.25288452 -547.15207502 359.62753688 -542 354 C-535.84145811 347.27311394 -529.67188146 340.55681923 -523.48291016 333.85791016 C-518.30633676 328.25288452 -513.15207502 322.62753688 -508 317 C-501.84075995 310.27235135 -495.67075416 303.55504247 -489.48071289 296.85571289 C-486.14547198 293.24473431 -482.81941515 289.62552836 -479.5 286 C-475.67664732 281.82406148 -471.84234195 277.65847228 -468 273.5 C-462.31670731 267.34851007 -456.65530879 261.17721184 -451 255 C-449.18779908 253.02055919 -447.37529728 251.04139467 -445.5625 249.0625 C-445.11487305 248.57362305 -444.66724609 248.08474609 -444.20605469 247.58105469 C-441.76211903 244.91415127 -439.31120073 242.2539954 -436.8515625 239.6015625 C-431.79901162 234.15128896 -426.77226318 228.70020324 -422 223 C-429.65858053 222.87625274 -437.28723252 223.02601443 -444.9375 223.375 C-445.7416333 223.40585693 -446.5457666 223.43671387 -447.37426758 223.46850586 C-453.39587688 223.77062269 -458.06733414 224.21686887 -462.67578125 228.46875 C-463.56647027 229.46879556 -464.44494324 230.47982193 -465.3125 231.5 C-465.7876001 232.03826416 -466.2627002 232.57652832 -466.75219727 233.13110352 C-467.72068814 234.2292668 -468.68453075 235.33154792 -469.64355469 236.43798828 C-471.54694134 238.62982913 -473.49186676 240.78315338 -475.4375 242.9375 C-476.15808594 243.74058594 -476.87867188 244.54367187 -477.62109375 245.37109375 C-480.90577175 249.00095959 -484.23275902 252.59100321 -487.55834961 256.18334961 C-490.56396073 259.43365351 -493.54551924 262.70297075 -496.5 266 C-500.47530054 270.43620495 -504.51207668 274.81254398 -508.55859375 279.18359375 C-511.56410722 282.43383097 -514.54559609 285.7030565 -517.5 289 C-521.47530054 293.43620495 -525.51207668 297.81254398 -529.55859375 302.18359375 C-532.56410722 305.43383097 -535.54559609 308.7030565 -538.5 312 C-542.47530054 316.43620495 -546.51207668 320.81254398 -550.55859375 325.18359375 C-553.56410722 328.43383097 -556.54559609 331.7030565 -559.5 335 C-563.47530054 339.43620495 -567.51207668 343.81254398 -571.55859375 348.18359375 C-574.56410722 351.43383097 -577.54559609 354.7030565 -580.5 358 C-584.93370714 362.94590436 -589.4394342 367.82286654 -593.94921875 372.69921875 C-600.15316761 379.4078422 -606.33686793 386.1346369 -612.4375 392.9375 C-616.43517373 397.39286804 -620.49200885 401.79083519 -624.55834961 406.18334961 C-627.56396073 409.43365351 -630.54551924 412.70297075 -633.5 416 C-637.47530054 420.43620495 -641.51207668 424.81254398 -645.55859375 429.18359375 C-648.56410722 432.43383097 -651.54559609 435.7030565 -654.5 439 C-658.47530054 443.43620495 -662.51207668 447.81254398 -666.55859375 452.18359375 C-669.56410722 455.43383097 -672.54559609 458.7030565 -675.5 462 C-679.47530054 466.43620495 -683.51207668 470.81254398 -687.55859375 475.18359375 C-690.56410722 478.43383097 -693.54559609 481.7030565 -696.5 485 C-700.47530054 489.43620495 -704.51207668 493.81254398 -708.55859375 498.18359375 C-711.56410722 501.43383097 -714.54559609 504.7030565 -717.5 508 C-721.47530054 512.43620495 -725.51207668 516.81254398 -729.55859375 521.18359375 C-732.56410722 524.43383097 -735.54559609 527.7030565 -738.5 531 C-742.93370714 535.94590436 -747.4394342 540.82286654 -751.94921875 545.69921875 C-758.15316761 552.4078422 -764.33686793 559.1346369 -770.4375 565.9375 C-774.43517373 570.39286804 -778.49200885 574.79083519 -782.55834961 579.18334961 C-785.56396073 582.43365351 -788.54551924 585.70297075 -791.5 589 C-795.47530054 593.43620495 -799.51207668 597.81254398 -803.55859375 602.18359375 C-806.56410722 605.43383097 -809.54559609 608.7030565 -812.5 612 C-816.47530054 616.43620495 -820.51207668 620.81254398 -824.55859375 625.18359375 C-827.56410722 628.43383097 -830.54559609 631.7030565 -833.5 635 C-837.47530054 639.43620495 -841.51207668 643.81254398 -845.55859375 648.18359375 C-848.56410722 651.43383097 -851.54559609 654.7030565 -854.5 658 C-858.47530054 662.43620495 -862.51207668 666.81254398 -866.55859375 671.18359375 C-869.56410722 674.43383097 -872.54559609 677.7030565 -875.5 681 C-879.93370714 685.94590436 -884.4394342 690.82286654 -888.94921875 695.69921875 C-895.15316761 702.4078422 -901.33686793 709.1346369 -907.4375 715.9375 C-911.43517373 720.39286804 -915.49200885 724.79083519 -919.55834961 729.18334961 C-922.56396073 732.43365351 -925.54551924 735.70297075 -928.5 739 C-931.96489927 742.86662672 -935.47308937 746.69009639 -939 750.5 C-942.58616036 754.37499379 -946.15643542 758.26204077 -949.6875 762.1875 C-950.36111572 762.92734131 -951.03473145 763.66718262 -951.72875977 764.42944336 C-953.20132643 766.09607288 -954.62945045 767.8034786 -956.00097656 769.55419922 C-961.48786306 776.3244548 -965.54717773 778.63474592 -974.0625 779.9375 C-976.50275266 780.38591138 -978.94283988 780.83522352 -981.3828125 781.28515625 C-982.8440512 781.54066646 -984.30531603 781.79602726 -985.76660156 782.05126953 C-992.23671868 783.2023682 -998.67480856 784.51274399 -1005.1171875 785.80859375 C-1025.52776505 789.89866279 -1025.52776505 789.89866279 -1035.24609375 791.8046875 C-1036.91168839 792.13701637 -1036.91168839 792.13701637 -1038.6109314 792.47605896 C-1039.64223175 792.67715775 -1040.6735321 792.87825653 -1041.73608398 793.08544922 C-1042.63536118 793.26276581 -1043.53463837 793.4400824 -1044.46116638 793.62277222 C-1047.01613837 794.00239789 -1049.42147015 794.02596537 -1052 794 C-1052.18834632 745.65709477 -1052.36346733 697.31416336 -1052.46577454 648.97099304 C-1052.46729316 648.25523137 -1052.46881179 647.53946971 -1052.47037644 646.80201829 C-1052.50330023 631.24570797 -1052.53377197 615.68939375 -1052.56171862 600.13307371 C-1052.57543904 592.50399814 -1052.58970117 584.87492364 -1052.60424805 577.24584961 C-1052.60640557 576.10708701 -1052.60640557 576.10708701 -1052.60860668 574.94531912 C-1052.65546195 550.34861626 -1052.73807137 525.7521918 -1052.83926943 501.15565753 C-1052.94309493 475.87453014 -1053.01075529 450.59355676 -1053.03306489 425.31221977 C-1053.03623448 421.73949467 -1053.03981649 418.16677009 -1053.04364967 414.59404564 C-1053.04439133 413.89089854 -1053.04513298 413.18775145 -1053.04589711 412.46329686 C-1053.05888426 401.15515035 -1053.10987019 389.84748072 -1053.17515237 378.5395285 C-1053.24000724 367.16458866 -1053.26373556 355.79026328 -1053.24851515 344.41509417 C-1053.2414685 338.25409969 -1053.25227658 332.09450203 -1053.31126022 325.93375587 C-1053.36490692 320.28916148 -1053.36742502 314.64689903 -1053.32988784 309.00219586 C-1053.32525092 306.9642459 -1053.33911417 304.92614874 -1053.37371501 302.88848726 C-1053.53325495 292.909976 -1053.52968813 285.18500637 -1046.63045979 277.4609251 C-1044.80291944 275.57877963 -1042.91502233 273.79615656 -1041 272 C-1039.83423825 270.60316198 -1038.68834827 269.18860699 -1037.58984375 267.73828125 C-1037.13802734 267.15755859 -1036.68621094 266.57683594 -1036.22070312 265.97851562 C-1035.79724609 265.42873047 -1035.37378906 264.87894531 -1034.9375 264.3125 C-1030.23737981 258.23737981 -1030.23737981 258.23737981 -1028 256 C-1028.93760666 255.83464752 -1029.87521332 255.66929504 -1030.8412323 255.49893188 C-1041.57109467 253.56844571 -1052.14598478 251.15697327 -1062.73828125 248.5859375 C-1064.47935026 248.16632149 -1066.22049664 247.7470264 -1067.9617157 247.32803345 C-1071.57329961 246.45811759 -1075.18424408 245.58561482 -1078.79467773 244.7109375 C-1083.42277076 243.5897567 -1088.05199449 242.47333219 -1092.68163776 241.35857201 C-1097.11759062 240.29020418 -1101.55294475 239.21936065 -1105.98828125 238.1484375 C-1106.83080256 237.94526287 -1107.67332386 237.74208824 -1108.54137611 237.53275681 C-1110.91504629 236.95990443 -1113.28827781 236.3852713 -1115.66137695 235.81005859 C-1116.36416275 235.64070297 -1117.06694855 235.47134735 -1117.79103088 235.29685974 C-1120.57125405 234.62127306 -1123.28389378 233.90536874 -1126 233 C-1126 187.46 -1126 141.92 -1126 95 C-1083.0483021 91.18650874 -1083.0483021 91.18650874 -1066.35400391 89.72705078 C-1065.20505811 89.62660595 -1064.05611231 89.52616112 -1062.87234998 89.42267251 C-1006.48376176 84.49731658 -950.08135642 79.7295247 -893.6803875 74.94849205 C-889.75998687 74.61614846 -885.83958756 74.28378936 -881.91918945 73.95141602 C-880.45977718 73.82769084 -880.45977718 73.82769084 -878.97088183 73.70146616 C-862.97261215 72.34501574 -846.97487761 70.98234968 -830.97733053 69.6174063 C-814.36596953 68.20019908 -797.75413936 66.78860043 -781.14183408 65.38250452 C-771.8859441 64.5989248 -762.63027713 63.81289223 -753.37514305 63.02042961 C-745.5669183 62.35186513 -737.75828825 61.68831898 -729.94906893 61.0314691 C-725.97580935 60.69711227 -722.00279525 60.36032354 -718.03029823 60.01701546 C-714.39805555 59.70316771 -710.76529863 59.39621545 -707.13200632 59.09476907 C-705.19678261 58.93240204 -703.26218272 58.76265202 -701.32761544 58.59264225 C-700.17698406 58.49854842 -699.02635269 58.40445458 -697.84085369 58.30750942 C-696.85050804 58.22337117 -695.86016239 58.13923291 -694.83980626 58.05254501 C-689.29228501 57.94989908 -685.24771659 59.1269824 -680.45703125 61.8515625 C-679.39605225 62.448479 -678.33507324 63.04539551 -677.24194336 63.66040039 C-675.5443689 64.6328772 -675.5443689 64.6328772 -673.8125 65.625 C-672.62234932 66.29837014 -671.43166593 66.97079953 -670.24047852 67.64233398 C-667.75435461 69.04469113 -665.27059474 70.45111777 -662.78808594 71.85986328 C-659.0616298 73.97025793 -655.31877424 76.05009083 -651.5703125 78.12109375 C-650.96859726 78.45375244 -650.36688202 78.78641113 -649.74693298 79.12915039 C-646.86865794 80.71998979 -643.98974008 82.30966006 -641.1105957 83.89892578 C-634.66110787 87.47432002 -628.29401615 91.15721737 -622 95 C-626.11207382 100.75820024 -630.63531932 105.95361721 -635.43359375 111.15234375 C-637.84506729 113.82808836 -640.12178235 116.56563425 -642.375 119.375 C-646.24154184 124.1706049 -650.34851983 128.66878667 -654.5559082 133.16137695 C-658.47892724 137.37411123 -662.11903719 141.76404453 -665.72265625 146.25390625 C-668.66077451 149.79678299 -671.78231178 153.15441772 -674.91650391 156.52197266 C-677.88730066 159.73316873 -680.69968321 163.02636841 -683.4375 166.4375 C-687.28045479 171.21541338 -691.36831329 175.68994984 -695.55615234 180.16162109 C-699.47906854 184.37429105 -703.11911024 188.76413555 -706.72265625 193.25390625 C-709.66077451 196.79678299 -712.78231178 200.15441772 -715.91650391 203.52197266 C-718.88730066 206.73316873 -721.69968321 210.02636841 -724.4375 213.4375 C-728.28045479 218.21541338 -732.36831329 222.68994984 -736.55615234 227.16162109 C-740.47906854 231.37429105 -744.11911024 235.76413555 -747.72265625 240.25390625 C-750.21826469 243.26319052 -752.83765143 246.13938654 -755.5 249 C-758.97419243 252.73327255 -762.3006871 256.52371111 -765.5 260.5 C-769.1356405 265.01858176 -772.96836402 269.27983329 -776.91625977 273.52172852 C-779.88715628 276.7329905 -782.69961077 280.02627815 -785.4375 283.4375 C-789.28045479 288.21541338 -793.36831329 292.68994984 -797.55615234 297.16162109 C-801.47906854 301.37429105 -805.11911024 305.76413555 -808.72265625 310.25390625 C-811.66077451 313.79678299 -814.78231178 317.15441772 -817.91650391 320.52197266 C-820.88730066 323.73316873 -823.69968321 327.02636841 -826.4375 330.4375 C-830.36879356 335.32678026 -834.5426934 339.93160999 -838.83959961 344.49780273 C-844.31695719 349.68379347 -844.31695719 349.68379347 -847.390625 356.23828125 C-847.34421875 356.92277344 -847.2978125 357.60726563 -847.25 358.3125 C-847.1675 359.529375 -847.085 360.74625 -847 362 C-842.41788358 357.00625138 -837.93163574 351.97323682 -833.6875 346.6875 C-829.79744069 341.87414563 -825.67128166 337.3523855 -821.44433594 332.83886719 C-817.52121407 328.62606859 -813.88103586 324.23604648 -810.27734375 319.74609375 C-807.33922549 316.20321701 -804.21768822 312.84558228 -801.08349609 309.47802734 C-798.11269934 306.26683127 -795.30031679 302.97363159 -792.5625 299.5625 C-788.71889943 294.78378372 -784.63039836 290.30842313 -780.44165039 285.83618164 C-777.32446055 282.48900673 -774.36426202 279.06994977 -771.5 275.5 C-768.15698041 271.3333379 -764.64884863 267.39580188 -761 263.5 C-756.54125556 258.73911006 -752.3620217 253.8353218 -748.27734375 248.74609375 C-745.33922549 245.20321701 -742.21768822 241.84558228 -739.08349609 238.47802734 C-736.11269934 235.26683127 -733.30031679 231.97363159 -730.5625 228.5625 C-726.71889943 223.78378372 -722.63039836 219.30842313 -718.44165039 214.83618164 C-715.32446055 211.48900673 -712.36426202 208.06994977 -709.5 204.5 C-706.15698041 200.3333379 -702.64884863 196.39580188 -699 192.5 C-694.54125556 187.73911006 -690.3620217 182.8353218 -686.27734375 177.74609375 C-683.33922549 174.20321701 -680.21768822 170.84558228 -677.08349609 167.47802734 C-674.11269934 164.26683127 -671.30031679 160.97363159 -668.5625 157.5625 C-664.71889943 152.78378372 -660.63039836 148.30842313 -656.44165039 143.83618164 C-653.32446055 140.48900673 -650.36426202 137.06994977 -647.5 133.5 C-644.15698041 129.3333379 -640.64884863 125.39580188 -637 121.5 C-632.54125556 116.73911006 -628.3620217 111.8353218 -624.27734375 106.74609375 C-621.33922549 103.20321701 -618.21768822 99.84558228 -615.08349609 96.47802734 C-612.11269934 93.26683127 -609.30031679 89.97363159 -606.5625 86.5625 C-603.1965314 82.37761954 -599.66818547 78.41691504 -596 74.5 C-591.56601643 69.76422331 -587.36355612 64.91342438 -583.328125 59.828125 C-582.55984375 58.89484375 -581.7915625 57.9615625 -581 57 C-580.52236889 56.28561002 -580.04473777 55.57122005 -579.55263299 54.83518189 C-575.69153175 49.62490577 -572.67896112 47.40861919 -566.21394825 46.40068531 C-563.44607592 46.13103486 -560.69730997 45.90765312 -557.92475891 45.72114563 C-556.38109284 45.58663503 -554.83773995 45.44848974 -553.29469365 45.30704659 C-549.06178345 44.92959343 -544.82624786 44.60369805 -540.58847892 44.28617442 C-536.00551128 43.93364466 -531.42670258 43.5331706 -526.84719849 43.13859558 C-518.8781452 42.45857693 -510.90707359 41.80899842 -502.93386269 41.17968178 C-491.22643089 40.25549668 -479.52325706 39.28421773 -467.82053795 38.30236175 C-448.59445369 36.69053839 -429.36553442 35.11554878 -410.13452148 33.5637207 C-391.86611512 32.08948352 -373.59902262 30.60061142 -355.33374023 29.08813477 C-354.22989865 28.99673415 -353.12605706 28.90533353 -351.98876573 28.8111632 C-346.42940248 28.35071624 -340.8700698 27.88990129 -335.31075501 27.42886949 C-324.21729389 26.50892904 -313.12367543 25.59089099 -302.02999878 24.67355347 C-300.93520989 24.58301594 -299.840421 24.49247841 -298.71245669 24.39919733 C-282.20033427 23.03401863 -265.68737639 21.67927442 -249.17385864 20.33108521 C-246.98701052 20.15251216 -244.80016272 19.97393526 -242.61331522 19.79535449 C-241.53307882 19.70714227 -240.45284242 19.61893006 -239.33987158 19.52804475 C-200.31723134 16.34134668 -161.29824397 13.11744775 -122.28662109 9.79833984 C-120.81029963 9.67277512 -120.81029963 9.67277512 -119.30415349 9.54467373 C-100.65380149 7.95829235 -82.00391514 6.36650762 -63.35491903 4.7642621 C-56.6781534 4.19067252 -50.00124111 3.61881254 -43.324221 3.04819302 C-38.78804543 2.66034755 -34.25211159 2.26982677 -29.71636194 1.877033 C-27.63584073 1.69730577 -25.5552097 1.51892154 -23.47452039 1.34115189 C-20.98421581 1.12837652 -18.49408941 0.91349972 -16.00419217 0.69600946 C-10.64856974 0.24181917 -5.37514682 -0.12515268 0 0 Z " fill="#2E9035" transform="translate(1160,52)"/>
<path d="M0 0 C0.66 0 1.32 0 2 0 C2.65891689 1.84242548 3.31775306 3.68487984 3.9765625 5.52734375 C4.39776367 6.70490234 4.81896484 7.88246094 5.25292969 9.09570312 C6.17037656 11.66244642 7.0848588 14.23021973 7.99707031 16.79882812 C9.98165881 22.38253622 11.96977292 27.96239268 14.0703125 33.50390625 C14.3595459 34.27935791 14.6487793 35.05480957 14.94677734 35.85375977 C15.46865537 37.24823688 16.00222277 38.6384148 16.54931641 40.02319336 C18.19512212 44.47203025 18.19512212 44.47203025 17.27709961 46.95605469 C15.84482424 49.24835241 14.26798474 50.94177483 12.33203125 52.828125 C11.60306641 53.54613281 10.87410156 54.26414063 10.12304688 55.00390625 C8.97932617 56.11572266 8.97932617 56.11572266 7.8125 57.25 C2.93120614 62.01698776 -1.77374778 66.81924132 -6.2199707 71.99511719 C-10.15149788 76.42327535 -14.46075357 80.49723383 -18.68359375 84.64453125 C-22.7182249 88.63538702 -26.53971738 92.71652009 -30.24023438 97.01757812 C-33.96391909 101.21240607 -38.03655539 105.07416927 -42.0390625 109 C-45.30665302 112.22974198 -48.47152333 115.48511625 -51.46875 118.96875 C-55.92560605 124.14314977 -60.8144639 128.86250569 -65.68359375 133.64453125 C-69.7182249 137.63538702 -73.53971738 141.71652009 -77.24023438 146.01757812 C-80.96391909 150.21240607 -85.03655539 154.07416927 -89.0390625 158 C-92.30665302 161.22974198 -95.47152333 164.48511625 -98.46875 167.96875 C-102.92560605 173.14314977 -107.8144639 177.86250569 -112.68359375 182.64453125 C-116.07918561 186.00328124 -119.38417769 189.37852424 -122.5 193 C-126.94435252 198.16560744 -131.82507088 202.87292293 -136.68359375 207.64453125 C-140.7182249 211.63538702 -144.53971738 215.71652009 -148.24023438 220.01757812 C-151.96391909 224.21240607 -156.03655539 228.07416927 -160.0390625 232 C-163.30665302 235.22974198 -166.47152333 238.48511625 -169.46875 241.96875 C-173.92560605 247.14314977 -178.8144639 251.86250569 -183.68359375 256.64453125 C-187.07918561 260.00328124 -190.38417769 263.37852424 -193.5 267 C-197.94435252 272.16560744 -202.82507088 276.87292293 -207.68359375 281.64453125 C-211.7182249 285.63538702 -215.53971738 289.71652009 -219.24023438 294.01757812 C-222.96391909 298.21240607 -227.03655539 302.07416927 -231.0390625 306 C-234.30665302 309.22974198 -237.47152333 312.48511625 -240.46875 315.96875 C-244.92560605 321.14314977 -249.8144639 325.86250569 -254.68359375 330.64453125 C-258.7182249 334.63538702 -262.53971738 338.71652009 -266.24023438 343.01757812 C-269.96391909 347.21240607 -274.03655539 351.07416927 -278.0390625 355 C-281.30665302 358.22974198 -284.47152333 361.48511625 -287.46875 364.96875 C-291.92560605 370.14314977 -296.8144639 374.86250569 -301.68359375 379.64453125 C-305.07918561 383.00328124 -308.38417769 386.37852424 -311.5 390 C-315.94435252 395.16560744 -320.82507088 399.87292293 -325.68359375 404.64453125 C-329.7182249 408.63538702 -333.53971738 412.71652009 -337.24023438 417.01757812 C-340.96391909 421.21240607 -345.03655539 425.07416927 -349.0390625 429 C-352.30665302 432.22974198 -355.47152333 435.48511625 -358.46875 438.96875 C-362.92560605 444.14314977 -367.8144639 448.86250569 -372.68359375 453.64453125 C-376.07918561 457.00328124 -379.38417769 460.37852424 -382.5 464 C-386.94435252 469.16560744 -391.82507088 473.87292293 -396.68359375 478.64453125 C-400.7182249 482.63538702 -404.53971738 486.71652009 -408.24023438 491.01757812 C-411.96391909 495.21240607 -416.03655539 499.07416927 -420.0390625 503 C-423.30665302 506.22974198 -426.47152333 509.48511625 -429.46875 512.96875 C-433.92560605 518.14314977 -438.8144639 522.86250569 -443.68359375 527.64453125 C-447.7182249 531.63538702 -451.53971738 535.71652009 -455.24023438 540.01757812 C-458.96391909 544.21240607 -463.03655539 548.07416927 -467.0390625 552 C-470.30665302 555.22974198 -473.47152333 558.48511625 -476.46875 561.96875 C-480.92560605 567.14314977 -485.8144639 571.86250569 -490.68359375 576.64453125 C-494.07918561 580.00328124 -497.38417769 583.37852424 -500.5 587 C-504.94435252 592.16560744 -509.82507088 596.87292293 -514.68359375 601.64453125 C-518.7182249 605.63538702 -522.53971738 609.71652009 -526.24023438 614.01757812 C-529.96391909 618.21240607 -534.03655539 622.07416927 -538.0390625 626 C-541.30665302 629.22974198 -544.47152333 632.48511625 -547.46875 635.96875 C-551.92560605 641.14314977 -556.8144639 645.86250569 -561.68359375 650.64453125 C-565.07918561 654.00328124 -568.38417769 657.37852424 -571.5 661 C-575.94435252 666.16560744 -580.82507088 670.87292293 -585.68359375 675.64453125 C-589.7182249 679.63538702 -593.53971738 683.71652009 -597.24023438 688.01757812 C-600.96391909 692.21240607 -605.03655539 696.07416927 -609.0390625 700 C-612.30665302 703.22974198 -615.47152333 706.48511625 -618.46875 709.96875 C-622.92560605 715.14314977 -627.8144639 719.86250569 -632.68359375 724.64453125 C-636.7182249 728.63538702 -640.53971738 732.71652009 -644.24023438 737.01757812 C-647.96391909 741.21240607 -652.03655539 745.07416927 -656.0390625 749 C-659.30665302 752.22974198 -662.47152333 755.48511625 -665.46875 758.96875 C-669.92560605 764.14314977 -674.8144639 768.86250569 -679.68359375 773.64453125 C-683.07918561 777.00328124 -686.38417769 780.37852424 -689.5 784 C-693.94435252 789.16560744 -698.82507088 793.87292293 -703.68359375 798.64453125 C-707.7182249 802.63538702 -711.53971738 806.71652009 -715.24023438 811.01757812 C-718.96391909 815.21240607 -723.03655539 819.07416927 -727.0390625 823 C-730.29888808 826.22206699 -733.45666026 829.46871703 -736.4453125 832.9453125 C-740.35923151 837.49043708 -744.59916174 841.67288309 -748.875 845.875 C-750.39550816 847.37008161 -751.91385411 848.86736644 -753.4296875 850.3671875 C-754.09210449 851.01800293 -754.75452148 851.66881836 -755.43701172 852.33935547 C-757.08544452 853.93142515 -757.08544452 853.93142515 -758 856 C-751.66879197 857.04403866 -745.34411808 857.40240743 -738.94140625 857.75390625 C-737.79711655 857.81907944 -736.65282684 857.88425262 -735.47386169 857.95140076 C-731.83689315 858.15790216 -728.19970771 858.36025923 -724.5625 858.5625 C-722.08917722 858.70220008 -719.61586973 858.84217104 -717.14257812 858.98242188 C-711.09522559 859.32475219 -705.04768988 859.66368468 -699 860 C-699.34611328 860.44870453 -699.69222656 860.89740906 -700.04882812 861.35971069 C-700.53802734 862.00203644 -701.02722656 862.64436218 -701.53125 863.30615234 C-702.088125 864.03678894 -702.645 864.76742554 -703.21875 865.52020264 C-705.03920423 867.98287879 -705.03920423 867.98287879 -706.59375 870.65509033 C-711.38268505 878.53601322 -717.15378147 885.71870948 -726 889 C-742.16035173 892.3228744 -760.05559807 889.2883204 -776.28808594 887.71887207 C-782.48781896 887.14452822 -788.69689139 886.70201134 -794.90625 886.24609375 C-803.95568971 885.56397391 -812.99839686 884.83182032 -822.03515625 883.99755859 C-822.97536621 883.9120575 -823.91557617 883.8265564 -824.88427734 883.73846436 C-828.97833037 883.35090806 -832.98633745 882.93575131 -837 882 C-832.56548431 876.74606293 -827.97130898 871.68443989 -823.25 866.6875 C-822.54625244 865.94056885 -821.84250488 865.1936377 -821.11743164 864.42407227 C-816.52232726 859.56340974 -811.84313432 854.81121877 -807.08203125 850.11328125 C-805.17412448 848.17673798 -803.3890072 846.19213015 -801.625 844.125 C-798.58569255 840.56713773 -795.3263598 837.28558309 -792 834 C-788.71531689 830.75548422 -785.49265974 827.52077616 -782.5 824 C-779.02389423 819.9104638 -775.21750344 816.1903946 -771.40234375 812.421875 C-768.65674514 809.69691999 -766.00730048 806.94976527 -763.5 804 C-760.5073396 800.47922306 -757.2846735 797.2445247 -754 794 C-750.73617385 790.77601913 -747.53169859 787.56482153 -744.5625 784.0625 C-740.87389834 779.7213693 -736.80756243 775.78165659 -732.76025391 771.77978516 C-729.29629877 768.33979512 -726.02882616 764.81455056 -722.87109375 761.08984375 C-719.85849309 757.72503925 -716.61427958 754.59454812 -713.40209961 751.42163086 C-710.65658173 748.69675921 -708.00722524 745.94967675 -705.5 743 C-702.0245645 738.91125235 -698.21899763 735.19183316 -694.40454102 731.42407227 C-691.04939106 728.0941767 -687.90274548 724.66068601 -684.83984375 721.05859375 C-682.49504911 718.43501248 -680.00369158 715.97010189 -677.5 713.5 C-674.4259623 710.46714854 -671.42000821 707.4206067 -668.625 704.125 C-665.43870588 700.38456778 -661.99120031 696.95196232 -658.5 693.5 C-655.05061837 690.08929941 -651.63880077 686.7037849 -648.5 683 C-644.83610259 678.67660106 -640.78628354 674.76062019 -636.76000977 670.77954102 C-633.29613554 667.33963479 -630.02875066 663.8144615 -626.87109375 660.08984375 C-623.8591824 656.72580915 -620.61576911 653.59599226 -617.40429688 650.42382812 C-614.0492277 647.09401668 -610.90266971 643.6605969 -607.83984375 640.05859375 C-605.49504885 637.43501219 -603.00368885 634.97010483 -600.5 632.5 C-597.44683745 629.48768243 -594.4592763 626.46451147 -591.6875 623.1875 C-588.33111731 619.24598522 -584.67682319 615.63861747 -581 612 C-576.76821465 607.81214132 -572.68188801 603.6034513 -568.8359375 599.0546875 C-565.83779707 595.69932183 -562.6021425 592.58256239 -559.40185547 589.42138672 C-556.65641833 586.69659843 -554.00715 583.94958823 -551.5 581 C-548.5073396 577.47922306 -545.2846735 574.2445247 -542 571 C-538.73617385 567.77601913 -535.53169859 564.56482153 -532.5625 561.0625 C-528.87389834 556.7213693 -524.80756243 552.78165659 -520.76025391 548.77978516 C-517.29629877 545.33979512 -514.02882616 541.81455056 -510.87109375 538.08984375 C-507.8591824 534.72580915 -504.61576911 531.59599226 -501.40429688 528.42382812 C-498.0492277 525.09401668 -494.90266971 521.6605969 -491.83984375 518.05859375 C-489.49504911 515.43501248 -487.00369158 512.97010189 -484.5 510.5 C-481.4259623 507.46714854 -478.42000821 504.4206067 -475.625 501.125 C-472.4387061 497.38456803 -468.99120315 493.95195962 -465.5 490.5 C-461.4453483 486.49087421 -457.56021848 482.44135496 -453.87109375 478.08984375 C-450.85849309 474.72503925 -447.61427958 471.59454812 -444.40209961 468.42163086 C-441.65658173 465.69675921 -439.00722524 462.94967675 -436.5 460 C-433.02389423 455.9104638 -429.21750344 452.1903946 -425.40234375 448.421875 C-422.65674514 445.69691999 -420.00730048 442.94976527 -417.5 440 C-414.50733938 436.47922279 -411.28467029 433.24452767 -408 430 C-404.75703152 426.79656786 -401.57063858 423.60892786 -398.625 420.125 C-394.7240497 415.53225556 -390.39760403 411.37271972 -386.11816406 407.13769531 C-382.52320782 403.56577136 -379.10889733 399.92575166 -375.8359375 396.0546875 C-372.83779707 392.69932183 -369.6021425 389.58256239 -366.40185547 386.42138672 C-363.65641833 383.69659843 -361.00715 380.94958823 -358.5 378 C-355.02389423 373.9104638 -351.21750344 370.1903946 -347.40234375 366.421875 C-344.65674514 363.69691999 -342.00730048 360.94976527 -339.5 358 C-336.5073396 354.47922306 -333.2846735 351.2445247 -330 348 C-326.73617385 344.77601913 -323.53169859 341.56482153 -320.5625 338.0625 C-316.87389834 333.7213693 -312.80756243 329.78165659 -308.76025391 325.77978516 C-305.29629877 322.33979512 -302.02882616 318.81455056 -298.87109375 315.08984375 C-295.85849309 311.72503925 -292.61427958 308.59454812 -289.40209961 305.42163086 C-286.65658173 302.69675921 -284.00722524 299.94967675 -281.5 297 C-278.02389423 292.9104638 -274.21750344 289.1903946 -270.40234375 285.421875 C-267.65674514 282.69691999 -265.00730048 279.94976527 -262.5 277 C-259.5073396 273.47922306 -256.2846735 270.2445247 -253 267 C-249.73617385 263.77601913 -246.53169859 260.56482153 -243.5625 257.0625 C-239.87389834 252.7213693 -235.80756243 248.78165659 -231.76025391 244.77978516 C-228.29629877 241.33979512 -225.02882616 237.81455056 -221.87109375 234.08984375 C-218.85849309 230.72503925 -215.61427958 227.59454812 -212.40209961 224.42163086 C-209.65658173 221.69675921 -207.00722524 218.94967675 -204.5 216 C-201.5073396 212.47922306 -198.2846735 209.2445247 -195 206 C-191.73617385 202.77601913 -188.53169859 199.56482153 -185.5625 196.0625 C-181.87389834 191.7213693 -177.80756243 187.78165659 -173.76025391 183.77978516 C-170.29629877 180.33979512 -167.02882616 176.81455056 -163.87109375 173.08984375 C-160.85849309 169.72503925 -157.61427958 166.59454812 -154.40209961 163.42163086 C-151.65658173 160.69675921 -149.00722524 157.94967675 -146.5 155 C-143.02389423 150.9104638 -139.21750344 147.1903946 -135.40234375 143.421875 C-132.65674514 140.69691999 -130.00730048 137.94976527 -127.5 135 C-124.5073396 131.47922306 -121.2846735 128.2445247 -118 125 C-114.73617385 121.77601913 -111.53169859 118.56482153 -108.5625 115.0625 C-104.87389834 110.7213693 -100.80756243 106.78165659 -96.76025391 102.77978516 C-93.29629877 99.33979512 -90.02882616 95.81455056 -86.87109375 92.08984375 C-83.85849309 88.72503925 -80.61427958 85.59454812 -77.40209961 82.42163086 C-74.07071344 79.11529663 -70.95000242 75.70651391 -67.91015625 72.12890625 C-64.86441454 68.73436794 -61.59120242 65.57088979 -58.34741211 62.36694336 C-54.67874993 58.72614885 -51.3139858 54.96061717 -48 51 C-46.34596029 49.31874575 -44.67944241 47.65556785 -43 46 C-40.20535316 43.23215858 -37.41479805 40.4602276 -34.625 37.6875 C-33.89539062 36.96626953 -33.16578125 36.24503906 -32.4140625 35.50195312 C-28.32154383 31.42770463 -24.43237955 27.25837493 -20.66601562 22.88208008 C-18.06401968 19.94263302 -15.25424652 17.23142896 -12.4375 14.5 C-8.76882207 10.90351337 -5.3272456 7.36804624 -2.3125 3.1875 C-1.549375 2.135625 -0.78625 1.08375 0 0 Z " fill="#195C34" transform="translate(1158,52)"/>
<path d="M0 0 C-2.93104906 4.97003972 -6.58575234 8.68775311 -10.703125 12.7109375 C-13.98882757 15.98546421 -16.98178586 19.48097599 -20 23 C-21.43285689 24.64987719 -22.87040547 26.29569094 -24.3125 27.9375 C-25.29669922 29.06478516 -25.29669922 29.06478516 -26.30078125 30.21484375 C-29.53959406 33.61745858 -32.98631744 33.26427033 -37.421875 33.46484375 C-38.93751106 33.54340676 -40.45313572 33.62218986 -41.96875 33.70117188 C-44.35598396 33.82048457 -46.74328852 33.93718411 -49.13085938 34.04956055 C-51.43663269 34.15982626 -53.74168866 34.28049658 -56.046875 34.40234375 C-57.10657501 34.44777565 -57.10657501 34.44777565 -58.18768311 34.49412537 C-63.95656308 34.80802259 -68.36494525 35.49145314 -72.67578125 39.46875 C-73.56647027 40.46879556 -74.44494324 41.47982193 -75.3125 42.5 C-75.7876001 43.03826416 -76.2627002 43.57652832 -76.75219727 44.13110352 C-77.72068814 45.2292668 -78.68453075 46.33154792 -79.64355469 47.43798828 C-81.54694134 49.62982913 -83.49186676 51.78315338 -85.4375 53.9375 C-86.51837891 55.14212891 -86.51837891 55.14212891 -87.62109375 56.37109375 C-90.90577175 60.00095959 -94.23275902 63.59100321 -97.55834961 67.18334961 C-100.56396073 70.43365351 -103.54551924 73.70297075 -106.5 77 C-110.47530054 81.43620495 -114.51207668 85.81254398 -118.55859375 90.18359375 C-121.56410722 93.43383097 -124.54559609 96.7030565 -127.5 100 C-131.47530054 104.43620495 -135.51207668 108.81254398 -139.55859375 113.18359375 C-142.56410722 116.43383097 -145.54559609 119.7030565 -148.5 123 C-152.47530054 127.43620495 -156.51207668 131.81254398 -160.55859375 136.18359375 C-163.56410722 139.43383097 -166.54559609 142.7030565 -169.5 146 C-173.47530054 150.43620495 -177.51207668 154.81254398 -181.55859375 159.18359375 C-184.56410722 162.43383097 -187.54559609 165.7030565 -190.5 169 C-194.93370714 173.94590436 -199.4394342 178.82286654 -203.94921875 183.69921875 C-210.15316761 190.4078422 -216.33686793 197.1346369 -222.4375 203.9375 C-226.43517373 208.39286804 -230.49200885 212.79083519 -234.55834961 217.18334961 C-237.56396073 220.43365351 -240.54551924 223.70297075 -243.5 227 C-247.47530054 231.43620495 -251.51207668 235.81254398 -255.55859375 240.18359375 C-258.56410722 243.43383097 -261.54559609 246.7030565 -264.5 250 C-268.47530054 254.43620495 -272.51207668 258.81254398 -276.55859375 263.18359375 C-279.56410722 266.43383097 -282.54559609 269.7030565 -285.5 273 C-289.47530054 277.43620495 -293.51207668 281.81254398 -297.55859375 286.18359375 C-300.56410722 289.43383097 -303.54559609 292.7030565 -306.5 296 C-310.47530054 300.43620495 -314.51207668 304.81254398 -318.55859375 309.18359375 C-321.56410722 312.43383097 -324.54559609 315.7030565 -327.5 319 C-331.47530054 323.43620495 -335.51207668 327.81254398 -339.55859375 332.18359375 C-342.56410722 335.43383097 -345.54559609 338.7030565 -348.5 342 C-352.93370714 346.94590436 -357.4394342 351.82286654 -361.94921875 356.69921875 C-368.15316761 363.4078422 -374.33686793 370.1346369 -380.4375 376.9375 C-384.43517373 381.39286804 -388.49200885 385.79083519 -392.55834961 390.18334961 C-395.56396073 393.43365351 -398.54551924 396.70297075 -401.5 400 C-405.47530054 404.43620495 -409.51207668 408.81254398 -413.55859375 413.18359375 C-416.56410722 416.43383097 -419.54559609 419.7030565 -422.5 423 C-426.47530054 427.43620495 -430.51207668 431.81254398 -434.55859375 436.18359375 C-437.56410722 439.43383097 -440.54559609 442.7030565 -443.5 446 C-447.47530054 450.43620495 -451.51207668 454.81254398 -455.55859375 459.18359375 C-458.56410722 462.43383097 -461.54559609 465.7030565 -464.5 469 C-468.47530054 473.43620495 -472.51207668 477.81254398 -476.55859375 482.18359375 C-479.56410722 485.43383097 -482.54559609 488.7030565 -485.5 492 C-489.93370714 496.94590436 -494.4394342 501.82286654 -498.94921875 506.69921875 C-505.15316761 513.4078422 -511.33686793 520.1346369 -517.4375 526.9375 C-521.43517373 531.39286804 -525.49200885 535.79083519 -529.55834961 540.18334961 C-532.56396073 543.43365351 -535.54551924 546.70297075 -538.5 550 C-541.96489927 553.86662672 -545.47308937 557.69009639 -549 561.5 C-552.58616036 565.37499379 -556.15643542 569.26204077 -559.6875 573.1875 C-560.36111572 573.92734131 -561.03473145 574.66718262 -561.72875977 575.42944336 C-563.20132643 577.09607288 -564.62945045 578.8034786 -566.00097656 580.55419922 C-571.48786306 587.3244548 -575.54717773 589.63474592 -584.0625 590.9375 C-586.50275266 591.38591138 -588.94283988 591.83522352 -591.3828125 592.28515625 C-592.8440512 592.54066646 -594.30531603 592.79602726 -595.76660156 593.05126953 C-602.23671868 594.2023682 -608.67480856 595.51274399 -615.1171875 596.80859375 C-635.52776505 600.89866279 -635.52776505 600.89866279 -645.24609375 602.8046875 C-646.35649017 603.02624008 -647.4668866 603.24779266 -648.6109314 603.47605896 C-649.64223175 603.67715775 -650.6735321 603.87825653 -651.73608398 604.08544922 C-652.63536118 604.26276581 -653.53463837 604.4400824 -654.46116638 604.62277222 C-657 605 -657 605 -662 605 C-662 567.71 -662 530.42 -662 492 C-661.67 492 -661.34 492 -661 492 C-661 528.3 -661 564.6 -661 602 C-656.57977524 598.4680589 -656.57977524 598.4680589 -652.875 594.5 C-649.82408732 590.92949958 -646.68448638 587.45121006 -643.5 584 C-640.46074616 580.70006344 -637.43843015 577.39049633 -634.5 574 C-631.13812593 570.12338923 -627.66917328 566.34802097 -624.19628906 562.57128906 C-618.62184356 556.50711876 -613.08144427 550.41328146 -607.6875 544.1875 C-604.01625644 539.96856509 -600.20756274 535.88059888 -596.40527344 531.78027344 C-593.14915003 528.26284358 -589.96180967 524.69802231 -586.82421875 521.07421875 C-583.1006494 516.84035296 -579.25831574 512.71226218 -575.43945312 508.56445312 C-573.12257687 506.04638273 -570.81147055 503.52303167 -568.5 501 C-565.72811318 497.97513527 -562.95545286 494.95099396 -560.1796875 491.9296875 C-555.19632973 486.50336459 -550.24013912 481.05442031 -545.3203125 475.5703125 C-542.68920217 472.65571553 -540.03347525 469.76460776 -537.375 466.875 C-534.3977736 463.63786909 -531.44047034 460.38862144 -528.5625 457.0625 C-524.98197688 452.93244815 -521.26420238 448.9339593 -517.54980469 444.92480469 C-512.98402068 439.99352953 -508.48350905 435.00617677 -504 430 C-502.50043381 428.332943 -501.00042947 426.66628005 -499.5 425 C-497.27170886 422.52497766 -495.0442116 420.04928246 -492.8203125 417.5703125 C-488.69902232 412.9796939 -484.55126212 408.41552893 -480.375 403.875 C-477.37819989 400.61609506 -474.40085453 397.34500451 -471.5 394 C-468.13677362 390.12182987 -464.66664329 386.34472189 -461.19189453 382.56689453 C-456.75776372 377.74415109 -452.3748176 372.8765888 -448 368 C-446.50028872 366.33307353 -445.00028679 364.66640851 -443.5 363 C-442.38625 361.7625 -442.38625 361.7625 -441.25 360.5 C-434.5 353 -434.5 353 -432.2421875 350.4921875 C-430.76707382 348.85260121 -429.29308348 347.21200345 -427.8203125 345.5703125 C-423.69902232 340.9796939 -419.55126212 336.41552893 -415.375 331.875 C-411.81746901 328.00632178 -408.31710425 324.09665875 -404.875 320.125 C-401.98080664 316.84491419 -399.00781108 313.63731943 -396.04467773 310.41967773 C-393.51259884 307.66526572 -391.00964732 304.89257501 -388.5625 302.0625 C-384.93855356 297.87967989 -381.16744254 293.83728193 -377.40478516 289.77978516 C-374.15384488 286.26787256 -370.97015687 282.70998582 -367.83984375 279.08984375 C-365.43329844 276.35629441 -362.96696804 273.67885994 -360.5 271 C-357.46109823 267.69973124 -354.438439 264.39050653 -351.5 261 C-348.0932265 257.0691075 -344.56997215 253.24803427 -341.046875 249.421875 C-338.49444857 246.64505943 -335.97016712 243.85019283 -333.5 241 C-330.13677362 237.12182987 -326.66664329 233.34472189 -323.19189453 229.56689453 C-318.75776372 224.74415109 -314.3748176 219.8765888 -310 215 C-308.50028872 213.33307353 -307.00028679 211.66640851 -305.5 210 C-304.7575 209.175 -304.015 208.35 -303.25 207.5 C-269.5 170 -269.5 170 -267.2421875 167.4921875 C-265.76707382 165.85260121 -264.29308348 164.21200345 -262.8203125 162.5703125 C-258.69902232 157.9796939 -254.55126212 153.41552893 -250.375 148.875 C-246.81746901 145.00632178 -243.31710425 141.09665875 -239.875 137.125 C-236.98148991 133.84568857 -234.00911641 130.63893288 -231.046875 127.421875 C-228.49444857 124.64505943 -225.97016712 121.85019283 -223.5 119 C-220.0932265 115.0691075 -216.56997215 111.24803427 -213.046875 107.421875 C-210.49444857 104.64505943 -207.97016712 101.85019283 -205.5 99 C-202.0932265 95.0691075 -198.56997215 91.24803427 -195.046875 87.421875 C-192.49444857 84.64505943 -189.97016712 81.85019283 -187.5 79 C-184.0932265 75.0691075 -180.56997215 71.24803427 -177.046875 67.421875 C-174.49444857 64.64505943 -171.97016712 61.85019283 -169.5 59 C-166.0932265 55.0691075 -162.56997215 51.24803427 -159.046875 47.421875 C-156.49444857 44.64505943 -153.97016712 41.85019283 -151.5 39 C-148.56155825 35.60949029 -145.53879375 32.30037115 -142.5 29 C-139.38255475 25.61275557 -136.279653 22.21635974 -133.25 18.75 C-132.73050781 18.17523926 -132.21101562 17.60047852 -131.67578125 17.00830078 C-129.96638616 15.07248196 -129.96638616 15.07248196 -128.80175781 12.94970703 C-126.14569023 8.87905747 -124.00632774 7.2381287 -119.21972656 6.10546875 C-114.33025168 5.49184018 -109.42058197 5.31538416 -104.5 5.125 C-102.66314673 5.02622018 -100.82647386 4.92403259 -98.98999023 4.81860352 C-94.25143767 4.55510626 -89.51192268 4.3353194 -84.77069092 4.12640381 C-80.45116912 3.9293396 -76.13393786 3.69317948 -71.81640625 3.45703125 C-65.36678385 3.1081981 -58.91646491 2.78217621 -52.46484375 2.47265625 C-46.07952804 2.16457399 -39.69759662 1.81779571 -33.31640625 1.43359375 C-32.53594437 1.38663864 -31.75548248 1.33968353 -30.95137024 1.29130554 C-27.26555625 1.06826818 -23.58005225 0.8408627 -19.89477539 0.60913086 C-13.24792278 0.20194591 -6.65941114 -0.10245248 0 0 Z " fill="#195C34" transform="translate(770,241)"/>
<path d="M0 0 C9.63965586 4.63576095 18.99838779 9.631169 28.25732422 14.98632812 C36.38587132 19.67818952 44.59017996 24.22531442 52.8125 28.75 C53.47035492 29.112146 54.12820984 29.47429199 54.80599976 29.84741211 C58.53614385 31.90044304 62.26751709 33.95122334 66 36 C66 39.95782286 64.75270073 40.66724162 62.0625 43.5 C58.77961433 47.03383949 55.64153618 50.61114835 52.625 54.375 C48.94363311 58.92860712 45.07225527 63.23582516 41.08642578 67.51904297 C38.09587359 70.75176204 35.26228315 74.06687666 32.5 77.5 C28.8643595 82.01858176 25.03163598 86.27983329 21.08374023 90.52172852 C18.11284372 93.7329905 15.30038923 97.02627815 12.5625 100.4375 C8.71954521 105.21541338 4.63168671 109.68994984 0.44384766 114.16162109 C-3.47906854 118.37429105 -7.11911024 122.76413555 -10.72265625 127.25390625 C-13.66077451 130.79678299 -16.78231178 134.15441772 -19.91650391 137.52197266 C-22.88730066 140.73316873 -25.69968321 144.02636841 -28.4375 147.4375 C-32.28045479 152.21541338 -36.36831329 156.68994984 -40.55615234 161.16162109 C-44.47906854 165.37429105 -48.11911024 169.76413555 -51.72265625 174.25390625 C-54.66077451 177.79678299 -57.78231178 181.15441772 -60.91650391 184.52197266 C-63.88730066 187.73316873 -66.69968321 191.02636841 -69.4375 194.4375 C-73.28045479 199.21541338 -77.36831329 203.68994984 -81.55615234 208.16162109 C-85.47906854 212.37429105 -89.11911024 216.76413555 -92.72265625 221.25390625 C-95.21826469 224.26319052 -97.83765143 227.13938654 -100.5 230 C-103.97419243 233.73327255 -107.3006871 237.52371111 -110.5 241.5 C-114.1356405 246.01858176 -117.96836402 250.27983329 -121.91625977 254.52172852 C-124.88715628 257.7329905 -127.69961077 261.02627815 -130.4375 264.4375 C-134.27422959 269.20767364 -138.35412828 273.67627928 -142.53637695 278.13964844 C-146.65163496 282.55731405 -150.48689117 287.13836387 -154.2578125 291.85546875 C-156 294 -156 294 -158 296 C-158.02038538 297.62500568 -157.99164105 299.25076856 -157.9375 300.875 C-158.48446628 308.49274862 -163.42347041 312.48805981 -168.55859375 317.53125 C-170.70839462 319.721833 -172.59403731 322.09682965 -174.5 324.5 C-178.1356405 329.01858176 -181.96836402 333.27983329 -185.91625977 337.52172852 C-188.88715628 340.7329905 -191.69961077 344.02627815 -194.4375 347.4375 C-198.28110057 352.21621628 -202.36960164 356.69157687 -206.55834961 361.16381836 C-209.67553945 364.51099327 -212.63573798 367.93005023 -215.5 371.5 C-219.38374081 376.33875904 -223.51148881 380.88694901 -227.74536133 385.41674805 C-230.46435545 388.32721441 -233.12402847 391.26221537 -235.6875 394.3125 C-236.450625 395.199375 -237.21375 396.08625 -238 397 C-238.33 397 -238.66 397 -239 397 C-239.28142023 381.9875104 -239.49246198 366.97522647 -239.62174606 351.96065331 C-239.68339607 344.98751571 -239.76729998 338.01602498 -239.90527344 331.04394531 C-240.03853059 324.30692763 -240.10753872 317.57196758 -240.13852692 310.8335762 C-240.16058954 308.2714926 -240.20367499 305.70949556 -240.26876068 303.14814377 C-240.83454859 279.94587128 -240.83454859 279.94587128 -233.14819336 271.57373047 C-231.16440709 269.61529486 -229.11748933 267.82059948 -227 266 C-225.79003515 264.64512122 -224.59878234 263.27221465 -223.45703125 261.859375 C-223.00392578 261.32699219 -222.55082031 260.79460937 -222.08398438 260.24609375 C-221.45459961 259.50552734 -221.45459961 259.50552734 -220.8125 258.75 C-220.35037109 258.20988281 -219.88824219 257.66976563 -219.41210938 257.11328125 C-216.9489598 254.23302271 -216.9489598 254.23302271 -215 251 C-214.34 251 -213.68 251 -213 251 C-212.75894531 250.43925781 -212.51789063 249.87851562 -212.26953125 249.30078125 C-210.7382177 246.52556993 -208.85403695 244.49968649 -206.6875 242.1875 C-203.92642163 239.1911529 -201.35452228 236.24441 -199.0625 232.875 C-198.381875 231.92625 -197.70125 230.9775 -197 230 C-196.34 230 -195.68 230 -195 230 C-194.7525 229.44828125 -194.505 228.8965625 -194.25 228.328125 C-192.75765526 225.54863293 -190.96327477 223.2185293 -189 220.75 C-188.29875 219.85796875 -187.5975 218.9659375 -186.875 218.046875 C-185.946875 217.03367187 -185.946875 217.03367187 -185 216 C-184.34 216 -183.68 216 -183 216 C-182.75378906 215.43410156 -182.50757813 214.86820313 -182.25390625 214.28515625 C-180.78463776 211.60751742 -179.02247565 209.66956388 -176.9375 207.4375 C-173.66981527 203.87703072 -170.53520807 200.2606708 -167.5 196.5 C-163.82336991 191.94920611 -159.96081876 187.61906204 -156.01171875 183.3046875 C-154.20353383 181.23317468 -152.61424462 179.14118423 -151.0625 176.875 C-150.381875 175.92625 -149.70125 174.9775 -149 174 C-148.34 174 -147.68 174 -147 174 C-146.75378906 173.43410156 -146.50757813 172.86820313 -146.25390625 172.28515625 C-144.78463776 169.60751742 -143.02247565 167.66956388 -140.9375 165.4375 C-135.28487205 159.27265981 -129.64645161 152.96967741 -125 146 C-124.34 146 -123.68 146 -123 146 C-122.75378906 145.43410156 -122.50757813 144.86820313 -122.25390625 144.28515625 C-120.78463776 141.60751742 -119.02247565 139.66956388 -116.9375 137.4375 C-113.66981527 133.87703072 -110.53520807 130.2606708 -107.5 126.5 C-103.88967558 122.03723787 -100.11572071 117.77280467 -96.25 113.53125 C-93.92137947 110.9115519 -91.70437053 108.2248469 -89.5 105.5 C-85.88967558 101.03723787 -82.11572071 96.77280467 -78.25 92.53125 C-75.92137947 89.9115519 -73.70437053 87.2248469 -71.5 84.5 C-67.88967558 80.03723787 -64.11572071 75.77280467 -60.25 71.53125 C-57.92137947 68.9115519 -55.70437053 66.2248469 -53.5 63.5 C-49.88967558 59.03723787 -46.11572071 54.77280467 -42.25 50.53125 C-39.92137947 47.9115519 -37.70437053 45.2248469 -35.5 42.5 C-31.88967558 38.03723787 -28.11572071 33.77280467 -24.25 29.53125 C-21.13669752 26.02878471 -18.21336328 22.38327117 -15.26953125 18.73828125 C-12.31485116 15.17334021 -9.19944543 11.77317551 -6.04296875 8.38671875 C-3.77149881 5.73305119 -1.88589664 2.9369132 0 0 Z " fill="#195B34" transform="translate(471,110)"/>
<path d="M0 0 C3.41036523 0.32250939 4.97688479 1.66429761 7.25 4.125 C10.26909354 7.27927683 13.40799511 10.18227271 16.71484375 13.03125 C17.46894531 13.6809375 18.22304687 14.330625 19 15 C19.63891218 15.46010483 20.27782437 15.92020965 20.93609753 16.39425705 C26.53313743 20.69092135 26.53313743 20.69092135 27.75437767 24.11526851 C28.0462569 26.56111965 28.09415947 28.90239961 28.05421543 31.36543846 C28.0709361 32.29294261 28.08765676 33.22044676 28.10488412 34.1760571 C28.15119667 37.29011956 28.1406163 40.4013645 28.13026428 43.51571655 C28.15165363 45.76849013 28.17647272 48.02123332 28.20442957 50.27393496 C28.27092082 56.46945528 28.28718088 62.66424936 28.29500115 68.86008453 C28.31013247 74.85494244 28.36250974 80.84944798 28.41309397 86.84408617 C28.54628816 102.90671693 28.59815046 118.9693081 28.64046482 135.03238874 C28.66103958 142.63831121 28.69148188 150.24418493 28.72301699 157.85006866 C28.83077407 183.90723181 28.92078284 209.96437259 28.95235538 236.0217495 C28.95438154 237.65728857 28.95640992 239.29282763 28.95844051 240.9283667 C28.96046277 242.56778414 28.96248467 244.20720157 28.96450621 245.84661901 C28.96857002 249.13537626 28.97267576 252.42413346 28.97680664 255.71289062 C28.97831547 256.93601981 28.97831547 256.93601981 28.97985478 258.18385868 C29.01312137 284.59070127 29.14784125 310.99565679 29.34369513 337.40176129 C29.55057453 365.34573504 29.66593821 393.28862759 29.67757505 421.23338759 C29.67919263 424.30649762 29.68118015 427.3796072 29.68343925 430.45271683 C29.68395283 431.20935536 29.6844664 431.9659939 29.68499553 432.74556088 C29.69534758 444.88009717 29.7878927 457.01264771 29.91049049 469.14650928 C30.03184897 481.36711315 30.0591522 493.58522209 29.99364001 505.80627333 C29.96062079 512.41771672 29.96945062 519.0239765 30.08780289 525.63496971 C30.83763089 569.92696745 30.83763089 569.92696745 17.89816231 583.52492392 C4.99354672 596 4.99354672 596 1 596 C0.67 400.64 0.34 205.28 0 4 C-13.86 17.86 -27.72 31.72 -42 46 C-42 43 -42 43 -39.35717773 40.0324707 C-38.14011649 38.82268259 -36.914965 37.62100097 -35.68359375 36.42578125 C-35.03431412 35.78311813 -34.38503448 35.14045502 -33.71607971 34.47831726 C-31.6301673 32.41585839 -29.53442773 30.36375351 -27.4375 28.3125 C-25.36722646 26.27750012 -23.29916342 24.2403275 -21.23390198 22.20024109 C-19.94823426 20.9312915 -18.65948246 19.66545577 -17.36705017 18.40339661 C-12.50111032 13.61658569 -8.02390585 8.55018365 -3.59983826 3.3561554 C-2.3125 1.9375 -2.3125 1.9375 0 0 Z " fill="#084010" transform="translate(1039,313)"/>
<path d="M0 0 C0.32810095 17.09877555 0.57442657 34.19655915 0.72537041 51.29776955 C0.79734338 59.23962705 0.89532393 67.17952093 1.05615234 75.12011719 C1.19638572 82.04721828 1.28617278 88.97289684 1.31723893 95.90137804 C1.33538237 99.56561936 1.37750469 103.22579423 1.48022079 106.88872147 C2.1616136 132.12083171 2.1616136 132.12083171 -5.10453606 140.06799889 C-7.92201491 142.67909519 -10.79380214 144.88169636 -14 147 C-14.66 146.67 -15.32 146.34 -16 146 C-15.00523651 145.25902069 -14.01047302 144.51804138 -12.98556519 143.75460815 C-7.22636379 139.05435716 -2.03695567 134.47300461 -0.74859619 126.86676025 C-0.20728696 120.82818013 -0.42188896 114.80818117 -0.6328125 108.7578125 C-0.65897465 106.53586104 -0.6788793 104.31382797 -0.69284058 102.09176636 C-0.74590757 96.28634583 -0.88305881 90.48595049 -1.03869629 84.68249512 C-1.18277569 78.74344861 -1.2460344 72.80357739 -1.31640625 66.86328125 C-1.46586154 55.23999788 -1.70430017 43.6204192 -2 32 C-2.8971875 32.90242432 -3.794375 33.80484863 -4.71875 34.73461914 C-8.07828482 38.11238386 -11.44123444 41.48673165 -14.80517578 44.86010742 C-16.25498917 46.31492017 -17.70390017 47.77063283 -19.15185547 49.22729492 C-21.24464643 51.33234551 -23.34076374 53.43403619 -25.4375 55.53515625 C-26.07429688 56.17711441 -26.71109375 56.81907257 -27.3671875 57.48048401 C-30.4606307 60.57430404 -33.59783532 63.5574897 -36.91320801 66.41320801 C-41.47142747 70.35279598 -45.70652485 74.58114117 -49.95117188 78.85351562 C-50.80755753 79.71136154 -51.66394318 80.56920746 -52.54627991 81.45304871 C-54.87240062 83.78393779 -57.19631161 86.11700368 -59.5193882 88.45092583 C-61.96518524 90.90678436 -64.41429117 93.35933813 -66.86315918 95.81213379 C-73.07842481 102.03844745 -79.28943934 108.26899379 -85.5 114.5 C-92.20743514 121.22951643 -98.91562208 127.95827336 -105.62872171 134.68213987 C-108.05945553 137.11701463 -110.48911141 139.55294484 -112.91624451 141.9914093 C-115.62484752 144.71203025 -118.33652328 147.42955464 -121.04882812 150.14648438 C-122.23515587 151.3405616 -122.23515587 151.3405616 -123.44544983 152.5587616 C-126.87282611 155.98646076 -130.32118816 159.32988401 -133.9942627 162.4942627 C-138.56210598 166.43033566 -142.79472624 170.66964334 -147.04296875 174.9453125 C-147.90910797 175.81291199 -148.77524719 176.68051147 -149.66763306 177.57440186 C-151.5358685 179.4464238 -153.40317994 181.31931413 -155.26895142 183.19378662 C-158.22622291 186.16470542 -161.18741671 189.13169453 -164.14916992 192.09814453 C-170.43576481 198.39578833 -176.7181091 204.6976645 -183 211 C-189.78442475 217.80650487 -196.56960065 224.61225099 -203.35968876 231.41310692 C-206.29678856 234.35515395 -209.23144133 237.29961272 -212.16416931 240.24601746 C-214.42644662 242.51757991 -216.69201702 244.78585457 -218.95703125 247.0546875 C-219.75726715 247.86008972 -220.55750305 248.66549194 -221.38198853 249.49530029 C-224.83972705 252.95336094 -228.31699168 256.32566451 -232.02557373 259.5146637 C-236.47341531 263.34675639 -240.54539832 267.50146028 -244.63378906 271.71069336 C-246.34151674 273.45805412 -248.0494742 275.20519034 -249.75762939 276.95213318 C-250.65352028 277.86998533 -251.54941116 278.78783749 -252.47245026 279.73350334 C-255.31387149 282.6391813 -258.16298572 285.53705354 -261.01629639 288.43104553 C-261.50189506 288.92358714 -261.98749373 289.41612874 -262.48780751 289.92359585 C-264.48868752 291.95267665 -266.48991696 293.98141245 -268.49132013 296.00997722 C-274.11198564 301.70776098 -279.72228593 307.41491026 -285.30224609 313.15258789 C-327.56415506 356.58463082 -327.56415506 356.58463082 -350.31964111 366.77322388 C-354.23899565 368.56707715 -357.90983982 370.72504004 -361.61328125 372.921875 C-375.17578125 380.671875 -375.17578125 380.671875 -378.25634766 382.42382812 C-379.93783347 383.38980716 -381.61152094 384.36972627 -383.27099609 385.37304688 C-384.81566195 386.30342477 -386.40286816 387.16288262 -388 388 C-388.66 387.67 -389.32 387.34 -390 387 C-389.34680031 386.35013123 -389.34680031 386.35013123 -388.68040466 385.68713379 C-384.11840131 381.14738049 -379.56002233 376.60401065 -375.00366211 372.05859375 C-373.30633333 370.36627089 -371.60810523 368.6748495 -369.90893555 366.984375 C-367.45640659 364.54407631 -365.00720904 362.10047494 -362.55859375 359.65625 C-361.80726669 358.91008423 -361.05593964 358.16391846 -360.28184509 357.3951416 C-356.21162601 353.32534938 -352.30919853 349.17270466 -348.56872559 344.79701233 C-345.87180145 341.70762182 -342.97090063 338.82627138 -340.0625 335.9375 C-339.20881836 335.07801758 -339.20881836 335.07801758 -338.33789062 334.20117188 C-335.39524203 331.26512855 -332.39579745 328.4475397 -329.24002075 325.7412262 C-325.1834069 322.20567332 -321.35521213 318.49002833 -317.56201172 314.67553711 C-316.5066689 313.62041758 -316.5066689 313.62041758 -315.43000603 312.54398251 C-313.09418337 310.20747035 -310.76194581 307.86741335 -308.4296875 305.52734375 C-306.74715097 303.84288628 -305.06438531 302.15865766 -303.38140869 300.47463989 C-299.76782942 296.85790774 -296.15580778 293.23962974 -292.54498291 289.62014771 C-287.31623677 284.3789939 -282.08440725 279.14092912 -276.85159945 273.90383089 C-268.34917439 265.39435167 -259.84862019 256.88300639 -251.34960938 248.37011719 C-250.84184613 247.86152613 -250.33408288 247.35293507 -249.81093287 246.82893217 C-246.20723854 243.21933807 -242.60361145 239.60967685 -239 236 C-234.88350993 231.87658129 -230.76698944 227.75319296 -226.65039062 223.62988281 C-226.1432524 223.12191646 -225.63611417 222.61395011 -225.11360812 222.09059083 C-216.64453038 213.60780664 -208.17347325 205.12700175 -199.70101357 196.64759541 C-194.02084876 190.96256533 -188.34324008 185.27499996 -182.66744995 179.58560181 C-179.13306343 176.04374176 -175.59659362 172.50396744 -172.05956268 168.96474838 C-170.42366894 167.32698696 -168.78863773 165.68836346 -167.15454865 164.04880142 C-164.91801949 161.80501962 -162.67838323 159.56438381 -160.43798828 157.32446289 C-159.79750486 156.68038451 -159.15702145 156.03630613 -158.49712944 155.37271023 C-154.76336246 151.64735363 -150.90301161 148.13661037 -146.91346908 144.68761432 C-144.03382912 142.14787031 -141.32582127 139.4543612 -138.62258911 136.72938538 C-138.03321686 136.13945641 -137.4438446 135.54952745 -136.83661258 134.94172186 C-134.88754029 132.98964444 -132.94207325 131.03401504 -130.99658203 129.07836914 C-129.59002982 127.66825625 -128.18323932 126.25838101 -126.77622986 124.84872437 C-123.76018636 121.8261573 -120.74565905 118.80208915 -117.7322731 115.77687263 C-112.97077219 110.99702365 -108.20487753 106.22157198 -103.4382019 101.44688416 C-89.88928469 87.87385228 -76.34635155 74.29485862 -62.80761719 60.71166992 C-55.32024883 53.19979448 -47.82932325 45.69148476 -40.3345269 38.18702024 C-35.59086896 33.43680568 -30.85176033 28.68211206 -26.11592412 23.92410004 C-23.17886642 20.9753566 -20.23767902 18.03076022 -17.29527473 15.08735275 C-15.9268968 13.71681816 -14.5602521 12.34455066 -13.19542885 10.97047615 C-11.3400009 9.1029538 -9.47860226 7.24159965 -7.61550903 5.38172913 C-7.07038607 4.83009836 -6.5252631 4.27846759 -5.96362126 3.71012074 C-2.22821536 0 -2.22821536 0 0 0 Z " fill="#185C34" transform="translate(880,703)"/>
<path d="M0 0 C1.15985098 0.02799683 2.31970196 0.05599365 3.51469994 0.08483887 C4.72807848 0.13515259 5.94145702 0.18546631 7.19160461 0.23730469 C8.35212656 0.28342896 9.51264851 0.32955322 10.70833778 0.3770752 C14.49706834 0.55012456 18.2832697 0.75665898 22.06977844 0.97167969 C23.51008456 1.05080207 24.95040801 1.12960944 26.39074707 1.20812988 C30.2578032 1.41982102 34.12460529 1.6358555 37.9913733 1.85273743 C42.04842827 2.07952896 46.10570771 2.3022326 50.16296387 2.52539062 C57.82670628 2.94752572 65.4902432 3.37327753 73.15371102 3.80036545 C81.88645915 4.28686538 90.61943164 4.76927762 99.35242426 5.25136566 C117.29906909 6.2421665 135.24542925 7.23803847 153.19160461 8.23730469 C153.56983901 27.44265175 153.84964532 46.64721703 154.02059937 65.85554981 C154.10218231 74.77991021 154.21324452 83.70190033 154.39863586 92.62475586 C156.00694361 171.55912006 156.00694361 171.55912006 137.19160461 204.23730469 C136.53160461 204.89730469 135.87160461 205.55730469 135.19160461 206.23730469 C135.19160461 151.78730469 135.19160461 97.33730469 135.19160461 41.23730469 C132.55160461 41.23730469 129.91160461 41.23730469 127.19160461 41.23730469 C124.85539667 40.9247539 122.52191378 40.59116162 120.19160461 40.23730469 C117.44156612 40.02912437 114.69970487 39.84641454 111.94673157 39.6965332 C111.15187851 39.65083191 110.35702545 39.60513062 109.53808594 39.55804443 C107.81895712 39.45960585 106.09974894 39.36254548 104.38047218 39.26672554 C101.62905753 39.11337807 98.87786993 38.95639867 96.12670898 38.79856873 C91.24351139 38.51903055 86.36013829 38.24270229 81.47669983 37.96740723 C72.81505028 37.47904122 64.15361184 36.98703113 55.49238586 36.49121094 C54.55771862 36.4378508 53.62305138 36.38449066 52.66006088 36.32951355 C40.29047004 35.62124558 27.93392593 34.81978198 15.57809448 33.89958191 C4.54150074 33.08946865 -6.50273166 32.57818663 -17.55839539 32.11230469 C-19.55059832 32.02541835 -21.5427859 31.93817899 -23.53495789 31.85058594 C-28.29260521 31.64213518 -33.05042752 31.43830007 -37.80839539 31.23730469 C-37.04180603 30.47144043 -36.27521667 29.70557617 -35.48539734 28.91650391 C-33.64337585 27.0729705 -31.80537092 25.22647425 -29.97636414 23.37011719 C-24.99608659 18.33683153 -20.04031949 13.36161324 -14.58183289 8.83886719 C-12.74417988 7.26485793 -12.74417988 7.26485793 -11.22245789 5.26074219 C-7.75383541 1.01379467 -5.5438036 -0.1558573 0 0 Z " fill="#0F5C7F" transform="translate(1009.8083953857422,941.7626953125)"/>
<path d="M0 0 C16.81264603 3.00225822 33.61685213 6.01189782 50.40039062 9.16748047 C53.58429241 9.76584134 56.76868972 10.36151678 59.953125 10.95703125 C62.00002916 11.3409904 64.04690534 11.72509878 66.09375 12.109375 C67.03520874 12.28539246 67.97666748 12.46140991 68.94665527 12.64276123 C69.81697388 12.80673401 70.68729248 12.97070679 71.58398438 13.13964844 C72.34336304 13.28223083 73.1027417 13.42481323 73.88513184 13.57171631 C75.94188134 13.98823034 77.96870423 14.4742334 80 15 C80.75376791 18.86781915 80.83874011 22.13614106 80 26 C77.20826705 29.94728542 73.9185447 33.17404465 70.45751953 36.53125 C68.29157881 38.71387971 66.40721536 41.09088586 64.5 43.5 C60.8643595 48.01858176 57.03163598 52.27983329 53.08374023 56.52172852 C50.11284372 59.7329905 47.30038923 63.02627815 44.5625 66.4375 C40.71889943 71.21621628 36.63039836 75.69157687 32.44165039 80.16381836 C29.32446055 83.51099327 26.36426202 86.93005023 23.5 90.5 C19.61625919 95.33875904 15.48851119 99.88694901 11.25463867 104.41674805 C8.53564455 107.32721441 5.87597153 110.26221537 3.3125 113.3125 C2.549375 114.199375 1.78625 115.08625 1 116 C0.67 116 0.34 116 0 116 C0 77.72 0 39.44 0 0 Z " fill="#084010" transform="translate(232,391)"/>
<path d="M0 0 C0.33 0 0.66 0 1 0 C1.3782697 19.07495807 1.65805702 38.14912868 1.82899475 57.2270937 C1.91057067 66.09092915 2.02161815 74.95237745 2.20703125 83.81469727 C3.8158947 162.23197993 3.8158947 162.23197993 -15 195 C-15.99 195.99 -15.99 195.99 -17 197 C-17 142.55 -17 88.1 -17 32 C-19.64 32 -22.28 32 -25 32 C-25 31.67 -25 31.34 -25 31 C-22.03 31 -19.06 31 -16 31 C-15.73195557 30.29713867 -15.46391113 29.59427734 -15.18774414 28.87011719 C-13.93582379 25.84492179 -12.5066886 22.98263617 -10.99609375 20.078125 C-10.42052734 18.97082031 -9.84496094 17.86351562 -9.25195312 16.72265625 C-8.65318359 15.57667969 -8.05441406 14.43070313 -7.4375 13.25 C-6.83486328 12.08855469 -6.23222656 10.92710937 -5.61132812 9.73046875 C-1.13006525 1.13006525 -1.13006525 1.13006525 0 0 Z " fill="#084213" transform="translate(1162,951)"/>
<path d="M0 0 C1.20841553 -0.00386719 2.41683105 -0.00773438 3.66186523 -0.01171875 C4.95165283 -0.00269531 6.24144043 0.00632812 7.5703125 0.015625 C8.56528244 0.01828369 8.56528244 0.01828369 9.58035278 0.02099609 C25.65379989 0.07079541 41.66934289 1.10604363 57.6953125 2.265625 C57.34906326 2.71437485 57.00281403 3.16312469 56.64607239 3.62547302 C56.15676743 4.26783401 55.66746246 4.91019501 55.16333008 5.57202148 C54.60642487 6.30266815 54.04951965 7.03331482 53.47573853 7.78610229 C51.65606067 10.248152 51.65606067 10.248152 50.10458374 12.91970825 C45.3181412 20.80984811 39.54653827 27.98335284 30.6953125 31.265625 C14.47491596 34.60849518 -3.47054837 31.59940793 -19.76763916 30.04278564 C-25.99687179 29.47471001 -32.23569491 29.04587292 -38.47460938 28.59960938 C-47.54920999 27.92553033 -56.61937132 27.21490193 -65.68041992 26.37670898 C-67.1069136 26.25385025 -67.1069136 26.25385025 -68.56222534 26.12850952 C-69.42652664 26.04492691 -70.29082794 25.9613443 -71.18132019 25.87522888 C-71.93388186 25.80555121 -72.68644354 25.73587355 -73.46181011 25.66408443 C-75.3046875 25.265625 -75.3046875 25.265625 -77.3046875 23.265625 C-69.08154271 20.56051081 -60.85791658 17.85686635 -52.6336813 15.15506935 C-48.81438985 13.9003186 -44.99526277 12.64507237 -41.17651367 11.38867188 C-37.48755728 10.17499486 -33.79816613 8.96264805 -30.10847664 7.75120163 C-28.70460684 7.29001057 -27.3008913 6.8283497 -25.89733696 6.36619949 C-23.92342601 5.71633832 -21.94896087 5.06818744 -19.97436523 4.42041016 C-18.85295639 4.05178864 -17.73154755 3.68316711 -16.57615662 3.30337524 C-10.9377578 1.51480579 -5.94236752 0.0127421 0 0 Z " fill="#0B541E" transform="translate(401.3046875,909.734375)"/>
<path d="M0 0 C-2.93104906 4.97003972 -6.58575234 8.68775311 -10.703125 12.7109375 C-13.98882757 15.98546421 -16.98178586 19.48097599 -20 23 C-21.43285689 24.64987719 -22.87040547 26.29569094 -24.3125 27.9375 C-24.96863281 28.68902344 -25.62476563 29.44054687 -26.30078125 30.21484375 C-32.52933049 36.75840008 -50.65194554 34.94059485 -59.2578125 35.1875 C-69.96732003 35.35346286 -76.47027796 32.96420086 -85.15332031 26.81884766 C-91.07145793 23.03753331 -97.49872665 20.1239684 -103.80160522 17.04385376 C-107.62159917 15.17243247 -111.42495111 13.26781866 -115.23046875 11.3671875 C-117.48659295 10.24401332 -119.74329298 9.12200292 -122 8 C-122 7.67 -122 7.34 -122 7 C-99.64309778 5.21573863 -77.2962903 3.66850309 -54.89399719 2.58816528 C-53.70896858 2.53098831 -53.70896858 2.53098831 -52.5 2.47265625 C-51.71598312 2.4349411 -50.93196625 2.39722595 -50.12419128 2.35836792 C-44.51807293 2.08473677 -38.91512509 1.77100734 -33.3125 1.43359375 C-32.53228485 1.38663864 -31.7520697 1.33968353 -30.94821167 1.29130554 C-27.26353361 1.06824468 -23.57916637 0.84078825 -19.89501953 0.60913086 C-13.2480848 0.20196605 -6.65949236 -0.10245373 0 0 Z " fill="#105C7F" transform="translate(770,241)"/>
<path d="M0 0 C0.99902344 0.00322266 1.99804688 0.00644531 3.02734375 0.00976562 C4.52201172 0.02233398 4.52201172 0.02233398 6.046875 0.03515625 C7.08972656 0.03966797 8.13257813 0.04417969 9.20703125 0.04882812 C11.73704354 0.06043369 14.26692542 0.07675555 16.796875 0.09765625 C15.1707176 3.48887107 13.27104168 6.13505075 10.859375 9.03515625 C10.0653125 9.99035156 9.27125 10.94554687 8.453125 11.9296875 C8.02644531 12.43838379 7.59976563 12.94708008 7.16015625 13.47119141 C5.71079802 15.20035053 4.26954103 16.93609187 2.828125 18.671875 C1.83904947 19.85589313 0.84947474 21.03949445 -0.140625 22.22265625 C-0.61298584 22.79105225 -1.08534668 23.35944824 -1.57202148 23.94506836 C-5.80764469 28.97357441 -5.80764469 28.97357441 -9.05105591 29.26196861 C-14.68984217 29.30444907 -19.73400414 28.55526713 -25.1953125 27.20166016 C-26.04358109 27.00004776 -26.89184967 26.79843536 -27.76582336 26.5907135 C-30.53913711 25.92868148 -33.30860895 25.25194721 -36.078125 24.57421875 C-38.0132694 24.10752781 -39.94857484 23.64150412 -41.8840332 23.17611694 C-45.9234933 22.2024057 -49.96112639 21.22153728 -53.99755859 20.23535156 C-59.1810344 18.96940635 -64.36837629 17.72021603 -69.55712891 16.47609901 C-73.54588879 15.51802896 -77.53266463 14.55191288 -81.51885986 13.58323288 C-83.43214373 13.11918753 -85.346005 12.65751639 -87.26043701 12.19823074 C-89.92437082 11.55771692 -92.58548412 10.90660543 -95.24609375 10.25244141 C-96.43976311 9.96867897 -96.43976311 9.96867897 -97.657547 9.67918396 C-99.52278001 9.21456732 -101.36637892 8.66451306 -103.203125 8.09765625 C-103.533125 7.43765625 -103.863125 6.77765625 -104.203125 6.09765625 C-103.15235779 6.03723648 -102.10159058 5.97681671 -101.01898193 5.91456604 C-91.07451119 5.34255088 -81.13013539 4.76890953 -71.18584824 4.19371128 C-66.07446574 3.89810977 -60.96305247 3.60306403 -55.8515625 3.30932617 C-50.91073164 3.0253743 -45.96999 2.73991322 -41.0293045 2.45344353 C-39.152479 2.34488064 -37.27562295 2.23684453 -35.39873505 2.12936592 C-26.44138236 1.61611174 -17.49917881 1.07006947 -8.56072998 0.28504944 C-5.70247188 0.05786206 -2.86685414 -0.01666776 0 0 Z " fill="#0B4819" transform="translate(140.203125,277.90234375)"/>
<path d="M0 0 C0.33 196.35 0.66 392.7 1 595 C0.34 595.33 -0.32 595.66 -1 596 C-1.33 400.64 -1.66 205.28 -2 4 C-15.86 17.86 -29.72 31.72 -44 46 C-44 43 -44 43 -41.35717773 40.0324707 C-40.14011649 38.82268259 -38.914965 37.62100097 -37.68359375 36.42578125 C-37.03431412 35.78311813 -36.38503448 35.14045502 -35.71607971 34.47831726 C-33.6301673 32.41585839 -31.53442773 30.36375351 -29.4375 28.3125 C-27.36722646 26.27750012 -25.29916342 24.2403275 -23.23390198 22.20024109 C-21.94823426 20.9312915 -20.65948246 19.66545577 -19.36705017 18.40339661 C-15.57875125 14.67670224 -12.01357155 10.82020578 -8.55116272 6.78849792 C-2.66350428 0 -2.66350428 0 0 0 Z " fill="#066227" transform="translate(1041,313)"/>
<path d="M0 0 C1.51787109 0.00483398 1.51787109 0.00483398 3.06640625 0.00976562 C4.09636719 0.01814453 5.12632812 0.02652344 6.1875 0.03515625 C7.77884766 0.04192383 7.77884766 0.04192383 9.40234375 0.04882812 C11.99745598 0.06051782 14.59244709 0.07690349 17.1875 0.09765625 C15.5613426 3.48887107 13.66166668 6.13505075 11.25 9.03515625 C10.4559375 9.99035156 9.661875 10.94554687 8.84375 11.9296875 C8.41707031 12.43838379 7.99039063 12.94708008 7.55078125 13.47119141 C6.10142302 15.20035053 4.66016603 16.93609187 3.21875 18.671875 C2.22967447 19.85589313 1.24009974 21.03949445 0.25 22.22265625 C-0.22236084 22.79105225 -0.69472168 23.35944824 -1.18139648 23.94506836 C-4.58223592 27.98252421 -4.58223592 27.98252421 -6.8125 29.09765625 C-9.1225 29.09765625 -11.4325 29.09765625 -13.8125 29.09765625 C-13.8125 19.85765625 -13.8125 10.61765625 -13.8125 1.09765625 C-8.94814999 0.4896125 -4.78518539 -0.02718855 0 0 Z " fill="#115D80" transform="translate(139.8125,277.90234375)"/>
<path d="M0 0 C0 16.5 0 33 0 50 C-0.33 50 -0.66 50 -1 50 C-1.33 34.82 -1.66 19.64 -2 4 C-15.86 17.86 -29.72 31.72 -44 46 C-44 43 -44 43 -41.35717773 40.0324707 C-40.14011649 38.82268259 -38.914965 37.62100097 -37.68359375 36.42578125 C-37.03431412 35.78311813 -36.38503448 35.14045502 -35.71607971 34.47831726 C-33.6301673 32.41585839 -31.53442773 30.36375351 -29.4375 28.3125 C-27.36722646 26.27750012 -25.29916342 24.2403275 -23.23390198 22.20024109 C-21.94823426 20.9312915 -20.65948246 19.66545577 -19.36705017 18.40339661 C-15.57875125 14.67670224 -12.01357155 10.82020578 -8.55116272 6.78849792 C-2.66350428 0 -2.66350428 0 0 0 Z " fill="#03630B" transform="translate(1041,313)"/>
</svg>
