<svg version="1.1" id="Layer_1" xmlns="http://www.w3.org/2000/svg" xmlns:xlink="http://www.w3.org/1999/xlink" x="0px" y="0px"
	 width="100%" viewBox="0 0 1024 1024" enable-background="new 0 0 1024 1024" xml:space="preserve">
<path fill="#FEFEFF" opacity="1.000000" stroke="none" 
	d="
M681.000000,1025.000000 
	C454.000000,1025.000000 227.500000,1025.000000 1.000000,1025.000000 
	C1.000000,683.666687 1.000000,342.333344 1.000000,1.000000 
	C342.333344,1.000000 683.666687,1.000000 1025.000000,1.000000 
	C1025.000000,342.333344 1025.000000,683.666687 1025.000000,1025.000000 
	C910.500000,1025.000000 796.000000,1025.000000 681.000000,1025.000000 
M640.341309,647.723816 
	C643.072083,646.976746 646.124329,645.032959 648.484131,645.666870 
	C673.201294,652.306396 698.223633,654.824646 723.656189,651.737976 
	C764.824280,646.741394 800.852539,630.966187 829.182861,599.887817 
	C852.274475,574.556213 861.216919,544.592102 855.852905,510.863525 
	C850.174622,475.158234 829.573181,449.118683 799.588257,430.468994 
	C755.031677,402.756134 706.575562,396.452026 656.055725,408.535217 
	C615.799744,418.163574 582.475525,438.980682 560.597595,475.365906 
	C545.765015,500.034058 542.543640,526.584900 549.667175,554.230225 
	C556.244629,579.756531 570.868958,600.209106 591.569275,616.306152 
	C594.751892,618.780945 595.944153,621.138977 595.234375,625.094421 
	C593.796448,633.108093 592.763733,641.194519 591.563843,649.250916 
	C590.304260,657.707581 589.044556,666.164307 587.784912,674.620972 
	C588.237549,674.964172 588.690125,675.307373 589.142700,675.650513 
	C606.005249,666.487488 622.867859,657.324463 640.341309,647.723816 
M478.479126,813.933350 
	C482.464447,813.933350 486.449738,813.933350 490.729126,813.933350 
	C510.215088,748.359863 529.633301,683.014404 549.118103,617.444946 
	C531.117310,617.444946 513.829956,617.444946 496.606262,617.444946 
	C484.876373,659.902100 473.223328,702.081177 461.570312,744.260193 
	C461.271606,744.272583 460.972931,744.285034 460.674255,744.297424 
	C448.631592,702.029297 436.588898,659.761169 424.509064,617.362671 
	C408.393463,617.362671 392.288788,617.362671 375.908661,617.362671 
	C363.829651,659.724182 351.792694,701.938110 339.521301,744.974304 
	C338.776154,743.622681 338.355927,743.115967 338.198273,742.537659 
	C332.379578,721.192749 326.592316,699.839172 320.785370,678.491028 
	C315.593292,659.403259 310.432190,640.306641 305.088043,621.261475 
	C304.659149,619.733154 302.930328,617.431519 301.778046,617.415039 
	C284.479919,617.167480 267.177155,617.243591 249.569550,617.243591 
	C269.435638,682.988037 289.197235,748.386597 308.937164,813.713562 
	C327.343536,813.713562 345.326141,813.713562 363.740936,813.713562 
	C375.438660,771.717590 387.135101,729.726196 398.831573,687.734802 
	C399.302612,687.774231 399.773682,687.813660 400.244720,687.853088 
	C412.033356,729.747070 423.821991,771.640991 435.722748,813.933411 
	C449.534515,813.933411 463.509674,813.933411 478.479126,813.933350 
M371.369110,486.262695 
	C374.688965,507.597321 378.058044,528.924438 381.302490,550.270508 
	C382.466614,557.929565 386.096954,561.900635 392.452026,561.929504 
	C398.976379,561.959167 402.847229,558.077026 403.894531,550.649658 
	C405.217194,541.269287 406.598419,531.896667 408.025330,522.531494 
	C415.286407,474.874847 422.564911,427.220856 429.858551,379.569153 
	C430.352570,376.341644 431.021484,373.140930 431.609070,369.927734 
	C433.244324,371.848175 433.795166,373.580811 434.160431,375.351715 
	C442.247192,414.558868 450.322998,453.768280 458.374908,492.982605 
	C459.855835,500.195068 462.980286,503.385590 469.321198,503.930023 
	C475.161346,504.431427 478.499146,501.941528 480.833374,494.550323 
	C486.682007,476.031158 492.460449,457.487427 497.967926,438.865051 
	C499.040863,435.237213 500.708099,434.334778 504.224823,434.381927 
	C519.717285,434.589600 535.213806,434.625549 550.707703,434.529663 
	C557.381165,434.488373 561.780823,430.042908 561.609131,424.091736 
	C561.443726,418.356781 556.987427,414.214569 550.677673,414.196747 
	C533.019409,414.146820 515.360840,414.184113 497.702423,414.194275 
	C487.045074,414.200409 482.941284,417.702759 480.135315,428.069458 
	C477.920654,436.251526 475.071167,444.261780 472.503601,452.348358 
	C470.966431,450.680176 470.375000,449.190948 470.062073,447.645325 
	C460.600616,400.917053 451.152679,354.186035 441.743164,307.447266 
	C440.294586,300.252167 436.612579,296.929993 429.966431,297.150391 
	C423.834076,297.353790 420.305115,301.016998 419.304840,308.054047 
	C416.521912,327.633392 413.774658,347.218262 410.874359,366.780365 
	C406.705597,394.897766 402.425476,422.998657 398.169067,451.102997 
	C396.508270,462.068665 394.782806,473.024567 393.086823,483.984894 
	C391.642242,482.287354 391.161804,480.574799 390.894897,478.829590 
	C386.018890,446.948334 381.227966,415.053925 376.294220,383.181671 
	C372.200317,356.735107 367.956879,330.311646 363.756012,303.881744 
	C361.175262,287.644562 358.648132,271.397766 355.892670,255.189987 
	C354.891663,249.301773 350.204803,245.955933 344.460938,246.361679 
	C338.714508,246.767593 335.041260,250.392288 334.214783,256.080200 
	C330.174347,283.887299 326.127045,311.693695 321.962280,339.482361 
	C316.740845,374.321625 311.410522,409.144653 306.106720,443.971558 
	C305.282135,449.386200 304.348450,454.784210 303.465240,460.189911 
	C303.011719,460.168640 302.558197,460.147400 302.104675,460.126129 
	C301.685394,458.554749 301.218567,456.994324 300.853821,455.410400 
	C293.545685,423.672180 286.266174,391.927307 278.935364,360.194336 
	C277.575592,354.308350 274.090942,351.315704 268.687012,351.076569 
	C262.422180,350.799377 259.144318,353.048950 257.113495,359.048828 
	C251.362854,376.038788 245.546417,393.007111 239.936981,410.043579 
	C238.878571,413.258179 237.363007,414.347778 233.902802,414.310181 
	C213.243439,414.085663 192.581085,414.125214 171.919724,414.118530 
	C170.104263,414.117920 168.205673,414.138184 166.489456,414.640198 
	C162.135757,415.913757 159.063370,420.701050 159.557358,424.997711 
	C160.182587,430.435822 164.191193,434.381927 170.043320,434.429443 
	C194.369461,434.627136 218.697647,434.708344 243.024292,434.620483 
	C249.272552,434.597900 253.725525,431.220245 255.951706,425.329315 
	C258.359467,418.957794 260.524902,412.495087 262.875732,406.101440 
	C263.780182,403.641693 264.904236,401.262665 265.928223,398.846832 
	C269.634491,410.432098 272.247437,421.738373 274.882080,433.039642 
	C281.252563,460.365570 287.683807,487.677490 293.972015,515.022339 
	C295.442871,521.418396 298.682617,524.686707 304.555176,524.833069 
	C310.367981,524.977844 314.890289,521.425720 315.891632,515.149414 
	C318.404602,499.398773 320.595795,483.597137 322.984039,467.826233 
	C328.882385,428.875854 334.815582,389.930725 340.742340,350.984650 
	C342.109863,341.998291 343.507538,333.016510 344.891327,324.032623 
	C347.700684,334.124329 349.527832,344.204712 351.108887,354.323517 
	C355.110657,379.934692 359.001617,405.563141 362.937561,431.184601 
	C365.713196,449.252747 368.489868,467.320770 371.369110,486.262695 
M802.928894,294.639130 
	C806.158325,300.425354 809.627991,306.093628 812.544250,312.033600 
	C815.059143,317.155975 818.214600,319.819275 824.397034,319.045929 
	C829.972107,318.348633 835.703369,318.901001 841.365784,318.901825 
	C844.394470,318.902283 847.423157,318.901917 851.146790,318.901917 
	C842.950378,306.111176 835.368652,294.279572 827.769592,282.420959 
	C830.081787,280.799774 832.242920,279.541779 834.105713,277.937408 
	C848.005493,265.965942 850.118225,250.551941 845.982361,233.899399 
	C841.821472,217.146042 829.134644,209.323883 813.247559,207.692245 
	C797.575073,206.082657 781.682556,206.589554 765.885010,206.238113 
	C760.602722,206.120605 755.315674,206.219543 749.711060,206.219543 
	C749.711060,243.947708 749.711060,281.163116 749.711060,318.637573 
	C760.057983,318.637573 770.118713,318.637573 780.689575,318.637573 
	C780.689575,308.317230 780.689575,298.248444 780.689575,287.763123 
	C784.970642,287.763123 788.794739,288.103058 792.532837,287.681213 
	C797.775330,287.089630 801.104553,288.873291 802.928894,294.639130 
M549.386230,304.949280 
	C550.256836,300.160492 553.109070,298.906616 557.855713,299.076141 
	C567.998291,299.438324 578.167603,298.965851 588.320801,299.139130 
	C599.418152,299.328522 597.462402,297.050110 601.527466,308.138519 
	C602.556152,310.944305 603.587036,313.762238 604.865295,316.456726 
	C605.332947,317.442535 606.510254,318.767914 607.382751,318.782074 
	C617.427734,318.945435 627.476440,318.886230 638.111267,318.886230 
	C634.431885,310.263000 631.083679,302.522034 627.819153,294.745941 
	C616.118225,266.874146 604.419800,239.001205 592.798340,211.096207 
	C591.485291,207.943314 590.071594,205.993668 586.044739,206.235046 
	C579.076538,206.652664 572.043823,206.673874 565.079712,206.221527 
	C560.929321,205.951965 559.347412,207.612305 557.873413,211.146759 
	C546.743958,237.832581 535.375610,264.418610 524.152893,291.065674 
	C520.324219,300.156464 516.698425,309.332733 512.786377,318.945648 
	C519.012146,318.945648 524.497925,318.941620 529.983704,318.946472 
	C544.295898,318.959106 544.295898,318.960632 549.386230,304.949280 
M717.024353,208.623383 
	C715.595032,208.201096 714.182861,207.705460 712.733826,207.367706 
	C695.925171,203.449722 679.208313,202.157318 662.807007,209.228195 
	C643.352661,217.615250 636.760071,243.338730 650.217285,258.953186 
	C656.457886,266.194122 665.271545,269.011719 674.062988,271.638428 
	C681.054199,273.727264 688.202637,275.352081 695.064270,277.792877 
	C700.819336,279.840027 703.468811,284.167236 702.566650,288.755493 
	C701.477905,294.293243 696.962219,295.318481 692.359131,295.774994 
	C682.628784,296.740143 673.505798,294.405975 664.919556,289.985229 
	C659.396301,287.141510 654.057312,283.939911 648.370422,280.749878 
	C645.102905,288.664001 641.958862,296.279114 638.529785,304.584503 
	C644.718079,307.781769 650.380249,311.310333 656.478638,313.746948 
	C676.138062,321.601898 696.098572,323.808899 716.023193,314.684662 
	C728.071777,309.167206 733.902527,299.220367 734.586426,286.188324 
	C735.234619,273.837341 729.949097,264.498688 719.097778,258.837982 
	C713.694214,256.019135 707.630066,254.458038 701.846558,252.378418 
	C694.847107,249.861588 687.686523,247.726303 680.875488,244.779205 
	C677.227600,243.200806 674.971008,239.663101 675.934814,235.356598 
	C676.945740,230.839630 680.867615,229.318359 684.757629,229.528656 
	C691.178772,229.875763 697.733521,230.445755 703.896545,232.141083 
	C710.499023,233.957260 716.713867,237.182678 723.330200,239.888031 
	C726.582336,231.734055 729.759033,223.769073 733.221497,215.087753 
	C727.856934,212.947998 722.811829,210.935654 717.024353,208.623383 
M536.899109,364.638428 
	C538.252441,360.410980 539.605774,356.183533 540.959106,351.956085 
	C543.049194,356.030853 544.041138,360.154449 545.383911,364.160431 
	C548.519531,373.515167 545.500671,371.801788 555.944458,371.800140 
	C556.224121,371.800079 556.503784,371.524353 556.977234,371.275177 
	C560.209717,360.861938 563.484680,350.311798 566.769714,339.729279 
	C559.165466,338.059723 559.120483,338.046692 557.164490,344.796417 
	C555.697937,349.857269 554.366028,354.957123 552.974182,360.039612 
	C550.171814,354.375580 548.289490,348.887756 546.882874,343.280579 
	C546.134766,340.298462 545.225708,338.633789 541.694702,338.720001 
	C538.458618,338.799011 537.058899,339.875549 536.276062,343.026031 
	C534.899353,348.566254 532.992188,353.974640 531.307190,359.438263 
	C530.937378,359.418274 530.567566,359.398285 530.197693,359.378265 
	C528.225281,352.668915 526.252808,345.959564 524.373657,339.567749 
	C521.164246,339.567749 518.462708,339.567749 515.509460,339.567749 
	C518.687012,349.320953 521.966309,358.558472 524.619934,367.972382 
	C525.572998,371.353546 527.100037,372.215546 530.166016,371.884552 
	C531.630005,371.726471 533.125183,371.857330 534.701172,371.857330 
	C535.429749,369.529663 536.072815,367.475311 536.899109,364.638428 
M603.922607,341.843994 
	C603.922607,351.750214 603.922607,361.656433 603.922607,371.854950 
	C611.051941,371.854950 617.189819,371.904358 623.326416,371.838654 
	C627.884644,371.789886 632.096375,370.649292 633.942444,365.975098 
	C635.839905,361.170746 633.620972,357.410004 629.660278,354.278748 
	C633.180298,351.340729 634.680237,347.232269 632.199646,344.004791 
	C630.317261,341.555634 626.252197,340.077179 622.948853,339.591492 
	C617.894775,338.848419 612.657104,339.226318 607.504700,339.376801 
	C606.341919,339.410736 605.208984,340.466553 603.922607,341.843994 
M728.885620,363.506592 
	C729.307251,362.031494 729.325439,360.221436 730.222473,359.140991 
	C733.566895,355.112762 733.804077,350.587524 732.478516,345.971741 
	C731.294006,341.847046 727.771973,339.740601 723.808838,339.478027 
	C717.566406,339.064423 711.276428,339.368042 704.817749,339.368042 
	C704.817749,350.186188 704.817749,360.594147 704.817749,371.304810 
	C707.632690,371.304810 710.174805,371.304810 712.949036,371.304810 
	C712.949036,369.640869 712.922729,368.317535 712.954102,366.995544 
	C713.042603,363.268921 716.612061,361.091248 719.546509,363.164093 
	C720.664673,363.954010 721.209717,365.578857 721.967102,366.852234 
	C725.247620,372.367676 727.022339,372.980042 733.634949,370.777313 
	C732.180420,368.544067 730.736633,366.327332 728.885620,363.506592 
M682.536255,339.328979 
	C679.125916,339.328979 675.715515,339.328979 672.027344,339.328979 
	C672.027344,350.471771 672.027344,360.890533 672.027344,371.458618 
	C680.838318,371.458618 689.366882,371.458618 698.414185,371.458618 
	C698.274170,369.125244 698.161743,367.251251 698.037354,365.177582 
	C693.208008,365.177582 688.871033,365.428101 684.594116,365.031311 
	C683.237122,364.905396 681.273621,363.256500 680.928772,361.950439 
	C680.200195,359.190948 682.126099,358.242767 684.760254,358.322998 
	C688.200623,358.427765 691.646606,358.348633 695.301025,358.348633 
	C695.301025,356.023651 695.301025,354.306885 695.301025,351.958679 
	C690.271606,351.958679 685.571411,351.958679 680.628113,351.958679 
	C680.754272,349.559662 680.846252,347.809906 680.960205,345.642914 
	C686.615417,345.642914 691.860352,345.642914 697.285645,345.642914 
	C697.285645,343.333832 697.285645,341.472351 697.285645,339.312012 
	C692.450562,339.312012 687.986267,339.312012 682.536255,339.328979 
M593.236938,371.788788 
	C594.690063,371.687866 596.143127,371.586975 597.573547,371.487640 
	C597.573547,369.208527 597.573547,367.317657 597.573547,365.186462 
	C593.259583,365.186462 589.289490,365.177277 585.319397,365.188629 
	C579.554321,365.205109 579.245911,364.796722 580.741211,358.467316 
	C583.942261,358.467316 587.248413,358.491058 590.554138,358.462006 
	C596.137329,358.412903 596.336853,358.129730 594.952148,352.128601 
	C591.225159,352.128601 587.417297,352.056061 583.613953,352.155182 
	C581.244141,352.216949 579.896240,351.688263 579.915894,348.873749 
	C579.936523,345.918030 581.596008,345.746033 583.800415,345.775543 
	C588.098755,345.833130 592.398376,345.792419 597.116699,345.792419 
	C597.116699,343.420105 597.116699,341.414490 597.116699,339.674561 
	C588.450439,339.674561 580.235535,339.674561 572.064880,339.674561 
	C572.064880,350.530365 572.064880,360.934082 572.064880,371.789703 
	C579.019470,371.789703 585.655457,371.789703 593.236938,371.788788 
M828.120667,371.683563 
	C835.906616,371.683563 843.692627,371.683563 851.555054,371.683563 
	C851.555054,369.233551 851.555054,367.354340 851.555054,365.153259 
	C847.254089,365.153259 843.287476,365.156708 839.320801,365.152405 
	C833.484924,365.146088 833.155945,364.709991 834.733398,358.316406 
	C839.302307,358.316406 844.027100,358.316406 849.028748,358.316406 
	C848.921570,355.961945 848.842163,354.217041 848.746582,352.117401 
	C845.232483,352.117401 842.069885,351.867401 838.962646,352.175293 
	C834.150818,352.652069 833.115601,350.497375 834.398376,345.839966 
	C839.713989,345.839966 845.125732,345.839966 850.741089,345.839966 
	C850.741089,343.395203 850.741089,341.475830 850.741089,339.415680 
	C842.318298,339.415680 834.159485,339.415680 825.720764,339.415680 
	C825.720764,349.622650 825.679871,359.256592 825.787170,368.888916 
	C825.797363,369.803528 826.736023,370.707794 828.120667,371.683563 
M641.439758,342.981171 
	C638.181580,350.176758 640.053467,354.699554 647.450439,357.305115 
	C649.325562,357.965607 651.469238,358.062500 653.150696,359.015869 
	C654.706726,359.898041 655.809265,361.580078 657.111511,362.909882 
	C655.281982,363.637573 653.278809,365.238068 651.658081,364.915771 
	C648.004150,364.189178 644.539368,362.511108 640.650330,361.093597 
	C640.277771,363.528687 635.758484,365.768646 639.944153,368.460541 
	C646.282288,372.536774 653.250854,373.628815 660.395325,370.452759 
	C664.251892,368.738342 666.227600,365.592560 666.078735,361.324310 
	C665.931458,357.105927 663.364075,354.664948 659.640381,353.325043 
	C657.300903,352.483185 654.748840,352.153015 652.522156,351.104797 
	C651.099365,350.434967 650.096375,348.873383 648.905151,347.711578 
	C650.604065,347.093872 652.410278,345.770386 653.979004,346.008881 
	C657.022949,346.471680 659.933411,347.812347 663.250366,348.904968 
	C664.154663,346.511444 664.998535,344.278015 665.943604,341.776550 
	C657.403442,338.433624 649.544861,336.353088 641.439758,342.981171 
M815.934143,369.614807 
	C817.280151,368.488342 818.626221,367.361908 819.557312,366.582703 
	C818.070007,364.440948 816.872253,362.716187 815.785767,361.151672 
	C808.715393,366.008972 803.642029,366.018036 799.842896,361.748962 
	C796.805969,358.336456 796.844727,352.382690 799.926514,348.892303 
	C803.690063,344.629791 808.684265,344.737457 815.421143,349.522461 
	C816.993896,348.081909 818.630554,346.582886 820.232727,345.115417 
	C811.386292,335.299713 796.767944,336.929535 791.039917,347.652924 
	C787.710876,353.885223 788.734680,361.331696 793.643677,366.590485 
	C798.910950,372.232971 807.419495,373.552216 815.934143,369.614807 
M740.772644,350.919403 
	C743.297241,357.060181 745.579590,363.321228 748.524719,369.253235 
	C749.220276,370.654083 752.130432,371.516632 754.049805,371.567413 
	C755.530029,371.606567 757.870422,370.340393 758.428833,369.049316 
	C762.620850,359.356293 766.465332,349.512939 770.581177,339.313721 
	C767.649109,339.313721 764.790833,339.313721 762.095825,339.313721 
	C759.307617,346.584564 756.658997,353.491486 753.550964,361.596466 
	C751.045410,355.460938 748.997314,350.598907 747.069824,345.689545 
	C744.245789,338.496552 744.282593,338.482086 736.053467,339.727570 
	C737.519531,343.281677 738.956055,346.764130 740.772644,350.919403 
M776.996582,339.210999 
	C776.253418,340.151672 774.969543,341.040985 774.874268,342.043243 
	C774.641663,344.491394 775.029114,346.991455 775.041870,349.471252 
	C775.079163,356.693115 775.055054,363.915314 775.055054,371.088501 
	C777.913513,371.088501 780.444702,371.088501 783.179810,371.088501 
	C783.179810,365.537537 783.179810,360.415192 783.179810,355.292816 
	C783.179810,350.031738 783.179810,344.770660 783.179810,339.205444 
	C781.111572,339.205444 779.468872,339.205444 776.996582,339.210999 
z"/>
<path fill="#1CA2DB" opacity="1.000000" stroke="none" 
	d="
M640.035889,647.942627 
	C622.867859,657.324463 606.005249,666.487488 589.142700,675.650513 
	C588.690125,675.307373 588.237549,674.964172 587.784912,674.620972 
	C589.044556,666.164307 590.304260,657.707581 591.563843,649.250916 
	C592.763733,641.194519 593.796448,633.108093 595.234375,625.094421 
	C595.944153,621.138977 594.751892,618.780945 591.569275,616.306152 
	C570.868958,600.209106 556.244629,579.756531 549.667175,554.230225 
	C542.543640,526.584900 545.765015,500.034058 560.597595,475.365906 
	C582.475525,438.980682 615.799744,418.163574 656.055725,408.535217 
	C706.575562,396.452026 755.031677,402.756134 799.588257,430.468994 
	C829.573181,449.118683 850.174622,475.158234 855.852905,510.863525 
	C861.216919,544.592102 852.274475,574.556213 829.182861,599.887817 
	C800.852539,630.966187 764.824280,646.741394 723.656189,651.737976 
	C698.223633,654.824646 673.201294,652.306396 648.484131,645.666870 
	C646.124329,645.032959 643.072083,646.976746 640.035889,647.942627 
M705.766235,542.489380 
	C712.570557,540.722168 716.737122,536.414368 717.794678,529.452942 
	C718.843323,522.549866 716.385803,516.932251 710.419006,513.291687 
	C704.845276,509.890991 699.001038,510.193146 693.434265,513.517761 
	C687.374146,517.136902 684.745544,524.790771 686.956116,531.815857 
	C689.309814,539.295959 695.831238,543.220276 705.766235,542.489380 
M624.346436,529.901428 
	C624.785339,531.147339 625.117249,532.444031 625.681152,533.630554 
	C628.596863,539.765137 633.430420,542.942505 640.283020,542.868591 
	C647.136963,542.794678 652.142212,539.549377 654.743103,533.344055 
	C657.321106,527.193542 656.391968,521.283752 651.730957,516.229065 
	C647.152344,511.263794 640.298706,509.735992 633.945374,512.236145 
	C627.322815,514.842224 624.136902,520.383789 624.346436,529.901428 
M765.246765,511.168152 
	C756.184265,511.279938 749.915100,515.951965 748.478394,523.664734 
	C747.058533,531.287415 751.094238,538.996887 757.871643,541.608704 
	C766.987549,545.121704 776.552490,540.762268 779.194031,531.890503 
	C782.075562,522.212830 776.654541,513.667297 765.246765,511.168152 
z"/>
<path fill="#414040" opacity="1.000000" stroke="none" 
	d="
M477.981995,813.933350 
	C463.509674,813.933411 449.534515,813.933411 435.722748,813.933411 
	C423.821991,771.640991 412.033356,729.747070 400.244720,687.853088 
	C399.773682,687.813660 399.302612,687.774231 398.831573,687.734802 
	C387.135101,729.726196 375.438660,771.717590 363.740936,813.713562 
	C345.326141,813.713562 327.343536,813.713562 308.937164,813.713562 
	C289.197235,748.386597 269.435638,682.988037 249.569550,617.243591 
	C267.177155,617.243591 284.479919,617.167480 301.778046,617.415039 
	C302.930328,617.431519 304.659149,619.733154 305.088043,621.261475 
	C310.432190,640.306641 315.593292,659.403259 320.785370,678.491028 
	C326.592316,699.839172 332.379578,721.192749 338.198273,742.537659 
	C338.355927,743.115967 338.776154,743.622681 339.521301,744.974304 
	C351.792694,701.938110 363.829651,659.724182 375.908661,617.362671 
	C392.288788,617.362671 408.393463,617.362671 424.509064,617.362671 
	C436.588898,659.761169 448.631592,702.029297 460.674255,744.297424 
	C460.972931,744.285034 461.271606,744.272583 461.570312,744.260193 
	C473.223328,702.081177 484.876373,659.902100 496.606262,617.444946 
	C513.829956,617.444946 531.117310,617.444946 549.118103,617.444946 
	C529.633301,683.014404 510.215088,748.359863 490.729126,813.933350 
	C486.449738,813.933350 482.464447,813.933350 477.981995,813.933350 
z"/>
<path fill="#1DA4DE" opacity="1.000000" stroke="none" 
	d="
M371.317627,485.825745 
	C368.489868,467.320770 365.713196,449.252747 362.937561,431.184601 
	C359.001617,405.563141 355.110657,379.934692 351.108887,354.323517 
	C349.527832,344.204712 347.700684,334.124329 344.891327,324.032623 
	C343.507538,333.016510 342.109863,341.998291 340.742340,350.984650 
	C334.815582,389.930725 328.882385,428.875854 322.984039,467.826233 
	C320.595795,483.597137 318.404602,499.398773 315.891632,515.149414 
	C314.890289,521.425720 310.367981,524.977844 304.555176,524.833069 
	C298.682617,524.686707 295.442871,521.418396 293.972015,515.022339 
	C287.683807,487.677490 281.252563,460.365570 274.882080,433.039642 
	C272.247437,421.738373 269.634491,410.432098 265.928223,398.846832 
	C264.904236,401.262665 263.780182,403.641693 262.875732,406.101440 
	C260.524902,412.495087 258.359467,418.957794 255.951706,425.329315 
	C253.725525,431.220245 249.272552,434.597900 243.024292,434.620483 
	C218.697647,434.708344 194.369461,434.627136 170.043320,434.429443 
	C164.191193,434.381927 160.182587,430.435822 159.557358,424.997711 
	C159.063370,420.701050 162.135757,415.913757 166.489456,414.640198 
	C168.205673,414.138184 170.104263,414.117920 171.919724,414.118530 
	C192.581085,414.125214 213.243439,414.085663 233.902802,414.310181 
	C237.363007,414.347778 238.878571,413.258179 239.936981,410.043579 
	C245.546417,393.007111 251.362854,376.038788 257.113495,359.048828 
	C259.144318,353.048950 262.422180,350.799377 268.687012,351.076569 
	C274.090942,351.315704 277.575592,354.308350 278.935364,360.194336 
	C286.266174,391.927307 293.545685,423.672180 300.853821,455.410400 
	C301.218567,456.994324 301.685394,458.554749 302.104675,460.126129 
	C302.558197,460.147400 303.011719,460.168640 303.465240,460.189911 
	C304.348450,454.784210 305.282135,449.386200 306.106720,443.971558 
	C311.410522,409.144653 316.740845,374.321625 321.962280,339.482361 
	C326.127045,311.693695 330.174347,283.887299 334.214783,256.080200 
	C335.041260,250.392288 338.714508,246.767593 344.460938,246.361679 
	C350.204803,245.955933 354.891663,249.301773 355.892670,255.189987 
	C358.648132,271.397766 361.175262,287.644562 363.756012,303.881744 
	C367.956879,330.311646 372.200317,356.735107 376.294220,383.181671 
	C381.227966,415.053925 386.018890,446.948334 390.894897,478.829590 
	C391.161804,480.574799 391.642242,482.287354 393.086823,483.984894 
	C394.782806,473.024567 396.508270,462.068665 398.169067,451.102997 
	C402.425476,422.998657 406.705597,394.897766 410.874359,366.780365 
	C413.774658,347.218262 416.521912,327.633392 419.304840,308.054047 
	C420.305115,301.016998 423.834076,297.353790 429.966431,297.150391 
	C436.612579,296.929993 440.294586,300.252167 441.743164,307.447266 
	C451.152679,354.186035 460.600616,400.917053 470.062073,447.645325 
	C470.375000,449.190948 470.966431,450.680176 472.503601,452.348358 
	C475.071167,444.261780 477.920654,436.251526 480.135315,428.069458 
	C482.941284,417.702759 487.045074,414.200409 497.702423,414.194275 
	C515.360840,414.184113 533.019409,414.146820 550.677673,414.196747 
	C556.987427,414.214569 561.443726,418.356781 561.609131,424.091736 
	C561.780823,430.042908 557.381165,434.488373 550.707703,434.529663 
	C535.213806,434.625549 519.717285,434.589600 504.224823,434.381927 
	C500.708099,434.334778 499.040863,435.237213 497.967926,438.865051 
	C492.460449,457.487427 486.682007,476.031158 480.833374,494.550323 
	C478.499146,501.941528 475.161346,504.431427 469.321198,503.930023 
	C462.980286,503.385590 459.855835,500.195068 458.374908,492.982605 
	C450.322998,453.768280 442.247192,414.558868 434.160431,375.351715 
	C433.795166,373.580811 433.244324,371.848175 431.609070,369.927734 
	C431.021484,373.140930 430.352570,376.341644 429.858551,379.569153 
	C422.564911,427.220856 415.286407,474.874847 408.025330,522.531494 
	C406.598419,531.896667 405.217194,541.269287 403.894531,550.649658 
	C402.847229,558.077026 398.976379,561.959167 392.452026,561.929504 
	C386.096954,561.900635 382.466614,557.929565 381.302490,550.270508 
	C378.058044,528.924438 374.688965,507.597321 371.317627,485.825745 
z"/>
<path fill="#444343" opacity="1.000000" stroke="none" 
	d="
M802.713623,294.330444 
	C801.104553,288.873291 797.775330,287.089630 792.532837,287.681213 
	C788.794739,288.103058 784.970642,287.763123 780.689575,287.763123 
	C780.689575,298.248444 780.689575,308.317230 780.689575,318.637573 
	C770.118713,318.637573 760.057983,318.637573 749.711060,318.637573 
	C749.711060,281.163116 749.711060,243.947708 749.711060,206.219543 
	C755.315674,206.219543 760.602722,206.120605 765.885010,206.238113 
	C781.682556,206.589554 797.575073,206.082657 813.247559,207.692245 
	C829.134644,209.323883 841.821472,217.146042 845.982361,233.899399 
	C850.118225,250.551941 848.005493,265.965942 834.105713,277.937408 
	C832.242920,279.541779 830.081787,280.799774 827.769592,282.420959 
	C835.368652,294.279572 842.950378,306.111176 851.146790,318.901917 
	C847.423157,318.901917 844.394470,318.902283 841.365784,318.901825 
	C835.703369,318.901001 829.972107,318.348633 824.397034,319.045929 
	C818.214600,319.819275 815.059143,317.155975 812.544250,312.033600 
	C809.627991,306.093628 806.158325,300.425354 802.713623,294.330444 
M780.619202,238.526398 
	C780.619202,246.764938 780.619202,255.003494 780.619202,264.089569 
	C789.817688,263.566864 798.307251,263.634369 806.616028,262.441925 
	C813.516785,261.451538 816.861877,256.240356 817.125977,248.725525 
	C817.428772,240.108551 814.072449,233.239304 807.424133,232.202225 
	C798.696655,230.840851 789.738098,230.960861 780.619629,230.428650 
	C780.619629,233.555359 780.619629,235.543076 780.619202,238.526398 
z"/>
<path fill="#424242" opacity="1.000000" stroke="none" 
	d="
M549.253967,305.331909 
	C544.295898,318.960632 544.295898,318.959106 529.983704,318.946472 
	C524.497925,318.941620 519.012146,318.945648 512.786377,318.945648 
	C516.698425,309.332733 520.324219,300.156464 524.152893,291.065674 
	C535.375610,264.418610 546.743958,237.832581 557.873413,211.146759 
	C559.347412,207.612305 560.929321,205.951965 565.079712,206.221527 
	C572.043823,206.673874 579.076538,206.652664 586.044739,206.235046 
	C590.071594,205.993668 591.485291,207.943314 592.798340,211.096207 
	C604.419800,239.001205 616.118225,266.874146 627.819153,294.745941 
	C631.083679,302.522034 634.431885,310.263000 638.111267,318.886230 
	C627.476440,318.886230 617.427734,318.945435 607.382751,318.782074 
	C606.510254,318.767914 605.332947,317.442535 604.865295,316.456726 
	C603.587036,313.762238 602.556152,310.944305 601.527466,308.138519 
	C597.462402,297.050110 599.418152,299.328522 588.320801,299.139130 
	C578.167603,298.965851 567.998291,299.438324 557.855713,299.076141 
	C553.109070,298.906616 550.256836,300.160492 549.253967,305.331909 
M567.156494,258.526978 
	C565.182312,264.057831 563.208130,269.588684 561.156311,275.337006 
	C570.686096,275.337006 579.403259,275.337006 588.587891,275.337006 
	C586.325439,269.005188 584.263855,263.100800 582.105225,257.232147 
	C579.900391,251.238037 577.600403,245.278946 574.875854,238.071060 
	C572.053467,245.484604 569.713928,251.630020 567.156494,258.526978 
z"/>
<path fill="#414141" opacity="1.000000" stroke="none" 
	d="
M717.395508,208.773346 
	C722.811829,210.935654 727.856934,212.947998 733.221497,215.087753 
	C729.759033,223.769073 726.582336,231.734055 723.330200,239.888031 
	C716.713867,237.182678 710.499023,233.957260 703.896545,232.141083 
	C697.733521,230.445755 691.178772,229.875763 684.757629,229.528656 
	C680.867615,229.318359 676.945740,230.839630 675.934814,235.356598 
	C674.971008,239.663101 677.227600,243.200806 680.875488,244.779205 
	C687.686523,247.726303 694.847107,249.861588 701.846558,252.378418 
	C707.630066,254.458038 713.694214,256.019135 719.097778,258.837982 
	C729.949097,264.498688 735.234619,273.837341 734.586426,286.188324 
	C733.902527,299.220367 728.071777,309.167206 716.023193,314.684662 
	C696.098572,323.808899 676.138062,321.601898 656.478638,313.746948 
	C650.380249,311.310333 644.718079,307.781769 638.529785,304.584503 
	C641.958862,296.279114 645.102905,288.664001 648.370422,280.749878 
	C654.057312,283.939911 659.396301,287.141510 664.919556,289.985229 
	C673.505798,294.405975 682.628784,296.740143 692.359131,295.774994 
	C696.962219,295.318481 701.477905,294.293243 702.566650,288.755493 
	C703.468811,284.167236 700.819336,279.840027 695.064270,277.792877 
	C688.202637,275.352081 681.054199,273.727264 674.062988,271.638428 
	C665.271545,269.011719 656.457886,266.194122 650.217285,258.953186 
	C636.760071,243.338730 643.352661,217.615250 662.807007,209.228195 
	C679.208313,202.157318 695.925171,203.449722 712.733826,207.367706 
	C714.182861,207.705460 715.595032,208.201096 717.395508,208.773346 
z"/>
<path fill="#4B4B4B" opacity="1.000000" stroke="none" 
	d="
M536.807495,365.029694 
	C536.072815,367.475311 535.429749,369.529663 534.701172,371.857330 
	C533.125183,371.857330 531.630005,371.726471 530.166016,371.884552 
	C527.100037,372.215546 525.572998,371.353546 524.619934,367.972382 
	C521.966309,358.558472 518.687012,349.320953 515.509460,339.567749 
	C518.462708,339.567749 521.164246,339.567749 524.373657,339.567749 
	C526.252808,345.959564 528.225281,352.668915 530.197693,359.378265 
	C530.567566,359.398285 530.937378,359.418274 531.307190,359.438263 
	C532.992188,353.974640 534.899353,348.566254 536.276062,343.026031 
	C537.058899,339.875549 538.458618,338.799011 541.694702,338.720001 
	C545.225708,338.633789 546.134766,340.298462 546.882874,343.280579 
	C548.289490,348.887756 550.171814,354.375580 552.974182,360.039612 
	C554.366028,354.957123 555.697937,349.857269 557.164490,344.796417 
	C559.120483,338.046692 559.165466,338.059723 566.769714,339.729279 
	C563.484680,350.311798 560.209717,360.861938 556.977234,371.275177 
	C556.503784,371.524353 556.224121,371.800079 555.944458,371.800140 
	C545.500671,371.801788 548.519531,373.515167 545.383911,364.160431 
	C544.041138,360.154449 543.049194,356.030853 540.959106,351.956085 
	C539.605774,356.183533 538.252441,360.410980 536.807495,365.029694 
z"/>
<path fill="#4C4D4D" opacity="1.000000" stroke="none" 
	d="
M603.992432,341.447998 
	C605.208984,340.466553 606.341919,339.410736 607.504700,339.376801 
	C612.657104,339.226318 617.894775,338.848419 622.948853,339.591492 
	C626.252197,340.077179 630.317261,341.555634 632.199646,344.004791 
	C634.680237,347.232269 633.180298,351.340729 629.660278,354.278748 
	C633.620972,357.410004 635.839905,361.170746 633.942444,365.975098 
	C632.096375,370.649292 627.884644,371.789886 623.326416,371.838654 
	C617.189819,371.904358 611.051941,371.854950 603.922607,371.854950 
	C603.922607,361.656433 603.922607,351.750214 603.992432,341.447998 
M625.620361,362.426941 
	C624.197693,357.907379 620.466431,356.909943 613.034485,359.091278 
	C613.034485,361.002655 613.034485,362.926941 613.034485,366.293945 
	C617.493286,365.156433 621.400024,364.159760 625.620361,362.426941 
M616.495117,352.209442 
	C617.648193,352.198608 618.990540,352.561066 619.912292,352.093811 
	C621.494263,351.291901 622.813721,349.971863 624.243408,348.869385 
	C622.654114,347.778992 621.197205,346.224182 619.439819,345.723114 
	C617.514893,345.174255 615.312439,345.598206 613.230957,345.598206 
	C612.816956,346.023102 612.402954,346.448029 611.988953,346.872925 
	C613.183167,348.649170 614.377319,350.425415 616.495117,352.209442 
z"/>
<path fill="#4A4A4A" opacity="1.000000" stroke="none" 
	d="
M729.089233,363.808594 
	C730.736633,366.327332 732.180420,368.544067 733.634949,370.777313 
	C727.022339,372.980042 725.247620,372.367676 721.967102,366.852234 
	C721.209717,365.578857 720.664673,363.954010 719.546509,363.164093 
	C716.612061,361.091248 713.042603,363.268921 712.954102,366.995544 
	C712.922729,368.317535 712.949036,369.640869 712.949036,371.304810 
	C710.174805,371.304810 707.632690,371.304810 704.817749,371.304810 
	C704.817749,360.594147 704.817749,350.186188 704.817749,339.368042 
	C711.276428,339.368042 717.566406,339.064423 723.808838,339.478027 
	C727.771973,339.740601 731.294006,341.847046 732.478516,345.971741 
	C733.804077,350.587524 733.566895,355.112762 730.222473,359.140991 
	C729.325439,360.221436 729.307251,362.031494 729.089233,363.808594 
M713.116150,355.160736 
	C715.971313,355.352509 719.016541,356.215973 721.609924,355.482269 
	C723.147339,355.047272 724.979858,352.000549 724.824280,350.297668 
	C724.678467,348.701263 722.321472,346.646545 720.515991,346.031982 
	C718.339600,345.291260 715.718628,345.856659 712.916626,345.856659 
	C712.916626,348.996826 712.916626,351.622040 713.116150,355.160736 
z"/>
<path fill="#4D4D4D" opacity="1.000000" stroke="none" 
	d="
M683.029053,339.320496 
	C687.986267,339.312012 692.450562,339.312012 697.285645,339.312012 
	C697.285645,341.472351 697.285645,343.333832 697.285645,345.642914 
	C691.860352,345.642914 686.615417,345.642914 680.960205,345.642914 
	C680.846252,347.809906 680.754272,349.559662 680.628113,351.958679 
	C685.571411,351.958679 690.271606,351.958679 695.301025,351.958679 
	C695.301025,354.306885 695.301025,356.023651 695.301025,358.348633 
	C691.646606,358.348633 688.200623,358.427765 684.760254,358.322998 
	C682.126099,358.242767 680.200195,359.190948 680.928772,361.950439 
	C681.273621,363.256500 683.237122,364.905396 684.594116,365.031311 
	C688.871033,365.428101 693.208008,365.177582 698.037354,365.177582 
	C698.161743,367.251251 698.274170,369.125244 698.414185,371.458618 
	C689.366882,371.458618 680.838318,371.458618 672.027344,371.458618 
	C672.027344,360.890533 672.027344,350.471771 672.027344,339.328979 
	C675.715515,339.328979 679.125916,339.328979 683.029053,339.320496 
z"/>
<path fill="#4C4C4C" opacity="1.000000" stroke="none" 
	d="
M592.764160,371.789246 
	C585.655457,371.789703 579.019470,371.789703 572.064880,371.789703 
	C572.064880,360.934082 572.064880,350.530365 572.064880,339.674561 
	C580.235535,339.674561 588.450439,339.674561 597.116699,339.674561 
	C597.116699,341.414490 597.116699,343.420105 597.116699,345.792419 
	C592.398376,345.792419 588.098755,345.833130 583.800415,345.775543 
	C581.596008,345.746033 579.936523,345.918030 579.915894,348.873749 
	C579.896240,351.688263 581.244141,352.216949 583.613953,352.155182 
	C587.417297,352.056061 591.225159,352.128601 594.952148,352.128601 
	C596.336853,358.129730 596.137329,358.412903 590.554138,358.462006 
	C587.248413,358.491058 583.942261,358.467316 580.741211,358.467316 
	C579.245911,364.796722 579.554321,365.205109 585.319397,365.188629 
	C589.289490,365.177277 593.259583,365.186462 597.573547,365.186462 
	C597.573547,367.317657 597.573547,369.208527 597.573547,371.487640 
	C596.143127,371.586975 594.690063,371.687866 592.764160,371.789246 
z"/>
<path fill="#4D4D4C" opacity="1.000000" stroke="none" 
	d="
M827.682129,371.650208 
	C826.736023,370.707794 825.797363,369.803528 825.787170,368.888916 
	C825.679871,359.256592 825.720764,349.622650 825.720764,339.415680 
	C834.159485,339.415680 842.318298,339.415680 850.741089,339.415680 
	C850.741089,341.475830 850.741089,343.395203 850.741089,345.839966 
	C845.125732,345.839966 839.713989,345.839966 834.398376,345.839966 
	C833.115601,350.497375 834.150818,352.652069 838.962646,352.175293 
	C842.069885,351.867401 845.232483,352.117401 848.746582,352.117401 
	C848.842163,354.217041 848.921570,355.961945 849.028748,358.316406 
	C844.027100,358.316406 839.302307,358.316406 834.733398,358.316406 
	C833.155945,364.709991 833.484924,365.146088 839.320801,365.152405 
	C843.287476,365.156708 847.254089,365.153259 851.555054,365.153259 
	C851.555054,367.354340 851.555054,369.233551 851.555054,371.683563 
	C843.692627,371.683563 835.906616,371.683563 827.682129,371.650208 
z"/>
<path fill="#4B4B4B" opacity="1.000000" stroke="none" 
	d="
M641.658325,342.687561 
	C649.544861,336.353088 657.403442,338.433624 665.943604,341.776550 
	C664.998535,344.278015 664.154663,346.511444 663.250366,348.904968 
	C659.933411,347.812347 657.022949,346.471680 653.979004,346.008881 
	C652.410278,345.770386 650.604065,347.093872 648.905151,347.711609 
	C650.096375,348.873383 651.099365,350.434967 652.522156,351.104797 
	C654.748840,352.153015 657.300903,352.483185 659.640381,353.325043 
	C663.364075,354.664948 665.931458,357.105927 666.078735,361.324310 
	C666.227600,365.592560 664.251892,368.738342 660.395325,370.452759 
	C653.250854,373.628815 646.282288,372.536774 639.944153,368.460541 
	C635.758484,365.768646 640.277771,363.528687 640.650330,361.093597 
	C644.539368,362.511108 648.004150,364.189178 651.658081,364.915771 
	C653.278809,365.238068 655.281982,363.637573 657.111511,362.909882 
	C655.809265,361.580078 654.706726,359.898041 653.150696,359.015869 
	C651.469238,358.062500 649.325562,357.965607 647.450439,357.305115 
	C640.053467,354.699554 638.181580,350.176758 641.658325,342.687561 
z"/>
<path fill="#4A4A4A" opacity="1.000000" stroke="none" 
	d="
M815.594971,369.778076 
	C807.419495,373.552216 798.910950,372.232971 793.643677,366.590485 
	C788.734680,361.331696 787.710876,353.885223 791.039917,347.652924 
	C796.767944,336.929535 811.386292,335.299713 820.232727,345.115417 
	C818.630554,346.582886 816.993896,348.081909 815.421143,349.522461 
	C808.684265,344.737457 803.690063,344.629791 799.926514,348.892303 
	C796.844727,352.382690 796.805969,358.336456 799.842896,361.748962 
	C803.642029,366.018036 808.715393,366.008972 815.785767,361.151672 
	C816.872253,362.716187 818.070007,364.440948 819.557312,366.582703 
	C818.626221,367.361908 817.280151,368.488342 815.594971,369.778076 
z"/>
<path fill="#494949" opacity="1.000000" stroke="none" 
	d="
M740.582581,350.582977 
	C738.956055,346.764130 737.519531,343.281677 736.053467,339.727570 
	C744.282593,338.482086 744.245789,338.496552 747.069824,345.689545 
	C748.997314,350.598907 751.045410,355.460938 753.550964,361.596466 
	C756.658997,353.491486 759.307617,346.584564 762.095825,339.313721 
	C764.790833,339.313721 767.649109,339.313721 770.581177,339.313721 
	C766.465332,349.512939 762.620850,359.356293 758.428833,369.049316 
	C757.870422,370.340393 755.530029,371.606567 754.049805,371.567413 
	C752.130432,371.516632 749.220276,370.654083 748.524719,369.253235 
	C745.579590,363.321228 743.297241,357.060181 740.582581,350.582977 
z"/>
<path fill="#474747" opacity="1.000000" stroke="none" 
	d="
M777.411377,339.208221 
	C779.468872,339.205444 781.111572,339.205444 783.179810,339.205444 
	C783.179810,344.770660 783.179810,350.031738 783.179810,355.292816 
	C783.179810,360.415192 783.179810,365.537537 783.179810,371.088501 
	C780.444702,371.088501 777.913513,371.088501 775.055054,371.088501 
	C775.055054,363.915314 775.079163,356.693115 775.041870,349.471252 
	C775.029114,346.991455 774.641663,344.491394 774.874268,342.043243 
	C774.969543,341.040985 776.253418,340.151672 777.411377,339.208221 
z"/>
<path fill="#050809" opacity="1.000000" stroke="none" 
	d="
M705.363037,542.569580 
	C695.831238,543.220276 689.309814,539.295959 686.956116,531.815857 
	C684.745544,524.790771 687.374146,517.136902 693.434265,513.517761 
	C699.001038,510.193146 704.845276,509.890991 710.419006,513.291687 
	C716.385803,516.932251 718.843323,522.549866 717.794678,529.452942 
	C716.737122,536.414368 712.570557,540.722168 705.363037,542.569580 
z"/>
<path fill="#050708" opacity="1.000000" stroke="none" 
	d="
M624.305115,529.488892 
	C624.136902,520.383789 627.322815,514.842224 633.945374,512.236145 
	C640.298706,509.735992 647.152344,511.263794 651.730957,516.229065 
	C656.391968,521.283752 657.321106,527.193542 654.743103,533.344055 
	C652.142212,539.549377 647.136963,542.794678 640.283020,542.868591 
	C633.430420,542.942505 628.596863,539.765137 625.681152,533.630554 
	C625.117249,532.444031 624.785339,531.147339 624.305115,529.488892 
z"/>
<path fill="#050809" opacity="1.000000" stroke="none" 
	d="
M765.664307,511.194550 
	C776.654541,513.667297 782.075562,522.212830 779.194031,531.890503 
	C776.552490,540.762268 766.987549,545.121704 757.871643,541.608704 
	C751.094238,538.996887 747.058533,531.287415 748.478394,523.664734 
	C749.915100,515.951965 756.184265,511.279938 765.664307,511.194550 
z"/>
<path fill="#FBFCFC" opacity="1.000000" stroke="none" 
	d="
M780.619385,238.028595 
	C780.619629,235.543076 780.619629,233.555359 780.619629,230.428650 
	C789.738098,230.960861 798.696655,230.840851 807.424133,232.202225 
	C814.072449,233.239304 817.428772,240.108551 817.125977,248.725525 
	C816.861877,256.240356 813.516785,261.451538 806.616028,262.441925 
	C798.307251,263.634369 789.817688,263.566864 780.619202,264.089569 
	C780.619202,255.003494 780.619202,246.764938 780.619385,238.028595 
z"/>
<path fill="#F5F5F6" opacity="1.000000" stroke="none" 
	d="
M567.265381,258.151184 
	C569.713928,251.630020 572.053467,245.484604 574.875854,238.071060 
	C577.600403,245.278946 579.900391,251.238037 582.105225,257.232147 
	C584.263855,263.100800 586.325439,269.005188 588.587891,275.337006 
	C579.403259,275.337006 570.686096,275.337006 561.156311,275.337006 
	C563.208130,269.588684 565.182312,264.057831 567.265381,258.151184 
z"/>
<path fill="#F1F1F2" opacity="1.000000" stroke="none" 
	d="
M625.463562,362.795013 
	C621.400024,364.159760 617.493286,365.156433 613.034485,366.293945 
	C613.034485,362.926941 613.034485,361.002655 613.034485,359.091278 
	C620.466431,356.909943 624.197693,357.907379 625.463562,362.795013 
z"/>
<path fill="#F8F8F9" opacity="1.000000" stroke="none" 
	d="
M616.033325,352.205566 
	C614.377319,350.425415 613.183167,348.649170 611.988953,346.872925 
	C612.402954,346.448029 612.816956,346.023102 613.230957,345.598206 
	C615.312439,345.598206 617.514893,345.174255 619.439819,345.723114 
	C621.197205,346.224182 622.654114,347.778992 624.243408,348.869385 
	C622.813721,349.971863 621.494263,351.291901 619.912292,352.093811 
	C618.990540,352.561066 617.648193,352.198608 616.033325,352.205566 
z"/>
<path fill="#FBFCFC" opacity="1.000000" stroke="none" 
	d="
M713.016357,354.703979 
	C712.916626,351.622040 712.916626,348.996826 712.916626,345.856659 
	C715.718628,345.856659 718.339600,345.291260 720.515991,346.031982 
	C722.321472,346.646545 724.678467,348.701263 724.824280,350.297668 
	C724.979858,352.000549 723.147339,355.047272 721.609924,355.482269 
	C719.016541,356.215973 715.971313,355.352509 713.016357,354.703979 
z"/>
</svg>