<?xml version="1.0" encoding="UTF-8"?>
<svg version="1.1" xmlns="http://www.w3.org/2000/svg" width="256" height="256">
<path d="M0 0 C4.3699422 2.02890173 4.3699422 2.02890173 6 5 C7.24947036 9.96076847 7.35138747 14.05226709 6 19 C3.04669708 22.4274807 -0.32340628 24.63320237 -4.20654297 26.92041016 C-6.71304332 28.42922374 -9.09690714 30.09586739 -11.4934082 31.7722168 C-12.65083051 32.58120593 -13.81465442 33.38112386 -14.98510742 34.17114258 C-16.34063122 35.08915939 -17.67303726 36.04116241 -19 37 C-19 37.33 -19 37.66 -19 38 C-12.27909606 38 -8.53374931 34.77890119 -3.35546875 30.71484375 C-1 29 -1 29 1 29 C1 28.34 1 27.68 1 27 C3.1953125 25.4140625 3.1953125 25.4140625 6.125 23.625 C9.2863279 21.69262821 12.33214477 19.78007267 15.25 17.5 C19.02751719 15.43953608 20.83142168 16.02672781 25 17 C27.78463778 18.35876037 30.30662594 20.03072419 32.8671875 21.76953125 C33.58738068 22.2469426 34.30757385 22.72435394 35.04959106 23.2162323 C36.56129256 24.22300345 38.06880197 25.23609477 39.57226562 26.25512695 C41.87754082 27.81421839 44.19903498 29.34656611 46.5234375 30.87695312 C47.99322496 31.86043048 49.46201166 32.84540544 50.9296875 33.83203125 C51.62440155 34.2894722 52.3191156 34.74691315 53.03488159 35.21821594 C57.81990032 38.49509991 57.81990032 38.49509991 58.71072388 40.99247742 C59.08753665 43.60748813 58.63768291 45.67859403 58.0625 48.25 C57.86785156 49.14203125 57.67320312 50.0340625 57.47265625 50.953125 C57.23869141 51.96632813 57.23869141 51.96632813 57 53 C57.58007812 52.55527344 58.16015625 52.11054687 58.7578125 51.65234375 C59.53898437 51.08644531 60.32015625 50.52054688 61.125 49.9375 C61.89070313 49.36902344 62.65640625 48.80054688 63.4453125 48.21484375 C66.94950006 46.54847933 68.23527307 46.94194297 72 48 C75.44219313 49.89804098 78.65099701 52.10820119 81.88671875 54.3359375 C83.29495659 55.2886705 83.29495659 55.2886705 84.73164368 56.26065063 C86.71089096 57.60247587 88.68675302 58.94930626 90.65942383 60.30078125 C93.68046181 62.37017887 96.71122097 64.42462853 99.74414062 66.4765625 C101.66725073 67.78299482 103.58979639 69.09025849 105.51171875 70.3984375 C106.87111824 71.32201553 106.87111824 71.32201553 108.25798035 72.26425171 C109.09927994 72.84139923 109.94057953 73.41854675 110.80737305 74.01318359 C111.54650436 74.51868744 112.28563568 75.02419128 113.04716492 75.54501343 C114.92559639 76.94456457 116.54096322 78.16432726 118 80 C117.75120269 87.4639194 115.90542806 93.39398587 110.5234375 98.68359375 C109.15189369 99.94723725 107.76857644 101.19819696 106.375 102.4375 C105.65658936 103.08912109 104.93817871 103.74074219 104.19799805 104.41210938 C102.7780431 105.69822728 101.35424353 106.98011571 99.92626953 108.25732422 C98.29072965 109.73697994 96.69643227 111.24216792 95.12109375 112.78515625 C94.35925781 113.51605469 93.59742188 114.24695313 92.8125 115 C92.17957031 115.61875 91.54664063 116.2375 90.89453125 116.875 C89 118 89 118 86.64990234 117.75244141 C83.77556239 116.9362708 82.07699863 115.88727494 79.70703125 114.0859375 C78.52065063 113.19588013 78.52065063 113.19588013 77.31030273 112.2878418 C76.48602783 111.656604 75.66175293 111.02536621 74.8125 110.375 C73.11257796 109.09685947 71.41206258 107.81950767 69.7109375 106.54296875 C68.89850586 105.9298584 68.08607422 105.31674805 67.24902344 104.68505859 C60.39668852 99.41087162 60.39668852 99.41087162 53 95 C53 94.34 53 93.68 53 93 C52.45601563 92.74992187 51.91203125 92.49984375 51.3515625 92.2421875 C48.51644099 90.74456517 45.98409474 88.9886391 43.375 87.125 C42.41335937 86.44695312 41.45171875 85.76890625 40.4609375 85.0703125 C37.44404265 82.53228985 36.16322909 80.78899086 35.8046875 76.859375 C35.86979167 74.90625 35.93489583 72.953125 36 71 C35.46375 71.495 34.9275 71.99 34.375 72.5 C31.17507162 74.5210074 29.74532039 74.64822853 26 74 C22.75415358 71.99889101 19.70097478 69.70097478 17 67 C16.64098004 55.07429362 16.64098004 55.07429362 19.3359375 50.9609375 C21.45853689 49.19037898 23.17952202 48 26 48 C26 47.34 26 46.68 26 46 C19.4450091 45.2301436 16.39335952 46.54543624 11.19946289 50.52270508 C10.01791626 51.47052856 10.01791626 51.47052856 8.8125 52.4375 C7.14162266 53.72265231 5.46974339 55.00650299 3.796875 56.2890625 C2.98412109 56.92102539 2.17136719 57.55298828 1.33398438 58.20410156 C-1.86241217 60.66358828 -5.12700362 63.00986261 -8.4375 65.3125 C-9.42621094 66.00988281 -10.41492188 66.70726563 -11.43359375 67.42578125 C-13.81922134 68.88911142 -15.26360816 69.64616183 -18 70 C-19.71655273 69.1706543 -19.71655273 69.1706543 -21.43359375 67.82421875 C-22.07643311 67.33058838 -22.71927246 66.83695801 -23.3815918 66.32836914 C-24.39926636 65.51613892 -24.39926636 65.51613892 -25.4375 64.6875 C-26.14108643 64.14150146 -26.84467285 63.59550293 -27.56958008 63.03295898 C-29.01702077 61.90873162 -30.4606184 60.77953941 -31.90039062 59.64550781 C-33.84035331 58.12511846 -35.79664379 56.63095217 -37.765625 55.1484375 C-51.31913408 44.90746408 -51.31913408 44.90746408 -53.0234375 40.1328125 C-53.93324157 32.34893324 -53.93324157 32.34893324 -51.67578125 29.0859375 C-49.235968 27.13983891 -46.68184451 25.60056161 -44 24 C-42.59888412 23.07172659 -41.20348153 22.1347978 -39.8125 21.19140625 C-35.94914918 18.57252205 -32.06182329 15.9928443 -28.16357422 13.42626953 C-25.18456422 11.46244913 -22.21709893 9.4817702 -19.25 7.5 C-17.5 6.33333333 -15.75 5.16666667 -14 4 C-12.98421875 3.27941406 -11.9684375 2.55882812 -10.921875 1.81640625 C-7.0201505 -0.60913104 -4.44186679 -0.94301537 0 0 Z " fill="#679BFC" transform="translate(131,30)"/>
<path d="M0 0 C2.54692457 1.58841251 4.78359895 3.48992323 7.0625 5.4375 C8.38170135 6.53258993 9.70203587 7.62631607 11.0234375 8.71875 C11.6844043 9.26917969 12.34537109 9.81960937 13.02636719 10.38671875 C17.00958545 13.64266955 21.16499186 16.67737131 25.29296875 19.74609375 C28.96670042 22.80488621 31.64012381 25.13360762 32.56640625 29.9375 C32.56511719 30.948125 32.56382813 31.95875 32.5625 33 C32.58441406 34.010625 32.60632813 35.02125 32.62890625 36.0625 C31.3242416 42.15633738 25.49355772 45.25978424 20.625 48.625 C19.39516979 49.48863921 18.16602896 50.35326076 16.9375 51.21875 C16.29941406 51.66734375 15.66132812 52.1159375 15.00390625 52.578125 C11.51499545 55.05368744 8.07063534 57.58971953 4.625 60.125 C3.9645166 60.61049316 3.3040332 61.09598633 2.62353516 61.59619141 C1.08179417 62.73002967 -0.45919164 63.86489468 -2 65 C0.50133053 67.59245368 2.97125645 69.97777643 5.82421875 72.18359375 C11.74349988 76.84310973 14.6397927 80.00601088 15.6875 87.625 C15.83908177 89.74714483 15.96015372 91.87282159 16 94 C17.0828125 93.01 17.0828125 93.01 18.1875 92 C21 90 21 90 23.4296875 89.41015625 C27.25134055 90.28716174 29.44170477 92.74451924 32.125 95.4375 C33.28271335 96.55462055 34.4429024 97.66918075 35.60546875 98.78125 C36.46664307 99.60882813 36.46664307 99.60882813 37.34521484 100.453125 C39.61322364 102.57323473 42.00688629 104.50741267 44.4375 106.4375 C49.44907149 110.45697 54.10740749 114.77524928 58.77978516 119.17651367 C63.35770779 123.46475053 68.08869415 127.47095532 72.98828125 131.390625 C75.96470116 133.77176093 75.96470116 133.77176093 76.34375 136.22265625 C76.64148793 141.6340432 76.51970525 145.19014255 72.9375 149.4375 C69.5383975 152.76121918 66.42633343 155.22946663 62 157 C53.5162878 156.07785737 46.26802708 147.3771334 40.62475586 141.58959961 C34.95394846 135.77855586 29.37005082 130.30073909 22.828125 125.453125 C20.47940448 123.5861933 18.80432987 121.38429305 17 119 C16.13375 118.38125 15.2675 117.7625 14.375 117.125 C11.20434554 114.28809864 10.76172813 112.1548807 10 108 C9.86323446 105.30713373 9.90526557 102.69993126 10 100 C9.319375 100.515625 8.63875 101.03125 7.9375 101.5625 C3.97641008 103.50090571 2.20634091 103.30541614 -2 102 C-3.88882092 100.47523753 -5.471219 98.83753003 -7.09448242 97.03369141 C-8.88195537 95.12598485 -10.7201919 93.42731289 -12.703125 91.7265625 C-16.9589928 88.04000712 -21.16043194 84.30312183 -25.3125 80.5 C-26.3653418 79.56220703 -26.3653418 79.56220703 -27.43945312 78.60546875 C-32.75369933 73.71170151 -35.78198289 69.15265222 -37 61.875 C-37 58 -37 58 -35.06640625 55.6484375 C-31.36237649 52.23063414 -27.1247065 49.53141587 -22.9375 46.75 C-15.44953457 41.7084053 -8.14402896 36.51844154 -1 31 C-7.50033805 29.92264592 -10.91869973 32.51606024 -16.13452148 36.234375 C-17.12137939 36.96140625 -18.1082373 37.6884375 -19.125 38.4375 C-20.14601807 39.16582031 -21.16703613 39.89414063 -22.21899414 40.64453125 C-26.55194092 43.73895246 -30.84790069 46.87965277 -35.11328125 50.06640625 C-43.8450831 56.52302029 -43.8450831 56.52302029 -48.375 57.0625 C-53.63198466 55.52165967 -56.11392182 52.55696555 -59 48 C-60.4375 44.3125 -60.4375 44.3125 -61 41 C-61.185625 40.154375 -61.37125 39.30875 -61.5625 38.4375 C-59.99069226 31.62633312 -49.04413099 26.60776509 -43.5 23.0625 C-41.46471847 21.748892 -39.42956626 20.43508362 -37.39453125 19.12109375 C-36.34861816 18.44804199 -35.30270508 17.77499023 -34.22509766 17.08154297 C-27.85879478 12.9726029 -21.52635754 8.81150607 -15.1875 4.66040039 C-14.27355469 4.06348389 -13.35960937 3.46656738 -12.41796875 2.8515625 C-11.61125732 2.32385254 -10.8045459 1.79614258 -9.97338867 1.25244141 C-6.14383648 -1.17804267 -4.45930505 -1.21330915 0 0 Z " fill="#6F8BE1" transform="translate(67,73)"/>
<path d="M0 0 C2.89453125 1.828125 2.89453125 1.828125 5.8125 4.25 C6.93110314 5.15802475 8.05235686 6.06279077 9.17578125 6.96484375 C9.77986816 7.45194824 10.38395508 7.93905273 11.00634766 8.44091797 C15.48441574 11.9428703 20.17103634 15.17406267 24.81958008 18.44433594 C28.90686484 21.35538145 32.7451146 24.15910784 36 28 C36.34208098 31.02986007 36.38254971 33.06899416 36 36 C35.896875 37.134375 35.79375 38.26875 35.6875 39.4375 C33.42237272 44.21943537 30.15974886 46.48474892 26.0078125 49.671875 C23.16162628 51.87489706 20.52037622 54.18694166 17.875 56.625 C13.43450335 60.67410672 8.80320674 64.39179397 4 68 C7.22968711 71.91056784 7.22968711 71.91056784 11.88671875 73.40234375 C15.75483432 72.90244927 16.9442173 71.7871526 19.6875 69.0625 C23.12639485 65.76732015 26.58539191 62.65397378 30.3125 59.6875 C33.45330079 57.16682891 36.47206102 54.58908713 39.375 51.80078125 C39.94694092 51.25397705 40.51888184 50.70717285 41.1081543 50.14379883 C42.21905492 49.07236295 43.3200775 47.99056012 44.40942383 46.8972168 C47.81174307 43.61941847 50.23111059 42.09196205 55 42 C57.68971032 43.22688541 59.65789121 44.30455234 62 46 C62.99 46.70125 63.98 47.4025 65 48.125 C67.61675394 51.8865838 67.20315813 54.08964941 66.58984375 58.5 C65.47465167 63.22664193 64.03273166 66.36535134 60.4375 69.671875 C59.72835449 70.3313916 59.01920898 70.9909082 58.28857422 71.67041016 C57.53334473 72.3566748 56.77811523 73.04293945 56 73.75 C55.22543457 74.46591309 54.45086914 75.18182617 53.65283203 75.91943359 C49.00665487 80.20379834 44.32252435 84.44661922 39.6015625 88.6484375 C35.46428117 92.38814225 31.40757329 96.21448023 27.35107422 100.04150391 C26.14482937 101.17458466 24.9322492 102.30096552 23.71289062 103.41992188 C22.60952014 104.43774025 21.52313512 105.47444732 20.45898438 106.53320312 C17.78060906 109.05548769 16.11981151 109.98126296 12.453125 110.5546875 C8.40410666 109.90427958 6.79842373 108.82743698 3.75 106.125 C2.80640625 105.30257812 1.8628125 104.48015625 0.890625 103.6328125 C-0.06328125 102.76398438 -1.0171875 101.89515625 -2 101 C-2.91265625 100.17242187 -3.8253125 99.34484375 -4.765625 98.4921875 C-6.59172655 96.82782638 -8.4133386 95.15852638 -10.23046875 93.484375 C-13.0238495 90.97860609 -15.89178324 88.60554423 -18.8125 86.25 C-29.36667411 77.67378985 -29.36667411 77.67378985 -30.875 73.6875 C-30.91625 72.800625 -30.9575 71.91375 -31 71 C-31.13019531 70.34128906 -31.26039062 69.68257813 -31.39453125 69.00390625 C-31.73552859 66.38050002 -31.69327382 64.56301229 -31 62 C-28.15058447 58.4014123 -24.62704001 55.78343742 -21 53 C-19.78424878 52.02227237 -18.57079718 51.04168004 -17.359375 50.05859375 C-7.00288197 41.72538016 -7.00288197 41.72538016 -3 40 C-3 39.34 -3 38.68 -3 38 C-1.35 37.34 0.3 36.68 2 36 C0.91256712 33.88077873 0.91256712 33.88077873 -1 32 C-4.58653782 31.54160823 -6.48640927 31.70684423 -9.6484375 33.51171875 C-10.54820312 34.22972656 -11.44796875 34.94773438 -12.375 35.6875 C-13.41011719 36.5021875 -14.44523437 37.316875 -15.51171875 38.15625 C-16.67643563 39.10176171 -17.83907457 40.04983688 -19 41 C-19.6492041 41.52980469 -20.2984082 42.05960938 -20.96728516 42.60546875 C-22.34477598 43.7302721 -23.72196939 44.85543977 -25.09887695 45.98095703 C-41.90361437 59.71153734 -41.90361437 59.71153734 -46.44140625 60.3359375 C-50.70463065 59.7761859 -53.01904575 57.49700565 -56.0859375 54.625 C-59.01494536 50.60807493 -59.27139269 46.91457594 -59.5859375 42.05078125 C-58.39964784 35.87416641 -52.09786946 32.34562501 -47.3125 28.6875 C-46.44141602 28.0059082 -46.44141602 28.0059082 -45.55273438 27.31054688 C-41.2465343 24 -41.2465343 24 -39 24 C-39 23.34 -39 22.68 -39 22 C-33.58823529 18 -33.58823529 18 -31 18 C-31 17.34 -31 16.68 -31 16 C-28.90746595 14.35069722 -26.81678226 12.81985955 -24.625 11.3125 C-23.33440354 10.41700075 -22.0440403 9.52116531 -20.75390625 8.625 C-20.11469238 8.18285156 -19.47547852 7.74070312 -18.81689453 7.28515625 C-17.21054636 6.14892717 -15.64643857 4.95348807 -14.08984375 3.75 C-13.25582031 3.110625 -12.42179687 2.47125 -11.5625 1.8125 C-10.84191406 1.24144531 -10.12132812 0.67039062 -9.37890625 0.08203125 C-5.86839306 -1.51470463 -3.68810452 -0.97034191 0 0 Z " fill="#B9CEFD" transform="translate(142,95)"/>
<path d="M0 0 C0.125 6.75 0.125 6.75 -1 9 C-0.41992188 8.55527344 0.16015625 8.11054687 0.7578125 7.65234375 C1.53898437 7.08644531 2.32015625 6.52054687 3.125 5.9375 C4.27355469 5.08478516 4.27355469 5.08478516 5.4453125 4.21484375 C8.94950006 2.54847933 10.23527307 2.94194297 14 4 C17.44219313 5.89804098 20.65099701 8.10820119 23.88671875 10.3359375 C24.82554398 10.97109283 25.7643692 11.60624817 26.73164368 12.26065063 C28.71089096 13.60247587 30.68675302 14.94930626 32.65942383 16.30078125 C35.68046181 18.37017887 38.71122097 20.42462853 41.74414062 22.4765625 C43.66725073 23.78299482 45.58979639 25.09025849 47.51171875 26.3984375 C48.41798508 27.01415619 49.3242514 27.62987488 50.25798035 28.26425171 C51.09927994 28.84139923 51.94057953 29.41854675 52.80737305 30.01318359 C53.54650436 30.51868744 54.28563568 31.02419128 55.04716492 31.54501343 C56.92559639 32.94456457 58.54096322 34.16432726 60 36 C59.75120269 43.4639194 57.90542806 49.39398587 52.5234375 54.68359375 C51.15189369 55.94723725 49.76857644 57.19819696 48.375 58.4375 C47.65658936 59.08912109 46.93817871 59.74074219 46.19799805 60.41210938 C44.7780431 61.69822728 43.35424353 62.98011571 41.92626953 64.25732422 C40.29072965 65.73697994 38.69643227 67.24216792 37.12109375 68.78515625 C36.35925781 69.51605469 35.59742188 70.24695313 34.8125 71 C34.17957031 71.61875 33.54664063 72.2375 32.89453125 72.875 C31 74 31 74 28.64990234 73.75244141 C25.77556239 72.9362708 24.07699863 71.88727494 21.70703125 70.0859375 C20.91611084 69.49256592 20.12519043 68.89919434 19.31030273 68.2878418 C18.48602783 67.656604 17.66175293 67.02536621 16.8125 66.375 C15.11257796 65.09685947 13.41206258 63.81950767 11.7109375 62.54296875 C10.89850586 61.9298584 10.08607422 61.31674805 9.24902344 60.68505859 C2.39668852 55.41087162 2.39668852 55.41087162 -5 51 C-5 50.34 -5 49.68 -5 49 C-5.81597656 48.62488281 -5.81597656 48.62488281 -6.6484375 48.2421875 C-9.48355901 46.74456517 -12.01590526 44.9886391 -14.625 43.125 C-15.58664063 42.44695312 -16.54828125 41.76890625 -17.5390625 41.0703125 C-20.55595735 38.53228985 -21.83677091 36.78899086 -22.1953125 32.859375 C-22.09765625 29.9296875 -22.09765625 29.9296875 -22 27 C-22.53625 27.495 -23.0725 27.99 -23.625 28.5 C-26.82492838 30.5210074 -28.25467961 30.64822853 -32 30 C-35.24584642 27.99889101 -38.29902522 25.70097478 -41 23 C-40.91036938 21.30858344 -40.75422324 19.62040398 -40.5625 17.9375 C-40.46066406 17.01839844 -40.35882813 16.09929687 -40.25390625 15.15234375 C-40.17011719 14.44207031 -40.08632812 13.73179688 -40 13 C-39.23816406 13.6496875 -39.23816406 13.6496875 -38.4609375 14.3125 C-37.77257812 14.869375 -37.08421875 15.42625 -36.375 16 C-35.70210937 16.556875 -35.02921875 17.11375 -34.3359375 17.6875 C-31.23493431 19.42986969 -29.51714018 19.52580362 -26 19 C-23.73799746 17.59285816 -21.88638695 16.26181797 -19.875 14.5625 C-18.74284245 13.64892733 -17.61001303 12.73618675 -16.4765625 11.82421875 C-15.90454102 11.35677246 -15.33251953 10.88932617 -14.74316406 10.40771484 C-11.96285122 8.16243699 -9.11001944 6.01718848 -6.25 3.875 C-5.26515625 3.12992187 -4.2803125 2.38484375 -3.265625 1.6171875 C-1 0 -1 0 0 0 Z " fill="#425CAE" transform="translate(189,74)"/>
<path d="M0 0 C2.89453125 1.828125 2.89453125 1.828125 5.8125 4.25 C6.93110314 5.15802475 8.05235686 6.06279077 9.17578125 6.96484375 C9.77986816 7.45194824 10.38395508 7.93905273 11.00634766 8.44091797 C15.48441574 11.9428703 20.17103634 15.17406267 24.81958008 18.44433594 C28.90686484 21.35538145 32.7451146 24.15910784 36 28 C36.34208098 31.02986007 36.38254971 33.06899416 36 36 C35.896875 37.134375 35.79375 38.26875 35.6875 39.4375 C33.4216486 44.22096408 30.15658375 46.48682813 26.00390625 49.67578125 C23.18196837 51.85920523 20.56105476 54.14683389 17.9375 56.5625 C13.13564057 60.94043926 8.12018261 65.00189996 3 69 C2.01 68.34 1.02 67.68 0 67 C0.2224748 62.76263116 0.45086124 60.59996813 3.36328125 57.41796875 C4.33652344 56.68191406 5.30976563 55.94585937 6.3125 55.1875 C7.27800781 54.43855469 8.24351562 53.68960938 9.23828125 52.91796875 C11.46044383 51.37471298 13.54077541 50.10402244 16 49 C13.82575883 46.49962266 12.26954202 45.56371414 9 45 C9.33 44.67 9.66 44.34 10 44 C8.02 44.99 8.02 44.99 6 46 C5.34 45.34 4.68 44.68 4 44 C2.68 44.66 1.36 45.32 0 46 C-2 42.125 -2 42.125 -2 41 C-3.98 41.495 -3.98 41.495 -6 42 C-5.505 41.01 -5.505 41.01 -5 40 C-4.34 40 -3.68 40 -3 40 C-3 39.34 -3 38.68 -3 38 C-1.35 37.34 0.3 36.68 2 36 C0.91256712 33.88077873 0.91256712 33.88077873 -1 32 C-4.58653782 31.54160823 -6.48640927 31.70684423 -9.6484375 33.51171875 C-10.54820312 34.22972656 -11.44796875 34.94773438 -12.375 35.6875 C-13.41011719 36.5021875 -14.44523437 37.316875 -15.51171875 38.15625 C-16.67643563 39.10176171 -17.83907457 40.04983688 -19 41 C-19.6492041 41.52980469 -20.2984082 42.05960938 -20.96728516 42.60546875 C-22.34477598 43.7302721 -23.72196939 44.85543977 -25.09887695 45.98095703 C-41.90361437 59.71153734 -41.90361437 59.71153734 -46.44140625 60.3359375 C-50.70463065 59.7761859 -53.01904575 57.49700565 -56.0859375 54.625 C-59.01494536 50.60807493 -59.27139269 46.91457594 -59.5859375 42.05078125 C-58.39964784 35.87416641 -52.09786946 32.34562501 -47.3125 28.6875 C-46.44141602 28.0059082 -46.44141602 28.0059082 -45.55273438 27.31054688 C-41.2465343 24 -41.2465343 24 -39 24 C-39 23.34 -39 22.68 -39 22 C-33.58823529 18 -33.58823529 18 -31 18 C-31 17.34 -31 16.68 -31 16 C-28.90746595 14.35069722 -26.81678226 12.81985955 -24.625 11.3125 C-23.33440354 10.41700075 -22.0440403 9.52116531 -20.75390625 8.625 C-20.11469238 8.18285156 -19.47547852 7.74070312 -18.81689453 7.28515625 C-17.21054636 6.14892717 -15.64643857 4.95348807 -14.08984375 3.75 C-13.25582031 3.110625 -12.42179687 2.47125 -11.5625 1.8125 C-10.84191406 1.24144531 -10.12132812 0.67039062 -9.37890625 0.08203125 C-5.86839306 -1.51470463 -3.68810452 -0.97034191 0 0 Z " fill="#A1B6FC" transform="translate(142,95)"/>
<path d="M0 0 C2.54692457 1.58841251 4.78359895 3.48992323 7.0625 5.4375 C8.38170135 6.53258993 9.70203587 7.62631607 11.0234375 8.71875 C11.6844043 9.26917969 12.34537109 9.81960937 13.02636719 10.38671875 C17.00958545 13.64266955 21.16499186 16.67737131 25.29296875 19.74609375 C28.96670042 22.80488621 31.64012381 25.13360762 32.56640625 29.9375 C32.56511719 30.948125 32.56382813 31.95875 32.5625 33 C32.58441406 34.010625 32.60632813 35.02125 32.62890625 36.0625 C31.32454688 42.15491149 25.49414158 45.26198533 20.625 48.625 C16.65818639 51.39238314 12.72806917 54.18353145 8.890625 57.12890625 C8.21950684 57.63921387 7.54838867 58.14952148 6.85693359 58.67529297 C5.55540115 59.66835677 4.26114415 60.67104361 2.97509766 61.68408203 C-1.48838027 65.06234123 -1.48838027 65.06234123 -4.07373047 64.74731445 C-6 64 -6 64 -8 62 C-7.92328415 58.46516977 -7.211075 57.2132325 -4.70703125 54.68359375 C-3.75183594 53.94238281 -2.79664063 53.20117188 -1.8125 52.4375 C-0.80960938 51.65503906 0.19328125 50.87257812 1.2265625 50.06640625 C4.87062373 47.35132401 8.59572771 44.85496704 12.4765625 42.4921875 C18.52380517 38.60591916 21.26898056 36.04772201 23 29 C22.278125 29.350625 21.55625 29.70125 20.8125 30.0625 C17.6097683 31.13007723 16.22644521 30.72595017 13 30 C9.64160525 30.39051102 8.42115191 30.57884809 6 33 C3.875 32.625 3.875 32.625 2 32 C1.67 32.99 1.34 33.98 1 35 C1 33.68 1 32.36 1 31 C-7.87083975 29.91396098 -12.2966313 33.22637143 -19.25 38.4375 C-20.26199463 39.16582031 -21.27398926 39.89414063 -22.31665039 40.64453125 C-25.96888888 43.27622678 -29.59041891 45.94696554 -33.19677734 48.64111328 C-43.73420735 56.50981581 -43.73420735 56.50981581 -48.375 57.0625 C-53.63198466 55.52165967 -56.11392182 52.55696555 -59 48 C-60.4375 44.3125 -60.4375 44.3125 -61 41 C-61.185625 40.154375 -61.37125 39.30875 -61.5625 38.4375 C-59.99069226 31.62633312 -49.04413099 26.60776509 -43.5 23.0625 C-41.46471847 21.748892 -39.42956626 20.43508362 -37.39453125 19.12109375 C-36.34861816 18.44804199 -35.30270508 17.77499023 -34.22509766 17.08154297 C-27.85879478 12.9726029 -21.52635754 8.81150607 -15.1875 4.66040039 C-14.27355469 4.06348389 -13.35960937 3.46656738 -12.41796875 2.8515625 C-11.61125732 2.32385254 -10.8045459 1.79614258 -9.97338867 1.25244141 C-6.14383648 -1.17804267 -4.45930505 -1.21330915 0 0 Z " fill="#498EF3" transform="translate(67,73)"/>
<path d="M0 0 C2 2 2 2 2 4 C1.34 4 0.68 4 0 4 C-0.23203125 4.91265625 -0.4640625 5.8253125 -0.703125 6.765625 C-2.20537397 10.51219774 -3.43596165 11.53410454 -6.75 13.75 C-7.72324219 14.41773437 -8.69648437 15.08546875 -9.69921875 15.7734375 C-10.78847656 16.50820312 -11.87773438 17.24296875 -13 18 C-15.53119366 19.77723526 -18.04649271 21.5763613 -20.5625 23.375 C-21.1699707 23.80393555 -21.77744141 24.23287109 -22.40332031 24.67480469 C-24.75839793 26.34481728 -26.95437246 27.95437246 -29 30 C-28.86763333 33.24033617 -28.38230193 34.62001506 -26.06640625 36.921875 C-25.24011719 37.52515625 -24.41382813 38.1284375 -23.5625 38.75 C-22.67046875 39.43320313 -21.7784375 40.11640625 -20.859375 40.8203125 C-19.91578125 41.53960937 -18.9721875 42.25890625 -18 43 C-16.081446 44.51329794 -14.18447277 46.05444657 -12.3125 47.625 C-11.46300781 48.31851563 -10.61351562 49.01203125 -9.73828125 49.7265625 C-8 52 -8 52 -7.9765625 55.02734375 C-9.15021452 58.43631012 -10.2450022 59.72892968 -13.0625 61.9375 C-13.79597656 62.54464844 -14.52945313 63.15179688 -15.28515625 63.77734375 C-19.11724529 65.50316227 -22.13623066 65.44232627 -26 64 C-29.12264499 61.81712666 -31.71445098 59.21655417 -34.375 56.5 C-35.8678076 55.03446126 -37.36129375 53.56961336 -38.85546875 52.10546875 C-39.56751465 51.39696777 -40.27956055 50.6884668 -41.01318359 49.95849609 C-43.50861821 47.4986317 -46.07497767 45.14751616 -48.6875 42.8125 C-49.81671875 41.7915625 -49.81671875 41.7915625 -50.96875 40.75 C-52.81499206 39.15939146 -54.71858151 37.74444072 -56.6875 36.3125 C-59 34 -59 34 -59.10546875 31.203125 C-57.50618926 26.56917029 -54.63910839 25.033453 -50.625 22.4375 C-49.08197976 21.40111832 -47.53901311 20.36465686 -45.99609375 19.328125 C-45.18382324 18.79123047 -44.37155273 18.25433594 -43.53466797 17.70117188 C-40.91729477 15.94449143 -38.34917024 14.13043479 -35.78515625 12.296875 C-34.08598442 11.09368374 -32.38676678 9.89055716 -30.6875 8.6875 C-29.88199707 8.10605225 -29.07649414 7.52460449 -28.24658203 6.92553711 C-27.10938721 6.13288452 -27.10938721 6.13288452 -25.94921875 5.32421875 C-24.94894653 4.6139856 -24.94894653 4.6139856 -23.9284668 3.8894043 C-21.4998651 2.76933898 -20.49737335 3.23934794 -18 4 C-16.327767 3.34742127 -14.66072849 2.68132451 -13 2 C-12.01 2.33 -11.02 2.66 -10 3 C-9.67 2.34 -9.34 1.68 -9 1 C-7.88625 1.20625 -6.7725 1.4125 -5.625 1.625 C-4.42875 1.74875 -3.2325 1.8725 -2 2 C-1.34 1.34 -0.68 0.68 0 0 Z " fill="#549CFC" transform="translate(89,101)"/>
<path d="M0 0 C3.03515625 1.93359375 3.03515625 1.93359375 6.0625 4.4375 C7.1803749 5.34221727 8.30024213 6.24447718 9.421875 7.14453125 C10.00001953 7.61197754 10.57816406 8.07942383 11.17382812 8.56103516 C14.30540833 11.02861988 17.55731349 13.32440142 20.8125 15.625 C21.42939697 16.06255615 22.04629395 16.5001123 22.68188477 16.95092773 C24.11974584 17.9694212 25.55963526 18.98505033 27 20 C26.67 20.66 26.34 21.32 26 22 C21.80216992 22.08231039 18.09395308 21.8568739 14 21 C11.4042144 20.73218085 8.80743054 20.49957438 6.20703125 20.28125 C4 20 4 20 2 19 C1.67 19.66 1.34 20.32 1 21 C-0.80053711 21.2097168 -0.80053711 21.2097168 -3.08984375 21.26171875 C-8.65915334 21.77541963 -11.50997106 24.15184789 -15.5625 27.8125 C-16.94158583 28.99631996 -18.32317237 30.17723192 -19.70703125 31.35546875 C-20.40908691 31.9592334 -21.11114258 32.56299805 -21.83447266 33.18505859 C-25.36443271 36.14353921 -29.04929868 38.88520948 -32.75 41.625 C-33.41717041 42.12104736 -34.08434082 42.61709473 -34.77172852 43.12817383 C-35.99226546 44.03444172 -37.21498915 44.93777607 -38.44042969 45.83740234 C-39.73478294 46.80229122 -40.99702388 47.81008191 -42.25 48.828125 C-44 50 -44 50 -47.25 50.125 C-52.31774201 48.6046774 -55.30155549 45.67923182 -59 42 C-58.8136543 38.14885555 -58.09904381 37.09089377 -55.19921875 34.4296875 C-54.03880178 33.56433665 -52.86775281 32.71309483 -51.6875 31.875 C-51.10548828 31.44574219 -50.52347656 31.01648438 -49.92382812 30.57421875 C-48.29052747 29.3719023 -46.64557712 28.18545849 -45 27 C-44.24332031 26.40445313 -43.48664063 25.80890625 -42.70703125 25.1953125 C-41 24 -41 24 -39 24 C-39 23.34 -39 22.68 -39 22 C-33.58823529 18 -33.58823529 18 -31 18 C-31 17.34 -31 16.68 -31 16 C-28.90746595 14.35069722 -26.81678226 12.81985955 -24.625 11.3125 C-23.33440354 10.41700075 -22.0440403 9.52116531 -20.75390625 8.625 C-20.11469238 8.18285156 -19.47547852 7.74070312 -18.81689453 7.28515625 C-17.21054636 6.14892717 -15.64643857 4.95348807 -14.08984375 3.75 C-13.25582031 3.110625 -12.42179687 2.47125 -11.5625 1.8125 C-10.84191406 1.24144531 -10.12132812 0.67039062 -9.37890625 0.08203125 C-5.85992842 -1.51855472 -3.6974394 -0.98062523 0 0 Z " fill="#99AEFC" transform="translate(142,95)"/>
<path d="M0 0 C0.125 6.75 0.125 6.75 -1 9 C-0.41992188 8.55527344 0.16015625 8.11054687 0.7578125 7.65234375 C1.53898437 7.08644531 2.32015625 6.52054687 3.125 5.9375 C4.27355469 5.08478516 4.27355469 5.08478516 5.4453125 4.21484375 C8.86253629 2.58983366 10.34636719 3.04460923 14 4 C16.58269314 5.33226872 18.9429908 6.93590784 21.33203125 8.5859375 C22.00924728 9.04352448 22.68646332 9.50111145 23.38420105 9.9725647 C24.80703015 10.93757792 26.22635995 11.90776856 27.64233398 12.8828125 C29.81413537 14.37612447 31.99869157 15.84915975 34.18554688 17.3203125 C35.56850842 18.26184671 36.95069788 19.20451619 38.33203125 20.1484375 C38.9861348 20.58916595 39.64023834 21.02989441 40.31416321 21.48397827 C44.88466175 24.65398526 44.88466175 24.65398526 46 28 C44.02 28.66 42.04 29.32 40 30 C39.01 29.01 39.01 29.01 38 28 C37.34 28.33 36.68 28.66 36 29 C35.01 27.515 35.01 27.515 34 26 C31.84188612 26.94729537 31.84188612 26.94729537 30 29 C28.515 28.505 28.515 28.505 27 28 C27 26.68 27 25.36 27 24 C26.01 24 25.02 24 24 24 C23.34 24.66 22.68 25.32 22 26 C21.34 26 20.68 26 20 26 C20 25.01 20 24.02 20 23 C19.34 23 18.68 23 18 23 C17.67 23.66 17.34 24.32 17 25 C17 24.34 17 23.68 17 23 C16.01 22.67 15.02 22.34 14 22 C13.34 22.99 12.68 23.98 12 25 C10.35 24.67 8.7 24.34 7 24 C6.505 25.485 6.505 25.485 6 27 C5.34 26.01 4.68 25.02 4 24 C3.01 24.66 2.02 25.32 1 26 C0.505 24.515 0.505 24.515 0 23 C-0.99 22.67 -1.98 22.34 -3 22 C-3.99 22.99 -4.98 23.98 -6 25 C-7.23825459 21.28523623 -6.70587257 18.81171187 -6 15 C-5.67 14.67 -5.34 14.34 -5 14 C-6.7732461 15.26746453 -8.54350975 16.53910235 -10.3125 17.8125 C-11.29863281 18.52019531 -12.28476563 19.22789063 -13.30078125 19.95703125 C-15.41509534 21.55730081 -17.17593441 23.10212829 -19 25 C-22.13589786 27.69550542 -24.87156316 29.73589776 -28.9375 30.6875 C-33.77296602 29.60198722 -37.52110098 26.47889902 -41 23 C-40.91036938 21.30858344 -40.75422324 19.62040398 -40.5625 17.9375 C-40.46066406 17.01839844 -40.35882813 16.09929687 -40.25390625 15.15234375 C-40.17011719 14.44207031 -40.08632812 13.73179688 -40 13 C-39.23816406 13.6496875 -39.23816406 13.6496875 -38.4609375 14.3125 C-37.77257812 14.869375 -37.08421875 15.42625 -36.375 16 C-35.70210937 16.556875 -35.02921875 17.11375 -34.3359375 17.6875 C-31.23493431 19.42986969 -29.51714018 19.52580362 -26 19 C-23.73799746 17.59285816 -21.88638695 16.26181797 -19.875 14.5625 C-18.74284245 13.64892733 -17.61001303 12.73618675 -16.4765625 11.82421875 C-15.90454102 11.35677246 -15.33251953 10.88932617 -14.74316406 10.40771484 C-11.96285122 8.16243699 -9.11001944 6.01718848 -6.25 3.875 C-5.26515625 3.12992187 -4.2803125 2.38484375 -3.265625 1.6171875 C-1 0 -1 0 0 0 Z M1 21 C2 23 2 23 2 23 Z " fill="#3D57A8" transform="translate(189,74)"/>
<path d="M0 0 C0.66 0.66 1.32 1.32 2 2 C2.66 1.34 3.32 0.68 4 0 C6.9628331 0.39504441 9.38326241 1.59817629 12 3 C12.33 2.01 12.66 1.02 13 0 C13.5775 0.495 14.155 0.99 14.75 1.5 C17.10400629 3.36980013 17.10400629 3.36980013 21 3 C21.33 2.34 21.66 1.68 22 1 C25.86204986 2.59777476 28.58312716 5.22073358 31.5625 8.0625 C36.47931944 12.68870016 41.55348118 16.92147702 46.91796875 21.02734375 C49 23 49 23 50.0625 24.96484375 C49.96259991 28.21784032 48.11070828 29.44005794 45.8125 31.625 C44.61560547 32.78902344 44.61560547 32.78902344 43.39453125 33.9765625 C40.42924921 36.48229839 38.38716672 37.79049151 34.54296875 38.37109375 C31.09815718 37.86839467 29.80045415 36.46820774 27.3125 34.0625 C26.43851563 33.23492187 25.56453125 32.40734375 24.6640625 31.5546875 C23.78492187 30.71164063 22.90578125 29.86859375 22 29 C20.40125482 27.5564728 18.79713747 26.11887143 17.1875 24.6875 C13.11224302 21.01393767 9.04806062 17.32849722 5 13.625 C4.43563232 13.11283936 3.87126465 12.60067871 3.28979492 12.07299805 C0.8359199 9.81953092 -1.14209469 7.78685797 -3 5 C-2.34 4.67 -1.68 4.34 -1 4 C-0.34786708 1.97536745 -0.34786708 1.97536745 0 0 Z " fill="#7F99EF" transform="translate(93,183)"/>
<path d="M0 0 C4.3699422 2.02890173 4.3699422 2.02890173 6 5 C7.24947036 9.96076847 7.35138747 14.05226709 6 19 C3.03654121 22.43926718 -0.33542722 24.62199985 -4.23291016 26.91162109 C-6.06878661 28.04236677 -7.76463146 29.277144 -9.48046875 30.58203125 C-10.33185425 31.21951294 -10.33185425 31.21951294 -11.20043945 31.86987305 C-12.02934692 32.49116089 -12.02934692 32.49116089 -12.875 33.125 C-18.12853665 37.03552728 -18.12853665 37.03552728 -22.2578125 36.8671875 C-25 36 -25 36 -27 34 C-26.61121812 30.98694043 -25.73543126 29.60314689 -24 27 C-26.27073652 26.83201949 -28.54159293 26.66565887 -30.8125 26.5 C-32.07707031 26.4071875 -33.34164062 26.314375 -34.64453125 26.21875 C-36.75978517 26.08085219 -38.88025592 26 -41 26 C-41.33 26.66 -41.66 27.32 -42 28 C-42.66 27.67 -43.32 27.34 -44 27 C-44 26.01 -44 25.02 -44 24 C-42.53808594 22.68481445 -42.53808594 22.68481445 -40.484375 21.36328125 C-39.73317383 20.87214844 -38.98197266 20.38101563 -38.20800781 19.875 C-37.39686523 19.359375 -36.58572266 18.84375 -35.75 18.3125 C-34.09373525 17.23569977 -32.43748528 16.1588768 -30.78125 15.08203125 C-29.96527344 14.55689941 -29.14929688 14.03176758 -28.30859375 13.49072266 C-25.26654298 11.52638657 -22.25769948 9.51652579 -19.25 7.5 C-17.5 6.33333333 -15.75 5.16666667 -14 4 C-12.98421875 3.27941406 -11.9684375 2.55882812 -10.921875 1.81640625 C-7.0201505 -0.60913104 -4.44186679 -0.94301537 0 0 Z " fill="#6194FA" transform="translate(131,30)"/>
<path d="M0 0 C3.98082623 2.98265088 7.95970068 5.96777479 11.9296875 8.96484375 C15.31326407 11.51762577 18.70700485 14.0564441 22.10693359 16.58740234 C23.77046373 17.82872107 25.42683555 19.07962082 27.08203125 20.33203125 C27.94183594 20.96496094 28.80164063 21.59789063 29.6875 22.25 C30.41324219 22.79140625 31.13898438 23.3328125 31.88671875 23.890625 C34.69108876 25.36278966 35.85677769 25.62143937 39 25 C41.83868088 23.28068269 44.36616047 21.21668134 46.9375 19.125 C48.44509108 17.93296649 49.95423114 16.74288963 51.46484375 15.5546875 C52.22007324 14.9575293 52.97530273 14.36037109 53.75341797 13.74511719 C57.67711739 10.69723592 61.73523249 7.84478533 65.79663086 4.98486328 C68.51722074 3.13862883 68.51722074 3.13862883 71 1 C75.39400591 0.47271929 78.26069769 0.79870176 81.9375 3.1875 C84.28739255 5.05577043 84.90763002 5.6473146 85.6875 8.625 C84.79777673 11.69858948 83.73733397 12.40889306 81 14 C78.74926758 13.85009766 78.74926758 13.85009766 76.33203125 13.2890625 C72.0116391 12.71448754 69.922116 13.17837652 66.32421875 15.6484375 C64.75805951 16.86456688 63.21292071 18.10814678 61.6875 19.375 C60.03488178 20.66928194 58.38123154 21.96224719 56.7265625 23.25390625 C55.92637695 23.89215332 55.12619141 24.53040039 54.30175781 25.18798828 C51.13456443 27.68129643 47.87563524 30.0184555 44.5625 32.3125 C43.57378906 33.00988281 42.58507812 33.70726562 41.56640625 34.42578125 C39.18077866 35.88911142 37.73639184 36.64616183 35 37 C33.28344727 36.1706543 33.28344727 36.1706543 31.56640625 34.82421875 C30.92356689 34.33058838 30.28072754 33.83695801 29.6184082 33.32836914 C28.60073364 32.51613892 28.60073364 32.51613892 27.5625 31.6875 C26.50712036 30.8685022 26.50712036 30.8685022 25.43041992 30.03295898 C23.98297923 28.90873162 22.5393816 27.77953941 21.09960938 26.64550781 C19.15964669 25.12511846 17.20335621 23.63095217 15.234375 22.1484375 C1.45989922 11.74050258 1.45989922 11.74050258 0.29296875 7.32421875 C0.1953125 4.8828125 0.09765625 2.44140625 0 0 Z " fill="#030818" transform="translate(78,63)"/>
<path d="M0 0 C1.28460083 2.56920166 0.86541698 3.40415662 0.06640625 6.125 C-1.94924348 11.82859288 -5.59024168 15.09123658 -10.0625 19 C-11.21758057 20.04679932 -11.21758057 20.04679932 -12.39599609 21.11474609 C-14.58372932 23.0924127 -16.7890795 25.04834227 -19 27 C-20.70910954 28.54080611 -22.41761325 30.08228507 -24.125 31.625 C-24.87523437 32.29273438 -25.62546875 32.96046875 -26.3984375 33.6484375 C-30.53571883 37.38814225 -34.59242671 41.21448023 -38.64892578 45.04150391 C-39.85517063 46.17458466 -41.0677508 47.30096552 -42.28710938 48.41992188 C-43.39047986 49.43774025 -44.47686488 50.47444732 -45.54101562 51.53320312 C-48.21939094 54.05548769 -49.88018849 54.98126296 -53.546875 55.5546875 C-57.59589334 54.90427958 -59.20157627 53.82743698 -62.25 51.125 C-63.19359375 50.30257812 -64.1371875 49.48015625 -65.109375 48.6328125 C-66.54023438 47.32957031 -66.54023438 47.32957031 -68 46 C-68.91265625 45.17242187 -69.8253125 44.34484375 -70.765625 43.4921875 C-72.59172655 41.82782638 -74.4133386 40.15852638 -76.23046875 38.484375 C-79.0238495 35.97860609 -81.89178324 33.60554423 -84.8125 31.25 C-85.71355469 30.51136719 -86.61460938 29.77273437 -87.54296875 29.01171875 C-89.01095655 27.80978915 -90.48940153 26.62020903 -91.98828125 25.45703125 C-95.51010615 22.45633557 -96.40103791 20.07151273 -96.875 15.625 C-96.94317354 14.0842779 -96.99390428 12.54221758 -97 11 C-91.22195734 15.07277505 -86.05032685 19.63544023 -80.85546875 24.421875 C-77.26278072 27.66561522 -73.54644365 30.72414744 -69.76953125 33.75 C-67.84046268 35.31719816 -65.94393013 36.92494237 -64.07421875 38.5625 C-62.64529297 39.8 -62.64529297 39.8 -61.1875 41.0625 C-60.33542969 41.81660156 -59.48335937 42.57070312 -58.60546875 43.34765625 C-55.36808746 45.40074813 -53.77082933 45.62113531 -50 45 C-47.1918242 43.35066338 -47.1918242 43.35066338 -44.625 41 C-43.67238281 40.17757812 -42.71976563 39.35515625 -41.73828125 38.5078125 C-38.68728503 35.71360484 -35.75126351 32.84015445 -32.8671875 29.875 C-31.1170544 28.11754417 -29.318842 26.48988584 -27.4375 24.875 C-23.3506424 21.3627303 -19.42849943 17.6868789 -15.5 14 C-10.4177356 9.2327883 -5.31110377 4.51358978 0 0 Z " fill="#040711" transform="translate(208,150)"/>
<path d="M0 0 C7.22107637 4.34488494 13.94962182 9.13493335 20.65209961 14.2277832 C27.67468458 19.54957941 34.8558968 24.63949198 42.10205078 29.65185547 C43.39304429 30.56886938 44.66204189 31.51747943 45.90966797 32.49267578 C49.10435082 35.23025295 49.10435082 35.23025295 53.05102539 35.75537109 C55.95062125 34.63156431 57.76054211 32.69612985 60 30.5625 C62.87472399 27.83238865 65.32985908 25.55471247 69 24 C69 23.34 69 22.68 69 22 C70.609375 20.37890625 70.609375 20.37890625 72.75 18.5625 C73.79414063 17.66724609 73.79414063 17.66724609 74.859375 16.75390625 C76.8669308 15.10902932 78.91915592 13.55028873 81 12 C79.46159153 20.79365634 76.61568768 25.44690791 69.875 31.1875 C68.72692871 32.20831665 68.72692871 32.20831665 67.55566406 33.24975586 C66.05308768 34.58326845 64.54292709 35.90829643 63.02441406 37.22363281 C61.31845901 38.72056106 59.67407673 40.24699232 58.0546875 41.8359375 C57.29414063 42.57070312 56.53359375 43.30546875 55.75 44.0625 C55.12609375 44.67222656 54.5021875 45.28195313 53.859375 45.91015625 C52 47 52 47 49.65209961 46.75024414 C46.77479769 45.93629322 45.07867404 44.88854837 42.70703125 43.0859375 C41.91611084 42.49256592 41.12519043 41.89919434 40.31030273 41.2878418 C39.48602783 40.656604 38.66175293 40.02536621 37.8125 39.375 C36.11257796 38.09685947 34.41206258 36.81950767 32.7109375 35.54296875 C31.89850586 34.9298584 31.08607422 34.31674805 30.24902344 33.68505859 C23.39668852 28.41087162 23.39668852 28.41087162 16 24 C16 23.34 16 22.68 16 22 C15.45601562 21.74992187 14.91203125 21.49984375 14.3515625 21.2421875 C11.51644099 19.74456517 8.98409474 17.9886391 6.375 16.125 C5.41335937 15.44695312 4.45171875 14.76890625 3.4609375 14.0703125 C1.07052818 12.05933323 -0.06131259 10.9419837 -1 8 C-0.96986729 5.24787881 -0.45482541 2.72895247 0 0 Z " fill="#07112F" transform="translate(168,101)"/>
<path d="M0 0 C2.64 0 5.28 0 8 0 C8 0.33 8 0.66 8 1 C6.35 1 4.7 1 3 1 C3 1.66 3 2.32 3 3 C4.7634375 2.7525 4.7634375 2.7525 6.5625 2.5 C24.08191906 0.54095953 24.08191906 0.54095953 29 3 C29 3.66 29 4.32 29 5 C28.34 5 27.68 5 27 5 C26.835 5.825 26.67 6.65 26.5 7.5 C24.36583407 12.47972049 21.00347805 15.43450929 17 19 C16.23558594 19.68191406 15.47117188 20.36382812 14.68359375 21.06640625 C8.96445401 25.85654867 8.96445401 25.85654867 5.05859375 26.4375 C1.18887067 25.88397639 -0.38820105 24.56471849 -3.3125 22 C-4.25351563 21.18660156 -5.19453125 20.37320313 -6.1640625 19.53515625 C-7.09992188 18.69855469 -8.03578125 17.86195313 -9 17 C-9.89460937 16.21496094 -10.78921875 15.42992187 -11.7109375 14.62109375 C-13.820335 12.76123065 -15.91612327 10.88835249 -18 9 C-17.649375 8.21625 -17.29875 7.4325 -16.9375 6.625 C-16.628125 5.75875 -16.31875 4.8925 -16 4 C-16.33 3.34 -16.66 2.68 -17 2 C-13.7348928 0.91163093 -13.14445785 1.15679343 -10 2 C-8.47975104 2.04215595 -6.9577763 2.04115807 -5.4375 2 C-2.49552941 1.92062137 -0.85325528 2.04891491 2 3 C2 2.34 2 1.68 2 1 C1.34 0.67 0.68 0.34 0 0 Z " fill="#C6DBFD" transform="translate(150,170)"/>
<path d="M0 0 C2.1171875 1.3125 2.1171875 1.3125 3.875 3 C4.47054687 3.556875 5.06609375 4.11375 5.6796875 4.6875 C6.33324219 5.3371875 6.33324219 5.3371875 7 6 C6.67 7.65 6.34 9.3 6 11 C3.37257389 11.84077636 1.82363811 11.9741398 -0.95703125 11.56640625 C-6.94118146 11.53683952 -11.53361777 16.0549681 -16.125 19.4375 C-17.14601807 20.16582031 -18.16703613 20.89414063 -19.21899414 21.64453125 C-23.55194092 24.73895246 -27.84790069 27.87965277 -32.11328125 31.06640625 C-40.8450831 37.52302029 -40.8450831 37.52302029 -45.375 38.0625 C-50.62959124 36.52236119 -53.18477373 33.61665915 -56 29 C-57.03570938 26.27493353 -57.53388 23.90030222 -58 21 C-57.34 21 -56.68 21 -56 21 C-55.278125 21.825 -54.55625 22.65 -53.8125 23.5 C-51.00333427 25.99703621 -49.84576139 26.68908255 -46.14331055 26.54394531 C-41.14748412 25.27606728 -37.07989552 21.63883772 -33 18.625 C-30.94971456 17.15816089 -28.89893261 15.69201555 -26.84765625 14.2265625 C-25.85137207 13.50629883 -24.85508789 12.78603516 -23.82861328 12.04394531 C-20.05958704 9.32046113 -16.26938966 6.63417647 -12.4375 4 C-11.86193359 3.58572754 -11.28636719 3.17145508 -10.69335938 2.74462891 C-7.01425167 0.22485771 -4.43883908 -0.68383766 0 0 Z " fill="#040D25" transform="translate(64,92)"/>
<path d="M0 0 C0.66 0.66 1.32 1.32 2 2 C1.34 3.32 0.68 4.64 0 6 C0.515625 5.835 1.03125 5.67 1.5625 5.5 C5.15813177 4.76243451 7.28436736 4.40070441 11 5 C13.73734758 7.02440496 16.11788311 9.24035575 18.55078125 11.62109375 C20.67495363 13.6842851 22.82344284 15.41799613 25.1875 17.1875 C28 20 28 20 28.5 22.9375 C26.22363741 27.58507362 22.73110378 30.86930146 18 33 C12.39995821 33.27388342 9.77938682 32.18538911 5.5703125 28.5078125 C4.07147498 27.06438974 2.58995178 25.60280224 1.125 24.125 C0.36703125 23.39152344 -0.3909375 22.65804687 -1.171875 21.90234375 C-4.10543278 19.03664407 -6.71871113 16.42193331 -9 13 C-8.67 12.34 -8.34 11.68 -8 11 C-8.66 11 -9.32 11 -10 11 C-10.66 9.02 -11.32 7.04 -12 5 C-9 5 -9 5 -7 6 C-6.67 5.34 -6.34 4.68 -6 4 C-6 4.66 -6 5.32 -6 6 C-5.195625 5.195625 -4.39125 4.39125 -3.5625 3.5625 C-2.375 2.375 -1.1875 1.1875 0 0 Z " fill="#62ACFD" transform="translate(53,133)"/>
<path d="M0 0 C3.04604171 1.63603653 5.77344388 3.33391592 8 6 C8.37890625 8.59375 8.37890625 8.59375 8 11 C5.5 12.8125 5.5 12.8125 3 14 C2.62875 13.505 2.2575 13.01 1.875 12.5 C-0.84281589 10.32574728 -2.58247279 10.65575879 -6 11 C-8.75608923 12.48290794 -8.75608923 12.48290794 -11.375 14.6875 C-12.41011719 15.5021875 -13.44523437 16.316875 -14.51171875 17.15625 C-15.67643563 18.10176171 -16.83907457 19.04983688 -18 20 C-18.6492041 20.52980469 -19.2984082 21.05960938 -19.96728516 21.60546875 C-21.34477598 22.7302721 -22.72196939 23.85543977 -24.09887695 24.98095703 C-40.88869936 38.69935079 -40.88869936 38.69935079 -45.44140625 39.34765625 C-50.52138658 38.65739938 -53.96035448 34.92333628 -57 31 C-57.98486451 27.60822273 -58.18015341 24.51659463 -58 21 C-57.50371094 21.42152344 -57.00742188 21.84304687 -56.49609375 22.27734375 C-55.81675781 22.82519531 -55.13742188 23.37304688 -54.4375 23.9375 C-53.44556641 24.75541016 -53.44556641 24.75541016 -52.43359375 25.58984375 C-49.15548467 27.489358 -46.79143066 27.95476601 -43 28 C-39.83369349 26.34763616 -39.83369349 26.34763616 -36.9375 23.75 C-35.80609565 22.82148532 -34.67458129 21.89310469 -33.54296875 20.96484375 C-32.96337402 20.47741699 -32.3837793 19.98999023 -31.78662109 19.48779297 C-28.82987246 17.0255866 -25.78595707 14.67576807 -22.75 12.3125 C-19.5768488 9.83817173 -16.42467976 7.36239339 -13.36328125 4.75 C-6.03011313 -1.42529947 -6.03011313 -1.42529947 0 0 Z " fill="#02050E" transform="translate(141,116)"/>
<path d="M0 0 C3.99220304 0.9805411 7.947948 1.97218075 11.875 3.1875 C14.87935048 4.33444623 14.87935048 4.33444623 17 3 C17 3.66 17 4.32 17 5 C20.0745356 4.2236068 20.0745356 4.2236068 22 2 C24.52845528 3.26422764 24.76422764 4.52845528 26 7 C26.66 7 27.32 7 28 7 C28.33 6.34 28.66 5.68 29 5 C32.66464055 5.4952217 34.70832354 6.0208206 37 9 C37.495 10.485 37.495 10.485 38 12 C36.85481752 13.14518248 35.70931031 14.29004142 34.5625 15.43359375 C33.45319134 16.54567568 32.34959619 17.66346995 31.25 18.78515625 C24.43839472 25.69952282 24.43839472 25.69952282 22 27 C17.30452759 26.68041287 14.44118057 24.3215073 10.9375 21.4375 C4.84676897 16.57724637 -1.44804873 12.2263037 -8 8 C-7.67 7.01 -7.34 6.02 -7 5 C-6.01 4.67 -5.02 4.34 -4 4 C-3.67 3.34 -3.34 2.68 -3 2 C-2.01 2 -1.02 2 0 2 C0 1.34 0 0.68 0 0 Z " fill="#4864B4" transform="translate(200,111)"/>
<path d="M0 0 C4.90003493 4.14521568 9.64278245 8.41066716 14.3125 12.8125 C19.30832771 17.49938327 24.33807383 22.13784404 29.44921875 26.69921875 C31.44572989 28.50005346 33.42478199 30.31473642 35.39453125 32.14453125 C35.98153809 32.68964355 36.56854492 33.23475586 37.17333984 33.79638672 C38.32509795 34.86781185 39.47523923 35.9409784 40.62353516 37.01611328 C45.19149545 41.58531492 45.19149545 41.58531492 51.1875 43.0625 C55.69032301 41.8076149 57.88215746 39.87289315 61.203125 36.69140625 C63 35 63 35 66 33 C66.5037829 37.03026321 66.82335309 39.63754667 64.6875 43.171875 C61.00539068 47.54437982 57.32554592 50.86978163 52 53 C43.5162878 52.07785737 36.26802708 43.3771334 30.62475586 37.58959961 C24.95394846 31.77855586 19.37005082 26.30073909 12.828125 21.453125 C10.47940448 19.5861933 8.80432987 17.38429305 7 15 C5.700625 14.071875 5.700625 14.071875 4.375 13.125 C1.26545521 10.34277571 0.79401819 8.04227442 0 4 C0 2.68 0 1.36 0 0 Z " fill="#060F27" transform="translate(77,177)"/>
<path d="M0 0 C0.66 1.32 1.32 2.64 2 4 C-2.75 7 -2.75 7 -5 7 C-4.505 8.98 -4.505 8.98 -4 11 C-9.33333333 15 -14.66666667 19 -20 23 C-20.67321289 23.55260498 -21.34642578 24.10520996 -22.04003906 24.67456055 C-24 26 -24 26 -27.25 26.125 C-32.31774201 24.6046774 -35.30155549 21.67923182 -39 18 C-38.77015532 14.30278414 -38.15291674 13.14551381 -35.41796875 10.54296875 C-34.35191406 9.76566406 -33.28585938 8.98835938 -32.1875 8.1875 C-31.38602539 7.57745117 -31.38602539 7.57745117 -30.56835938 6.95507812 C-27.34556056 4.59644923 -26.12668401 4 -22 4 C-21.01 5.485 -21.01 5.485 -20 7 C-16.87525373 5.36526484 -16.87525373 5.36526484 -16.3125 2.875 C-16.209375 2.25625 -16.10625 1.6375 -16 1 C-13.89590361 0.97298592 -11.79170822 0.95359777 -9.6875 0.9375 C-8.51574219 0.92589844 -7.34398437 0.91429688 -6.13671875 0.90234375 C-3 1 -3 1 0 2 C0 1.34 0 0.68 0 0 Z " fill="#A5B9FC" transform="translate(122,119)"/>
<path d="M0 0 C4.11812184 2.12145671 6.94937302 4.84592071 10.1328125 8.125 C12.54230829 10.54457736 15.09913814 12.74960681 17.69921875 14.9609375 C19.49295912 16.5506361 21.19593411 18.16459579 22.89453125 19.8515625 C23.40733643 20.35010742 23.9201416 20.84865234 24.44848633 21.36230469 C25.45802499 22.34658503 26.45484066 23.34414382 27.4362793 24.35644531 C31.54734798 28.31613067 34.46704621 28.99446151 40 29 C42.53672176 27.97591262 42.53672176 27.97591262 44.4375 26.1875 C45.09621094 25.64480469 45.75492188 25.10210937 46.43359375 24.54296875 C48.10161884 23.06623686 48.10161884 23.06623686 49 21 C49.66 21 50.32 21 51 21 C52.20235019 30.23471741 52.20235019 30.23471741 49.46484375 34.25390625 C46.34088889 37.13709388 43.45982809 38.81935325 39.5 40.375 C34.13261056 39.79992256 31.71338053 36.70660428 28 33 C26.48559578 31.63864727 24.96435487 30.28487359 23.4375 28.9375 C22.60992187 28.18597656 21.78234375 27.43445313 20.9296875 26.66015625 C19.33802374 25.21492556 17.74397223 23.77223329 16.13769531 22.34326172 C14.10242996 20.53154841 12.08192526 18.70433889 10.0625 16.875 C9.41144287 16.30128662 8.76038574 15.72757324 8.08959961 15.13647461 C3.98470889 11.38372307 1.72697425 8.31474732 0 3 C0 2.01 0 1.02 0 0 Z " fill="#101D3C" transform="translate(31,136)"/>
<path d="M0 0 C0.33 0 0.66 0 1 0 C1.13592021 1.89382164 1.2324094 3.79049704 1.3125 5.6875 C1.37050781 6.74324219 1.42851563 7.79898438 1.48828125 8.88671875 C0.66317772 14.14757889 -2.95220834 16.2067107 -7.0234375 19.2890625 C-8.13715659 20.07266127 -9.25451617 20.85110516 -10.375 21.625 C-14.34181361 24.39238314 -18.27193083 27.18353145 -22.109375 30.12890625 C-22.78049316 30.63921387 -23.45161133 31.14952148 -24.14306641 31.67529297 C-25.44459885 32.66835677 -26.73885585 33.67104361 -28.02490234 34.68408203 C-32.48838027 38.06234123 -32.48838027 38.06234123 -35.07373047 37.74731445 C-37 37 -37 37 -39 35 C-38.92328415 31.46516977 -38.211075 30.2132325 -35.70703125 27.68359375 C-34.75183594 26.94238281 -33.79664062 26.20117188 -32.8125 25.4375 C-31.39904297 24.32181641 -31.39904297 24.32181641 -29.95703125 23.18359375 C-27.02805438 21.02071651 -24.03440371 19.01186134 -21 17 C-17.91877357 14.85927973 -14.86399494 12.6828212 -11.8125 10.5 C-11.00619141 9.93152344 -10.19988281 9.36304687 -9.36914062 8.77734375 C-8.59376953 8.22175781 -7.81839844 7.66617188 -7.01953125 7.09375 C-6.31932861 6.59552734 -5.61912598 6.09730469 -4.89770508 5.58398438 C-2.89113093 3.90912871 -1.52915588 2.10682433 0 0 Z " fill="#030816" transform="translate(98,100)"/>
<path d="M0 0 C0 3.3 0 6.6 0 10 C-0.66 10 -1.32 10 -2 10 C-2 10.66 -2 11.32 -2 12 C-3.65770921 13.33619621 -5.37852016 14.59462139 -7.125 15.8125 C-11.79608161 19.10984293 -11.79608161 19.10984293 -16.25 22.6875 C-24.53944223 29.65816733 -24.53944223 29.65816733 -28.9375 30.6875 C-33.77296602 29.60198722 -37.52110098 26.47889902 -41 23 C-40.91036938 21.30858344 -40.75422324 19.62040398 -40.5625 17.9375 C-40.46066406 17.01839844 -40.35882813 16.09929687 -40.25390625 15.15234375 C-40.17011719 14.44207031 -40.08632812 13.73179688 -40 13 C-39.23816406 13.6496875 -39.23816406 13.6496875 -38.4609375 14.3125 C-37.77257812 14.869375 -37.08421875 15.42625 -36.375 16 C-35.70210937 16.556875 -35.02921875 17.11375 -34.3359375 17.6875 C-31.23493431 19.42986969 -29.51714018 19.52580362 -26 19 C-23.73799746 17.59285816 -21.88638695 16.26181797 -19.875 14.5625 C-18.74284245 13.64892733 -17.61001303 12.73618675 -16.4765625 11.82421875 C-15.90454102 11.35677246 -15.33251953 10.88932617 -14.74316406 10.40771484 C-11.96285122 8.16243699 -9.11001944 6.01718848 -6.25 3.875 C-5.26515625 3.12992187 -4.2803125 2.38484375 -3.265625 1.6171875 C-1 0 -1 0 0 0 Z " fill="#040919" transform="translate(189,74)"/>
<path d="M0 0 C0.99 0.66 1.98 1.32 3 2 C2.34 2.66 1.68 3.32 1 4 C1.66 4.66 2.32 5.32 3 6 C3.66 5.34 4.32 4.68 5 4 C8 5 8 5 9 6 C9.66 5.34 10.32 4.68 11 4 C11.66 4 12.32 4 13 4 C13.495 4.99 13.495 4.99 14 6 C16.01669827 7.13350534 16.01669827 7.13350534 18 8 C18 8.66 18 9.32 18 10 C16.25998065 11.55961601 14.45696803 13.04949575 12.625 14.5 C8.68517459 17.60759138 8.68517459 17.60759138 5 21 C4.01 20.67 3.02 20.34 2 20 C2.66 18.68 3.32 17.36 4 16 C3.01 16 2.02 16 1 16 C0.67 16.66 0.34 17.32 0 18 C-0.66 17.34 -1.32 16.68 -2 16 C-2.33 16 -2.66 16 -3 16 C-3 16.99 -3 17.98 -3 19 C-3.66 19 -4.32 19 -5 19 C-5.33 19.66 -5.66 20.32 -6 21 C-6.33 19.68 -6.66 18.36 -7 17 C-7.66 17 -8.32 17 -9 17 C-9.33 17.66 -9.66 18.32 -10 19 C-10 18.34 -10 17.68 -10 17 C-10.66 17 -11.32 17 -12 17 C-12 17.66 -12 18.32 -12 19 C-12.99 19.33 -13.98 19.66 -15 20 C-15 18.68 -15 17.36 -15 16 C-15.433125 16.495 -15.86625 16.99 -16.3125 17.5 C-18 19 -18 19 -21 19 C-21.226875 19.639375 -21.45375 20.27875 -21.6875 20.9375 C-23 23 -23 23 -25.625 23.75 C-26.40875 23.8325 -27.1925 23.915 -28 24 C-28.33 24.99 -28.66 25.98 -29 27 C-28.88508582 24.38570237 -28.49994752 22.56986206 -26.75 20.57519531 C-25.04334147 19.03062751 -23.29261387 17.5689536 -21.5 16.125 C-20.86650635 15.60123779 -20.2330127 15.07747559 -19.58032227 14.5378418 C-18.31247844 13.494067 -17.03983965 12.4560861 -15.76220703 11.42431641 C-14.24455229 10.19766113 -12.743632 8.95035354 -11.24609375 7.69921875 C-7.43955086 4.58828776 -4.95805545 2.71320382 0 2 C0 1.34 0 0.68 0 0 Z " fill="#ADC1FC" transform="translate(140,134)"/>
<path d="M0 0 C4.17500558 2.33983829 7.31098836 4.5920197 9.4375 8.9375 C8.75745994 13.69778042 5.56421288 15.99575074 2 19 C0 17 0 17 -1 15 C-1.5775 15.144375 -2.155 15.28875 -2.75 15.4375 C-3.4925 15.623125 -4.235 15.80875 -5 16 C-5.9590625 16.309375 -5.9590625 16.309375 -6.9375 16.625 C-10.31818304 17.23966964 -13.29143902 16.19010173 -16.5625 15.3125 C-19.49521776 14.93651054 -20.5153324 15.47713921 -23 17 C-23.70125 17.28875 -24.4025 17.5775 -25.125 17.875 C-27.17135253 18.84747401 -27.17135253 18.84747401 -27.8125 21 C-29 23 -29 23 -32.625 24.25 C-33.73875 24.4975 -34.8525 24.745 -36 25 C-8.85246306 -2.50541407 -8.85246306 -2.50541407 0 0 Z " fill="#A9BEFB" transform="translate(200,138)"/>
<path d="M0 0 C5.77804266 4.07277505 10.94967315 8.63544023 16.14453125 13.421875 C21.58834621 18.33694733 27.30068378 22.94609937 33.13671875 27.38671875 C34.14347656 28.16660156 35.15023437 28.94648438 36.1875 29.75 C37.10917969 30.44609375 38.03085938 31.1421875 38.98046875 31.859375 C41 34 41 34 41.42578125 36.515625 C40.9944803 39.03220666 40.29636972 40.81237611 39 43 C38.071875 42.195625 37.14375 41.39125 36.1875 40.5625 C33.06505391 37.8807217 29.88637578 35.27749886 26.6875 32.6875 C22.12244713 28.96666924 17.71699906 25.10940026 13.36328125 21.14453125 C10.47591423 18.52442465 7.53983509 15.96383247 4.59375 13.41015625 C1.31950745 10.5130936 0.70994166 9.22924157 0.375 4.875 C0.30023438 3.96492187 0.22546875 3.05484375 0.1484375 2.1171875 C0.09945312 1.41851562 0.05046875 0.71984375 0 0 Z " fill="#14213F" transform="translate(111,161)"/>
<path d="M0 0 C3.98082623 2.98265088 7.95970068 5.96777479 11.9296875 8.96484375 C24.68125364 19.33891868 24.68125364 19.33891868 39 27 C39 29.97 39 32.94 39 36 C35 37 35 37 33.28344727 36.1706543 C32.71682373 35.72633057 32.1502002 35.28200684 31.56640625 34.82421875 C30.92356689 34.33058838 30.28072754 33.83695801 29.6184082 33.32836914 C28.60073364 32.51613892 28.60073364 32.51613892 27.5625 31.6875 C26.50712036 30.8685022 26.50712036 30.8685022 25.43041992 30.03295898 C23.98297923 28.90873162 22.5393816 27.77953941 21.09960938 26.64550781 C19.15964669 25.12511846 17.20335621 23.63095217 15.234375 22.1484375 C1.45989922 11.74050258 1.45989922 11.74050258 0.29296875 7.32421875 C0.1953125 4.8828125 0.09765625 2.44140625 0 0 Z " fill="#18294F" transform="translate(78,63)"/>
<path d="M0 0 C0.66 0.33 1.32 0.66 2 1 C2.598125 1.103125 3.19625 1.20625 3.8125 1.3125 C6.77146979 2.24246193 8.67110683 3.99456422 11 6 C10.43455575 9.76400202 8.87689907 11.50046584 6.1875 14.125 C5.50042969 14.80820313 4.81335938 15.49140625 4.10546875 16.1953125 C1.30284336 18.59756283 -0.77143888 19.80216407 -4.42578125 20.390625 C-8.01635227 19.84577356 -9.56062453 18.21393765 -12.1875 15.75 C-13.04730469 14.96109375 -13.90710938 14.1721875 -14.79296875 13.359375 C-16.76599241 11.25016032 -18.0525376 9.71031669 -19 7 C-18.125 4.75 -18.125 4.75 -17 3 C-17 3.66 -17 4.32 -17 5 C-16.34 5 -15.68 5 -15 5 C-14.67 4.01 -14.34 3.02 -14 2 C-11.9375 1.3125 -11.9375 1.3125 -10 1 C-10 1.66 -10 2.32 -10 3 C-7.60280568 3.67958603 -7.60280568 3.67958603 -5 4 C-4.34 3.34 -3.68 2.68 -3 2 C-2.01 1.34 -1.02 0.68 0 0 Z M0 3 C-0.33 3.66 -0.66 4.32 -1 5 C-0.34 5 0.32 5 1 5 C0.67 4.34 0.34 3.68 0 3 Z " fill="#8BA4F7" transform="translate(132,201)"/>
<path d="M0 0 C0.33 0 0.66 0 1 0 C1.7847901 3.8876176 1.9586203 7.13038612 1 11 C-2.00492631 14.28051038 -5.46498063 16.52638457 -9.23291016 18.86328125 C-11.04960671 20.03191059 -12.76066878 21.28730291 -14.48046875 22.59375 C-23.11867818 29.03592919 -23.11867818 29.03592919 -27.2578125 28.8671875 C-30 28 -30 28 -32 26 C-31.851798 23.21266242 -31.22613024 22.20736624 -29.1640625 20.31640625 C-28.32617188 19.73761719 -27.48828125 19.15882812 -26.625 18.5625 C-25.65046875 17.881875 -24.6759375 17.20125 -23.671875 16.5 C-22.44849687 15.66581514 -21.22446561 14.83258778 -20 14 C-18.35912225 12.87536868 -16.71851617 11.75034093 -15.078125 10.625 C-12.48432169 8.84709589 -9.88885665 7.07191253 -7.28759766 5.30493164 C-6.4888623 4.76215576 -5.69012695 4.21937988 -4.8671875 3.66015625 C-4.14644043 3.17168213 -3.42569336 2.68320801 -2.68310547 2.17993164 C-1.049243 1.10694145 -1.049243 1.10694145 0 0 Z " fill="#050E26" transform="translate(136,38)"/>
<path d="M0 0 C0.33 0 0.66 0 1 0 C0.80926905 8.92967642 0.80926905 8.92967642 -1.9375 12.5625 C-2.948125 13.366875 -3.95875 14.17125 -5 15 C-6.54582302 16.41213022 -8.08699313 17.82936091 -9.625 19.25 C-14.94188834 24.01139255 -20.45262892 28.51175141 -26 33 C-28.00678921 34.65879108 -30.00427329 36.32790465 -32 38 C-32.99 37.34 -33.98 36.68 -35 36 C-34.59462226 29.65928021 -34.59462226 29.65928021 -31.98828125 26.76953125 C-30.66376953 25.80080078 -30.66376953 25.80080078 -29.3125 24.8125 C-28.3225 24.05839844 -27.3325 23.30429688 -26.3125 22.52734375 C-25.77753906 22.12499512 -25.24257812 21.72264648 -24.69140625 21.30810547 C-21.63553999 18.94474932 -18.7327037 16.40253821 -15.8125 13.875 C-14.92135498 13.10833008 -14.92135498 13.10833008 -14.01220703 12.32617188 C-6.8488964 6.33348361 -6.8488964 6.33348361 0 0 Z " fill="#030610" transform="translate(177,126)"/>
<path d="M0 0 C0.99 0.33 1.98 0.66 3 1 C2.74065388 4.53822207 2.28146753 5.74557902 -0.3984375 8.16796875 C-1.38070313 8.83441406 -2.36296875 9.50085938 -3.375 10.1875 C-4.35210938 10.86167969 -5.32921875 11.53585938 -6.3359375 12.23046875 C-7.21507813 12.81441406 -8.09421875 13.39835937 -9 14 C-9.99 14.66 -10.98 15.32 -12 16 C-16.23392019 16.47043558 -18.30867543 16.44127101 -21.9375 14.125 C-24 12 -24 12 -24 10 C-24.66 10 -25.32 10 -26 10 C-25.75 7.625 -25.75 7.625 -25 5 C-22.03024585 2.77268439 -19.59055511 3 -16 3 C-15.07380859 2.51080078 -15.07380859 2.51080078 -14.12890625 2.01171875 C-11.70390154 0.85928532 -10.10505479 0.76285008 -7.4375 0.8125 C-6.29087891 0.82216797 -6.29087891 0.82216797 -5.12109375 0.83203125 C-3 1 -3 1 0 2 C0 1.34 0 0.68 0 0 Z " fill="#4D95FB" transform="translate(32,103)"/>
<path d="M0 0 C1 2 1 2 0.49731445 4.11035156 C-2.0517793 10.92459136 -5.35421497 15.02251029 -10.8125 19.75 C-11.49892578 20.37003906 -12.18535156 20.99007812 -12.89257812 21.62890625 C-14.90967311 23.44181092 -16.95256728 25.22151289 -19 27 C-19.9744104 27.87809326 -19.9744104 27.87809326 -20.96850586 28.77392578 C-21.88901733 29.59352783 -21.88901733 29.59352783 -22.828125 30.4296875 C-23.36985352 30.91679199 -23.91158203 31.40389648 -24.46972656 31.90576172 C-26 33 -26 33 -28.9375 33.375 C-29.9584375 33.189375 -29.9584375 33.189375 -31 33 C-30.67 31.02 -30.34 29.04 -30 27 C-29.34 27 -28.68 27 -28 27 C-28 26.34 -28 25.68 -28 25 C-26.2421875 23.484375 -26.2421875 23.484375 -23.875 21.75 C-20.8867016 19.50524672 -18.14723097 17.26267801 -15.5625 14.5625 C-14.716875 13.716875 -13.87125 12.87125 -13 12 C-12.34 12 -11.68 12 -11 12 C-11 11.34 -11 10.68 -11 10 C-9.35546875 8.37890625 -9.35546875 8.37890625 -7.1875 6.5625 C-4.68897282 4.45536324 -2.2757944 2.34758602 0 0 Z " fill="#02050E" transform="translate(248,113)"/>
<path d="M0 0 C4.53881064 1.17672868 8.3364137 3.23658887 11.375 6.875 C11.75390625 9.46875 11.75390625 9.46875 11.375 11.875 C8.875 13.6875 8.875 13.6875 6.375 14.875 C6.00375 14.38 5.6325 13.885 5.25 13.375 C3.41692627 11.67934405 3.41692627 11.67934405 0.75 11.3125 C-4.22314644 12.14135774 -7.64016972 14.89966006 -11.625 17.875 C-11.625 13.875 -11.625 13.875 -10.625 10.875 C-11.615 10.215 -12.605 9.555 -13.625 8.875 C-5.16142384 1.24586093 -5.16142384 1.24586093 0 0 Z " fill="#030712" transform="translate(137.625,115.125)"/>
<path d="M0 0 C0.66 0 1.32 0 2 0 C3.20235019 9.23471741 3.20235019 9.23471741 0.46484375 13.25390625 C-3.62440332 17.02798977 -7.25494735 19.22529618 -13 19 C-15 17.875 -15 17.875 -16 16 C-15.9375 13.4375 -15.9375 13.4375 -15 11 C-13.3125 9.9375 -13.3125 9.9375 -11 9 C-7.699565 6.96356138 -4.99889513 4.99889513 -2.25 2.25 C-1.5075 1.5075 -0.765 0.765 0 0 Z " fill="#020610" transform="translate(80,157)"/>
<path d="M0 0 C0.33 0 0.66 0 1 0 C1.5037829 4.03026321 1.82335309 6.63754667 -0.3125 10.171875 C-4.00846654 14.56083526 -7.71273138 17.74801522 -13 20 C-15.9375 19.75 -15.9375 19.75 -18 19 C-18 16.36 -18 13.72 -18 11 C-16.2675 10.7215625 -16.2675 10.7215625 -14.5 10.4375 C-8.27213005 8.91931818 -4.39630537 4.39630537 0 0 Z " fill="#030711" transform="translate(142,210)"/>
<path d="M0 0 C0.66 0 1.32 0 2 0 C3.0828125 1.2375 3.0828125 1.2375 4.1875 2.5 C6.82838574 5.34900892 6.82838574 5.34900892 10.625 5.3125 C11.73875 5.209375 12.8525 5.10625 14 5 C14.99 5 15.98 5 17 5 C16.67 5.99 16.34 6.98 16 8 C16.09268505 10.06618749 16.09268505 10.06618749 16.4375 12.1875 C16.623125 13.445625 16.80875 14.70375 17 16 C10.27144175 16.94435905 10.27144175 16.94435905 6.98046875 14.5 C2.77508279 9.96703661 0.97547365 6.06961383 0 0 Z " fill="#0B1634" transform="translate(6,113)"/>
<path d="M0 0 C0.51949219 0.42152344 1.03898438 0.84304687 1.57421875 1.27734375 C6.70146308 5.43428979 6.70146308 5.43428979 13 7 C12.67 9.97 12.34 12.94 12 16 C7.86828888 16.60464065 5.39658333 16.00840093 2.0625 13.625 C-0.2705365 11.49661583 -0.95356012 10.55727854 -1.21875 7.375 C-0.96147672 4.859439 -0.57860868 2.46030244 0 0 Z " fill="#17284D" transform="translate(149,87)"/>
<path d="M0 0 C4.75461537 0.46012407 7.62688824 1.86894996 10.875 5.375 C11.5625 8 11.5625 8 10.875 10.375 C9.4375 12.3125 9.4375 12.3125 6.875 13.375 C3.73568945 13.00757639 0.93849071 12.23097534 -2.125 11.375 C-2.125 8.405 -2.125 5.435 -2.125 2.375 C-2.785 2.045 -3.445 1.715 -4.125 1.375 C-3.125 0.375 -3.125 0.375 0 0 Z " fill="#1B2D56" transform="translate(152.125,63.625)"/>
<path d="M0 0 C2.57026772 1.76673713 4.79094864 3.80401995 7 6 C6.67 7.65 6.34 9.3 6 11 C3.31555144 12.03248021 1.75886854 11.96141897 -1.125 11.5 C-4 10 -4 10 -5.25 6.5 C-5.4975 5.345 -5.745 4.19 -6 3 C-6.66 2.34 -7.32 1.68 -8 1 C-5.04206277 -0.47896861 -3.29779776 -0.4355582 0 0 Z " fill="#17264A" transform="translate(64,92)"/>
<path d="M0 0 C3.98907894 1.36768421 7.00182346 3.00182346 10 6 C10.625 8.5625 10.625 8.5625 10 11 C7.5 12.8125 7.5 12.8125 5 14 C4.649375 13.505 4.29875 13.01 3.9375 12.5 C1.05625711 10.26936034 -1.47009026 10.80019379 -5 11 C-5 10.34 -5 9.68 -5 9 C-3.68 9 -2.36 9 -1 9 C-1.020625 7.700625 -1.04125 6.40125 -1.0625 5.0625 C-1.08399454 3.70834367 -1.07148199 2.35243917 -1 1 C-0.67 0.67 -0.34 0.34 0 0 Z " fill="#182A50" transform="translate(139,116)"/>
<path d="M0 0 C0.77923828 0.61488281 0.77923828 0.61488281 1.57421875 1.2421875 C5.2423777 4.07636576 8.51449706 6.59828033 13 8 C12.01 8.495 12.01 8.495 11 9 C11.33 11.64 11.66 14.28 12 17 C7.68649589 17 5.87972734 15.02115791 2.7421875 12.22265625 C-0.17636892 8.49920647 -0.14786101 4.59293258 0 0 Z " fill="#142241" transform="translate(83,137)"/>
<path d="M0 0 C0.33 0.66 0.66 1.32 1 2 C1.78375 1.814375 2.5675 1.62875 3.375 1.4375 C6 1 6 1 8 2 C8.33 1.34 8.66 0.68 9 0 C9 0.99 9 1.98 9 3 C8.34 3 7.68 3 7 3 C6.67 4.32 6.34 5.64 6 7 C-0.75 9.125 -0.75 9.125 -3 8 C-3 6.68 -3 5.36 -3 4 C-3.66 3.34 -4.32 2.68 -5 2 C-4.34 1.67 -3.68 1.34 -3 1 C-2.01 1.33 -1.02 1.66 0 2 C0 1.34 0 0.68 0 0 Z " fill="#ADC1FD" transform="translate(92,135)"/>
<path d="M0 0 C0.66 0.33 1.32 0.66 2 1 C2.625 4.0625 2.625 4.0625 3 7 C4.65 6.34 6.3 5.68 8 5 C4.92000054 8.67230705 2.7517398 9.56802365 -2 10 C-2.6875 6.6875 -2.6875 6.6875 -3 3 C-1.5625 1.0625 -1.5625 1.0625 0 0 Z " fill="#040B21" transform="translate(96,145)"/>
<path d="M0 0 C0.66 0 1.32 0 2 0 C2.7425 0.804375 3.485 1.60875 4.25 2.4375 C7.30812904 5.28712024 8.91099938 5.71472089 13 6 C10.64046906 8.35953094 9.22104383 8.49141413 6 9 C6.66 10.32 7.32 11.64 8 13 C6.1875 12.4375 6.1875 12.4375 4 11 C2.2155156 7.43103121 0.78394818 3.9197409 0 0 Z " fill="#122041" transform="translate(6,113)"/>
<path d="M0 0 C0.66 0 1.32 0 2 0 C2 0.66 2 1.32 2 2 C2.66 2.33 3.32 2.66 4 3 C6 6 6 6 6 9 C3.36 8.67 0.72 8.34 -2 8 C-2.33 7.01 -2.66 6.02 -3 5 C-2.34 5 -1.68 5 -1 5 C-0.67 3.35 -0.34 1.7 0 0 Z " fill="#0F1A37" transform="translate(63,95)"/>
<path d="M0 0 C1.98 0.495 1.98 0.495 4 1 C4.33 2.98 4.66 4.96 5 7 C6.32 7.33 7.64 7.66 9 8 C2.58805513 9.33078101 2.58805513 9.33078101 0 7.875 C-1.38729387 5.27382399 -0.80044736 3.76518181 0 1 C0 0.67 0 0.34 0 0 Z " fill="#060F29" transform="translate(65,167)"/>
<path d="M0 0 C0.99 0.33 1.98 0.66 3 1 C2.67 3.97 2.34 6.94 2 10 C-0.31 10.33 -2.62 10.66 -5 11 C-5 10.34 -5 9.68 -5 9 C-3.68 9 -2.36 9 -1 9 C-1.020625 7.700625 -1.04125 6.40125 -1.0625 5.0625 C-1.08399454 3.70834367 -1.07148199 2.35243917 -1 1 C-0.67 0.67 -0.34 0.34 0 0 Z " fill="#111D3B" transform="translate(139,116)"/>
<path d="M0 0 C2.64 0.66 5.28 1.32 8 2 C7.2884375 2.61875 7.2884375 2.61875 6.5625 3.25 C4.83733482 5.182185 4.43415125 6.48192275 4 9 C3.01 8.67 2.02 8.34 1 8 C1.33 6.35 1.66 4.7 2 3 C1.01 2.67 0.02 2.34 -1 2 C-0.67 1.34 -0.34 0.68 0 0 Z " fill="#132143" transform="translate(61,164)"/>
<path d="M0 0 C1.65 0 3.3 0 5 0 C4.01 0.495 4.01 0.495 3 1 C3 2.98 3 4.96 3 7 C4.32 7.66 5.64 8.32 7 9 C4.69 9 2.38 9 0 9 C-0.84454356 5.62182575 -1.10844919 3.32534757 0 0 Z " fill="#040C24" transform="translate(151,196)"/>
<path d="M0 0 C0.66 0.33 1.32 0.66 2 1 C-4.52555911 8.89936102 -4.52555911 8.89936102 -7.0625 9.4375 C-8.0215625 9.7159375 -8.0215625 9.7159375 -9 10 C-9.33 10.99 -9.66 11.98 -10 13 C-9.55212676 8.35026146 -7.97814403 6.62972532 -4.4375 3.6875 C-3.61121094 2.99011719 -2.78492187 2.29273438 -1.93359375 1.57421875 C-1.29550781 1.05472656 -0.65742187 0.53523437 0 0 Z " fill="#98B4F6" transform="translate(121,148)"/>
<path d="M0 0 C0.53625 0.2475 1.0725 0.495 1.625 0.75 C0.5625 2.6875 0.5625 2.6875 -1.375 4.75 C-3.69775177 5.15047444 -6.03239357 5.4897104 -8.375 5.75 C-8.705 6.41 -9.035 7.07 -9.375 7.75 C-9.25 6 -9.25 6 -8.375 3.75 C-3.38130517 -0.35592686 -3.38130517 -0.35592686 0 0 Z " fill="#8AA4F1" transform="translate(137.375,94.25)"/>
<path d="M0 0 C1.98 1.65 3.96 3.3 6 5 C5.67 5.99 5.34 6.98 5 8 C3.68 7.67 2.36 7.34 1 7 C1 6.34 1 5.68 1 5 C0.34 5 -0.32 5 -1 5 C-0.67 3.35 -0.34 1.7 0 0 Z " fill="#5091F4" transform="translate(7,108)"/>
<path d="M0 0 C3.48539917 0.64544429 6.02819057 2.10134397 9 4 C8.67 4.99 8.34 5.98 8 7 C5.125 6.3125 5.125 6.3125 2 5 C0.625 2.375 0.625 2.375 0 0 Z " fill="#435FAF" transform="translate(224,94)"/>
<path d="M0 0 C0.66 0.33 1.32 0.66 2 1 C1.67 1.99 1.34 2.98 1 4 C1.09268505 6.06618749 1.09268505 6.06618749 1.4375 8.1875 C1.623125 9.445625 1.80875 10.70375 2 12 C0.02 12 -1.96 12 -4 12 C-3.484375 11.649375 -2.96875 11.29875 -2.4375 10.9375 C-0.59454694 8.9186688 -0.59454694 8.9186688 -1.4375 5.4375 C-1.7159375 3.7359375 -1.7159375 3.7359375 -2 2 C-1.34 1.34 -0.68 0.68 0 0 Z " fill="#081330" transform="translate(21,117)"/>
<path d="M0 0 C1.65 0 3.3 0 5 0 C4.67 2.97 4.34 5.94 4 9 C3.01 9 2.02 9 1 9 C0.67 6.03 0.34 3.06 0 0 Z " fill="#040D28" transform="translate(134,116)"/>
<path d="M0 0 C0.66 0.33 1.32 0.66 2 1 C1.67 3.31 1.34 5.62 1 8 C1.66 8.33 2.32 8.66 3 9 C-0.4352048 11.29013653 -1.985331 11.17842973 -6 11 C-4.68 10.67 -3.36 10.34 -2 10 C-1.93941406 9.36191406 -1.87882813 8.72382812 -1.81640625 8.06640625 C-1.73261719 7.24011719 -1.64882812 6.41382812 -1.5625 5.5625 C-1.48128906 4.73878906 -1.40007812 3.91507812 -1.31640625 3.06640625 C-1 1 -1 1 0 0 Z " fill="#071029" transform="translate(163,93)"/>
<path d="M0 0 C0.66 0.33 1.32 0.66 2 1 C-4.66919192 9.07323232 -4.66919192 9.07323232 -11 11 C-7.33333333 7.33333333 -3.66666667 3.66666667 0 0 Z " fill="#94AEEF" transform="translate(175,152)"/>
<path d="M0 0 C0.66 0.33 1.32 0.66 2 1 C2 3.64 2 6.28 2 9 C0.68 9.33 -0.64 9.66 -2 10 C-2.33 9.34 -2.66 8.68 -3 8 C-2.34 8 -1.68 8 -1 8 C-1.020625 6.865625 -1.04125 5.73125 -1.0625 4.5625 C-1 1 -1 1 0 0 Z " fill="#101C39" transform="translate(115,90)"/>
<path d="M0 0 C0.33 0.66 0.66 1.32 1 2 C1.66 2 2.32 2 3 2 C3.33 1.34 3.66 0.68 4 0 C4 0.66 4 1.32 4 2 C4.66 2.33 5.32 2.66 6 3 C4.68 4.32 3.36 5.64 2 7 C1.01 6.67 0.02 6.34 -1 6 C-0.67 4.02 -0.34 2.04 0 0 Z " fill="#8DA7FB" transform="translate(114,204)"/>
<path d="M0 0 C1.98 0.66 3.96 1.32 6 2 C5.67 3.98 5.34 5.96 5 8 C3.0625 7.25 3.0625 7.25 1 6 C0.20124132 3.86997684 0 2.26695035 0 0 Z " fill="#0A1430" transform="translate(39,146)"/>
<path d="M0 0 C3.36591866 1.44253657 5.51047079 3.33264727 8 6 C5.36 5.34 2.72 4.68 0 4 C0 2.68 0 1.36 0 0 Z M-1 6 C-0.34 6 0.32 6 1 6 C0.67 6.66 0.34 7.32 0 8 C-0.33 7.34 -0.66 6.68 -1 6 Z " fill="#5D9DF2" transform="translate(62,138)"/>
<path d="M0 0 C1 2 1 2 0.36328125 4.27734375 C0.01652344 5.15519531 -0.33023438 6.03304687 -0.6875 6.9375 C-1.18830078 8.25041016 -1.18830078 8.25041016 -1.69921875 9.58984375 C-3.12373963 12.22927133 -4.49540979 13.40233509 -7 15 C-5 11 -5 11 -3.9375 9.0625 C-2.88635895 6.96548022 -2.88635895 6.96548022 -2.5 4.375 C-2 2 -2 2 0 0 Z " fill="#0C152C" transform="translate(248,113)"/>
<path d="M0 0 C0 3 0 3 -1.8125 5.0625 C-4 7 -4 7 -7 9 C-8.32 8.67 -9.64 8.34 -11 8 C-7.37 5.36 -3.74 2.72 0 0 Z " fill="#849DE3" transform="translate(122,103)"/>
<path d="M0 0 C0 0.99 0 1.98 0 3 C-0.66 3.66 -1.32 4.32 -2 5 C-2.24212873 6.98128508 -2.24212873 6.98128508 -2.125 9.125 C-2.063125 11.043125 -2.063125 11.043125 -2 13 C-2.66 13 -3.32 13 -4 13 C-4.144375 11.88625 -4.28875 10.7725 -4.4375 9.625 C-4.78372035 6.17857953 -4.78372035 6.17857953 -6 4 C-4.02 2.68 -2.04 1.36 0 0 Z " fill="#060F27" transform="translate(121,85)"/>
<path d="M0 0 C1.32 0 2.64 0 4 0 C3.67 2.97 3.34 5.94 3 9 C2.01 9 1.02 9 0 9 C0.185625 7.88625 0.37125 6.7725 0.5625 5.625 C1.31680657 2.17431139 1.31680657 2.17431139 0 0 Z " fill="#111E3D" transform="translate(158,94)"/>
<path d="M0 0 C3 3.625 3 3.625 3 7 C3.66 7 4.32 7 5 7 C4.67 7.99 4.34 8.98 4 10 C2.0625 8.875 2.0625 8.875 0 7 C-0.8125 3.875 -0.8125 3.875 -1 1 C-0.67 0.67 -0.34 0.34 0 0 Z " fill="#5EA2F3" transform="translate(40,137)"/>
<path d="M0 0 C-0.11398665 1.62580966 -0.24155659 3.25067157 -0.375 4.875 C-0.44460937 5.77992188 -0.51421875 6.68484375 -0.5859375 7.6171875 C-1 10 -1 10 -3 12 C-3 9.69 -3 7.38 -3 5 C-3.66 4.67 -4.32 4.34 -5 4 C-1.125 0 -1.125 0 0 0 Z " fill="#101B36" transform="translate(178,126)"/>
<path d="M0 0 C-1.36983503 3.16115776 -1.9890638 3.9927092 -5 6 C-5.33 4.35 -5.66 2.7 -6 1 C-4 0 -4 0 0 0 Z " fill="#9AAEEF" transform="translate(174,128)"/>
<path d="M0 0 C0.66 0.33 1.32 0.66 2 1 C-1.0657052 5.65987191 -3.58657319 6.85485202 -9 8 C-6.14723863 5.06799526 -3.34920216 2.35684596 0 0 Z " fill="#4F70C5" transform="translate(185,86)"/>
<path d="M0 0 C-0.33 0.99 -0.66 1.98 -1 3 C-3.31 3.33 -5.62 3.66 -8 4 C-8.33 3.34 -8.66 2.68 -9 2 C-3.375 0 -3.375 0 0 0 Z " fill="#A1B5EB" transform="translate(101,141)"/>
<path d="M0 0 C1.0625 1.875 1.0625 1.875 2 4 C1.67 4.66 1.34 5.32 1 6 C-1.5625 6.625 -1.5625 6.625 -4 7 C-3.39816251 4.97954558 -2.72693904 2.97888961 -2 1 C-1.34 0.67 -0.68 0.34 0 0 Z " fill="#101D3B" transform="translate(19,122)"/>
<path d="M0 0 C0 2.64 0 5.28 0 8 C-0.2475 7.360625 -0.495 6.72125 -0.75 6.0625 C-1.81562433 3.81258459 -1.81562433 3.81258459 -4.125 3.25 C-5.053125 3.12625 -5.053125 3.12625 -6 3 C-2.25 0 -2.25 0 0 0 Z " fill="#020612" transform="translate(135,117)"/>
<path d="M0 0 C1.98 0.495 1.98 0.495 4 1 C4.33 2.32 4.66 3.64 5 5 C4.01 5 3.02 5 2 5 C2 4.34 2 3.68 2 3 C1.01 3 0.02 3 -1 3 C-0.67 2.01 -0.34 1.02 0 0 Z " fill="#122041" transform="translate(64,99)"/>
<path d="M0 0 C0.66 0.33 1.32 0.66 2 1 C-0.31 3.31 -2.62 5.62 -5 8 C-5.66 7.67 -6.32 7.34 -7 7 C-4.66666667 4.66666667 -2.33333333 2.33333333 0 0 Z " fill="#6B93ED" transform="translate(84,166)"/>
<path d="M0 0 C3.26954202 0.56371414 4.82575883 1.49962266 7 4 C4 5 4 5 1 5 C0.67 3.35 0.34 1.7 0 0 Z " fill="#ACC2F6" transform="translate(140,162)"/>
<path d="M0 0 C-1.24546405 3.73639216 -2.63404953 4.18756513 -6 6 C-6.33 5.01 -6.66 4.02 -7 3 C-6.34 3 -5.68 3 -5 3 C-4.67 2.34 -4.34 1.68 -4 1 C-2 0 -2 0 0 0 Z " fill="#9AADED" transform="translate(124,123)"/>
<path d="M0 0 C0.99 0.66 1.98 1.32 3 2 C2.67 3.32 2.34 4.64 2 6 C0.68 6.33 -0.64 6.66 -2 7 C-2.33 6.34 -2.66 5.68 -3 5 C-2.34 4.67 -1.68 4.34 -1 4 C-0.34786708 1.97536745 -0.34786708 1.97536745 0 0 Z " fill="#7F99EF" transform="translate(93,183)"/>
<path d="M0 0 C0.66 0.33 1.32 0.66 2 1 C0.125 5.75 0.125 5.75 -1 8 C-1.66 7.34 -2.32 6.68 -3 6 C-2.63318342 3.06546739 -2.13562754 2.13562754 0 0 Z " fill="#121F3E" transform="translate(107,58)"/>
<path d="M0 0 C1.32 0.66 2.64 1.32 4 2 C3.67 2.66 3.34 3.32 3 4 C0.9375 4.625 0.9375 4.625 -1 5 C-1 1 -1 1 0 0 Z " fill="#6494F2" transform="translate(80,59)"/>
<path d="" fill="#1F2E51" transform="translate(0,0)"/>
<path d="" fill="#1F2E51" transform="translate(0,0)"/>
<path d="" fill="#1F2E51" transform="translate(0,0)"/>
<path d="" fill="#1F2E51" transform="translate(0,0)"/>
<path d="" fill="#1F2E51" transform="translate(0,0)"/>
<path d="" fill="#1F2E51" transform="translate(0,0)"/>
<path d="" fill="#1F2E51" transform="translate(0,0)"/>
<path d="" fill="#1F2E51" transform="translate(0,0)"/>
<path d="" fill="#1F2E51" transform="translate(0,0)"/>
<path d="" fill="#1F2E51" transform="translate(0,0)"/>
</svg>
