<svg version="1.1" id="Layer_1" xmlns="http://www.w3.org/2000/svg" xmlns:xlink="http://www.w3.org/1999/xlink" x="0px" y="0px"
	 width="100%" viewBox="0 0 192 192" enable-background="new 0 0 192 192" xml:space="preserve">
<path fill="#4C6971" opacity="1.000000" stroke="none" 
	d="
M109.000000,193.000000 
	C72.690010,193.000000 36.880013,193.000000 1.035011,193.000000 
	C1.035011,129.065048 1.035011,65.130066 1.035011,1.097541 
	C64.893150,1.097541 128.786499,1.097541 192.839935,1.097541 
	C192.839935,64.999680 192.839935,128.999802 192.839935,193.000000 
	C165.130356,193.000000 137.315170,193.000000 109.000000,193.000000 
M14.996279,121.500000 
	C14.996319,131.161453 14.644878,140.838562 15.074032,150.480927 
	C15.826089,167.378357 24.600069,178.952332 43.500740,178.985504 
	C79.314804,179.048386 115.129288,179.081146 150.943130,178.971359 
	C169.127060,178.915619 178.710739,167.679276 178.882767,151.125778 
	C179.268768,113.982994 179.024765,76.833427 178.992737,39.686661 
	C178.980789,25.829584 168.037048,15.009854 154.068298,15.003620 
	C109.758682,14.983845 65.448807,15.062094 21.139767,14.900877 
	C16.383450,14.883571 14.863425,16.167259 14.892663,21.053829 
	C15.090999,54.201572 14.996288,87.351067 14.996279,121.500000 
z"/>
<path fill="#010101" opacity="1.000000" stroke="none" 
	d="
M14.996277,121.000000 
	C14.996288,87.351067 15.090999,54.201572 14.892663,21.053829 
	C14.863425,16.167259 16.383450,14.883571 21.139767,14.900877 
	C65.448807,15.062094 109.758682,14.983845 154.068298,15.003620 
	C168.037048,15.009854 178.980789,25.829584 178.992737,39.686661 
	C179.024765,76.833427 179.268768,113.982994 178.882767,151.125778 
	C178.710739,167.679276 169.127060,178.915619 150.943130,178.971359 
	C115.129288,179.081146 79.314804,179.048386 43.500740,178.985504 
	C24.600069,178.952332 15.826089,167.378357 15.074032,150.480927 
	C14.644878,140.838562 14.996319,131.161453 14.996277,121.000000 
M35.469090,103.997543 
	C38.621071,103.997543 41.773052,103.997543 45.412312,103.997543 
	C44.455273,108.305084 43.574844,112.267792 42.532715,116.958313 
	C50.396694,116.958313 57.567894,116.958313 65.439995,116.958313 
	C59.914150,123.359818 55.008675,129.042648 49.374424,135.569733 
	C53.683605,135.569733 56.879642,135.978653 59.905670,135.437286 
	C62.228058,135.021805 64.870071,133.908142 66.438446,132.232910 
	C70.977707,127.384384 74.107101,120.059380 79.560341,117.542648 
	C85.212791,114.933990 93.035950,117.516541 99.735619,116.581413 
	C111.442833,114.947365 120.034225,118.642021 125.488197,129.150848 
	C129.865234,137.584610 137.168121,135.776947 144.998276,135.139374 
	C139.576569,128.912094 134.636780,123.238350 128.842590,116.583244 
	C137.355225,116.583244 144.541534,116.583244 152.046555,116.583244 
	C151.026413,112.125496 150.147675,108.285545 149.138550,103.875908 
	C157.719299,103.875908 165.775055,103.875908 174.237503,103.875908 
	C171.224640,91.939766 168.352524,80.561264 165.559326,69.495361 
	C162.039764,69.495361 159.165039,69.495361 156.082214,69.495361 
	C157.582672,75.819000 158.986053,81.733498 160.417603,87.766708 
	C154.951355,87.766708 150.024872,87.766708 145.049744,87.766708 
	C143.419037,81.443665 141.851227,75.364578 140.166382,68.831650 
	C132.905090,68.831650 125.885262,68.831650 118.334122,68.831650 
	C121.689880,64.499825 124.560555,60.794178 127.598679,56.872379 
	C121.250114,55.272060 116.769936,56.782940 113.746796,61.862148 
	C110.125702,67.946014 104.816544,69.187004 97.913536,69.420288 
	C89.909782,69.690765 84.052673,67.634888 80.044151,60.845074 
	C77.006104,55.699097 72.502075,55.916801 66.788872,56.837063 
	C70.164490,61.036774 73.170189,64.776260 76.807304,69.301323 
	C68.525612,69.301323 61.436497,69.301323 54.356255,69.301323 
	C52.686111,75.726440 51.108879,81.794151 49.568932,87.718399 
	C44.230309,87.718399 39.358604,87.718399 34.177299,87.718399 
	C35.703197,81.422791 37.138344,75.501602 38.637310,69.317101 
	C35.331459,69.317101 32.373539,69.317101 29.093315,69.317101 
	C26.245237,80.739128 23.404383,92.132202 20.445766,103.997543 
	C25.528778,103.997543 30.006060,103.997543 35.469090,103.997543 
z"/>
<path fill="#F7F7F7" opacity="1.000000" stroke="none" 
	d="
M34.976215,103.997543 
	C30.006060,103.997543 25.528778,103.997543 20.445766,103.997543 
	C23.404383,92.132202 26.245237,80.739128 29.093315,69.317101 
	C32.373539,69.317101 35.331459,69.317101 38.637310,69.317101 
	C37.138344,75.501602 35.703197,81.422791 34.177299,87.718399 
	C39.358604,87.718399 44.230309,87.718399 49.568932,87.718399 
	C51.108879,81.794151 52.686111,75.726440 54.356255,69.301323 
	C61.436497,69.301323 68.525612,69.301323 76.807304,69.301323 
	C73.170189,64.776260 70.164490,61.036774 66.788872,56.837063 
	C72.502075,55.916801 77.006104,55.699097 80.044151,60.845074 
	C84.052673,67.634888 89.909782,69.690765 97.913536,69.420288 
	C104.816544,69.187004 110.125702,67.946014 113.746796,61.862148 
	C116.769936,56.782940 121.250114,55.272060 127.598679,56.872379 
	C124.560555,60.794178 121.689880,64.499825 118.334122,68.831650 
	C125.885262,68.831650 132.905090,68.831650 140.166382,68.831650 
	C141.851227,75.364578 143.419037,81.443665 145.049744,87.766708 
	C150.024872,87.766708 154.951355,87.766708 160.417603,87.766708 
	C158.986053,81.733498 157.582672,75.819000 156.082214,69.495361 
	C159.165039,69.495361 162.039764,69.495361 165.559326,69.495361 
	C168.352524,80.561264 171.224640,91.939766 174.237503,103.875908 
	C165.775055,103.875908 157.719299,103.875908 149.138550,103.875908 
	C150.147675,108.285545 151.026413,112.125496 152.046555,116.583244 
	C144.541534,116.583244 137.355225,116.583244 128.842590,116.583244 
	C134.636780,123.238350 139.576569,128.912094 144.998276,135.139374 
	C137.168121,135.776947 129.865234,137.584610 125.488197,129.150848 
	C120.034225,118.642021 111.442833,114.947365 99.735619,116.581413 
	C93.035950,117.516541 85.212791,114.933990 79.560341,117.542648 
	C74.107101,120.059380 70.977707,127.384384 66.438446,132.232910 
	C64.870071,133.908142 62.228058,135.021805 59.905670,135.437286 
	C56.879642,135.978653 53.683605,135.569733 49.374424,135.569733 
	C55.008675,129.042648 59.914150,123.359818 65.439995,116.958313 
	C57.567894,116.958313 50.396694,116.958313 42.532715,116.958313 
	C43.574844,112.267792 44.455273,108.305084 45.412312,103.997543 
	C41.773052,103.997543 38.621071,103.997543 34.976215,103.997543 
M78.982544,79.673065 
	C73.992783,79.276947 69.003021,78.880836 63.919273,78.477257 
	C63.919273,84.229599 63.919273,89.118820 63.919273,93.965149 
	C69.120407,93.965149 73.991440,93.965149 79.071411,93.965149 
	C79.071411,89.278328 79.071411,84.961945 78.982544,79.673065 
M123.466301,78.805435 
	C120.885429,78.805435 118.304550,78.805435 115.845566,78.805435 
	C115.845566,84.313118 115.845566,89.092667 115.845566,94.034149 
	C120.950134,94.034149 125.820808,94.034149 130.719498,94.034149 
	C130.719498,88.830650 130.719498,83.940926 130.719498,78.805435 
	C128.411331,78.805435 126.430328,78.805435 123.466301,78.805435 
z"/>
<path fill="#040404" opacity="1.000000" stroke="none" 
	d="
M79.026978,80.159317 
	C79.071411,84.961945 79.071411,89.278328 79.071411,93.965149 
	C73.991440,93.965149 69.120407,93.965149 63.919273,93.965149 
	C63.919273,89.118820 63.919273,84.229599 63.919273,78.477257 
	C69.003021,78.880836 73.992783,79.276947 79.026978,80.159317 
z"/>
<path fill="#040404" opacity="1.000000" stroke="none" 
	d="
M123.957809,78.805435 
	C126.430328,78.805435 128.411331,78.805435 130.719498,78.805435 
	C130.719498,83.940926 130.719498,88.830650 130.719498,94.034149 
	C125.820808,94.034149 120.950134,94.034149 115.845566,94.034149 
	C115.845566,89.092667 115.845566,84.313118 115.845566,78.805435 
	C118.304550,78.805435 120.885429,78.805435 123.957809,78.805435 
z"/>
</svg>