<svg xmlns="http://www.w3.org/2000/svg" width="256" height="256" viewBox="0 0 256 256">
<g>
<path d="M 198.65 237.41 C195.76,238.71 165.78,240.44 164.71,239.38 C164.49,239.16 139.83,238.87 109.91,238.74 L 55.50 238.50 L 50.00 236.05 C46.97,234.71 44.28,233.34 44.00,233.01 C43.72,232.68 40.80,230.34 37.50,227.82 C27.59,220.25 22.54,213.92 18.70,204.25 C16.52,198.76 17.94,198.85 22.67,204.51 C30.35,213.70 43.68,222.34 46.53,219.98 C48.56,218.29 47.37,216.27 39.16,207.50 C31.29,199.09 23.65,189.11 18.32,180.27 C15.10,174.93 12.90,164.80 14.71,163.68 C15.22,163.37 17.10,166.12 18.90,169.81 C26.91,186.21 42.48,204.86 54.70,212.67 C61.95,217.31 72.40,220.72 77.75,220.20 C82.28,219.76 83.29,218.54 80.00,217.50 C78.90,217.15 78.00,216.47 78.00,215.98 C78.00,215.49 74.83,213.23 70.95,210.97 C59.68,204.39 52.02,197.84 42.89,187.00 C33.16,175.44 28.56,167.01 23.41,151.30 C15.55,127.30 16.70,101.70 26.76,77.00 C33.46,60.55 47.74,41.27 57.44,35.59 C66.59,30.23 66.33,33.56 56.90,42.66 C47.13,52.07 40.78,60.72 34.98,72.50 C28.07,86.55 25.01,98.48 24.29,114.22 C23.93,122.13 24.17,129.88 24.92,134.72 C26.90,147.59 33.87,166.46 33.97,159.25 C34.01,155.98 35.11,156.44 39.34,161.50 C45.83,169.27 54.59,172.04 64.48,169.46 C71.87,167.54 73.93,167.61 79.50,170.00 C82.07,171.10 85.89,172.00 88.00,172.00 C90.12,172.00 94.11,173.14 96.90,174.55 C104.11,178.16 110.16,178.65 117.50,176.20 C125.92,173.39 135.96,173.54 142.50,176.57 C150.23,180.15 155.54,180.54 162.54,178.03 C165.82,176.85 170.38,175.48 172.68,174.99 C174.97,174.49 178.57,173.31 180.68,172.37 C183.42,171.13 187.32,170.63 194.50,170.57 C203.54,170.51 204.95,170.23 209.18,167.75 C219.17,161.87 224.16,151.61 222.11,141.13 C221.50,138.03 221.26,134.38 221.56,133.00 C222.60,128.28 221.91,111.49 220.37,104.00 C216.99,87.57 209.43,72.95 197.96,60.67 C189.34,51.44 180.02,44.31 170.51,39.67 C166.61,37.76 162.82,35.48 162.09,34.60 C160.91,33.19 161.15,33.00 164.13,33.02 C171.90,33.08 185.19,40.65 197.09,51.79 C209.46,63.37 218.49,77.89 223.35,94.02 C228.63,111.51 229.14,128.65 224.89,146.02 C223.75,150.68 222.20,157.34 221.44,160.82 C220.46,165.35 218.74,169.04 215.37,173.82 C203.44,190.75 191.51,202.67 177.78,211.39 C174.63,213.39 171.60,215.87 171.05,216.91 C170.18,218.54 170.50,218.87 173.51,219.44 C177.37,220.16 184.33,218.40 190.92,215.04 C196.83,212.02 212.72,195.94 218.36,187.25 C232.45,165.55 238.36,145.77 238.13,121.00 C237.93,99.69 231.55,79.09 219.68,61.50 C217.45,58.20 211.27,51.12 205.93,45.77 C195.06,34.86 193.40,32.38 197.70,33.46 C204.24,35.10 215.80,46.09 224.13,58.56 C229.90,67.22 233.77,74.94 238.11,86.50 L 241.50 95.50 L 241.50 122.00 C241.50,150.78 241.49,150.85 235.24,166.50 C229.56,180.74 220.54,194.86 210.00,206.00 C204.67,211.64 200.00,218.16 200.00,219.98 C200.00,221.88 203.54,221.01 210.17,217.49 C219.44,212.57 227.33,203.62 238.81,185.00 L 240.97 181.50 L 240.98 187.69 C240.99,191.10 240.59,194.13 240.10,194.44 C239.60,194.75 237.50,197.58 235.43,200.75 C233.35,203.91 229.93,208.59 227.82,211.15 C224.49,215.18 224.11,216.15 224.95,218.36 C225.81,220.63 225.44,221.40 221.71,225.07 C217.85,228.86 205.59,236.00 202.93,236.00 C202.31,236.00 200.38,236.64 198.65,237.41 ZM 116.00 218.00 C142.77,219.68 161.86,215.63 177.71,204.91 C189.57,196.89 200.00,185.88 200.00,181.38 C200.00,179.99 199.27,179.83 195.44,180.35 C191.81,180.85 189.51,182.14 184.19,186.66 C165.22,202.79 148.22,209.21 124.50,209.21 C103.20,209.21 86.30,203.13 67.18,188.59 C61.43,184.22 55.67,180.70 53.00,179.93 C50.53,179.22 47.69,177.82 46.71,176.82 C44.49,174.56 44.30,174.56 44.47,176.82 C44.89,182.52 55.41,194.00 68.42,202.95 C75.69,207.95 90.78,214.62 98.00,216.02 C101.57,216.71 109.68,217.60 116.00,218.00 ZM 211.46 121.92 C211.51,123.75 210.02,124.11 207.46,122.87 C205.85,122.09 205.50,121.15 205.81,118.47 C206.03,116.59 205.46,111.68 204.55,107.56 C196.01,69.19 162.44,43.76 123.69,46.31 C87.38,48.70 58.13,78.41 56.55,114.50 C56.21,122.26 56.12,122.51 53.60,122.82 C51.01,123.13 51.00,123.11 51.01,115.82 C51.05,97.55 60.01,76.94 73.73,63.53 C89.59,48.03 106.85,40.99 128.94,41.01 C143.14,41.02 154.10,43.43 165.18,48.97 C193.55,63.17 210.54,89.95 211.46,121.92 ZM 113.00 203.31 C114.38,203.54 119.68,203.79 124.79,203.86 C141.09,204.10 155.24,200.01 167.25,191.58 C177.20,184.60 175.98,181.47 165.27,186.46 C162.39,187.79 156.88,189.37 153.02,189.95 C149.16,190.53 142.74,191.50 138.75,192.11 C129.14,193.58 107.89,192.68 102.00,190.55 C99.53,189.65 93.90,187.17 89.50,185.03 C75.73,178.33 72.45,177.00 69.68,177.00 C66.37,177.00 66.35,177.58 69.51,182.22 C75.35,190.82 94.93,200.31 113.00,203.31 ZM 195.00 116.81 C195.00,121.18 193.11,120.82 189.56,115.80 C187.94,113.51 187.15,111.98 187.81,112.38 C189.54,113.45 189.30,111.74 186.53,103.49 C179.80,83.46 162.22,67.81 141.64,63.56 C127.99,60.74 116.91,62.09 104.29,68.11 C95.14,72.47 83.81,82.60 80.69,89.21 C78.23,94.43 72.00,98.38 72.00,94.73 C72.00,92.04 79.76,80.48 85.50,74.62 C92.21,67.78 104.25,61.08 114.46,58.50 C122.64,56.44 136.86,56.61 145.50,58.86 C164.04,63.71 180.26,76.81 188.40,93.50 C192.00,100.89 195.00,111.49 195.00,116.81 ZM 39.83 130.94 C35.37,136.59 34.53,134.66 34.64,119.00 C34.71,109.65 35.29,104.23 36.96,97.50 C39.53,87.17 46.24,72.19 51.69,64.67 C64.35,47.18 83.87,33.00 95.30,33.00 C97.81,33.00 98.06,33.22 96.99,34.51 C96.30,35.34 93.73,36.91 91.28,38.00 C77.78,43.96 60.02,59.96 52.96,72.50 C44.31,87.86 41.05,98.99 40.27,115.75 C39.85,125.04 40.00,128.00 40.93,128.00 C41.64,128.00 41.18,129.23 39.83,130.94 ZM 31.90 44.23 C29.13,48.78 24.23,57.75 21.01,64.17 C15.03,76.10 14.00,76.75 14.00,68.65 C14.00,65.20 15.09,62.80 20.25,54.96 C30.95,38.68 40.82,29.59 31.90,44.23 ZM 240.71 58.53 C241.03,61.54 241.10,64.00 240.88,64.00 C240.66,64.00 238.36,60.46 235.77,56.14 C233.17,51.81 229.23,45.85 227.00,42.89 C221.13,35.10 224.40,35.21 231.71,43.05 C239.64,51.56 240.07,52.30 240.71,58.53 ZM 131.02 77.60 C127.55,79.07 121.33,78.86 117.53,77.14 L 113.56 75.35 L 118.22 74.17 C120.79,73.53 125.62,73.00 128.95,73.00 C134.75,73.00 134.96,73.09 133.78,74.98 C133.10,76.07 131.86,77.25 131.02,77.60 ZM 120.69 186.21 C122.21,187.89 123.27,188.08 127.98,187.53 C135.43,186.66 137.00,186.12 137.00,184.43 C137.00,183.32 135.35,183.00 129.58,183.00 C125.50,183.00 121.43,183.28 120.54,183.62 C119.06,184.19 119.08,184.43 120.69,186.21 Z" fill="rgb(113,136,166)"/>
<path d="M 195.00 116.81 C195.00,111.49 192.00,100.89 188.40,93.50 C180.26,76.81 164.04,63.71 145.50,58.86 C136.86,56.61 122.64,56.44 114.46,58.50 C104.25,61.08 92.21,67.78 85.50,74.62 C79.76,80.48 72.00,92.04 72.00,94.73 C72.00,96.10 72.88,96.40 74.12,95.96 C65.91,100.40 60.00,107.84 60.00,114.85 C60.00,118.50 56.52,122.99 53.68,123.02 C50.34,123.06 43.80,126.42 40.85,129.62 C40.74,129.74 40.64,129.86 40.53,129.98 C41.32,128.79 41.50,128.00 40.93,128.00 C40.00,128.00 39.85,125.04 40.27,115.75 C41.05,98.99 44.31,87.86 52.96,72.50 C60.02,59.96 77.78,43.96 91.28,38.00 C93.73,36.91 96.30,35.34 96.99,34.51 C98.06,33.22 97.81,33.00 95.30,33.00 C83.87,33.00 64.35,47.18 51.69,64.67 C46.24,72.19 39.53,87.17 36.96,97.50 C35.29,104.23 34.71,109.65 34.64,119.00 C34.55,132.87 35.19,135.96 38.43,132.58 C35.41,136.77 34.00,141.18 34.00,146.27 C34.00,152.21 35.18,156.14 38.40,160.40 C34.95,156.40 34.01,156.24 33.97,159.25 C33.87,166.46 26.90,147.59 24.92,134.72 C24.17,129.88 23.93,122.13 24.29,114.22 C25.01,98.48 28.07,86.55 34.98,72.50 C40.78,60.72 47.13,52.07 56.90,42.66 C66.33,33.56 66.59,30.23 57.44,35.59 C47.74,41.27 33.46,60.55 26.76,77.00 C16.70,101.70 15.55,127.30 23.41,151.30 C28.56,167.01 33.16,175.44 42.89,187.00 C52.02,197.84 59.68,204.39 70.95,210.97 C74.83,213.23 78.00,215.49 78.00,215.98 C78.00,216.47 78.90,217.15 80.00,217.50 C83.29,218.54 82.28,219.76 77.75,220.20 C72.40,220.72 61.95,217.31 54.70,212.67 C42.48,204.86 26.91,186.21 18.90,169.81 C17.10,166.12 15.22,163.37 14.71,163.68 C14.51,163.81 14.35,164.05 14.24,164.40 C14.16,152.27 14.16,136.85 14.26,119.75 C14.38,98.51 14.45,84.11 14.68,73.97 C15.52,74.58 17.33,71.51 21.01,64.17 C24.23,57.75 29.13,48.78 31.90,44.23 C40.82,29.59 30.95,38.68 20.25,54.96 C17.52,59.11 15.93,61.74 15.04,63.80 C15.73,50.83 17.22,48.46 20.76,41.46 C26.96,29.22 38.04,19.84 52.29,14.79 L 60.07 12.02 L 102.29 11.49 C125.50,11.20 156.88,11.36 172.00,11.84 C199.40,12.71 199.53,12.73 206.68,15.72 C222.74,22.44 232.91,33.22 238.75,49.73 L 241.50 57.50 L 241.50 95.50 L 238.11 86.50 C233.77,74.94 229.90,67.22 224.13,58.56 C215.80,46.09 204.24,35.10 197.70,33.46 C193.40,32.38 195.06,34.86 205.93,45.77 C211.27,51.12 217.45,58.20 219.68,61.50 C231.55,79.09 237.93,99.69 238.13,121.00 C238.36,145.77 232.45,165.55 218.36,187.25 C212.72,195.94 196.83,212.02 190.92,215.04 C184.33,218.40 177.37,220.16 173.51,219.44 C170.50,218.87 170.18,218.54 171.05,216.91 C171.60,215.87 174.63,213.39 177.78,211.39 C191.51,202.67 203.44,190.75 215.37,173.82 C218.74,169.04 220.46,165.35 221.44,160.82 C222.20,157.34 223.75,150.68 224.89,146.02 C229.14,128.65 228.63,111.51 223.35,94.02 C218.49,77.89 209.46,63.37 197.09,51.79 C185.19,40.65 171.90,33.08 164.13,33.02 C161.15,33.00 160.91,33.19 162.09,34.60 C162.82,35.48 166.61,37.76 170.51,39.67 C180.02,44.31 189.34,51.44 197.96,60.67 C209.43,72.95 216.99,87.57 220.37,104.00 C221.91,111.49 222.60,128.28 221.56,133.00 C221.29,134.22 221.45,137.22 221.92,140.04 C219.12,129.27 210.55,122.17 198.12,120.50 C196.51,120.28 195.29,120.05 194.27,119.70 C194.75,119.35 195.00,118.39 195.00,116.81 ZM 116.00 218.00 C109.68,217.60 101.57,216.71 98.00,216.02 C90.78,214.62 75.69,207.95 68.42,202.95 C55.41,194.00 44.89,182.52 44.47,176.82 C44.30,174.56 44.49,174.56 46.71,176.82 C47.69,177.82 50.53,179.22 53.00,179.93 C55.67,180.70 61.43,184.22 67.18,188.59 C86.30,203.13 103.20,209.21 124.50,209.21 C148.22,209.21 165.22,202.79 184.19,186.66 C189.51,182.14 191.81,180.85 195.44,180.35 C199.27,179.83 200.00,179.99 200.00,181.38 C200.00,185.88 189.57,196.89 177.71,204.91 C161.86,215.63 142.77,219.68 116.00,218.00 ZM 211.46 121.92 C210.54,89.95 193.55,63.17 165.18,48.97 C154.10,43.43 143.14,41.02 128.94,41.01 C106.85,40.99 89.59,48.03 73.73,63.53 C60.01,76.94 51.05,97.55 51.01,115.82 C51.00,123.11 51.01,123.13 53.60,122.82 C56.12,122.51 56.21,122.26 56.55,114.50 C58.13,78.41 87.38,48.70 123.69,46.31 C162.44,43.76 196.01,69.19 204.55,107.56 C205.46,111.68 206.03,116.59 205.81,118.47 C205.50,121.15 205.85,122.09 207.46,122.87 C210.02,124.11 211.51,123.75 211.46,121.92 ZM 113.00 203.31 C94.93,200.31 75.35,190.82 69.51,182.22 C66.35,177.58 66.37,177.00 69.68,177.00 C72.45,177.00 75.73,178.33 89.50,185.03 C93.90,187.17 99.53,189.65 102.00,190.55 C107.89,192.68 129.14,193.58 138.75,192.11 C142.74,191.50 149.16,190.53 153.02,189.95 C156.88,189.37 162.39,187.79 165.27,186.46 C175.98,181.47 177.20,184.60 167.25,191.58 C155.24,200.01 141.09,204.10 124.79,203.86 C119.68,203.79 114.38,203.54 113.00,203.31 ZM 190.96 117.65 C190.54,117.24 190.10,116.78 189.62,116.24 C187.90,114.30 185.78,110.53 184.90,107.88 C182.81,101.57 178.94,95.82 174.54,92.46 C172.59,90.98 171.00,89.07 171.00,88.22 C171.00,87.37 169.90,84.79 168.55,82.49 C160.52,68.78 141.69,66.95 130.36,78.77 L 126.60 82.68 L 122.29 79.64 C116.81,75.78 107.38,74.82 100.55,77.43 C96.00,79.17 87.00,87.76 87.00,90.38 C87.00,91.23 85.65,92.10 83.75,92.47 C80.87,93.04 78.08,93.99 75.49,95.25 C77.34,94.06 79.48,91.79 80.69,89.21 C83.81,82.60 95.14,72.47 104.29,68.11 C116.91,62.09 127.99,60.74 141.64,63.56 C162.22,67.81 179.80,83.46 186.53,103.49 C189.30,111.74 189.54,113.45 187.81,112.38 C187.15,111.98 187.94,113.51 189.56,115.80 C190.06,116.51 190.53,117.12 190.96,117.65 ZM 198.65 237.41 C200.38,236.64 202.31,236.00 202.93,236.00 C205.59,236.00 217.85,228.86 221.71,225.07 C225.44,221.40 225.81,220.63 224.95,218.36 C224.11,216.15 224.49,215.18 227.82,211.15 C229.93,208.59 233.35,203.91 235.43,200.75 C237.50,197.58 239.60,194.75 240.10,194.44 C240.59,194.13 240.99,191.10 240.98,187.69 L 240.97 181.50 L 238.81 185.00 C227.33,203.62 219.44,212.57 210.17,217.49 C203.54,221.01 200.00,221.88 200.00,219.98 C200.00,218.16 204.67,211.64 210.00,206.00 C220.54,194.86 229.56,180.74 235.24,166.50 C241.49,150.85 241.50,150.78 241.50,122.00 L 241.50 125.50 C241.50,186.86 241.33,194.16 239.76,200.27 C237.70,208.27 234.76,214.45 231.20,218.25 C229.79,219.76 229.00,221.00 229.45,221.00 C229.90,221.00 228.65,222.29 226.67,223.87 C224.69,225.44 223.37,227.04 223.75,227.42 C224.13,227.80 223.59,227.78 222.56,227.38 C221.24,226.88 220.89,227.02 221.39,227.83 C221.83,228.53 221.49,229.00 220.56,229.00 C219.70,229.00 219.00,229.35 219.00,229.78 C219.00,231.05 214.00,233.64 206.50,236.25 C200.70,238.27 197.35,238.72 186.66,238.91 C192.52,238.46 197.55,237.91 198.65,237.41 ZM 43.05 232.18 C42.64,232.09 42.13,232.12 41.67,232.29 C40.83,232.62 39.58,232.20 38.90,231.37 C38.21,230.55 36.42,229.24 34.93,228.46 C31.45,226.66 26.52,219.83 20.57,208.55 C16.54,200.90 15.71,198.34 14.87,190.80 C14.59,188.29 14.39,180.27 14.28,168.50 C14.83,172.17 16.40,177.07 18.32,180.27 C23.65,189.11 31.29,199.09 39.16,207.50 C47.37,216.27 48.56,218.29 46.53,219.98 C43.68,222.34 30.35,213.70 22.67,204.51 C17.94,198.85 16.52,198.76 18.70,204.25 C22.54,213.92 27.59,220.25 37.50,227.82 C39.78,229.56 41.88,231.22 43.05,232.18 ZM 240.71 58.53 C240.07,52.30 239.64,51.56 231.71,43.05 C224.40,35.21 221.13,35.10 227.00,42.89 C229.23,45.85 233.17,51.81 235.77,56.14 C238.36,60.46 240.66,64.00 240.88,64.00 C241.10,64.00 241.03,61.54 240.71,58.53 ZM 131.02 77.60 C131.86,77.25 133.10,76.07 133.78,74.98 C134.96,73.09 134.75,73.00 128.95,73.00 C125.62,73.00 120.79,73.53 118.22,74.17 L 113.56 75.35 L 117.53 77.14 C121.33,78.86 127.55,79.07 131.02,77.60 ZM 120.69 186.21 C119.08,184.43 119.06,184.19 120.54,183.62 C121.43,183.28 125.50,183.00 129.58,183.00 C135.35,183.00 137.00,183.32 137.00,184.43 C137.00,186.12 135.43,186.66 127.98,187.53 C123.27,188.08 122.21,187.89 120.69,186.21 ZM 159.51 239.19 C121.85,239.43 70.81,239.31 64.45,238.86 C63.37,238.79 62.27,238.67 61.17,238.53 L 109.91 238.74 C131.70,238.84 150.71,239.02 159.51,239.19 ZM 131.88 174.23 C135.84,174.26 139.26,174.79 140.85,175.82 C140.93,175.88 141.02,175.94 141.12,175.99 C138.41,174.97 135.23,174.38 131.88,174.23 ZM 221.49 152.84 C219.61,158.82 215.35,164.12 209.18,167.75 C215.06,164.29 219.46,158.76 221.49,152.84 ZM 49.18 235.68 C47.18,234.95 45.57,234.18 44.61,233.42 C45.49,233.93 47.22,234.79 49.18,235.68 ZM 49.17 168.84 C53.81,170.63 59.05,170.88 64.48,169.46 C58.96,170.90 53.79,170.67 49.17,168.84 ZM 147.85 178.61 C149.04,178.93 150.09,179.19 151.06,179.38 C149.66,179.16 148.22,178.80 146.71,178.28 C147.10,178.40 147.48,178.51 147.85,178.61 ZM 170.21 175.61 C171.15,175.35 172.00,175.13 172.68,174.99 C173.98,174.71 175.71,174.20 177.34,173.65 C175.71,174.20 173.98,174.71 172.68,174.99 C172.02,175.13 171.17,175.34 170.21,175.61 Z" fill="rgb(133,161,197)"/>
<path d="M 210.02 246.96 L 203.50 249.50 L 130.00 249.70 C69.20,249.87 55.60,249.65 51.29,248.48 C34.07,243.79 22.76,233.85 13.91,215.65 C12.60,212.95 11.53,210.79 10.67,208.55 C6.91,198.81 6.95,187.59 7.20,124.55 L 7.21 122.00 L 7.50 50.50 L 10.12 43.32 C17.30,23.71 33.18,9.67 52.89,5.52 C63.95,3.20 192.80,3.26 203.30,5.60 C221.90,9.74 237.27,22.43 244.49,39.61 C249.00,50.34 249.13,52.70 249.09,124.93 C249.07,165.03 248.66,195.58 248.09,198.50 C246.76,205.34 244.69,210.91 240.52,218.81 C232.98,233.11 223.80,241.59 210.02,246.96 ZM 43.05 232.18 C43.58,232.61 43.92,232.90 44.00,233.01 C44.07,233.09 44.28,233.23 44.61,233.42 C45.57,234.18 47.18,234.95 49.18,235.68 C49.45,235.81 49.72,235.93 50.00,236.05 L 55.50 238.50 L 61.17 238.53 C62.27,238.67 63.37,238.79 64.45,238.86 C70.81,239.31 121.85,239.43 159.51,239.19 C162.79,239.25 164.65,239.32 164.71,239.38 C165.37,240.04 177.12,239.62 186.66,238.91 C197.35,238.72 200.70,238.27 206.50,236.25 C214.00,233.64 219.00,231.05 219.00,229.78 C219.00,229.35 219.70,229.00 220.56,229.00 C221.49,229.00 221.83,228.53 221.39,227.83 C220.89,227.02 221.24,226.88 222.56,227.38 C223.59,227.78 224.13,227.80 223.75,227.42 C223.37,227.04 224.69,225.44 226.67,223.87 C228.65,222.29 229.90,221.00 229.45,221.00 C229.00,221.00 229.79,219.76 231.20,218.25 C234.76,214.45 237.70,208.27 239.76,200.27 C241.33,194.16 241.50,186.86 241.50,125.50 L 241.50 57.50 L 238.75 49.73 C232.91,33.22 222.74,22.44 206.68,15.72 C199.53,12.73 199.40,12.71 172.00,11.84 C156.88,11.36 125.50,11.20 102.29,11.49 L 60.07 12.02 L 52.29 14.79 C38.04,19.84 26.96,29.22 20.76,41.46 C17.22,48.46 15.73,50.83 15.04,63.80 C14.24,65.64 14.00,67.03 14.00,68.65 C14.00,71.77 14.15,73.59 14.68,73.97 C14.45,84.11 14.38,98.51 14.26,119.75 C14.16,136.85 14.16,152.27 14.24,164.40 C13.97,165.26 14.01,166.74 14.28,168.50 C14.39,180.27 14.59,188.29 14.87,190.80 C15.71,198.34 16.54,200.90 20.57,208.55 C26.52,219.83 31.45,226.66 34.93,228.46 C36.42,229.24 38.21,230.55 38.90,231.37 C39.58,232.20 40.83,232.62 41.67,232.29 C42.13,232.12 42.64,232.09 43.05,232.18 Z" fill="rgb(213,215,216)"/>
<path d="M 0.00 128.00 L 0.00 0.00 L 128.00 0.00 L 256.00 0.00 L 256.00 128.00 L 256.00 256.00 L 128.00 256.00 L 0.00 256.00 L 0.00 128.00 ZM 210.02 246.96 C223.80,241.59 232.98,233.11 240.52,218.81 C244.69,210.91 246.76,205.34 248.09,198.50 C248.66,195.58 249.07,165.03 249.09,124.93 C249.13,52.70 249.00,50.34 244.49,39.61 C237.27,22.43 221.90,9.74 203.30,5.60 C192.80,3.26 63.95,3.20 52.89,5.52 C33.18,9.67 17.30,23.71 10.12,43.32 L 7.50 50.50 L 7.21 122.00 C6.90,202.09 6.82,201.07 13.91,215.65 C22.76,233.85 34.07,243.79 51.29,248.48 C55.60,249.65 69.20,249.87 130.00,249.70 L 203.50 249.50 L 210.02 246.96 ZM 147.85 178.61 C145.29,177.92 142.14,176.67 140.85,175.82 C137.35,173.54 124.94,173.75 117.50,176.21 C110.16,178.65 104.10,178.16 96.90,174.55 C94.11,173.14 90.12,172.00 88.00,172.00 C85.89,172.00 82.07,171.10 79.50,170.00 C73.93,167.61 71.87,167.54 64.48,169.46 C55.03,171.92 46.15,169.35 40.02,162.37 C35.56,157.29 34.00,153.12 34.00,146.27 C34.00,139.98 36.17,134.71 40.85,129.62 C43.80,126.42 50.34,123.06 53.68,123.02 C56.52,122.99 60.00,118.50 60.00,114.85 C60.00,105.30 70.96,94.96 83.75,92.47 C85.65,92.10 87.00,91.23 87.00,90.38 C87.00,87.76 96.00,79.17 100.55,77.43 C107.38,74.82 116.81,75.78 122.29,79.64 L 126.60 82.68 L 130.36 78.77 C141.69,66.95 160.52,68.78 168.55,82.49 C169.90,84.79 171.00,87.37 171.00,88.22 C171.00,89.07 172.59,90.98 174.54,92.46 C178.94,95.82 182.81,101.57 184.90,107.88 C185.78,110.53 187.90,114.30 189.62,116.24 C192.20,119.16 193.68,119.90 198.12,120.50 C211.55,122.30 220.48,130.45 222.48,142.71 C223.96,151.84 218.39,162.34 209.18,167.75 C204.95,170.23 203.54,170.51 194.50,170.57 C187.32,170.63 183.42,171.13 180.68,172.37 C178.57,173.31 174.97,174.49 172.68,174.99 C170.38,175.48 166.02,176.80 163.00,177.91 C156.67,180.24 154.30,180.35 147.85,178.61 Z" fill="rgb(251,252,252)"/>
</g>
</svg>