<?xml version="1.0" standalone="no"?>
<!DOCTYPE svg PUBLIC "-//W3C//DTD SVG 20010904//EN"
 "http://www.w3.org/TR/2001/REC-SVG-20010904/DTD/svg10.dtd">
<svg version="1.0" xmlns="http://www.w3.org/2000/svg"
 width="512.000000pt" height="512.000000pt" viewBox="0 0 512.000000 512.000000"
 preserveAspectRatio="xMidYMid meet">

<g transform="translate(0.000000,512.000000) scale(0.100000,-0.100000) "
fill="#FF4500" stroke="none">
<path d="M0 2560 l0 -2560 2560 0 2560 0 0 2560 0 2560 -2560 0 -2560 0 0
-2560z m2915 1315 c396 -56 709 -208 983 -478 181 -178 279 -350 324 -567 79
-378 -120 -837 -500 -1153 -230 -192 -559 -333 -917 -393 -193 -33 -513 -22
-690 23 -33 8 -64 16 -70 17 -65 15 -197 63 -303 112 -40 19 -74 34 -77 34 -2
0 -53 30 -114 66 -143 84 -181 117 -181 156 0 40 48 84 101 93 l41 7 -58 38
c-85 54 -106 80 -111 137 -4 54 6 71 55 97 85 44 379 28 962 -50 l195 -27 95
37 c282 110 456 255 522 436 55 148 44 301 -26 369 -80 78 -264 104 -645 94
l-215 -6 -67 -67 c-183 -184 -484 -309 -806 -336 -79 -6 -82 -6 -108 20 -19
19 -24 32 -20 49 14 44 37 57 125 67 262 30 467 102 620 216 l64 49 -114 13
c-63 6 -152 21 -197 33 l-82 20 -88 -44 c-152 -76 -304 -117 -436 -117 -111 0
-161 57 -102 115 22 23 32 25 112 25 109 1 221 27 318 73 48 24 49 24 25 37
-59 32 -150 148 -150 192 0 26 -39 32 -148 20 -117 -12 -196 -38 -261 -86 -55
-41 -82 -45 -111 -16 -46 46 -17 101 85 159 93 54 176 73 334 79 l145 5 60 62
c34 34 77 74 96 88 44 34 35 41 -75 58 -95 14 -162 3 -229 -36 -24 -14 -50
-25 -59 -25 -27 0 -57 37 -57 70 0 35 26 62 95 97 97 50 290 41 459 -21 l63
-23 54 25 c148 67 381 131 562 156 136 19 397 19 522 1z"/>
<path d="M2510 3750 c-260 -23 -497 -90 -702 -198 -163 -85 -288 -199 -288
-261 0 -54 119 -144 245 -184 139 -45 208 -50 670 -48 386 1 451 -1 530 -16
126 -25 211 -21 317 15 160 55 262 162 303 317 27 105 29 103 -160 200 -163
84 -330 137 -510 164 -106 15 -299 20 -405 11z m-302 -192 c65 -16 126 -79
140 -144 20 -93 -17 -174 -102 -220 -66 -36 -150 -30 -205 13 -76 61 -101 165
-60 250 24 49 62 80 122 99 53 16 50 16 105 2z"/>
<path d="M2111 3403 c-30 -38 -14 -82 35 -97 30 -9 74 28 74 63 0 58 -73 81
-109 34z"/>
<path d="M3716 3338 c-11 -53 -82 -190 -126 -241 -65 -74 -188 -150 -288 -177
-41 -10 -43 -13 -28 -29 33 -37 59 -116 65 -201 l6 -84 75 -24 c101 -31 286
-62 373 -62 95 0 196 23 258 57 l51 28 -5 105 c-8 157 -62 303 -164 442 -45
59 -192 218 -204 218 -3 0 -9 -14 -13 -32z"/>
<path d="M3304 2423 c-22 -60 -58 -125 -100 -181 -33 -43 -33 -44 -16 -80 42
-94 129 -188 220 -239 76 -42 201 -83 257 -83 37 0 45 6 100 66 89 98 158 193
211 290 47 86 100 222 90 231 -2 3 -26 -2 -53 -11 -74 -25 -215 -35 -328 -25
-84 8 -290 52 -346 74 -13 5 -21 -5 -35 -42z"/>
<path d="M3000 2054 c-236 -164 -631 -281 -1195 -354 -194 -25 -210 -29 -199
-40 5 -5 64 -36 131 -70 143 -71 346 -140 488 -166 124 -23 427 -26 555 -5
197 31 410 100 595 192 75 38 175 97 175 104 0 2 -24 11 -52 20 -163 52 -317
169 -396 301 l-38 63 -64 -45z"/>
<path d="M1562 1931 c20 -11 71 -32 113 -46 l78 -26 126 20 c199 33 199 33 91
47 -52 7 -174 15 -270 19 l-175 6 37 -20z"/>
</g>
</svg>
