<?xml version="1.0" encoding="UTF-8"?>
<svg version="1.1" xmlns="http://www.w3.org/2000/svg" width="192" height="192">
<path d="M0 0 C1.81239272 2.14466471 3.11802063 3.98058153 4.5 6.375 C4.85191406 6.94605469 5.20382813 7.51710938 5.56640625 8.10546875 C8.33846796 12.66595737 10.84503711 17.37334849 13.38867188 22.06347656 C16.17991943 27.15031377 19.09240373 32.16654398 22 37.1875 C22.97187256 38.86948486 22.97187256 38.86948486 23.96337891 40.58544922 C28.99476446 49.28851055 34.06637258 57.96796042 39.14160156 66.64550781 C42.76512379 72.85164325 46.32363054 79.08931372 49.82543945 85.36474609 C52.72942268 90.55544075 55.74119923 95.6774267 58.77392578 100.79370117 C61.52657043 105.45415559 64.23159572 110.14037313 66.91015625 114.84375 C67.25597244 115.45075745 67.60178864 116.05776489 67.95808411 116.6831665 C69.68064038 119.70839804 71.40000895 122.73539319 73.11547852 125.76464844 C77.0257619 132.64268405 81.05436265 139.42293684 85.23388672 146.13916016 C90.22832092 154.22939792 93.23757004 160.25855579 92 170 C91.67 170.33 91.34 170.66 91 171 C88.02617942 170.96157091 85.09195899 170.85436287 82.125 170.6875 C81.29613281 170.65205078 80.46726563 170.61660156 79.61328125 170.58007812 C78.81535156 170.53689453 78.01742187 170.49371094 77.1953125 170.44921875 C76.09727295 170.39254028 76.09727295 170.39254028 74.97705078 170.3347168 C73 170 73 170 70 168 C67.2095754 167.86367391 64.48152588 168.0035254 61.69140625 168.125 C58.84465428 167.9927851 57.47891204 167.29799296 55 166 C52.99874352 165.86981123 52.99874352 165.86981123 51 166.0625 C47.24673142 166.18691774 47.24673142 166.18691774 44.9375 164.4375 C44.298125 163.963125 43.65875 163.48875 43 163 C41.865625 163.185625 40.73125 163.37125 39.5625 163.5625 C36 164 36 164 33.0625 162.0625 C32.381875 161.381875 31.70125 160.70125 31 160 C30.01 160.66 29.02 161.32 28 162 C25.4375 161.875 25.4375 161.875 23 161 C21.6875 158.9375 21.6875 158.9375 21 157 C20.278125 157.350625 19.55625 157.70125 18.8125 158.0625 C15.58046193 159.13984602 14.18622217 159.14377206 11 158 C8.6875 155.9375 8.6875 155.9375 7 154 C6.34 154.66 5.68 155.32 5 156 C2.125 156.375 2.125 156.375 -1 156 C-3.375 154 -3.375 154 -5 152 C-5.99 152.66 -6.98 153.32 -8 154 C-10.4375 154.375 -10.4375 154.375 -13 154 C-15.3125 152 -15.3125 152 -17 150 C-17.391875 150.495 -17.78375 150.99 -18.1875 151.5 C-20 153 -20 153 -22.4375 153.375 C-25.41300448 152.93956032 -26.77769156 151.97538528 -29 150 C-29.66 150.99 -30.32 151.98 -31 153 C-34.625 153.1875 -34.625 153.1875 -38 153 C-38.33 152.01 -38.66 151.02 -39 150 C-39.66 150 -40.32 150 -41 150 C-41.37125 150.928125 -41.37125 150.928125 -41.75 151.875 C-43 154 -43 154 -44.75 155.4375 C-48.17128182 156.29282045 -50.07129386 154.73059908 -53 153 C-53.185625 154.2065625 -53.185625 154.2065625 -53.375 155.4375 C-53.58125 156.283125 -53.7875 157.12875 -54 158 C-56.71851177 159.35925589 -58.99117026 159.06268395 -62 159 C-62.66 159 -63.32 159 -64 159 C-64.928125 160.2065625 -64.928125 160.2065625 -65.875 161.4375 C-68 164 -68 164 -69.9375 164.9375 C-72.66343303 165.02010403 -74.55813301 164.15310385 -77 163 C-77.309375 163.639375 -77.61875 164.27875 -77.9375 164.9375 C-79 167 -79 167 -80 168 C-82.49154587 167.99092333 -84.96876171 167.86715229 -87.45703125 167.7421875 C-90.50242001 168.05093659 -91.63508677 169.14641936 -94 171 C-97.25 170.6875 -97.25 170.6875 -100 170 C-100.08203325 168.29249317 -100.13965342 166.58380652 -100.1875 164.875 C-100.22230469 163.92367187 -100.25710937 162.97234375 -100.29296875 161.9921875 C-99.5905604 154.81825686 -94.22745269 148.17744761 -90.625 142.0625 C-85.13648722 132.70642672 -79.74119071 123.30352307 -74.43994141 113.84008789 C-71.06418133 107.82746096 -67.56495281 101.90203125 -64 96 C-62.32511486 93.19232424 -60.66110694 90.37834418 -59 87.5625 C-58.60039063 86.88896484 -58.20078125 86.21542969 -57.7890625 85.52148438 C-55.48358958 81.61172536 -53.26245574 77.66742138 -51.1015625 73.67578125 C-47.9797216 67.91970031 -44.69351434 62.26937878 -41.375 56.625 C-36.78845929 48.79585051 -32.2380534 40.94852514 -27.75 33.0625 C-24.03496106 26.5417878 -20.29657867 20.03613517 -16.5 13.5625 C-16.10264648 12.8826001 -15.70529297 12.2027002 -15.29589844 11.50219727 C-7.22860861 -2.20078925 -7.22860861 -2.20078925 0 0 Z " fill="#E93652" transform="translate(100,13)"/>
<path d="M0 0 C1.81239272 2.14466471 3.11802063 3.98058153 4.5 6.375 C4.85191406 6.94605469 5.20382813 7.51710938 5.56640625 8.10546875 C8.33846796 12.66595737 10.84503711 17.37334849 13.38867188 22.06347656 C16.17991943 27.15031377 19.09240373 32.16654398 22 37.1875 C22.97187256 38.86948486 22.97187256 38.86948486 23.96337891 40.58544922 C28.99476446 49.28851055 34.06637258 57.96796042 39.14160156 66.64550781 C42.76512379 72.85164325 46.32363054 79.08931372 49.82543945 85.36474609 C52.72942268 90.55544075 55.74119923 95.6774267 58.77392578 100.79370117 C61.52657043 105.45415559 64.23159572 110.14037313 66.91015625 114.84375 C67.25597244 115.45075745 67.60178864 116.05776489 67.95808411 116.6831665 C69.68064038 119.70839804 71.40000895 122.73539319 73.11547852 125.76464844 C77.0257619 132.64268405 81.05436265 139.42293684 85.23388672 146.13916016 C90.22832092 154.22939792 93.23757004 160.25855579 92 170 C91.67 170.33 91.34 170.66 91 171 C88.02617942 170.96157091 85.09195899 170.85436287 82.125 170.6875 C81.29613281 170.65205078 80.46726563 170.61660156 79.61328125 170.58007812 C78.81535156 170.53689453 78.01742187 170.49371094 77.1953125 170.44921875 C76.09727295 170.39254028 76.09727295 170.39254028 74.97705078 170.3347168 C73 170 73 170 70 168 C67.2095754 167.86367391 64.48152588 168.0035254 61.69140625 168.125 C58.84465428 167.9927851 57.47891204 167.29799296 55 166 C52.99874352 165.86981123 52.99874352 165.86981123 51 166.0625 C47.24673142 166.18691774 47.24673142 166.18691774 44.9375 164.4375 C44.298125 163.963125 43.65875 163.48875 43 163 C41.865625 163.185625 40.73125 163.37125 39.5625 163.5625 C36 164 36 164 33.0625 162.0625 C32.381875 161.381875 31.70125 160.70125 31 160 C30.01 160.66 29.02 161.32 28 162 C25.4375 161.875 25.4375 161.875 23 161 C21.6875 158.9375 21.6875 158.9375 21 157 C20.278125 157.350625 19.55625 157.70125 18.8125 158.0625 C15.58046193 159.13984602 14.18622217 159.14377206 11 158 C8.6875 155.9375 8.6875 155.9375 7 154 C6.34 154.66 5.68 155.32 5 156 C2.125 156.375 2.125 156.375 -1 156 C-3.375 154 -3.375 154 -5 152 C-5.99 152.66 -6.98 153.32 -8 154 C-10.4375 154.375 -10.4375 154.375 -13 154 C-15.3125 152 -15.3125 152 -17 150 C-17.391875 150.495 -17.78375 150.99 -18.1875 151.5 C-20 153 -20 153 -22.4375 153.375 C-25.41300448 152.93956032 -26.77769156 151.97538528 -29 150 C-29.66 150.99 -30.32 151.98 -31 153 C-34.625 153.1875 -34.625 153.1875 -38 153 C-38.33 152.01 -38.66 151.02 -39 150 C-39.66 150 -40.32 150 -41 150 C-41.37125 150.928125 -41.37125 150.928125 -41.75 151.875 C-43 154 -43 154 -44.75 155.4375 C-48.17128182 156.29282045 -50.07129386 154.73059908 -53 153 C-53.185625 154.2065625 -53.185625 154.2065625 -53.375 155.4375 C-53.58125 156.283125 -53.7875 157.12875 -54 158 C-56.71851177 159.35925589 -58.99117026 159.06268395 -62 159 C-62.66 159 -63.32 159 -64 159 C-64.928125 160.2065625 -64.928125 160.2065625 -65.875 161.4375 C-68 164 -68 164 -69.9375 164.9375 C-72.66343303 165.02010403 -74.55813301 164.15310385 -77 163 C-77.309375 163.639375 -77.61875 164.27875 -77.9375 164.9375 C-79 167 -79 167 -80 168 C-82.49154587 167.99092333 -84.96876171 167.86715229 -87.45703125 167.7421875 C-90.50242001 168.05093659 -91.63508677 169.14641936 -94 171 C-97.25 170.6875 -97.25 170.6875 -100 170 C-100.08203325 168.29249317 -100.13965342 166.58380652 -100.1875 164.875 C-100.22230469 163.92367187 -100.25710937 162.97234375 -100.29296875 161.9921875 C-99.5905604 154.81825686 -94.22745269 148.17744761 -90.625 142.0625 C-85.13648722 132.70642672 -79.74119071 123.30352307 -74.43994141 113.84008789 C-71.06418133 107.82746096 -67.56495281 101.90203125 -64 96 C-62.32511486 93.19232424 -60.66110694 90.37834418 -59 87.5625 C-58.60039063 86.88896484 -58.20078125 86.21542969 -57.7890625 85.52148438 C-55.48358958 81.61172536 -53.26245574 77.66742138 -51.1015625 73.67578125 C-47.9797216 67.91970031 -44.69351434 62.26937878 -41.375 56.625 C-36.78845929 48.79585051 -32.2380534 40.94852514 -27.75 33.0625 C-24.03496106 26.5417878 -20.29657867 20.03613517 -16.5 13.5625 C-16.10264648 12.8826001 -15.70529297 12.2027002 -15.29589844 11.50219727 C-7.22860861 -2.20078925 -7.22860861 -2.20078925 0 0 Z M-5 1 C-8.79160658 5.73950822 -11.61384176 10.83106396 -14.46484375 16.17578125 C-15.90881382 18.83224528 -17.42774717 21.41789287 -19 24 C-21.09803323 27.45301303 -23.08203337 30.9437702 -25 34.5 C-27.37608202 38.90565208 -29.90130981 43.19173906 -32.5 47.46875 C-34.06707679 50.11319209 -35.5409074 52.79459913 -37 55.5 C-39.40226069 59.95327701 -41.95042684 64.29165976 -44.57421875 68.6171875 C-46.31798074 71.53141986 -47.95878589 74.49469772 -49.59765625 77.46875 C-53.94236794 85.31101511 -58.39006444 93.07357876 -63.125 100.6875 C-66.11780683 105.50404849 -68.89414695 110.38879876 -71.5703125 115.38671875 C-72.98283258 117.9686202 -74.4714079 120.48534719 -76 123 C-78.09803323 126.45301303 -80.08203337 129.9437702 -82 133.5 C-84.3959016 137.94148861 -86.93552022 142.26931863 -89.5546875 146.58203125 C-91.41171036 149.68878031 -93.15992969 152.84925872 -94.8984375 156.0234375 C-95.82551557 157.68691801 -96.81249914 159.31680896 -97.8125 160.9375 C-99.16632148 162.8922193 -99.16632148 162.8922193 -99 165 C-95.06924356 164.42547254 -95.06924356 164.42547254 -92 162 C-89.42445122 162.18554554 -86.95072313 162.64508362 -84.41015625 163.1015625 C-81.88405271 163.25897073 -81.88405271 163.25897073 -80.21875 161.31640625 C-78.90076398 158.81138796 -78.58140756 157.12101845 -78.4375 154.3125 C-78.30859375 151.92578125 -78.30859375 151.92578125 -78 150 C-77.34 149.67 -76.68 149.34 -76 149 C-75.34 151.97 -74.68 154.94 -74 158 C-72.68 158.33 -71.36 158.66 -70 159 C-67.52675745 155.36931449 -66.61067605 152.86220253 -66.48828125 148.48046875 C-66.45283203 147.45888672 -66.41738281 146.43730469 -66.38085938 145.38476562 C-66.35830078 144.32966797 -66.33574219 143.27457031 -66.3125 142.1875 C-66.27833984 141.11306641 -66.24417969 140.03863281 -66.20898438 138.93164062 C-66.12673357 136.28786467 -66.05750791 133.64441079 -66 131 C-65.34 131 -64.68 131 -64 131 C-63.87882812 132.31355469 -63.75765625 133.62710938 -63.6328125 134.98046875 C-63.46393211 136.71618387 -63.29463961 138.45185892 -63.125 140.1875 C-63.04636719 141.05181641 -62.96773437 141.91613281 -62.88671875 142.80664062 C-62.45001567 147.19046771 -61.97547146 150.99095497 -60 155 C-59.34 155 -58.68 155 -58 155 C-54.83302094 147.18416664 -54.49673958 140.06579211 -54.375 131.6875 C-54.32397963 129.1913286 -54.26944805 126.69522581 -54.2109375 124.19921875 C-54.19337402 123.10440186 -54.17581055 122.00958496 -54.15771484 120.8815918 C-54.02296501 118.41959138 -53.70926835 116.34940694 -53 114 C-50.94318219 125.5969515 -49.98213715 137.2727772 -49 149 C-47.68 149 -46.36 149 -45 149 C-43.3693012 143.96069624 -42.722992 139.61736168 -42.62109375 134.2734375 C-42.59560204 133.20737778 -42.59560204 133.20737778 -42.56959534 132.11978149 C-42.51694988 129.87160891 -42.47639131 127.62344904 -42.4375 125.375 C-42.39336437 123.11950027 -42.34653071 120.86413136 -42.29469299 118.60879517 C-42.24851473 116.56793322 -42.21081469 114.52688462 -42.17358398 112.48583984 C-42.02637667 109.52968509 -41.68416985 106.87110068 -41 104 C-39.5111813 109.92382723 -38.78342151 115.77753263 -38.47265625 121.87109375 C-38.43699554 122.56522369 -38.40133484 123.25935364 -38.36459351 123.97451782 C-38.2224684 126.86629823 -38.0905899 129.75832369 -37.97094727 132.65112305 C-37.87959871 134.78773028 -37.77097238 136.92292058 -37.66015625 139.05859375 C-37.60480713 140.31986084 -37.54945801 141.58112793 -37.49243164 142.88061523 C-36.98413436 146.10050339 -36.58332875 147.11190014 -34 149 C-30.12247317 141.13090144 -30.47571538 133.01043048 -30.375 124.4375 C-30.33824605 122.20929168 -30.29740413 119.9812449 -30.25234985 117.75318909 C-30.21314218 115.73460084 -30.18509584 113.71580479 -30.15771484 111.69702148 C-30.00186109 108.0436262 -29.580358 104.60468094 -29 101 C-28.67 101 -28.34 101 -28 101 C-27.17111231 106.23062668 -26.74541381 111.38418344 -26.5 116.671875 C-26.41670518 118.32161653 -26.33337069 119.97135605 -26.25 121.62109375 C-26.12372652 124.19736869 -25.99886035 126.77370558 -25.875 129.35009766 C-25.75351375 131.85337869 -25.62698012 134.35636756 -25.5 136.859375 C-25.46455078 137.6312616 -25.42910156 138.40314819 -25.39257812 139.19842529 C-25.23157567 142.34476992 -25.00174513 144.99476461 -24 148 C-23.01 148 -22.02 148 -21 148 C-19.31029359 143.56536383 -18.73097182 139.82533895 -18.65625 135.08984375 C-18.6416272 134.4410878 -18.62700439 133.79233185 -18.61193848 133.12391663 C-18.56582368 131.06184019 -18.53147884 128.99984829 -18.5 126.9375 C-18.3478184 117.14754072 -17.77547381 107.65465497 -16 98 C-15.27899705 104.0233087 -14.78870154 109.99149525 -14.53515625 116.05078125 C-14.45674236 117.73504294 -14.37795564 119.41928731 -14.29882812 121.10351562 C-14.17870598 123.72129046 -14.06137319 126.33909408 -13.95043945 128.95727539 C-13.84090989 131.50971823 -13.72014866 134.06143212 -13.59765625 136.61328125 C-13.56736832 137.39560623 -13.53708038 138.17793121 -13.50587463 138.98396301 C-13.31685602 142.75496361 -13.0945456 145.7888592 -11 149 C-10.01 148.67 -9.02 148.34 -8 148 C-6.89490828 145.10235609 -6.82879974 142.18305665 -6.71875 139.10546875 C-6.68193115 138.15615479 -6.6451123 137.20684082 -6.60717773 136.22875977 C-6.57180908 135.22514404 -6.53644043 134.22152832 -6.5 133.1875 C-6.14634884 124.11045362 -5.67262832 115.05901543 -5 106 C-4.34 106 -3.68 106 -3 106 C-2.9498877 107.22106445 -2.89977539 108.44212891 -2.84814453 109.70019531 C-2.65971524 114.23300729 -2.4593438 118.76522633 -2.25537109 123.29736328 C-2.16877947 125.25848515 -2.08542156 127.21975259 -2.00537109 129.18115234 C-1.88970431 132.00142271 -1.7623947 134.82096397 -1.6328125 137.640625 C-1.59938751 138.51680481 -1.56596252 139.39298462 -1.53152466 140.29571533 C-1.471689 141.52653839 -1.471689 141.52653839 -1.41064453 142.78222656 C-1.37955597 143.50170471 -1.34846741 144.22118286 -1.31643677 144.96246338 C-0.95634355 147.28110395 -0.14261626 148.9637116 1 151 C1.99 150.67 2.98 150.34 4 150 C5.36693269 147.26613461 5.30623493 144.87254483 5.5 141.8203125 C5.5825 140.58152344 5.665 139.34273437 5.75 138.06640625 C5.8325 136.76574219 5.915 135.46507812 6 134.125 C6.16335692 131.56489083 6.32988699 129.00498162 6.5 126.4453125 C6.5721875 125.30594238 6.644375 124.16657227 6.71875 122.99267578 C6.94956951 120.53661197 7.30782133 118.35845463 8 116 C10.42139478 123.98379565 10.37779994 131.77219502 10.47851562 140.06445312 C10.50494141 141.14017578 10.53136719 142.21589844 10.55859375 143.32421875 C10.57877563 144.7796106 10.57877563 144.7796106 10.59936523 146.2644043 C11.06408331 149.4375707 12.19912087 151.37616897 14 154 C16.01430604 152.33581722 16.9132207 151.37641875 17.50830078 148.79516602 C17.57001465 147.95655029 17.63172852 147.11793457 17.6953125 146.25390625 C17.77136719 145.33416016 17.84742187 144.41441406 17.92578125 143.46679688 C17.99152344 142.50837891 18.05726562 141.54996094 18.125 140.5625 C18.27084706 138.66776757 18.41919118 136.77322531 18.5703125 134.87890625 C18.62977051 134.0391626 18.68922852 133.19941895 18.75048828 132.33422852 C18.98515719 130.13885728 19.40724188 128.12359114 20 126 C23.00734464 131.71152954 22.42068019 138.14008362 22.56640625 144.42773438 C22.59605469 145.33974609 22.62570313 146.25175781 22.65625 147.19140625 C22.68428711 148.43192749 22.68428711 148.43192749 22.71289062 149.69750977 C23.02248355 152.18030814 23.75895372 153.84458004 25 156 C26.32 155.67 27.64 155.34 29 155 C29.12117187 153.96359375 29.24234375 152.9271875 29.3671875 151.859375 C29.53607181 150.48953562 29.70536411 149.11974651 29.875 147.75 C29.95363281 147.06808594 30.03226563 146.38617188 30.11328125 145.68359375 C30.56645833 142.09303689 31.09385738 139.107493 33 136 C34.42512654 140.27537963 34.31692438 144.63314244 34.4296875 149.10742188 C34.61701303 153.31834366 35.0065117 155.93447589 38 159 C38.99 158.67 39.98 158.34 41 158 C42.03316488 155.20827761 42.03316488 155.20827761 42.6875 151.9375 C43.06455078 150.28041016 43.06455078 150.28041016 43.44921875 148.58984375 C43.63097656 147.73519531 43.81273437 146.88054687 44 146 C44.66 146 45.32 146 46 146 C46.04898438 146.83144531 46.09796875 147.66289062 46.1484375 148.51953125 C46.22320312 149.60621094 46.29796875 150.69289062 46.375 151.8125 C46.47941406 153.43091797 46.47941406 153.43091797 46.5859375 155.08203125 C46.81195733 158.18626186 46.81195733 158.18626186 49 161 C50.65 160.67 52.3 160.34 54 160 C54.33 157.69 54.66 155.38 55 153 C55.99 153.33 56.98 153.66 58 154 C58.73046875 155.84765625 58.73046875 155.84765625 59.1875 158.0625 C59.34605469 158.79597656 59.50460938 159.52945313 59.66796875 160.28515625 C59.77753906 160.85105469 59.88710937 161.41695312 60 162 C62.34533951 162.76956136 62.34533951 162.76956136 65 163 C66.8354799 161.66621425 66.8354799 161.66621425 68 160 C71 161 71 161 73 164 C74.92441415 164.50531866 74.92441415 164.50531866 77.1328125 164.51171875 C77.93847656 164.54716797 78.74414062 164.58261719 79.57421875 164.61914062 C80.41597656 164.64169922 81.25773438 164.66425781 82.125 164.6875 C82.97449219 164.72166016 83.82398438 164.75582031 84.69921875 164.79101562 C86.79901105 164.87359173 88.89948564 164.93846978 91 165 C89.68176384 160.70374853 88.12372208 157.64144377 85.41796875 154.0390625 C83.1627147 150.79596989 81.39228607 147.30574344 79.53515625 143.82421875 C78.09118618 141.16775472 76.57225283 138.58210713 75 136 C72.3545428 131.64601835 69.91797507 127.20207877 67.5 122.71875 C66.05827379 120.10562124 64.54958452 117.55035785 63 115 C60.96461047 111.64975935 59.0398818 108.26721757 57.1875 104.8125 C54.39443039 99.63062086 51.39761791 94.59094727 48.3347168 89.56567383 C46.36224354 86.3183255 44.45770888 83.04725373 42.625 79.71875 C39.19979783 73.5078048 35.53988632 67.4369474 31.90429688 61.34765625 C28.60467898 55.79492649 25.42898518 50.19507664 22.37475586 44.50341797 C20.9785566 41.96095176 19.50740471 39.47789362 18 37 C15.96461047 33.64975935 14.0398818 30.26721757 12.1875 26.8125 C8.3683529 19.72990181 4.17033337 12.87906419 0 6 C-0.54269531 5.02804688 -1.08539063 4.05609375 -1.64453125 3.0546875 C-2.09183594 2.37664063 -2.53914063 1.69859375 -3 1 C-3.66 1 -4.32 1 -5 1 Z " fill="#050101" transform="translate(100,13)"/>
<path d="M0 0 C3.89304298 1.47033383 5.03459037 3.33997634 6.875 7 C8.84865275 10.83710153 10.91758974 14.49554208 13.25 18.125 C16.04532773 22.69118981 17.15027919 26.73173099 18 32 C12.00800856 24.93801009 8.89526555 17.68579665 6 9 C5.01 8.67 4.02 8.34 3 8 C3 7.34 3 6.68 3 6 C-1.62154356 9.92130969 -4.21451085 14.56834136 -7.17578125 19.81640625 C-8.88482715 22.79900241 -10.68961409 25.68081903 -12.5625 28.5625 C-15.3740325 32.93253166 -17.8839924 37.39551392 -20.33203125 41.9765625 C-22.6857869 46.24308913 -25.21115217 50.39992625 -27.74023438 54.56420898 C-30.28133047 58.75950668 -32.68558503 62.99974866 -34.9296875 67.36328125 C-36 69 -36 69 -39 71 C-40.3002504 72.97392088 -40.3002504 72.97392088 -41.4375 75.25 C-46.89922907 85.44961454 -46.89922907 85.44961454 -50 87 C-45.47931461 77.83558249 -40.13884183 69.11505663 -34.90429688 60.34765625 C-31.60467898 54.79492649 -28.42898518 49.19507664 -25.37475586 43.50341797 C-23.9785588 40.96095576 -22.50741006 38.47788465 -21 36 C-18.90196677 32.54698697 -16.91796663 29.0562298 -15 25.5 C-12.60684435 21.0636018 -10.07146923 16.74008097 -7.453125 12.43359375 C-5.54539592 9.23866037 -3.75613372 5.98459575 -1.98046875 2.71484375 C-1 1 -1 1 0 0 Z " fill="#C86272" transform="translate(95,14)"/>
<path d="M0 0 C1.32 0 2.64 0 4 0 C7.18806881 11.02241876 6.25440945 23.94169689 6.5625 35.375 C6.6058463 36.90104946 6.64946469 38.42709122 6.69335938 39.953125 C6.79869587 43.63533358 6.90039862 47.31763128 7 51 C7.66 51 8.32 51 9 51 C9.01981934 50.04746338 9.03963867 49.09492676 9.06005859 48.11352539 C9.13679437 44.54052668 9.22539978 40.96789966 9.31738281 37.39526367 C9.35539443 35.85627645 9.39029293 34.31720876 9.421875 32.77807617 C9.59055048 24.65793318 9.79530481 16.87775233 12 9 C13.32 9 14.64 9 16 9 C16 10.65 16 12.3 16 14 C15.67 12.68 15.34 11.36 15 10 C14.34 10 13.68 10 13 10 C12.9498877 11.12494873 12.89977539 12.24989746 12.84814453 13.40893555 C12.65941635 17.59329681 12.45911928 21.77703878 12.25537109 25.96069336 C12.16889209 27.76946497 12.0855267 29.57838831 12.00537109 31.38745117 C11.88942971 33.99183822 11.76220128 36.59546936 11.6328125 39.19921875 C11.58267502 40.40731453 11.58267502 40.40731453 11.53152466 41.63981628 C11.31212558 45.82210784 10.88405997 49.17488893 9 53 C7.515 52.505 7.515 52.505 6 52 C4.74903129 48.24709387 4.67632399 44.62788469 4.5 40.7109375 C4.45939453 39.8930777 4.41878906 39.0752179 4.37695312 38.23257446 C4.24730665 35.61355992 4.12319443 32.99432539 4 30.375 C3.87631485 27.77712875 3.75133342 25.17934384 3.62304688 22.58169556 C3.54342564 20.96673913 3.46642779 19.35165032 3.39257812 17.73641968 C3.13418197 12.45835229 2.62556329 7.24756374 2 2 C0.09727318 12.34663018 -0.37172355 22.53341872 -0.53173828 33.0168457 C-0.56562816 35.04140778 -0.61062217 37.0655175 -0.65625 39.08984375 C-0.67494141 40.27441162 -0.69363281 41.45897949 -0.71289062 42.67944336 C-1.00608982 46.0704317 -1.79194968 48.82947073 -3 52 C-3.99 52 -4.98 52 -6 52 C-7.22204629 48.33386113 -7.32141535 44.82536437 -7.5 41 C-7.54060547 40.20907959 -7.58121094 39.41815918 -7.62304688 38.60327148 C-7.75266287 36.0690295 -7.87671544 33.53455727 -8 31 C-8.16387195 27.68735422 -8.33041628 24.37485832 -8.5 21.0625 C-8.5405249 20.26932373 -8.5810498 19.47614746 -8.62280273 18.65893555 C-8.93496799 12.75746682 -9.37919607 6.87782443 -10 1 C-7.40479918 4.89280123 -6.89838537 7.84780667 -6.75390625 12.45703125 C-6.70459961 13.75737305 -6.70459961 13.75737305 -6.65429688 15.08398438 C-6.5945473 16.85994505 -6.5371334 18.63598635 -6.48242188 20.41210938 C-6.1742333 28.36104862 -5.13792568 36.13294983 -4 44 C-3.94465088 43.04746338 -3.88930176 42.09492676 -3.83227539 41.11352539 C-3.62403521 37.54062975 -3.41268042 33.9679237 -3.20043945 30.39526367 C-3.10943552 28.8562503 -3.01924851 27.31718837 -2.92993164 25.77807617 C-1.62058162 3.24116324 -1.62058162 3.24116324 0 0 Z " fill="#A9384B" transform="translate(82,109)"/>
<path d="M0 0 C2.66697579 2.66697579 2.4685981 4.37636337 2.8515625 8.1015625 C2.98046875 9.31328125 3.109375 10.525 3.2421875 11.7734375 C3.36851563 13.04445312 3.49484375 14.31546875 3.625 15.625 C3.7590625 16.90375 3.893125 18.1825 4.03125 19.5 C4.36201117 22.66585691 4.68201151 25.83283466 5 29 C5.66 24.38 6.32 19.76 7 15 C7.66 15 8.32 15 9 15 C9 13.02 9 11.04 9 9 C10.32 9 11.64 9 13 9 C13.33 11.64 13.66 14.28 14 17 C13.690625 16.360625 13.38125 15.72125 13.0625 15.0625 C12.1654837 13.06389179 12.1654837 13.06389179 11 12 C10.16936156 14.97581151 9.78834681 17.79954091 9.5703125 20.87890625 C9.49683594 21.79994141 9.42335938 22.72097656 9.34765625 23.66992188 C9.19896456 25.60160955 9.05836479 27.5339368 8.92578125 29.46679688 C8.84972656 30.38654297 8.77367188 31.30628906 8.6953125 32.25390625 C8.63359863 33.09252197 8.57188477 33.9311377 8.50830078 34.79516602 C7.9132207 37.37641875 7.01430604 38.33581722 5 40 C2.49139077 36.33206505 1.61515131 33.82550115 1.5234375 29.39453125 C1.4925 28.32783203 1.4615625 27.26113281 1.4296875 26.16210938 C1.41164063 25.05673828 1.39359375 23.95136719 1.375 22.8125 C1.32322408 20.63143935 1.26857126 18.45044497 1.2109375 16.26953125 C1.18354492 15.21975098 1.15615234 14.1699707 1.12792969 13.08837891 C0.9462627 8.70271592 0.51569728 4.35770329 0 0 Z " fill="#B9354A" transform="translate(109,127)"/>
<path d="M0 0 C0.33 0 0.66 0 1 0 C1.74717559 3.38270891 2.15806814 6.59445676 2.28125 10.0546875 C2.31863281 10.99957031 2.35601562 11.94445312 2.39453125 12.91796875 C2.42933594 13.89378906 2.46414062 14.86960938 2.5 15.875 C2.71967628 21.98525493 2.99123734 27.96423676 4 34 C4.98672592 31.03982225 5.2532992 28.69677095 5.46484375 25.59765625 C5.54283203 24.54255859 5.62082031 23.48746094 5.70117188 22.40039062 C5.85842949 20.17928923 6.01208928 17.9579301 6.16210938 15.73632812 C6.24138672 14.67994141 6.32066406 13.62355469 6.40234375 12.53515625 C6.46929443 11.569729 6.53624512 10.60430176 6.60522461 9.60961914 C6.99792726 7.0137016 7.68771293 5.25481738 9 3 C9.66 3.33 10.32 3.66 11 4 C10.68160156 4.85376221 10.36320312 5.70752441 10.03515625 6.5871582 C8.98660759 10.04415389 8.63175787 13.0062734 8.4375 16.60546875 C8.36273438 17.83587891 8.28796875 19.06628906 8.2109375 20.33398438 C8.06967294 22.91467861 7.9290537 25.49540825 7.7890625 28.07617188 C7.71429688 29.30271484 7.63953125 30.52925781 7.5625 31.79296875 C7.50191406 32.9121167 7.44132812 34.03126465 7.37890625 35.18432617 C7 38 7 38 5 41 C4.01 40.67 3.02 40.34 2 40 C1.02767337 37.08302011 0.80679002 34.96229027 0.68359375 31.9140625 C0.64161865 30.90601563 0.59964355 29.89796875 0.55639648 28.859375 C0.51716064 27.79203125 0.4779248 26.7246875 0.4375 25.625 C0.37381226 24.00464844 0.37381226 24.00464844 0.30883789 22.3515625 C0.03051522 14.89677099 -0.13113517 7.46013384 0 0 Z " fill="#AB3649" transform="translate(98,123)"/>
<path d="M0 0 C0.66 0.33 1.32 0.66 2 1 C1.67636475 1.69512695 1.35272949 2.39025391 1.01928711 3.10644531 C-0.11867201 6.33688637 -0.26991322 8.87781977 -0.30859375 12.296875 C-0.33373047 13.5034375 -0.35886719 14.71 -0.38476562 15.953125 C-0.41970419 18.46870147 -0.4510005 20.98433138 -0.47851562 23.5 C-0.63411005 30.63457384 -1.30995047 36.37171795 -4 43 C-4.99 42.67 -5.98 42.34 -7 42 C-7.53113382 38.7099087 -8.04814771 35.4177531 -8.5625 32.125 C-8.71396484 31.18785156 -8.86542969 30.25070313 -9.02148438 29.28515625 C-9.16005859 28.38925781 -9.29863281 27.49335938 -9.44140625 26.5703125 C-9.57232666 25.74289551 -9.70324707 24.91547852 -9.83813477 24.06298828 C-10 22 -10 22 -9 20 C-7.08729676 21.91270324 -7.29679405 25.18437434 -6.9375 27.75 C-6.76089844 28.98234375 -6.58429687 30.2146875 -6.40234375 31.484375 C-6.0716958 34.37353186 -5.91696071 37.09916094 -6 40 C-5.34 40 -4.68 40 -4 40 C-4.01160156 39.23300781 -4.02320313 38.46601563 -4.03515625 37.67578125 C-4.0968249 30.0905372 -3.96068804 22.51764539 -3.6875 14.9375 C-3.66502197 14.03362549 -3.64254395 13.12975098 -3.61938477 12.19848633 C-3.41875657 7.33746065 -3.09176435 3.98696689 0 0 Z " fill="#A9384A" transform="translate(46,125)"/>
<path d="M0 0 C2.85818651 4.28727977 3.10816446 8.17322765 3.28125 13.23828125 C3.31863281 14.22376953 3.35601562 15.20925781 3.39453125 16.22460938 C3.42933594 17.24361328 3.46414062 18.26261719 3.5 19.3125 C3.72880345 25.93508878 4.05908363 32.43710831 5 39 C7.4242477 32.28897282 7.43957934 25.64325157 7.625 18.5625 C7.68300781 16.74975586 7.68300781 16.74975586 7.7421875 14.90039062 C7.83599458 11.93374183 7.92169246 8.96709164 8 6 C8.33 6 8.66 6 9 6 C9.07468636 10.55318701 9.12885256 15.10600998 9.16479492 19.65966797 C9.1797933 21.20562968 9.20019887 22.75154948 9.22631836 24.29736328 C9.48676127 40.1179935 9.48676127 40.1179935 6 47 C3.44002258 45.11842088 3.01731842 44.10519982 2.49169922 40.91235352 C2.42998535 39.66381592 2.36827148 38.41527832 2.3046875 37.12890625 C2.26691193 36.45133774 2.22913635 35.77376923 2.19021606 35.07566833 C2.07191907 32.90506952 1.97290912 30.73410491 1.875 28.5625 C1.76603305 26.4298958 1.65310267 24.29752426 1.5401001 22.16513062 C1.46683477 20.77250221 1.39532547 19.37978025 1.32562256 17.98696899 C1.02022947 11.97836455 0.55129843 5.99053759 0 0 Z " fill="#A33649" transform="translate(60,115)"/>
<path d="M0 0 C2.475 0.495 2.475 0.495 5 1 C5.33 4.3 5.66 7.6 6 11 C3.87491756 7.81237635 3.4979837 5.73487777 3 2 C2.01 2.495 2.01 2.495 1 3 C0.64318376 5.22671403 0.55675814 7.42455897 0.44140625 9.67578125 C-0.1074394 12.56572073 -0.85955087 13.97715796 -3 16 C-5.375 16.06640625 -5.375 16.06640625 -8 15.5625 C-10.56902984 15.00531532 -10.56902984 15.00531532 -13 15 C-14.03172141 15.96723882 -15.03337297 16.96770538 -16 18 C-17.32 18 -18.64 18 -20 18 C-18.58832253 12.73829306 -16.25149768 9.27828642 -13 5 C-13 7.33333333 -13 9.66666667 -13 12 C-12.0925 11.979375 -11.185 11.95875 -10.25 11.9375 C-7.57327412 11.9889755 -5.53011948 12.2215017 -3 13 C-1.86203769 10.72407537 -1.72965157 9.02616725 -1.5 6.5 C-1.11111111 2.22222222 -1.11111111 2.22222222 0 0 Z " fill="#B33D50" transform="translate(21,160)"/>
<path d="M0 0 C2.59520082 3.89280123 3.10161463 6.84780667 3.24609375 11.45703125 C3.27775635 12.31594971 3.30941895 13.17486816 3.34204102 14.05981445 C3.37354248 14.96820068 3.40504395 15.87658691 3.4375 16.8125 C3.79274519 25.6660082 4.67287492 34.24097444 6 43 C6.33 36.07 6.66 29.14 7 22 C7.33 22 7.66 22 8 22 C8.05827558 25.5624308 8.09368885 29.12473819 8.125 32.6875 C8.14175781 33.69490234 8.15851563 34.70230469 8.17578125 35.74023438 C8.18222656 36.71669922 8.18867187 37.69316406 8.1953125 38.69921875 C8.20578613 39.59471436 8.21625977 40.49020996 8.22705078 41.4128418 C7.97703456 44.26168257 7.18016512 46.40894543 6 49 C-0.11319254 42.88680746 1.59615538 27.97006467 1.34155273 19.89404297 C1.12895489 13.23119386 0.67891599 6.63186002 0 0 Z " fill="#BD3D51" transform="translate(72,110)"/>
<path d="M0 0 C3.82822927 1.46977581 5.08451915 3.32278317 7.0234375 6.875 C7.57 7.86113281 8.1165625 8.84726563 8.6796875 9.86328125 C9.23914063 10.89839844 9.79859375 11.93351562 10.375 13 C11.48568264 15.02154621 12.59765313 17.04238541 13.7109375 19.0625 C14.25202148 20.0525 14.79310547 21.0425 15.35058594 22.0625 C17.42742212 25.76121122 19.65135109 29.3579846 21.92041016 32.94140625 C23 35 23 35 23 38 C20.37997275 35.62949916 18.64180091 33.12723983 17 30 C17 29.01 17 28.02 17 27 C16.40670898 26.77634766 15.81341797 26.55269531 15.20214844 26.32226562 C12.32700881 24.59590684 11.39216214 22.76451023 9.765625 19.84375 C9.19199219 18.82152344 8.61835938 17.79929687 8.02734375 16.74609375 C7.44082031 15.67488281 6.85429688 14.60367188 6.25 13.5 C5.64800781 12.42878906 5.04601562 11.35757813 4.42578125 10.25390625 C0 2.29552863 0 2.29552863 0 0 Z " fill="#BC4155" transform="translate(120,58)"/>
<path d="M0 0 C3.89304298 1.47033383 5.03459037 3.33997634 6.875 7 C8.84865275 10.83710153 10.91758974 14.49554208 13.25 18.125 C16.04532773 22.69118981 17.15027919 26.73173099 18 32 C12.00800856 24.93801009 8.89526555 17.68579665 6 9 C5.01 8.67 4.02 8.34 3 8 C2.67 6.02 2.34 4.04 2 2 C-0.91659716 3.45829858 -1.52124351 5.63121241 -3 8.5 C-5.77777778 13.88888889 -5.77777778 13.88888889 -8 15 C-6.25565047 10.08410586 -3.74513488 3.74513488 0 0 Z " fill="#B75465" transform="translate(95,14)"/>
<path d="M0 0 C0.66 0 1.32 0 2 0 C2.8125 1.6875 2.8125 1.6875 3 4 C1.88517027 5.11482973 0.75749859 6.21838525 -0.4140625 7.2734375 C-3.26147068 10.37332522 -5.09526237 14.1310213 -7.16015625 17.77734375 C-8.97754597 20.96066969 -10.86509925 24.08218529 -12.8125 27.1875 C-13.37582031 28.08855469 -13.93914062 28.98960938 -14.51953125 29.91796875 C-16 32 -16 32 -18 33 C-15.74023393 25.65576028 -12.86549296 16.60779343 -7.125 11.25 C-3.99594239 7.93688018 -2.09643064 4.02102271 0 0 Z " fill="#C86877" transform="translate(95,16)"/>
<path d="M0 0 C2.90515941 2.56858606 4.59273115 5.52054908 6.5 8.875 C7.0878125 9.90367187 7.675625 10.93234375 8.28125 11.9921875 C8.8484375 12.98476562 9.415625 13.97734375 10 15 C10.85078125 16.36511719 10.85078125 16.36511719 11.71875 17.7578125 C13 20 13 20 13 22 C7.06 21.67 1.12 21.34 -5 21 C-5 20.01 -5 19.02 -5 18 C-4.34 18.33 -3.68 18.66 -3 19 C-0.95944995 19.07065617 1.08334257 19.08421976 3.125 19.0625 C4.22070312 19.05347656 5.31640625 19.04445312 6.4453125 19.03515625 C7.28835937 19.02355469 8.13140625 19.01195312 9 19 C6.94603113 14.70438997 4.912104 10.78573521 2 7 C2 6.34 2 5.68 2 5 C1.34 5 0.68 5 0 5 C0 3.35 0 1.7 0 0 Z " fill="#9F2E40" transform="translate(178,156)"/>
<path d="M0 0 C1.29230145 3.87690436 0.54078349 5.25809723 -1 9 C-4.45945946 14.72972973 -4.45945946 14.72972973 -7 16 C-7.84454641 17.36448824 -8.62800533 18.76725855 -9.375 20.1875 C-14.93237705 30.46618852 -14.93237705 30.46618852 -18 32 C-14.11198409 24.11010248 -9.60449506 16.53897748 -5.1875 8.9375 C-4.68541016 8.07189453 -4.18332031 7.20628906 -3.66601562 6.31445312 C-2.4447417 4.20920951 -1.22272718 2.10439978 0 0 Z " fill="#BC5566" transform="translate(63,69)"/>
<path d="M0 0 C3.39268774 5.08903161 3.22114532 10.49376408 3.5 16.4375 C3.73256916 21.36882763 4.07512797 26.13671458 5 31 C5.99 30.01 6.98 29.02 8 28 C7.67 30.31 7.34 32.62 7 35 C5.68 35 4.36 35 3 35 C2.5702797 30.65860591 2.14310445 26.31697112 1.71826172 21.97509766 C1.57344967 20.49879226 1.42794854 19.02255429 1.28173828 17.54638672 C1.07141815 15.42172415 0.8635963 13.29682959 0.65625 11.171875 C0.53056641 9.8940918 0.40488281 8.61630859 0.27539062 7.29980469 C0 4 0 4 0 0 Z " fill="#9F3547" transform="translate(48,127)"/>
<path d="M0 0 C1.46275706 2.92551412 0.69568552 5.04733442 0.1875 8.25 C0.01605469 9.36890625 -0.15539062 10.4878125 -0.33203125 11.640625 C-0.97748784 14.88678095 -1.88262038 17.88830992 -3 21 C-3.99 21 -4.98 21 -6 21 C-8.37590142 17.29583874 -8.20500286 14.07015427 -8.125 9.75 C-8.10695313 8.48671875 -8.08890625 7.2234375 -8.0703125 5.921875 C-8.03550781 4.47554687 -8.03550781 4.47554687 -8 3 C-7.67 3 -7.34 3 -7 3 C-6.86722656 3.84304687 -6.73445313 4.68609375 -6.59765625 5.5546875 C-6.42105469 6.65039062 -6.24445313 7.74609375 -6.0625 8.875 C-5.88847656 9.96554688 -5.71445313 11.05609375 -5.53515625 12.1796875 C-5.14448841 14.93821546 -5.14448841 14.93821546 -4 17 C-3.79503906 15.85660156 -3.59007813 14.71320313 -3.37890625 13.53515625 C-3.1069769 12.04423324 -2.83483026 10.55334984 -2.5625 9.0625 C-2.42779297 8.30775391 -2.29308594 7.55300781 -2.15429688 6.77539062 C-1.11328125 1.11328125 -1.11328125 1.11328125 0 0 Z " fill="#A53244" transform="translate(131,148)"/>
<path d="M0 0 C1.65 0.33 3.3 0.66 5 1 C5.33 4.3 5.66 7.6 6 11 C3.87491756 7.81237635 3.4979837 5.73487777 3 2 C2.01 2.495 2.01 2.495 1 3 C0.64590561 4.9945441 0.64590561 4.9945441 0.5625 7.3125 C0.24092182 11.05233514 -0.2560589 13.2560589 -3 16 C-4.65 15.67 -6.3 15.34 -8 15 C-8 14.67 -8 14.34 -8 14 C-7.195625 13.87625 -6.39125 13.7525 -5.5625 13.625 C-4.716875 13.41875 -3.87125 13.2125 -3 13 C-1.86203769 10.72407537 -1.72965157 9.02616725 -1.5 6.5 C-1.11111111 2.22222222 -1.11111111 2.22222222 0 0 Z " fill="#9A3243" transform="translate(21,160)"/>
<path d="M0 0 C3.31232312 3.12810644 5.421226 6.67998562 7.75 10.5625 C8.17410156 11.24763672 8.59820312 11.93277344 9.03515625 12.63867188 C10.08912404 14.38784643 11.052497 16.19094007 12 18 C11.67 18.66 11.34 19.32 11 20 C5.39947038 14.72748405 0.41600461 7.90408751 0 0 Z " fill="#B53B4F" transform="translate(144,97)"/>
<path d="M0 0 C1.98 0.495 1.98 0.495 4 1 C6.00060017 7.61615806 6.24246007 13.61503266 6.125 20.5 C6.11597656 21.51320312 6.10695313 22.52640625 6.09765625 23.5703125 C6.07429007 26.04712801 6.04153168 28.52343379 6 31 C5.67 31 5.34 31 5 31 C4.98018066 30.40050537 4.96036133 29.80101074 4.93994141 29.18334961 C4.84394997 26.43433529 4.73457495 23.68600507 4.625 20.9375 C4.5940625 19.99455078 4.563125 19.05160156 4.53125 18.08007812 C4.30832641 12.74848889 3.89115173 8.01359291 2 3 C1.34 2.67 0.68 2.34 0 2 C-0.33 2.99 -0.66 3.98 -1 5 C-0.67 3.35 -0.34 1.7 0 0 Z " fill="#DA4B60" transform="translate(70,107)"/>
<path d="M0 0 C2.475 0.495 2.475 0.495 5 1 C5 3.64 5 6.28 5 9 C6.32 9 7.64 9 9 9 C9 8.01 9 7.02 9 6 C10.98 6 12.96 6 15 6 C15 6.99 15 7.98 15 9 C13.68 9 12.36 9 11 9 C10.34 9.66 9.68 10.32 9 11 C6.375 10.625 6.375 10.625 4 10 C3.54427083 7.98177083 3.08854167 5.96354167 2.6328125 3.9453125 C2.09525572 1.79280036 2.09525572 1.79280036 0 0 Z " fill="#A02D40" transform="translate(156,165)"/>
<path d="M0 0 C3.875 0.875 3.875 0.875 5 2 C5.23427778 4.01594582 5.41336124 6.038474 5.5625 8.0625 C5.64628906 9.16722656 5.73007813 10.27195313 5.81640625 11.41015625 C5.87699219 12.26480469 5.93757812 13.11945313 6 14 C6.99 14.33 7.98 14.66 9 15 C9.66 13.35 10.32 11.7 11 10 C11.93065133 12.60582371 12.14917407 13.64198224 11.0625 16.25 C10.711875 16.8275 10.36125 17.405 10 18 C7.5625 17.625 7.5625 17.625 5 17 C3.64908472 14.29816945 3.66141942 11.88191794 3.4375 8.875 C3.35371094 7.77929688 3.26992187 6.68359375 3.18359375 5.5546875 C3.12300781 4.71164063 3.06242188 3.86859375 3 3 C2.01 3 1.02 3 0 3 C0 2.01 0 1.02 0 0 Z " fill="#972C3E" transform="translate(143,156)"/>
<path d="M0 0 C0.66 0 1.32 0 2 0 C2.8125 1.6875 2.8125 1.6875 3 4 C0.9375 6.1875 0.9375 6.1875 -0.453125 7.4296875 C-3.50333809 10.52611594 -5.68124068 14.34257551 -8 18 C-8.33 17.34 -8.66 16.68 -9 16 C-7.890625 13.57421875 -7.890625 13.57421875 -6.25 10.6875 C-5.45335938 9.27017578 -5.45335938 9.27017578 -4.640625 7.82421875 C-4.09921875 6.89222656 -3.5578125 5.96023437 -3 5 C-2.47921875 4.05769531 -1.9584375 3.11539062 -1.421875 2.14453125 C-0.95265625 1.43683594 -0.4834375 0.72914062 0 0 Z " fill="#F38F9C" transform="translate(95,16)"/>
<path d="M0 0 C3.77391227 1.21304323 5.2842553 3.49355123 7.1171875 6.9140625 C8.62781861 10.48342982 9.34395813 14.19323074 10 18 C6.12358085 13.67630171 0 6.04191557 0 0 Z " fill="#D54F63" transform="translate(120,58)"/>
<path d="M0 0 C1 3 1 3 -0.36328125 5.8828125 C-1.00652344 6.95273438 -1.64976563 8.02265625 -2.3125 9.125 C-2.94800781 10.20007813 -3.58351563 11.27515625 -4.23828125 12.3828125 C-6 15 -6 15 -8 16 C-6.36866728 10.79361899 -4.7336592 5.75418991 -2 1 C-1.34 0.67 -0.68 0.34 0 0 Z " fill="#D76C7C" transform="translate(70,59)"/>
<path d="M0 0 C2.48982535 2.27745789 4.10368997 4.62335238 5.75 7.5625 C6.19859375 8.34753906 6.6471875 9.13257812 7.109375 9.94140625 C7.40328125 10.62074219 7.6971875 11.30007812 8 12 C7.67 12.66 7.34 13.32 7 14 C3.62142333 10.88815307 1.26014726 8.46779482 0 4 C0 2.68 0 1.36 0 0 Z " fill="#B0364A" transform="translate(156,117)"/>
<path d="M0 0 C3.16115776 1.36983503 3.9927092 1.9890638 6 5 C6.6328125 7.26171875 6.6328125 7.26171875 7.125 9.6875 C7.29257813 10.49574219 7.46015625 11.30398437 7.6328125 12.13671875 C7.75398438 12.75160156 7.87515625 13.36648437 8 14 C0 4.57142857 0 4.57142857 0 0 Z " fill="#D85B6E" transform="translate(105,32)"/>
<path d="M0 0 C0.33 0 0.66 0 1 0 C0.67 4.62 0.34 9.24 0 14 C-0.99 14 -1.98 14 -3 14 C-3.125 10.625 -3.125 10.625 -3 7 C-2.34 6.34 -1.68 5.68 -1 5 C-0.35232207 2.42938689 -0.35232207 2.42938689 0 0 Z " fill="#BF3E52" transform="translate(67,147)"/>
<path d="M0 0 C0.33 0.66 0.66 1.32 1 2 C-0.43359375 4.8203125 -0.43359375 4.8203125 -2.4375 8.125 C-3.09621094 9.22070312 -3.75492188 10.31640625 -4.43359375 11.4453125 C-4.95050781 12.28835937 -5.46742187 13.13140625 -6 14 C-7.19005859 10.42982423 -6.75814719 9.75433096 -5.25 6.4375 C-4.73179688 5.25994141 -4.73179688 5.25994141 -4.203125 4.05859375 C-3 2 -3 2 0 0 Z " fill="#D05C6E" transform="translate(41,110)"/>
<path d="M0 0 C0.33 0 0.66 0 1 0 C1.02701408 2.10409639 1.04640223 4.20829178 1.0625 6.3125 C1.07410156 7.48425781 1.08570313 8.65601563 1.09765625 9.86328125 C1 13 1 13 0 16 C-0.99 16 -1.98 16 -3 16 C-3 14.35 -3 12.7 -3 11 C-2.01 11.495 -2.01 11.495 -1 12 C-0.67 8.04 -0.34 4.08 0 0 Z " fill="#D23C52" transform="translate(30,156)"/>
<path d="M0 0 C0.99 0.33 1.98 0.66 3 1 C3 3.31 3 5.62 3 8 C2.01 8.495 2.01 8.495 1 9 C0.67 6.03 0.34 3.06 0 0 Z " fill="#E02643" transform="translate(125,157)"/>
<path d="M0 0 C4.42857143 5.14285714 4.42857143 5.14285714 5 9 C4.01 9 3.02 9 2 9 C0.50178941 5.62902617 0 3.79557881 0 0 Z " fill="#B83147" transform="translate(173,147)"/>
<path d="M0 0 C0.66 0.66 1.32 1.32 2 2 C0.02 4.97 -1.96 7.94 -4 11 C-4 7.80389448 -3.45328458 6.58282374 -2 3.8125 C-1.62875 3.09707031 -1.2575 2.38164063 -0.875 1.64453125 C-0.441875 0.83048828 -0.441875 0.83048828 0 0 Z " fill="#EC8492" transform="translate(82,38)"/>
<path d="M0 0 C0.33 0 0.66 0 1 0 C1 3.63 1 7.26 1 11 C1.66 11 2.32 11 3 11 C3 11.99 3 12.98 3 14 C2.01 13.67 1.02 13.34 0 13 C0 8.71 0 4.42 0 0 Z " fill="#DD2944" transform="translate(137,156)"/>
<path d="M0 0 C2.72426311 2.35277269 3.8141763 4.62496331 5 8 C4.01 7.67 3.02 7.34 2 7 C2 6.34 2 5.68 2 5 C1.34 5 0.68 5 0 5 C0 3.35 0 1.7 0 0 Z " fill="#AF3044" transform="translate(178,156)"/>
</svg>
