<?xml version="1.0" encoding="UTF-8"?>
<svg version="1.1" xmlns="http://www.w3.org/2000/svg" width="192" height="192">
<path d="M0 0 C4.50356124 2.48086997 8.57551228 5.05949452 12.625 8.25 C13.7559665 9.1335092 14.88752083 10.01626623 16.01953125 10.8984375 C16.64424316 11.38666992 17.26895508 11.87490234 17.91259766 12.37792969 C22.02369716 15.57256654 26.17018049 18.72102339 30.3125 21.875 C31.21637451 22.56392334 32.12024902 23.25284668 33.05151367 23.96264648 C38.49359265 28.10631932 43.95590568 32.22130265 49.4375 36.3125 C68.68825188 50.68825188 68.68825188 50.68825188 72 54 C72.4453125 57.234375 72.4453125 57.234375 72 61 C69.95222729 63.15358467 68.27372684 64.59467373 65.875 66.25 C64.58157288 67.20119995 63.28861701 68.15304097 61.99609375 69.10546875 C60.99811768 69.82355713 60.99811768 69.82355713 59.97998047 70.55615234 C56.8965451 72.80466489 53.92289959 75.1863828 50.9375 77.5625 C38.82495504 87.08871258 26.55719164 96.37061181 14.10693359 105.45117188 C12.30253316 106.77760482 10.51644632 108.12315503 8.73828125 109.484375 C7.44470703 110.45117188 7.44470703 110.45117188 6.125 111.4375 C5.42632812 111.97246094 4.72765625 112.50742188 4.0078125 113.05859375 C1.31868847 114.31944763 -0.21687677 113.87267423 -3 113 C-4.55999838 111.44000162 -4.1355635 109.93205489 -4.14717102 107.76187134 C-4.15432632 106.84768936 -4.16148163 105.93350739 -4.16885376 104.99162292 C-4.17154266 103.98070084 -4.17423157 102.96977875 -4.17700195 101.92822266 C-4.18357315 100.86975632 -4.19014435 99.81128998 -4.19691467 98.7207489 C-4.21670082 95.20185282 -4.22832116 91.68299948 -4.23828125 88.1640625 C-4.24235678 86.96617474 -4.2464323 85.76828697 -4.25063133 84.53409958 C-4.27151329 78.19591187 -4.28580664 71.85774596 -4.29516602 65.51953125 C-4.30624392 58.95623091 -4.34065402 52.39326836 -4.38033772 45.83008766 C-4.4064184 40.79789579 -4.41485017 35.76578548 -4.41844749 30.73353195 C-4.42333443 28.31332489 -4.4350077 25.89312196 -4.45348549 23.4729805 C-4.47769824 20.09189943 -4.47694457 16.71170667 -4.4699707 13.33056641 C-4.48278076 12.32369278 -4.49559082 11.31681915 -4.50878906 10.2794342 C-4.50184525 9.35961258 -4.49490143 8.43979095 -4.48774719 7.49209595 C-4.49132972 6.29248702 -4.49132972 6.29248702 -4.49498463 5.06864357 C-3.8185397 2.24163971 -2.40853086 1.49101967 0 0 Z " fill="#527DB1" transform="translate(120,56)"/>
<path d="M0 0 C20.79 0 41.58 0 63 0 C61.46954411 3.06091178 60.06646663 5.4208109 58.05859375 8.125 C57.47400391 8.91519531 56.88941406 9.70539062 56.28710938 10.51953125 C55.67673828 11.33808594 55.06636719 12.15664062 54.4375 13 C53.85419922 13.78761719 53.27089844 14.57523438 52.66992188 15.38671875 C52.07630859 16.18722656 51.48269531 16.98773437 50.87109375 17.8125 C50.00189757 19.00629965 50.00189757 19.00629965 49.11514187 20.22421646 C47 23 47 23 44.69236088 25.57702255 C37.71451746 33.7251233 36.71426266 40.46961296 36.88647461 50.77441406 C36.87913403 52.3229854 36.86784052 53.8715422 36.85293579 55.4200592 C36.82385248 59.58727386 36.84945179 63.75250334 36.88552547 67.91959476 C36.91382503 72.28784828 36.89093283 76.65584063 36.87367249 81.02410889 C36.84872797 89.27945382 36.86924296 97.53402256 36.90644604 105.78929591 C36.94659168 115.19454887 36.93551906 124.59952891 36.92032993 134.00482988 C36.89024747 153.33681153 36.9256977 172.66815692 37 192 C33.04 192 29.08 192 25 192 C25.01633987 190.05831436 25.03267975 188.11662872 25.04951477 186.11610413 C25.19535302 167.77028993 25.27297093 149.42528884 25.28240681 131.07888126 C25.28898328 121.6478272 25.31951521 112.21802458 25.40795898 102.78735352 C25.4850538 94.56015229 25.51565666 86.33426199 25.49218339 78.10671133 C25.48134877 73.7561923 25.49260004 69.40843985 25.55968666 65.05836678 C26.57032021 41.813952 26.57032021 41.813952 16.10354328 21.93856144 C14.98707709 20.83945859 13.85436769 19.75657799 12.70497704 18.69195366 C9.62802076 15.63850055 7.205158 12.07799641 4.6875 8.5625 C4.21602633 7.93104285 3.74455267 7.2995857 3.25879192 6.64899349 C0 2.24424076 0 2.24424076 0 0 Z " fill="#F38576" transform="translate(69,0)"/>
<path d="M0 0 C27.72 0 55.44 0 84 0 C84 6.6 84 13.2 84 20 C82.24560837 21.75439163 79.94502544 21.11982963 77.60829163 21.12442017 C76.8357756 21.12082489 76.06325958 21.11722961 75.26733398 21.11352539 C74.05279541 21.11374443 74.05279541 21.11374443 72.8137207 21.1139679 C70.12448492 21.11326854 67.43531751 21.1054751 64.74609375 21.09765625 C62.88664284 21.09579215 61.02719144 21.09436821 59.16773987 21.09336853 C54.26370904 21.08954271 49.35970764 21.07971188 44.45568848 21.06866455 C39.45548908 21.05845181 34.45528494 21.05387121 29.45507812 21.04882812 C19.63670372 21.03808967 9.8183589 21.02049235 0 21 C0 14.07 0 7.14 0 0 Z " fill="#83B8F5" transform="translate(0,119)"/>
<path d="M0 0 C1.80868813 0.00333092 1.80868813 0.00333092 3.65391541 0.00672913 C4.64899864 0.00651009 4.64899864 0.00651009 5.66418457 0.00628662 C7.86644207 0.00698571 10.06861596 0.01477787 12.27085876 0.02259827 C13.79400588 0.02446246 15.31715359 0.02588636 16.84030151 0.02688599 C20.85657903 0.03071105 24.87282059 0.04054124 28.88908386 0.05158997 C32.98443617 0.06180433 37.07979427 0.06638366 41.17515564 0.07142639 C49.21618963 0.08216352 57.25718746 0.09976022 65.29820251 0.12025452 C65.29820251 7.05025452 65.29820251 13.98025452 65.29820251 21.12025452 C56.44937528 21.1428077 47.60056699 21.16117085 38.75171757 21.17206669 C34.64325967 21.17729498 30.53482238 21.18439164 26.42637634 21.19569397 C22.46473423 21.20652477 18.50311199 21.21253176 14.54145622 21.21513176 C13.0267194 21.21698566 11.51198373 21.22060561 9.99725533 21.22598457 C7.88278439 21.23319759 5.76839658 21.23424535 3.65391541 21.23377991 C1.84522728 21.23711082 1.84522728 21.23711082 0 21.24050903 C-2.70179749 21.12025452 -2.70179749 21.12025452 -3.70179749 20.12025452 C-3.8003988 18.71676716 -3.83258685 17.30844975 -3.83460999 15.90150452 C-3.83589905 15.05201233 -3.83718811 14.20252014 -3.83851624 13.32728577 C-3.83464905 12.43396545 -3.83078186 11.54064514 -3.82679749 10.62025452 C-3.83066467 9.7269342 -3.83453186 8.83361389 -3.83851624 7.91322327 C-3.83722717 7.06373108 -3.83593811 6.21423889 -3.83460999 5.33900452 C-3.83348206 4.55460999 -3.83235413 3.77021545 -3.83119202 2.96205139 C-3.61994286 -0.0448612 -3.03601842 0.13513038 0 0 Z " fill="#82B9F5" transform="translate(18.701797485351563,87.87974548339844)"/>
<path d="M0 0 C1.15790039 -0.00315216 2.31580078 -0.00630432 3.50878906 -0.009552 C4.76916992 -0.00752777 6.02955078 -0.00550354 7.328125 -0.00341797 C8.61170898 -0.00437469 9.89529297 -0.00533142 11.21777344 -0.00631714 C13.93816324 -0.00779378 16.65852025 -0.00564066 19.37890625 -0.00097656 C22.87297169 0.00472073 26.36696033 0.00144154 29.86102295 -0.00454903 C33.18339653 -0.00902301 36.50574923 -0.00589432 39.828125 -0.00341797 C41.08850586 -0.0054422 42.34888672 -0.00746643 43.64746094 -0.009552 C44.80536133 -0.00639984 45.96326172 -0.00324768 47.15625 0 C48.18137695 0.00079559 49.20650391 0.00159119 50.26269531 0.00241089 C52.578125 0.12939453 52.578125 0.12939453 53.578125 1.12939453 C53.66481932 2.61811313 53.68515994 4.11083953 53.67578125 5.60205078 C53.67255859 6.50117188 53.66933594 7.40029297 53.66601562 8.32666016 C53.65344727 9.74495117 53.65344727 9.74495117 53.640625 11.19189453 C53.63611328 12.14128906 53.63160156 13.09068359 53.62695312 14.06884766 C53.6151261 16.42242518 53.59864525 18.7758793 53.578125 21.12939453 C45.90275873 21.15252274 38.22739604 21.17031206 30.55200291 21.1812067 C26.98835078 21.18643449 23.42472243 21.19353022 19.86108398 21.20483398 C15.76806403 21.21773629 11.6750692 21.22262359 7.58203125 21.22705078 C5.65394371 21.23479271 5.65394371 21.23479271 3.68690491 21.24269104 C1.91518166 21.24280434 1.91518166 21.24280434 0.10766602 21.24291992 C-1.46119606 21.24625084 -1.46119606 21.24625084 -3.06175232 21.24964905 C-5.421875 21.12939453 -5.421875 21.12939453 -6.421875 20.12939453 C-6.52047631 18.72590718 -6.55266437 17.31758976 -6.5546875 15.91064453 C-6.55597656 15.06115234 -6.55726562 14.21166016 -6.55859375 13.33642578 C-6.55472656 12.44310547 -6.55085938 11.54978516 -6.546875 10.62939453 C-6.55074219 9.73607422 -6.55460937 8.84275391 -6.55859375 7.92236328 C-6.55730469 7.07287109 -6.55601563 6.22337891 -6.5546875 5.34814453 C-6.55355957 4.56375 -6.55243164 3.77935547 -6.55126953 2.97119141 C-6.2725112 -0.99664411 -3.31934774 0.00257612 0 0 Z " fill="#83B8F4" transform="translate(30.421875,149.87060546875)"/>
<path d="M0 0 C0.87760986 -0.00315216 1.75521973 -0.00630432 2.65942383 -0.009552 C3.61357178 -0.00752777 4.56771973 -0.00550354 5.55078125 -0.00341797 C6.52362061 -0.00437469 7.49645996 -0.00533142 8.4987793 -0.00631714 C10.56005925 -0.00699905 12.62134133 -0.00514399 14.68261719 -0.00097656 C17.84965813 0.00437153 21.01655725 -0.00092119 24.18359375 -0.00732422 C26.1809899 -0.00666344 28.17838596 -0.00538228 30.17578125 -0.00341797 C31.1299292 -0.0054422 32.08407715 -0.00746643 33.06713867 -0.009552 C34.38355347 -0.00482376 34.38355347 -0.00482376 35.7265625 0 C36.50298096 0.00079559 37.27939941 0.00159119 38.0793457 0.00241089 C39.86328125 0.12939453 39.86328125 0.12939453 40.86328125 1.12939453 C40.86328125 7.72939453 40.86328125 14.32939453 40.86328125 21.12939453 C25.68328125 21.12939453 10.50328125 21.12939453 -5.13671875 21.12939453 C-5.13671875 0.00526358 -5.13671875 0.00526358 0 0 Z " fill="#83B9F5" transform="translate(43.13671875,55.87060546875)"/>
</svg>
