<?xml version="1.0" encoding="UTF-8"?>
<svg version="1.1" xmlns="http://www.w3.org/2000/svg" width="192" height="192">
<path d="M0 0 C63.36 0 126.72 0 192 0 C192 63.36 192 126.72 192 192 C128.64 192 65.28 192 0 192 C0 128.64 0 65.28 0 0 Z " fill="#4949A4" transform="translate(0,0)"/>
<path d="M0 0 C63.36 0 126.72 0 192 0 C192 63.36 192 126.72 192 192 C128.64 192 65.28 192 0 192 C0 128.64 0 65.28 0 0 Z M45 42 C44.01 42.721875 43.02 43.44375 42 44.1875 C29.31932259 55.00647131 20.43291789 73.59640229 19 90 C17.69826156 115.53719315 22.94286181 135.61688842 40 155 C48.7017854 164.18521793 59.99139985 171.07921099 72 175 C72.81726563 175.29777344 73.63453125 175.59554687 74.4765625 175.90234375 C92.03842726 181.39358965 113.48027854 179.19211603 129.9375 171.16796875 C150.35889886 160.407089 164.18407027 143.37181763 171.578125 121.640625 C173.54508179 114.94337101 173.5339571 108.3113912 173.5 101.375 C173.49856995 100.71180756 173.49713989 100.04861511 173.4956665 99.36532593 C173.43861838 88.68362901 172.50937182 79.73074972 168 70 C167.53078125 68.98421875 167.0615625 67.9684375 166.578125 66.921875 C156.61139055 47.30991366 139.7134093 33.11097537 119 26 C93.29353315 17.62259687 65.19317808 24.51672893 45 42 Z " fill="#434FA6" transform="translate(0,0)"/>
<path d="M0 0 C0 25.41 0 50.82 0 77 C-63.36 77 -126.72 77 -192 77 C-192 52.25 -192 27.5 -192 2 C-187.05 3.65 -182.1 5.3 -177 7 C-174.69 7.66 -172.38 8.32 -170 9 C-168.406293 11.6642888 -167.33439101 13.89316053 -166.25 16.75 C-158.15095807 35.7572564 -143.15216502 49.91921308 -123.98925781 57.83007812 C-104.93675283 64.98485412 -82.61022604 64.37381151 -63.98828125 56.10693359 C-46.81748608 47.73486485 -32.94053288 34.51556296 -25.65234375 16.70703125 C-22.3125234 8.712884 -22.3125234 8.712884 -18.23828125 6.5 C-15.125 5.5 -15.125 5.5 -11.98828125 4.734375 C-8.30904716 3.83019721 -3.51730823 0 0 0 Z " fill="#262626" transform="translate(192,115)"/>
<path d="M0 0 C2.04296875 1.8984375 2.04296875 1.8984375 4.1875 4.375 C4.97382812 5.27734375 5.76015625 6.1796875 6.5703125 7.109375 C8.93463131 9.92223018 11.25444303 12.76588445 13.5625 15.625 C21.43087369 26.05169626 21.43087369 26.05169626 32.74902344 31.41064453 C33.77543945 31.48395996 34.80185547 31.55727539 35.859375 31.6328125 C36.97441406 31.71660156 38.08945313 31.80039063 39.23828125 31.88671875 C40.39714844 31.96535156 41.55601563 32.04398438 42.75 32.125 C43.92433594 32.21136719 45.09867187 32.29773438 46.30859375 32.38671875 C49.20527203 32.59867082 52.10228598 32.80280327 55 33 C54.36771484 33.68835938 54.36771484 33.68835938 53.72265625 34.390625 C53.17480469 35.00421875 52.62695312 35.6178125 52.0625 36.25 C51.51722656 36.85328125 50.97195312 37.4565625 50.41015625 38.078125 C48.93787201 40.08467305 48.42470811 41.57002449 48 44 C49.485 44.495 49.485 44.495 51 45 C56.90068567 41.21586463 61.55798648 35.34429752 66 30 C64.26440562 26.942048 62.61527381 24.36620011 60 22 C60.33 21.34 60.66 20.68 61 20 C61.6290625 20.27714844 62.258125 20.55429688 62.90625 20.83984375 C68.36410208 23.14956729 73.08810648 24.56208196 79 25 C77.89042548 39.05461057 66.02231589 51.17568689 56 60 C52.46028452 62.58330211 48.815037 64.84792785 45 67 C44.30003906 67.39960938 43.60007812 67.79921875 42.87890625 68.2109375 C27.48421896 76.4503476 7.69639622 77.32619173 -9 73 C-29.40814225 66.17060861 -44.62803849 53.62267239 -54.5625 34.5 C-56.38631806 30.82270831 -57 29.19045626 -57 25 C-56.46375 24.87625 -55.9275 24.7525 -55.375 24.625 C-42.34132813 21.19508635 -30.65222912 14.04693816 -19.37890625 6.85742188 C-5.28792227 -2.04010202 -5.28792227 -2.04010202 0 0 Z " fill="#272727" transform="translate(85,98)"/>
<path d="M0 0 C1.42187705 1.19894413 2.81616127 2.43106397 4.1875 3.6875 C5.09113281 4.51121094 5.99476563 5.33492187 6.92578125 6.18359375 C13.15641528 12.12756802 17.98412134 18.18146668 22.1875 25.6875 C22.57421875 26.33976562 22.9609375 26.99203125 23.359375 27.6640625 C29.44054356 38.65694413 30.83962245 50.40906623 30.6875 62.75 C30.71070313 64.6381543 30.71070313 64.6381543 30.734375 66.56445312 C30.65232711 86.43029772 21.33887634 104.14907429 7.8125 118.4375 C3.643614 122.38945301 -0.98686059 125.59194168 -5.8125 128.6875 C-6.61042969 129.21472656 -7.40835938 129.74195313 -8.23046875 130.28515625 C-25.19799879 140.57089927 -47.15644654 142.78013579 -66.26855469 138.1940918 C-87.80988699 132.26311833 -104.84128027 117.97431415 -115.8125 98.6875 C-124.68871762 82.35429739 -126.77174666 61.31100619 -122.5546875 43.171875 C-119.25119147 32.11385672 -114.41440857 23.0510687 -107.8125 13.6875 C-107.33167969 12.99914062 -106.85085937 12.31078125 -106.35546875 11.6015625 C-81.15570363 -20.8307636 -31.59226349 -23.38502066 0 0 Z M-94.8125 7.6875 C-95.93398437 8.68716797 -95.93398437 8.68716797 -97.078125 9.70703125 C-109.8951501 21.80473351 -118.48687395 38.09983192 -119.015625 55.8828125 C-119.30355588 77.67752984 -114.60692148 96.41451041 -99.5078125 113.015625 C-85.14540509 127.17947379 -67.62343172 134.54847415 -47.5625 134.875 C-25.87402396 134.68135289 -8.95778165 126.83278165 6.1875 111.6875 C6.88101563 110.99398437 7.57453125 110.30046875 8.2890625 109.5859375 C13.00540958 104.53716067 16.13892582 98.85533994 19.1875 92.6875 C19.77724609 91.52347656 19.77724609 91.52347656 20.37890625 90.3359375 C27.1840706 76.12293741 27.99658262 55.36472514 23.2890625 40.40625 C15.24833778 20.56105707 2.20882345 4.43322255 -17.5625 -4.5 C-44.00521933 -15.2635428 -73.21097975 -11.68078038 -94.8125 7.6875 Z " fill="#F2F2F5" transform="translate(142.8125,38.3125)"/>
<path d="M0 0 C1.67449219 -0.061875 1.67449219 -0.061875 3.3828125 -0.125 C10.05444868 -0.18793996 14.16095203 0.42847371 19.24194336 4.89379883 C20.0503064 5.68886841 20.0503064 5.68886841 20.875 6.5 C21.47683105 7.05453857 22.07866211 7.60907715 22.69873047 8.18041992 C27.05698463 12.25054139 30.69185827 16.9058221 34.421875 21.54296875 C37.41571595 25.15178659 40.57761375 28.5731543 43.77490234 32.00073242 C47.67101984 36.20566344 51.27072965 40.6101337 54.8046875 45.125 C57.45323594 48.16333482 60.25482703 50.68991351 63.875 52.5 C65.46947464 52.58400529 67.06740545 52.60727467 68.6640625 52.59765625 C70.07558594 52.59282227 70.07558594 52.59282227 71.515625 52.58789062 C72.50046875 52.57951172 73.4853125 52.57113281 74.5 52.5625 C75.49257812 52.55798828 76.48515625 52.55347656 77.5078125 52.54882812 C79.9636016 52.53702145 82.41927104 52.520554 84.875 52.5 C84.0552771 51.63713379 84.0552771 51.63713379 83.21899414 50.75683594 C79.30859375 46.640625 79.30859375 46.640625 77.875 44.5 C78.16015625 42.234375 78.16015625 42.234375 78.875 40.5 C84.38252873 40.76916494 87.02831573 44.12474944 90.625 47.875 C91.21410156 48.46539062 91.80320312 49.05578125 92.41015625 49.6640625 C96.73418445 54.07755335 96.73418445 54.07755335 97.875 57.5 C92.84179794 63.27505724 87.83760189 68.67917294 81.875 73.5 C79.895 72.51 79.895 72.51 77.875 71.5 C78.45075664 68.14749299 79.46806263 66.56181371 81.9375 64.25 C82.75927734 63.46882813 82.75927734 63.46882813 83.59765625 62.671875 C84.01917969 62.28515625 84.44070312 61.8984375 84.875 61.5 C84.17938965 61.46036133 83.4837793 61.42072266 82.76708984 61.37988281 C79.59329258 61.18849274 76.42197111 60.96951357 73.25 60.75 C72.15558594 60.688125 71.06117187 60.62625 69.93359375 60.5625 C63.83942076 60.11928742 59.65018953 59.65464192 54.875 55.5 C54.20855469 54.92121094 53.54210937 54.34242187 52.85546875 53.74609375 C48.32875085 49.17992733 44.25053009 44.36814315 40.2265625 39.35546875 C37.07610277 35.5299105 33.71907828 31.91485503 30.359375 28.2734375 C27.84302304 25.46430245 25.47874092 22.57112538 23.125 19.625 C18.22114723 13.57288594 13.51853979 8.22110977 5.37963867 7.18115234 C4.5260376 7.14973145 3.67243652 7.11831055 2.79296875 7.0859375 C1.86162109 7.04726562 0.93027344 7.00859375 -0.02929688 6.96875 C-0.98900391 6.9378125 -1.94871094 6.906875 -2.9375 6.875 C-3.91654297 6.83632812 -4.89558594 6.79765625 -5.90429688 6.7578125 C-8.31101374 6.66389184 -10.71773012 6.57821799 -13.125 6.5 C-13.75 4.625 -13.75 4.625 -14.125 2.5 C-10.51219132 -1.11280868 -4.88663367 0.04422293 0 0 Z " fill="#F5F6F7" transform="translate(54.125,70.5)"/>
<path d="M0 0 C14.42757031 0.78205521 30.14688063 6.0078252 41 16 C41.6875 18.9375 41.6875 18.9375 42 22 C43.33675019 23.88578793 43.33675019 23.88578793 45.01953125 25.69140625 C45.57358643 26.31345947 46.1276416 26.9355127 46.69848633 27.57641602 C47.12798584 28.04619873 47.55748535 28.51598145 48 29 C44.45861382 29.11681812 40.9177276 29.187455 37.375 29.25 C36.37597656 29.28351563 35.37695312 29.31703125 34.34765625 29.3515625 C28.33752261 29.43116692 24.67765096 29.16416447 20 25 C18.29734185 23.30523671 16.65100736 21.55219636 15.0625 19.75 C13.77859375 18.30173828 13.77859375 18.30173828 12.46875 16.82421875 C11.6540625 15.89222656 10.839375 14.96023437 10 14 C9.3090625 13.22269531 8.618125 12.44539063 7.90625 11.64453125 C0 2.71649894 0 2.71649894 0 0 Z " fill="#282828" transform="translate(92,95)"/>
<path d="M0 0 C5.72996169 0.16433925 8.62475092 4.17726075 12.3125 8.0625 C12.95767578 8.72572266 13.60285156 9.38894531 14.26757812 10.07226562 C15.85447018 11.70617671 17.43126328 13.34868147 19 15 C16.90308431 19.64080887 13.67171494 22.73327953 10.125 26.3125 C9.49980469 26.97056641 8.87460938 27.62863281 8.23046875 28.30664062 C7.62074219 28.92345703 7.01101562 29.54027344 6.3828125 30.17578125 C5.82996582 30.74208252 5.27711914 31.30838379 4.70751953 31.8918457 C3 33 3 33 0.78857422 32.67651367 C-0.09677002 32.3416394 -0.09677002 32.3416394 -1 32 C-0.55491959 26.95575532 1.60980925 24.55556591 5 21 C5.66 21 6.32 21 7 21 C7 20.34 7 19.68 7 19 C3.62377072 19.05217727 0.25004113 19.14732018 -3.125 19.25 C-4.55199219 19.27126953 -4.55199219 19.27126953 -6.0078125 19.29296875 C-16.25292834 19.64870194 -21.26748352 24.7836271 -28 32 C-29.72062549 33.96524453 -31.36773143 35.95966429 -33 38 C-34.32 37.34 -35.64 36.68 -37 36 C-37 30.63592465 -34.90711184 28.94873694 -31.5 25.0625 C-30.9946875 24.45470703 -30.489375 23.84691406 -29.96875 23.22070312 C-24.58827117 16.98607328 -19.61007115 12.92928937 -11.1875 12.29296875 C-9.1255472 12.23386819 -7.06276689 12.19911759 -5 12.1875 C-3.40865234 12.14979492 -3.40865234 12.14979492 -1.78515625 12.11132812 C0.81026955 12.05287259 3.40402503 12.01628872 6 12 C5.48308594 11.46890625 4.96617187 10.9378125 4.43359375 10.390625 C3.77488281 9.68421875 3.11617187 8.9778125 2.4375 8.25 C1.77621094 7.55390625 1.11492187 6.8578125 0.43359375 6.140625 C-1 4 -1 4 -0.71484375 1.734375 C-0.47894531 1.16203125 -0.24304688 0.5896875 0 0 Z " fill="#F5F5FA" transform="translate(133,58)"/>
<path d="M0 0 C1.32 0.33 2.64 0.66 4 1 C4.64257812 2.79516602 4.64257812 2.79516602 5 5 C3.25015603 7.51390255 1.53225587 9.67387228 -0.5 11.9375 C-1.27730469 12.84918945 -1.27730469 12.84918945 -2.0703125 13.77929688 C-3.65496587 15.58837775 -5.29713523 17.30213116 -7 19 C-7.48799072 19.50958252 -7.97598145 20.01916504 -8.47875977 20.54418945 C-14.08752985 25.50894076 -20.84686408 24.55418397 -27.9375 24.3125 C-29.19369141 24.28994141 -30.44988281 24.26738281 -31.74414062 24.24414062 C-34.83066415 24.18546147 -37.91470486 24.10340527 -41 24 C-41.625 22.125 -41.625 22.125 -42 20 C-39.50032336 17.50032336 -38.65565048 17.74015453 -35.203125 17.69140625 C-34.2440625 17.66626953 -33.285 17.64113281 -32.296875 17.61523438 C-30.28130963 17.58034959 -28.26567886 17.54904248 -26.25 17.52148438 C-19.0819072 17.32503263 -14.64117101 16.53430282 -9.296875 11.40625 C-8.45640625 10.4471875 -7.6159375 9.488125 -6.75 8.5 C-5.89921875 7.5409375 -5.0484375 6.581875 -4.171875 5.59375 C-1.9269631 3.00840321 -1.9269631 3.00840321 0 0 Z " fill="#F4F4F4" transform="translate(82,106)"/>
</svg>
