<svg version="1.1" id="Layer_1" xmlns="http://www.w3.org/2000/svg" xmlns:xlink="http://www.w3.org/1999/xlink" x="0px" y="0px"
	 width="100%" viewBox="0 0 1074 804" enable-background="new 0 0 1074 804" xml:space="preserve">
<path fill="#FEFEFE" opacity="1.000000" stroke="none" 
	d="
M594.000000,805.000000 
	C396.000000,805.000000 198.500031,805.000000 1.000026,805.000000 
	C1.000018,537.000000 1.000018,269.000061 1.000009,1.000062 
	C358.999969,1.000042 716.999939,1.000042 1075.000000,1.000021 
	C1075.000000,268.999939 1075.000000,536.999878 1075.000000,804.999878 
	C914.833313,805.000000 754.666687,805.000000 594.000000,805.000000 
M567.262634,500.730835 
	C567.262634,500.730835 567.233826,500.376801 567.953857,500.429535 
	C568.766174,499.883606 569.671570,499.437103 570.377319,498.777222 
	C587.748718,482.535645 605.171021,466.347321 622.412964,449.969116 
	C628.280579,444.395416 633.684692,438.333893 639.503967,432.283905 
	C638.127502,430.972870 636.595947,429.473022 635.020813,428.020325 
	C619.370728,413.586090 603.734070,399.137207 588.048462,384.741608 
	C581.462769,378.697540 574.769470,372.770813 567.974060,366.348206 
	C567.784973,366.066528 567.520935,365.919739 567.155396,365.332916 
	C566.622986,365.064850 566.090576,364.796814 565.558167,364.528778 
	C565.571167,365.038635 565.584167,365.548492 565.342224,366.959778 
	C565.445740,378.503235 565.549255,390.046722 564.832581,402.023529 
	C562.883484,402.257568 560.934570,402.694336 558.985352,402.695618 
	C522.039185,402.720337 485.092957,402.676025 448.146881,402.731415 
	C446.364441,402.734100 444.583221,403.520630 442.429901,404.362549 
	C442.477936,404.543274 442.525970,404.723999 442.205109,405.650696 
	C442.179016,422.946777 442.295868,440.245087 442.027283,457.537384 
	C441.959290,461.914276 443.112762,463.105469 447.575378,463.079926 
	C485.161926,462.864410 522.750183,462.892029 560.337402,463.016327 
	C562.080383,463.022095 563.818054,464.640594 565.333801,466.352325 
	C565.422058,477.881256 565.510254,489.410217 565.153198,501.273224 
	C565.501831,501.671600 565.850525,502.069946 566.199280,502.468323 
	C566.477478,501.979767 566.755676,501.491211 567.262634,500.730835 
M354.498108,721.314392 
	C354.536530,711.327271 354.601868,701.340210 354.605865,691.353088 
	C354.609924,681.255615 353.963074,682.052734 363.649780,682.103149 
	C366.093262,682.115906 368.536865,682.105103 371.097656,682.105103 
	C371.097656,678.880615 371.097656,676.287659 371.097656,672.970825 
	C357.327728,672.970825 343.886780,672.925049 330.448151,673.079346 
	C329.601807,673.089050 328.275604,674.532104 328.020752,675.525757 
	C326.764618,680.423950 328.151367,681.975769 333.480011,682.083374 
	C344.637756,682.308472 344.641266,682.308533 344.646790,693.563416 
	C344.651733,703.664368 344.647827,713.765259 344.647827,724.944763 
	C348.361206,724.173218 351.182037,723.587097 354.267609,722.529297 
	C354.207520,722.359375 354.147400,722.189392 354.498108,721.314392 
M379.695923,723.499084 
	C382.751801,723.850281 385.807678,724.201416 389.790894,724.659180 
	C389.790894,713.133728 389.790894,702.753296 389.790894,692.372925 
	C391.790985,693.345581 392.700500,694.454346 393.292603,695.712524 
	C395.971558,701.405090 398.332428,707.262146 401.295685,712.798889 
	C402.466003,714.985596 404.710144,717.534973 406.838074,717.934631 
	C408.202942,718.191040 410.787781,715.107727 411.886200,713.025879 
	C414.979218,707.163330 417.534546,701.019531 420.420105,695.043701 
	C421.184967,693.459717 421.610138,690.635437 424.318634,693.674500 
	C424.379181,694.842163 424.439697,696.009766 424.066711,697.825989 
	C424.066711,706.610229 424.066711,715.394409 424.066711,724.215759 
	C427.347198,724.215759 430.367737,724.215759 433.602173,724.215759 
	C433.602173,709.904968 433.702148,696.086121 433.569580,682.269531 
	C433.468811,671.767090 435.477722,672.889771 423.881409,672.993530 
	C422.319946,673.007507 420.174225,674.399719 419.341156,675.781860 
	C417.380035,679.035400 416.108887,682.697510 414.448059,686.141113 
	C412.111450,690.985901 409.674866,695.782471 406.718079,701.732544 
	C405.177734,699.149536 404.283112,697.840088 403.578644,696.435242 
	C400.449829,690.195679 397.463226,683.883362 394.254761,677.685547 
	C391.496735,672.357910 385.876556,670.991455 379.700165,674.890625 
	C379.767273,690.917969 379.834412,706.945251 379.695923,723.499084 
M630.378662,716.236694 
	C630.378662,718.819214 630.378662,721.401733 630.378662,724.465576 
	C632.852600,724.465576 635.090759,724.861328 637.075195,724.322510 
	C638.336365,723.980103 640.124939,722.259094 640.137085,721.139648 
	C640.298218,706.328430 640.228149,691.513855 640.066223,676.701782 
	C640.052490,675.440369 639.297302,673.520813 638.329590,673.048828 
	C633.581909,670.732910 626.833679,673.480042 624.445801,678.396790 
	C623.792664,679.741577 623.220398,681.125916 622.557800,682.465881 
	C619.501221,688.646912 616.425842,694.818604 612.835449,702.043396 
	C611.354675,699.598206 610.328491,698.186646 609.591858,696.637451 
	C606.740540,690.640625 604.140198,684.518372 601.105408,678.618164 
	C599.983154,676.436340 598.222107,673.523254 596.233887,673.028992 
	C587.313110,670.810852 585.517883,672.476746 585.506897,681.513550 
	C585.501282,686.174133 585.481995,690.834717 585.479797,695.495300 
	C585.475403,704.936340 585.478516,714.377441 585.478516,724.086975 
	C588.995300,724.086975 592.060791,724.086975 595.876953,724.086975 
	C595.876953,713.516907 595.876953,703.220459 595.876953,692.924072 
	C596.365784,692.809143 596.854553,692.694275 597.343384,692.579346 
	C600.723694,699.273682 603.969421,706.041565 607.562195,712.619873 
	C608.718323,714.736572 610.789307,716.353699 612.441772,718.199341 
	C614.371765,716.417175 616.905396,714.969971 618.115723,712.788574 
	C621.416687,706.839539 624.128967,700.565674 627.143494,694.454529 
	C627.906677,692.907349 628.593262,690.592590 630.746704,693.928101 
	C630.761597,701.181824 630.776428,708.435608 630.378662,716.236694 
M101.084526,494.500000 
	C101.091225,516.826660 101.031097,539.153687 101.159340,561.479675 
	C101.185928,566.108276 101.472748,570.821655 102.386734,575.344971 
	C108.280716,604.514465 131.014526,622.917603 160.916336,622.920166 
	C220.066467,622.925110 279.216644,622.943665 338.366608,622.832275 
	C343.645660,622.822327 348.999908,622.314148 354.188019,621.338989 
	C379.085052,616.659485 399.305389,592.377319 399.176544,564.920166 
	C398.753662,474.780701 399.015442,384.638092 398.951202,294.496704 
	C398.948517,290.702484 398.594269,286.859558 397.933044,283.122620 
	C393.165405,256.178436 370.530762,237.040680 343.303986,237.015945 
	C281.154785,236.959457 219.003845,236.737991 156.857086,237.132324 
	C135.154190,237.270035 119.095451,248.314407 108.157021,266.807617 
	C102.476128,276.412079 101.182953,287.206818 101.161819,298.054779 
	C101.034912,363.202972 101.090538,428.351562 101.084526,494.500000 
M873.500244,622.917908 
	C886.831909,622.919556 900.164612,623.016479 913.494629,622.867981 
	C917.792542,622.820190 922.153564,622.488403 926.365906,621.670044 
	C954.165771,616.268738 972.943237,593.441589 972.955688,565.033264 
	C972.995361,474.543365 972.984070,384.053467 972.937866,293.563599 
	C972.936340,290.602356 972.494080,287.616089 972.002197,284.684296 
	C967.329163,256.828918 944.123901,237.070419 915.826233,237.039047 
	C854.499817,236.971085 793.173218,237.056473 731.846802,236.987167 
	C698.654053,236.949661 674.519348,265.902405 674.718811,294.069305 
	C675.358521,384.388123 674.957947,474.714203 675.028137,565.037415 
	C675.031372,569.162231 675.189026,573.413879 676.160706,577.389893 
	C681.514648,599.297058 694.460388,614.606384 716.689392,620.172729 
	C725.733093,622.437378 735.422729,622.638794 744.835754,622.806274 
	C765.443115,623.173157 786.062134,623.008728 806.675232,622.882080 
	C818.147156,622.811584 829.616699,622.181763 841.087646,622.171814 
	C851.558350,622.162659 862.029541,622.649170 873.500244,622.917908 
M311.122803,673.760864 
	C310.994446,676.908875 310.813110,680.055725 310.747040,683.205017 
	C310.485840,695.657532 312.265503,693.875488 299.740723,694.004150 
	C286.289917,694.142456 286.289276,694.079163 286.377319,680.862305 
	C286.435944,672.059387 286.306458,671.936829 277.421631,672.900574 
	C276.981689,672.948364 276.579346,673.342773 276.176025,673.566650 
	C276.176025,690.397156 276.176025,707.137939 276.176025,723.901245 
	C279.677460,723.901245 282.869812,723.901245 286.289764,723.901245 
	C286.289764,718.087219 286.410614,712.764343 286.244019,707.450378 
	C286.145477,704.307373 287.139862,702.890869 290.489960,703.011047 
	C295.809631,703.201904 301.145203,703.181335 306.466370,703.011047 
	C309.504852,702.913818 310.615387,704.081909 310.543396,707.071045 
	C310.408478,712.673889 310.504547,718.282288 310.504547,723.931030 
	C314.250702,723.931030 317.443878,723.931030 321.085510,723.931030 
	C321.085510,709.339172 321.083008,695.212402 321.086395,681.085632 
	C321.088531,672.272034 321.067902,672.249146 312.116821,673.018311 
	C311.957031,673.032043 311.804321,673.128906 311.122803,673.760864 
M712.060547,706.797424 
	C706.857666,691.743042 716.019592,678.882080 730.155640,681.851685 
	C733.981628,682.655396 737.395874,685.418823 741.470093,687.526367 
	C742.985718,686.172668 744.933289,684.433228 746.847534,682.723511 
	C740.612854,673.820984 729.626099,670.072510 719.327026,673.101135 
	C708.760193,676.208496 700.593750,685.968994 699.998413,696.202881 
	C699.307678,708.075806 704.984253,717.694946 715.698181,722.807007 
	C725.209717,727.345398 738.804749,725.308594 746.533386,718.081604 
	C747.442566,717.231445 748.456848,715.928528 748.493774,714.805054 
	C748.688293,708.881348 748.584900,702.947815 748.584900,696.830444 
	C740.812012,696.830444 733.911011,696.830444 726.911194,696.830444 
	C726.911194,699.387085 726.911194,701.639832 726.911194,704.268555 
	C730.945312,704.268555 734.716553,704.268555 738.373779,704.268555 
	C740.531067,711.811829 739.203247,714.262939 732.206360,715.682556 
	C723.827759,717.382446 717.105530,714.826477 712.060547,706.797424 
M794.122742,698.641846 
	C794.617859,695.174622 793.198059,693.915527 789.653381,694.052429 
	C783.835571,694.277039 777.997986,693.936646 772.174072,694.068665 
	C766.775085,694.191101 768.323486,690.291382 768.108826,687.428528 
	C767.885986,684.455688 767.830566,681.764771 772.251038,681.928284 
	C778.902344,682.174255 785.575012,681.833557 792.227356,682.064270 
	C795.800049,682.188232 796.407654,680.496155 796.291809,677.510498 
	C796.187317,674.820007 796.250061,672.688232 792.409912,672.774963 
	C782.257996,673.004150 772.097473,672.923828 761.941345,672.840698 
	C759.428894,672.820190 758.256958,673.665833 758.250671,676.247559 
	C758.213684,691.398621 758.078979,706.549805 758.157837,721.699951 
	C758.162964,722.689209 759.657654,724.515808 760.481628,724.528625 
	C772.428040,724.713989 784.378235,724.655640 796.196777,724.655640 
	C797.504761,715.419373 796.852722,714.761292 788.753052,715.272888 
	C783.607178,715.597839 778.425720,715.426880 773.292297,715.859314 
	C768.944580,716.225586 767.536316,714.364929 768.078796,710.367737 
	C768.101013,710.203918 768.087524,710.035156 768.089355,709.868652 
	C768.168213,702.693359 768.168213,702.685974 775.148010,702.682800 
	C780.309753,702.680481 785.474854,702.592773 790.631714,702.756470 
	C793.164612,702.836853 794.464844,702.111572 794.122742,698.641846 
M695.375427,715.679810 
	C690.326843,703.402466 685.298828,691.116638 680.216248,678.853455 
	C678.827026,675.501587 677.706421,672.580200 672.684998,672.514221 
	C667.624084,672.447693 666.059265,674.918213 664.580261,678.688721 
	C661.482666,686.585754 658.286682,694.444946 655.051147,702.286682 
	C652.098145,709.443604 649.039734,716.557068 645.993164,723.771667 
	C655.150940,725.740906 656.214966,725.333191 659.465698,717.360168 
	C660.666138,714.416016 662.288086,713.251648 665.442871,713.409668 
	C669.928406,713.634277 674.450073,713.695007 678.925598,713.384399 
	C682.506897,713.135803 684.306946,714.318665 685.513306,717.792786 
	C687.975891,724.885193 690.541687,725.849670 698.179565,723.367432 
	C697.348450,721.038940 696.517517,718.710876 695.375427,715.679810 
M445.357117,696.498108 
	C445.318085,704.645447 445.170380,712.795166 445.352051,720.937561 
	C445.380737,722.222900 446.873505,724.558960 447.730225,724.578064 
	C458.818878,724.826050 469.914917,724.742371 480.867523,724.742371 
	C482.372528,715.592407 481.753235,714.875793 473.709808,715.202393 
	C469.725433,715.364258 465.719360,715.212830 461.753601,715.556030 
	C456.828430,715.982361 455.438812,713.790222 455.545929,709.136841 
	C455.790863,698.499146 455.488403,687.849487 455.674438,677.209351 
	C455.740173,673.450439 454.038879,672.695984 450.821686,672.884583 
	C447.951660,673.052795 445.075500,672.507996 445.271149,677.041748 
	C445.536163,683.183533 445.338257,689.345276 445.357117,696.498108 
M516.225586,714.501099 
	C521.804504,711.553040 527.477600,708.764099 532.901917,705.554626 
	C534.419800,704.656433 535.713562,702.663208 536.207764,700.916931 
	C536.970398,698.222107 535.548584,696.387756 532.835815,695.167786 
	C526.652222,692.387024 520.593933,689.323425 514.525208,686.293701 
	C511.991516,685.028748 509.560638,683.557800 506.927551,682.094116 
	C505.121765,687.895203 506.230804,691.078918 511.415863,693.085693 
	C516.025330,694.869690 520.200195,697.776794 525.897522,700.922974 
	C519.828735,704.132507 515.350891,706.525024 510.850616,708.874512 
	C505.102234,711.875610 504.768127,712.705627 506.939697,719.686707 
	C509.869324,718.067261 512.738220,716.481323 516.225586,714.501099 
M563.548950,694.502014 
	C563.548950,704.258179 563.548950,714.014343 563.548950,724.083740 
	C566.928833,724.083740 569.983887,724.083740 573.534302,724.083740 
	C573.534302,707.751282 573.651428,691.691589 573.457520,675.635681 
	C573.404602,671.258423 569.532532,673.301941 567.264587,672.898926 
	C564.943665,672.486633 563.465088,673.290833 563.514404,676.066406 
	C563.617798,681.876709 563.553772,687.689941 563.548950,694.502014 
z"/>
<path fill="#9FD2EF" opacity="1.000000" stroke="none" 
	d="
M101.084763,494.000000 
	C101.090538,428.351562 101.034912,363.202972 101.161819,298.054779 
	C101.182953,287.206818 102.476128,276.412079 108.157021,266.807617 
	C119.095451,248.314407 135.154190,237.270035 156.857086,237.132324 
	C219.003845,236.737991 281.154785,236.959457 343.303986,237.015945 
	C370.530762,237.040680 393.165405,256.178436 397.933044,283.122620 
	C398.594269,286.859558 398.948517,290.702484 398.951202,294.496704 
	C399.015442,384.638092 398.753662,474.780701 399.176544,564.920166 
	C399.305389,592.377319 379.085052,616.659485 354.188019,621.338989 
	C348.999908,622.314148 343.645660,622.822327 338.366608,622.832275 
	C279.216644,622.943665 220.066467,622.925110 160.916336,622.920166 
	C131.014526,622.917603 108.280716,604.514465 102.386734,575.344971 
	C101.472748,570.821655 101.185928,566.108276 101.159340,561.479675 
	C101.031097,539.153687 101.091225,516.826660 101.084763,494.000000 
M151.313309,341.275818 
	C150.923294,344.587708 150.646698,347.917877 150.117203,351.207336 
	C149.281326,356.400360 151.518921,357.580780 156.487854,357.571014 
	C218.980576,357.448486 281.473724,357.543335 343.966766,357.570190 
	C345.568268,357.570862 347.169830,357.431152 349.634949,357.316864 
	C349.097748,351.751434 348.615906,346.759399 347.372894,341.475616 
	C346.835938,341.531128 346.299011,341.586639 345.274231,341.378326 
	C344.928650,341.471924 344.583069,341.565552 343.452759,341.468048 
	C342.654266,341.512848 341.855743,341.557648 340.432159,341.218994 
	C338.269135,341.349030 336.106140,341.479065 333.022705,341.452515 
	C280.194092,341.434601 227.365463,341.413147 174.536850,341.402771 
	C167.053360,341.401306 159.569870,341.453766 151.313309,341.275818 
M226.500000,315.929443 
	C260.328674,315.935303 294.157349,315.944489 327.986023,315.943817 
	C333.818481,315.943695 339.656860,316.033936 345.478516,315.771851 
	C346.693512,315.717133 348.801971,314.361877 348.868256,313.483002 
	C349.212433,308.920258 349.028442,304.317688 349.028442,299.230988 
	C345.123291,299.230988 341.990997,299.230316 338.858734,299.231049 
	C279.700531,299.244812 220.542313,299.273438 161.384094,299.259857 
	C149.955826,299.257233 150.111252,299.183685 149.921066,310.850128 
	C149.856644,314.802155 151.047943,315.974243 155.010574,315.949341 
	C178.506165,315.801788 202.003357,315.908203 226.500000,315.929443 
M160.566223,381.498566 
	C149.883072,381.478577 149.883072,381.478577 149.966980,391.944763 
	C150.020157,398.576813 150.020142,398.627167 156.513412,398.628998 
	C192.118744,398.639069 227.724091,398.642029 263.329407,398.603699 
	C275.017242,398.591125 274.828491,398.528259 275.013947,387.082184 
	C275.084778,382.709686 273.771271,381.395996 269.361084,381.415527 
	C233.423523,381.574707 197.484940,381.500580 160.566223,381.498566 
M241.439453,524.112122 
	C253.602676,489.712372 265.765900,455.312592 278.070251,420.513733 
	C276.129791,420.339447 275.001160,420.168976 273.869659,420.147125 
	C261.537781,419.908997 261.346649,419.845398 257.103607,431.435150 
	C245.850571,462.172607 234.763397,492.970886 223.656464,523.761597 
	C222.457184,527.086304 221.560989,530.520264 220.342484,534.496521 
	C223.266785,534.496521 225.405029,534.489075 227.543228,534.497864 
	C237.891418,534.540405 237.891418,534.541931 241.439453,524.112122 
M311.012329,503.399567 
	C321.097900,497.579010 331.197144,491.781982 341.264160,485.929504 
	C347.819122,482.118744 347.651428,471.448914 340.985626,467.652405 
	C330.011353,461.402069 319.027161,455.168945 308.022461,448.972321 
	C301.575287,445.341888 295.080353,441.796173 288.053284,437.905884 
	C288.053284,444.352081 287.106110,450.171906 288.452698,455.401062 
	C289.126373,458.017029 293.941742,459.624512 296.968384,461.555634 
	C298.922852,462.802673 301.044647,463.784607 303.066986,464.928558 
	C309.942444,468.817810 316.807037,472.726196 324.481659,477.084991 
	C322.274170,478.435272 321.073395,479.219299 319.827667,479.923889 
	C310.122742,485.412628 300.379822,490.835510 290.733521,496.425201 
	C289.459351,497.163513 287.864441,498.678345 287.786499,499.919495 
	C287.457733,505.155426 287.647308,510.423889 287.647308,517.139709 
	C295.963898,512.250183 303.173096,508.011719 311.012329,503.399567 
M173.337082,495.080353 
	C185.689804,502.233978 198.042526,509.387604 211.076370,516.935669 
	C211.299347,514.498047 211.300369,513.512695 211.489792,512.565002 
	C213.703827,501.487457 209.500641,494.822876 198.736389,490.693817 
	C190.547150,487.552490 183.211487,482.185974 174.688950,477.351685 
	C177.297195,475.647369 178.998306,474.398621 180.822281,473.367126 
	C189.793564,468.293823 198.815308,463.309509 207.768707,458.205170 
	C208.976898,457.516388 210.756958,456.372833 210.811615,455.360962 
	C211.110870,449.821198 210.954224,444.256836 210.954224,437.711029 
	C192.025620,448.696289 173.765503,459.141663 155.697586,469.909515 
	C152.146255,472.026001 153.569916,483.501984 157.230637,485.669922 
	C162.371277,488.714172 167.526901,491.733154 173.337082,495.080353 
z"/>
<path fill="#C2DBB0" opacity="1.000000" stroke="none" 
	d="
M873.000366,622.917603 
	C862.029541,622.649170 851.558350,622.162659 841.087646,622.171814 
	C829.616699,622.181763 818.147156,622.811584 806.675232,622.882080 
	C786.062134,623.008728 765.443115,623.173157 744.835754,622.806274 
	C735.422729,622.638794 725.733093,622.437378 716.689392,620.172729 
	C694.460388,614.606384 681.514648,599.297058 676.160706,577.389893 
	C675.189026,573.413879 675.031372,569.162231 675.028137,565.037415 
	C674.957947,474.714203 675.358521,384.388123 674.718811,294.069305 
	C674.519348,265.902405 698.654053,236.949661 731.846802,236.987167 
	C793.173218,237.056473 854.499817,236.971085 915.826233,237.039047 
	C944.123901,237.070419 967.329163,256.828918 972.002197,284.684296 
	C972.494080,287.616089 972.936340,290.602356 972.937866,293.563599 
	C972.984070,384.053467 972.995361,474.543365 972.955688,565.033264 
	C972.943237,593.441589 954.165771,616.268738 926.365906,621.670044 
	C922.153564,622.488403 917.792542,622.820190 913.494629,622.867981 
	C900.164612,623.016479 886.831909,622.919556 873.000366,622.917603 
M843.883484,558.892212 
	C865.201233,558.902161 886.519348,558.990417 907.836609,558.891479 
	C919.857483,558.835693 928.909058,549.601868 928.999451,537.589661 
	C929.054626,530.261963 929.187195,522.928406 928.965149,515.607239 
	C928.800232,510.172150 928.121094,504.752716 928.355896,498.743256 
	C928.575623,497.623291 928.987244,496.503418 928.987610,495.383392 
	C929.004700,436.886932 929.012451,378.390442 928.944519,319.894043 
	C928.934692,311.417328 922.186096,302.537842 913.795532,301.136749 
	C906.812927,299.970825 899.580505,300.027039 892.458008,300.016724 
	C841.961182,299.943665 791.463623,300.122833 740.967651,299.907501 
	C729.074829,299.856781 718.715027,310.736389 718.795227,321.898743 
	C719.253784,385.724854 718.995789,449.556091 719.035461,513.385559 
	C719.036621,515.296570 719.636841,517.207275 719.731079,519.891724 
	C719.830688,527.962219 719.022156,536.177368 720.277649,544.063843 
	C721.613831,552.457275 730.305542,558.801880 738.682983,558.818970 
	C773.439514,558.889954 808.196350,558.779785 843.883484,558.892212 
z"/>
<path fill="#283A52" opacity="1.000000" stroke="none" 
	d="
M568.125061,366.790741 
	C574.769470,372.770813 581.462769,378.697540 588.048462,384.741608 
	C603.734070,399.137207 619.370728,413.586090 635.020813,428.020325 
	C636.595947,429.473022 638.127502,430.972870 639.503967,432.283905 
	C633.684692,438.333893 628.280579,444.395416 622.412964,449.969116 
	C605.171021,466.347321 587.748718,482.535645 570.377319,498.777222 
	C569.671570,499.437103 568.766174,499.883606 567.554932,499.910767 
	C567.111816,488.779938 567.094788,478.167511 566.960999,467.556549 
	C566.952332,466.867920 566.046631,466.190552 565.558167,465.507996 
	C563.818054,464.640594 562.080383,463.022095 560.337402,463.016327 
	C522.750183,462.892029 485.161926,462.864410 447.575378,463.079926 
	C443.112762,463.105469 441.959290,461.914276 442.027283,457.537384 
	C442.295868,440.245087 442.179016,422.946777 442.885101,405.322205 
	C483.269073,404.993683 522.973022,404.993683 562.677002,404.993683 
	C562.676025,404.643158 562.674988,404.292664 562.673950,403.942139 
	C522.716431,403.942139 482.758942,403.942139 442.801422,403.942139 
	C444.583221,403.520630 446.364441,402.734100 448.146881,402.731415 
	C485.092957,402.676025 522.039185,402.720337 558.985352,402.695618 
	C560.934570,402.694336 562.883484,402.257568 565.510986,401.999756 
	C566.470764,400.704498 566.986511,399.434662 566.995483,398.161285 
	C567.054565,389.769135 566.931030,381.375275 567.042480,372.984283 
	C567.069946,370.915344 567.746765,368.855011 568.125061,366.790741 
z"/>
<path fill="#32425A" opacity="1.000000" stroke="none" 
	d="
M630.953186,693.012024 
	C628.593262,690.592590 627.906677,692.907349 627.143494,694.454529 
	C624.128967,700.565674 621.416687,706.839539 618.115723,712.788574 
	C616.905396,714.969971 614.371765,716.417175 612.441772,718.199341 
	C610.789307,716.353699 608.718323,714.736572 607.562195,712.619873 
	C603.969421,706.041565 600.723694,699.273682 597.343384,692.579346 
	C596.854553,692.694275 596.365784,692.809143 595.876953,692.924072 
	C595.876953,703.220459 595.876953,713.516907 595.876953,724.086975 
	C592.060791,724.086975 588.995300,724.086975 585.478516,724.086975 
	C585.478516,714.377441 585.475403,704.936340 585.479797,695.495300 
	C585.481995,690.834717 585.501282,686.174133 585.506897,681.513550 
	C585.517883,672.476746 587.313110,670.810852 596.233887,673.028992 
	C598.222107,673.523254 599.983154,676.436340 601.105408,678.618164 
	C604.140198,684.518372 606.740540,690.640625 609.591858,696.637451 
	C610.328491,698.186646 611.354675,699.598206 612.835449,702.043396 
	C616.425842,694.818604 619.501221,688.646912 622.557800,682.465881 
	C623.220398,681.125916 623.792664,679.741577 624.445801,678.396790 
	C626.833679,673.480042 633.581909,670.732910 638.329590,673.048828 
	C639.297302,673.520813 640.052490,675.440369 640.066223,676.701782 
	C640.228149,691.513855 640.298218,706.328430 640.137085,721.139648 
	C640.124939,722.259094 638.336365,723.980103 637.075195,724.322510 
	C635.090759,724.861328 632.852600,724.465576 630.378662,724.465576 
	C630.378662,721.401733 630.378662,718.819214 630.709106,716.369995 
	C631.170105,717.965271 631.300537,719.427246 631.430969,720.889160 
	C632.043335,713.752869 632.127625,706.667053 631.993286,699.585327 
	C631.951660,697.388428 631.316589,695.202820 630.953186,693.012024 
M637.669128,721.510315 
	C637.669128,716.372253 637.669128,711.234192 637.669128,706.096069 
	C637.400452,706.096985 637.131714,706.097961 636.863037,706.098877 
	C636.863037,711.348450 636.863037,716.598022 636.199036,721.910828 
	C635.439636,722.045593 634.680237,722.180298 633.920837,722.315002 
	C633.990051,722.576477 634.059326,722.837952 634.128601,723.099426 
	C635.129700,722.791321 636.130798,722.483276 637.669128,721.510315 
M588.040649,707.494141 
	C588.040649,697.027832 588.040649,686.561462 588.040649,676.095154 
	C587.799438,676.099854 587.558289,676.104553 587.317078,676.109192 
	C587.317078,691.524536 587.317078,706.939819 587.317078,722.304321 
	C593.196228,723.368164 593.196228,723.368164 593.383179,720.781616 
	C592.211609,721.096680 590.749268,721.879883 589.444580,721.672180 
	C588.816284,721.572266 588.144775,719.622253 588.084229,718.478699 
	C587.908447,715.157715 588.031616,711.820862 588.040649,707.494141 
M592.961975,696.718018 
	C592.961975,702.481140 592.961975,708.244324 592.961975,714.007446 
	C593.209045,714.005066 593.456177,714.002747 593.703247,714.000366 
	C593.703247,706.319763 593.703247,698.639160 593.703247,690.958618 
	C593.455261,690.952454 593.207275,690.946228 592.959290,690.940063 
	C592.959290,692.559204 592.959290,694.178345 592.961975,696.718018 
z"/>
<path fill="#2E3E57" opacity="1.000000" stroke="none" 
	d="
M424.545197,692.822266 
	C421.610138,690.635437 421.184967,693.459717 420.420105,695.043701 
	C417.534546,701.019531 414.979218,707.163330 411.886200,713.025879 
	C410.787781,715.107727 408.202942,718.191040 406.838074,717.934631 
	C404.710144,717.534973 402.466003,714.985596 401.295685,712.798889 
	C398.332428,707.262146 395.971558,701.405090 393.292603,695.712524 
	C392.700500,694.454346 391.790985,693.345581 389.790894,692.372925 
	C389.790894,702.753296 389.790894,713.133728 389.790894,724.659180 
	C385.807678,724.201416 382.751801,723.850281 380.233276,723.249146 
	C382.848724,722.999146 384.926788,722.999146 386.135162,722.999146 
	C384.620850,721.768616 381.336945,720.356384 381.304749,718.873657 
	C381.064453,707.794067 381.520508,696.701050 381.639893,685.611023 
	C381.682068,681.690247 383.789124,677.431763 380.050293,674.011475 
	C385.876556,670.991455 391.496735,672.357910 394.254761,677.685547 
	C397.463226,683.883362 400.449829,690.195679 403.578644,696.435242 
	C404.283112,697.840088 405.177734,699.149536 406.718079,701.732544 
	C409.674866,695.782471 412.111450,690.985901 414.448059,686.141113 
	C416.108887,682.697510 417.380035,679.035400 419.341156,675.781860 
	C420.174225,674.399719 422.319946,673.007507 423.881409,672.993530 
	C435.477722,672.889771 433.468811,671.767090 433.569580,682.269531 
	C433.702148,696.086121 433.602173,709.904968 433.602173,724.215759 
	C430.367737,724.215759 427.347198,724.215759 424.066711,724.215759 
	C424.066711,715.394409 424.066711,706.610229 424.503387,697.834717 
	C424.940063,706.105835 424.940063,714.368347 424.940063,722.695557 
	C427.840759,722.695557 429.856873,722.695557 431.872986,722.695557 
	C431.879181,722.551819 431.885376,722.408081 431.891541,722.264343 
	C430.137146,722.052185 428.382721,721.840088 426.255310,721.582825 
	C426.169708,719.807068 426.027100,718.187866 426.024536,716.568481 
	C426.012421,708.909485 426.053436,701.250366 425.987640,693.592041 
	C425.985413,693.331360 425.047150,693.078674 424.545197,692.822266 
M386.977478,701.549988 
	C386.977478,698.411499 386.977478,695.272949 386.977478,692.134460 
	C386.748383,692.142090 386.519318,692.149780 386.290222,692.157410 
	C386.290222,700.712463 386.290222,709.267517 386.290222,717.822571 
	C386.520203,717.823425 386.750153,717.824341 386.980133,717.825256 
	C386.980133,712.727783 386.980133,707.630371 386.977478,701.549988 
z"/>
<path fill="#35465F" opacity="1.000000" stroke="none" 
	d="
M311.385559,673.473877 
	C311.804321,673.128906 311.957031,673.032043 312.116821,673.018311 
	C321.067902,672.249146 321.088531,672.272034 321.086395,681.085632 
	C321.083008,695.212402 321.085510,709.339172 321.085510,723.931030 
	C317.443878,723.931030 314.250702,723.931030 310.504547,723.931030 
	C310.504547,718.282288 310.408478,712.673889 310.543396,707.071045 
	C310.615387,704.081909 309.504852,702.913818 306.466370,703.011047 
	C301.145203,703.181335 295.809631,703.201904 290.489960,703.011047 
	C287.139862,702.890869 286.145477,704.307373 286.244019,707.450378 
	C286.410614,712.764343 286.289764,718.087219 286.289764,723.901245 
	C282.869812,723.901245 279.677460,723.901245 276.176025,723.901245 
	C276.176025,707.137939 276.176025,690.397156 276.176025,673.566650 
	C276.579346,673.342773 276.981689,672.948364 277.421631,672.900574 
	C286.306458,671.936829 286.435944,672.059387 286.377319,680.862305 
	C286.289276,694.079163 286.289917,694.142456 299.740723,694.004150 
	C312.265503,693.875488 310.485840,695.657532 310.747040,683.205017 
	C310.813110,680.055725 310.994446,676.908875 311.385559,673.473877 
z"/>
<path fill="#2F3E56" opacity="1.000000" stroke="none" 
	d="
M712.218140,707.165833 
	C717.105530,714.826477 723.827759,717.382446 732.206360,715.682556 
	C739.203247,714.262939 740.531067,711.811829 738.373779,704.268555 
	C734.716553,704.268555 730.945312,704.268555 726.911194,704.268555 
	C726.911194,701.639832 726.911194,699.387085 726.911194,696.830444 
	C733.911011,696.830444 740.812012,696.830444 748.584900,696.830444 
	C748.584900,702.947815 748.688293,708.881348 748.493774,714.805054 
	C748.456848,715.928528 747.442566,717.231445 746.533386,718.081604 
	C738.804749,725.308594 725.209717,727.345398 715.698181,722.807007 
	C704.984253,717.694946 699.307678,708.075806 699.998413,696.202881 
	C700.593750,685.968994 708.760193,676.208496 719.327026,673.101135 
	C729.626099,670.072510 740.612854,673.820984 746.847534,682.723511 
	C744.933289,684.433228 742.985718,686.172668 741.470093,687.526367 
	C737.395874,685.418823 733.981628,682.655396 730.155640,681.851685 
	C716.019592,678.882080 706.857666,691.743042 712.218140,707.165833 
z"/>
<path fill="#3B4A60" opacity="1.000000" stroke="none" 
	d="
M794.122498,699.030151 
	C794.464844,702.111572 793.164612,702.836853 790.631714,702.756470 
	C785.474854,702.592773 780.309753,702.680481 775.148010,702.682800 
	C768.168213,702.685974 768.168213,702.693359 768.089355,709.868652 
	C768.087524,710.035156 768.101013,710.203918 768.078796,710.367737 
	C767.536316,714.364929 768.944580,716.225586 773.292297,715.859314 
	C778.425720,715.426880 783.607178,715.597839 788.753052,715.272888 
	C796.852722,714.761292 797.504761,715.419373 796.196777,724.655640 
	C784.378235,724.655640 772.428040,724.713989 760.481628,724.528625 
	C759.657654,724.515808 758.162964,722.689209 758.157837,721.699951 
	C758.078979,706.549805 758.213684,691.398621 758.250671,676.247559 
	C758.256958,673.665833 759.428894,672.820190 761.941345,672.840698 
	C772.097473,672.923828 782.257996,673.004150 792.409912,672.774963 
	C796.250061,672.688232 796.187317,674.820007 796.291809,677.510498 
	C796.407654,680.496155 795.800049,682.188232 792.227356,682.064270 
	C785.575012,681.833557 778.902344,682.174255 772.251038,681.928284 
	C767.830566,681.764771 767.885986,684.455688 768.108826,687.428528 
	C768.323486,690.291382 766.775085,694.191101 772.174072,694.068665 
	C777.997986,693.936646 783.835571,694.277039 789.653381,694.052429 
	C793.198059,693.915527 794.617859,695.174622 794.122498,699.030151 
M767.619385,722.992126 
	C775.573425,722.988770 783.528748,722.899963 791.480774,723.023560 
	C794.713318,723.073792 795.567139,721.833130 794.877319,719.781616 
	C793.283386,720.527588 791.842896,721.658752 790.297668,721.826904 
	C787.349854,722.147583 784.342285,721.918884 781.359558,721.918762 
	C774.325195,721.918579 767.290894,721.918701 760.256531,721.918701 
	C760.263367,722.276001 760.270142,722.633240 760.276917,722.990540 
	C762.407288,722.990540 764.537720,722.990540 767.619385,722.992126 
z"/>
<path fill="#2D3D54" opacity="1.000000" stroke="none" 
	d="
M695.531006,716.031372 
	C696.517517,718.710876 697.348450,721.038940 698.179565,723.367432 
	C690.541687,725.849670 687.975891,724.885193 685.513306,717.792786 
	C684.306946,714.318665 682.506897,713.135803 678.925598,713.384399 
	C674.450073,713.695007 669.928406,713.634277 665.442871,713.409668 
	C662.288086,713.251648 660.666138,714.416016 659.465698,717.360168 
	C656.214966,725.333191 655.150940,725.740906 645.993164,723.771667 
	C649.039734,716.557068 652.098145,709.443604 655.051147,702.286682 
	C658.286682,694.444946 661.482666,686.585754 664.580261,678.688721 
	C666.059265,674.918213 667.624084,672.447693 672.684998,672.514221 
	C677.706421,672.580200 678.827026,675.501587 680.216248,678.853455 
	C685.298828,691.116638 690.326843,703.402466 695.531006,716.031372 
M680.294739,703.107788 
	C677.787170,697.034851 675.279663,690.961853 672.772156,684.888916 
	C672.332336,685.009399 671.892578,685.129883 671.452759,685.250366 
	C669.013123,691.623718 666.573425,697.997070 663.550171,705.895020 
	C670.059143,705.112000 675.244934,704.488159 680.294739,703.107788 
z"/>
<path fill="#32435B" opacity="1.000000" stroke="none" 
	d="
M354.002838,723.000977 
	C351.182037,723.587097 348.361206,724.173218 344.647827,724.944763 
	C344.647827,713.765259 344.651733,703.664368 344.646790,693.563416 
	C344.641266,682.308533 344.637756,682.308472 333.480011,682.083374 
	C328.151367,681.975769 326.764618,680.423950 328.020752,675.525757 
	C328.275604,674.532104 329.601807,673.089050 330.448151,673.079346 
	C343.886780,672.925049 357.327728,672.970825 371.097656,672.970825 
	C371.097656,676.287659 371.097656,678.880615 371.097656,682.105103 
	C368.536865,682.105103 366.093262,682.115906 363.649780,682.103149 
	C353.963074,682.052734 354.609924,681.255615 354.605865,691.353088 
	C354.601868,701.340210 354.536530,711.327271 353.841553,721.666077 
	C351.265778,721.914490 349.346588,721.811279 347.029633,721.686646 
	C347.029633,708.447205 347.029633,695.741394 347.029633,683.035583 
	C346.805267,683.039246 346.580872,683.042969 346.356506,683.046631 
	C346.356506,696.164978 346.356506,709.283386 346.356506,723.000977 
	C349.106842,723.000977 351.554840,723.000977 354.002838,723.000977 
z"/>
<path fill="#3C4A62" opacity="1.000000" stroke="none" 
	d="
M445.348022,695.998291 
	C445.338257,689.345276 445.536163,683.183533 445.271149,677.041748 
	C445.075500,672.507996 447.951660,673.052795 450.821686,672.884583 
	C454.038879,672.695984 455.740173,673.450439 455.674438,677.209351 
	C455.488403,687.849487 455.790863,698.499146 455.545929,709.136841 
	C455.438812,713.790222 456.828430,715.982361 461.753601,715.556030 
	C465.719360,715.212830 469.725433,715.364258 473.709808,715.202393 
	C481.753235,714.875793 482.372528,715.592407 480.867523,724.742371 
	C469.914917,724.742371 458.818878,724.826050 447.730225,724.578064 
	C446.873505,724.558960 445.380737,722.222900 445.352051,720.937561 
	C445.170380,712.795166 445.318085,704.645447 445.348022,695.998291 
M452.599121,675.345886 
	C451.009369,675.491638 449.419617,675.637390 447.317108,676.472046 
	C447.242371,691.117737 447.158691,705.763428 447.124939,720.409180 
	C447.123566,721.009338 447.591553,721.610474 448.526001,722.709717 
	C458.012207,722.794739 467.499908,722.978699 476.982574,722.832947 
	C478.104156,722.815735 479.198029,720.992615 480.700592,719.653931 
	C478.144196,720.719788 476.656982,721.860474 475.154541,721.880859 
	C466.158691,722.002930 457.159363,721.867065 448.103912,720.905518 
	C448.127899,706.004211 448.151917,691.102844 448.946106,676.120850 
	C450.243134,676.142151 451.540131,676.163452 452.879639,677.097412 
	C452.879639,689.029053 452.879639,700.960693 452.879639,712.892334 
	C453.966156,703.443970 454.028748,694.002136 453.928955,684.562073 
	C453.898010,681.637146 453.425903,678.716919 452.599121,675.345886 
z"/>
<path fill="#31445D" opacity="1.000000" stroke="none" 
	d="
M515.916321,714.698242 
	C512.738220,716.481323 509.869324,718.067261 506.939697,719.686707 
	C504.768127,712.705627 505.102234,711.875610 510.850616,708.874512 
	C515.350891,706.525024 519.828735,704.132507 525.897522,700.922974 
	C520.200195,697.776794 516.025330,694.869690 511.415863,693.085693 
	C506.230804,691.078918 505.121765,687.895203 506.927551,682.094116 
	C509.560638,683.557800 511.991516,685.028748 514.525208,686.293701 
	C520.593933,689.323425 526.652222,692.387024 532.835815,695.167786 
	C535.548584,696.387756 536.970398,698.222107 536.207764,700.916931 
	C535.713562,702.663208 534.419800,704.656433 532.901917,705.554626 
	C527.477600,708.764099 521.804504,711.553040 515.916321,714.698242 
z"/>
<path fill="#2A4058" opacity="1.000000" stroke="none" 
	d="
M563.553711,694.002014 
	C563.553772,687.689941 563.617798,681.876709 563.514404,676.066406 
	C563.465088,673.290833 564.943665,672.486633 567.264587,672.898926 
	C569.532532,673.301941 573.404602,671.258423 573.457520,675.635681 
	C573.651428,691.691589 573.534302,707.751282 573.534302,724.083740 
	C569.983887,724.083740 566.928833,724.083740 563.548950,724.083740 
	C563.548950,714.014343 563.548950,704.258179 563.553711,694.002014 
M571.007324,684.631470 
	C570.240967,683.118774 569.474609,681.606018 568.708191,680.093323 
	C567.802673,681.594116 566.130615,683.086487 566.114014,684.597046 
	C565.992249,695.659485 566.118774,706.727783 566.410767,717.787781 
	C566.448303,719.212036 567.886597,720.599182 569.019043,722.613708 
	C570.036438,721.055603 570.875793,720.368835 570.831482,719.744751 
	C570.425537,714.028564 569.777771,708.329224 569.386353,702.612305 
	C569.167603,699.418030 569.071899,696.180054 569.346375,692.998535 
	C569.563354,690.483276 570.429443,688.024048 571.007324,684.631470 
z"/>
<path fill="#011C3A" opacity="1.000000" stroke="none" 
	d="
M442.615662,404.152344 
	C482.758942,403.942139 522.716431,403.942139 562.673950,403.942139 
	C562.674988,404.292664 562.676025,404.643158 562.677002,404.993683 
	C522.973022,404.993683 483.269073,404.993683 443.069580,404.949219 
	C442.525970,404.723999 442.477936,404.543274 442.615662,404.152344 
z"/>
<path fill="#0C2242" opacity="1.000000" stroke="none" 
	d="
M379.875244,674.451050 
	C383.789124,677.431763 381.682068,681.690247 381.639893,685.611023 
	C381.520508,696.701050 381.064453,707.794067 381.304749,718.873657 
	C381.336945,720.356384 384.620850,721.768616 386.135162,722.999146 
	C384.926788,722.999146 382.848724,722.999146 380.336090,722.985840 
	C379.834412,706.945251 379.767273,690.917969 379.875244,674.451050 
z"/>
<path fill="#032245" opacity="1.000000" stroke="none" 
	d="
M354.135223,722.765137 
	C351.554840,723.000977 349.106842,723.000977 346.356506,723.000977 
	C346.356506,709.283386 346.356506,696.164978 346.356506,683.046631 
	C346.580872,683.042969 346.805267,683.039246 347.029633,683.035583 
	C347.029633,695.741394 347.029633,708.447205 347.029633,721.686646 
	C349.346588,721.811279 351.265778,721.914490 353.636108,722.018555 
	C354.147400,722.189392 354.207520,722.359375 354.135223,722.765137 
z"/>
<path fill="#032245" opacity="1.000000" stroke="none" 
	d="
M424.431915,693.248413 
	C425.047150,693.078674 425.985413,693.331360 425.987640,693.592041 
	C426.053436,701.250366 426.012421,708.909485 426.024536,716.568481 
	C426.027100,718.187866 426.169708,719.807068 426.255310,721.582825 
	C428.382721,721.840088 430.137146,722.052185 431.891541,722.264343 
	C431.885376,722.408081 431.879181,722.551819 431.872986,722.695557 
	C429.856873,722.695557 427.840759,722.695557 424.940063,722.695557 
	C424.940063,714.368347 424.940063,706.105835 424.720154,697.510376 
	C424.439697,696.009766 424.379181,694.842163 424.431915,693.248413 
z"/>
<path fill="#020937" opacity="1.000000" stroke="none" 
	d="
M568.049561,366.569458 
	C567.746765,368.855011 567.069946,370.915344 567.042480,372.984283 
	C566.931030,381.375275 567.054565,389.769135 566.995483,398.161285 
	C566.986511,399.434662 566.470764,400.704498 565.921143,401.783081 
	C565.549255,390.046722 565.445740,378.503235 565.869751,366.511719 
	C566.658752,366.011749 566.920288,365.959808 567.181885,365.907867 
	C567.520935,365.919739 567.784973,366.066528 568.049561,366.569458 
z"/>
<path fill="#000536" opacity="1.000000" stroke="none" 
	d="
M565.445984,465.930145 
	C566.046631,466.190552 566.952332,466.867920 566.960999,467.556549 
	C567.094788,478.167511 567.111816,488.779938 567.194885,499.884399 
	C567.233826,500.376801 567.262634,500.730835 566.791016,500.814972 
	C566.079041,500.912445 565.838806,500.925812 565.598511,500.939148 
	C565.510254,489.410217 565.422058,477.881256 565.445984,465.930145 
z"/>
<path fill="#09243F" opacity="1.000000" stroke="none" 
	d="
M630.849976,693.470093 
	C631.316589,695.202820 631.951660,697.388428 631.993286,699.585327 
	C632.127625,706.667053 632.043335,713.752869 631.430969,720.889160 
	C631.300537,719.427246 631.170105,717.965271 630.915466,716.096313 
	C630.776428,708.435608 630.761597,701.181824 630.849976,693.470093 
z"/>
<path fill="#283A52" opacity="1.000000" stroke="none" 
	d="
M567.168640,365.620392 
	C566.920288,365.959808 566.658752,366.011749 565.997192,366.061005 
	C565.584167,365.548492 565.571167,365.038635 565.558167,364.528778 
	C566.090576,364.796814 566.622986,365.064850 567.168640,365.620392 
z"/>
<path fill="#283A52" opacity="1.000000" stroke="none" 
	d="
M565.375854,501.106201 
	C565.838806,500.925812 566.079041,500.912445 566.676636,500.950867 
	C566.755676,501.491211 566.477478,501.979767 566.199219,502.468323 
	C565.850525,502.069946 565.501831,501.671600 565.375854,501.106201 
z"/>
<path fill="#2A3D54" opacity="1.000000" stroke="none" 
	d="
M226.000000,315.929321 
	C202.003357,315.908203 178.506165,315.801788 155.010574,315.949341 
	C151.047943,315.974243 149.856644,314.802155 149.921066,310.850128 
	C150.111252,299.183685 149.955826,299.257233 161.384094,299.259857 
	C220.542313,299.273438 279.700531,299.244812 338.858734,299.231049 
	C341.990997,299.230316 345.123291,299.230988 349.028442,299.230988 
	C349.028442,304.317688 349.212433,308.920258 348.868256,313.483002 
	C348.801971,314.361877 346.693512,315.717133 345.478516,315.771851 
	C339.656860,316.033936 333.818481,315.943695 327.986023,315.943817 
	C294.157349,315.944489 260.328674,315.935303 226.000000,315.929321 
z"/>
<path fill="#2B3D53" opacity="1.000000" stroke="none" 
	d="
M344.237488,341.659149 
	C344.583069,341.565552 344.928650,341.471924 345.692871,341.793640 
	C346.785706,342.061737 347.459900,341.914551 348.134094,341.767334 
	C348.615906,346.759399 349.097748,351.751434 349.634949,357.316864 
	C347.169830,357.431152 345.568268,357.570862 343.966766,357.570190 
	C281.473724,357.543335 218.980576,357.448486 156.487854,357.571014 
	C151.518921,357.580780 149.281326,356.400360 150.117203,351.207336 
	C150.646698,347.917877 150.923294,344.587708 151.828888,341.727814 
	C153.581421,342.453217 154.818237,342.964966 156.055359,342.965759 
	C213.880630,343.004089 271.705902,343.008270 329.531128,342.938934 
	C331.002319,342.937164 332.472473,342.071747 333.943115,341.609100 
	C336.106140,341.479065 338.269135,341.349030 340.882019,341.737427 
	C342.300446,342.056946 343.268951,341.858032 344.237488,341.659149 
M158.797455,354.991547 
	C157.208221,354.991547 155.618988,354.991547 154.029755,354.991547 
	C154.032150,355.237732 154.034531,355.483917 154.036911,355.730103 
	C205.994568,355.730103 257.952209,355.730103 309.909851,355.730103 
	C309.910217,355.483948 309.910583,355.237823 309.910980,354.991669 
	C259.848572,354.991669 209.786179,354.991669 158.797455,354.991547 
M343.975342,355.997589 
	C344.934082,355.890228 345.892822,355.782898 346.851532,355.675568 
	C346.830261,355.448517 346.808990,355.221497 346.787720,354.994446 
	C342.508911,354.994446 338.230072,354.994415 333.951263,354.994415 
	C329.721100,354.994415 325.490936,354.994446 321.260773,354.994446 
	C321.272217,355.328766 321.283661,355.663116 321.295105,355.997437 
	C328.561188,355.997437 335.827301,355.997437 343.975342,355.997589 
z"/>
<path fill="#2A3D53" opacity="1.000000" stroke="none" 
	d="
M161.056442,381.497986 
	C197.484940,381.500580 233.423523,381.574707 269.361084,381.415527 
	C273.771271,381.395996 275.084778,382.709686 275.013947,387.082184 
	C274.828491,398.528259 275.017242,398.591125 263.329407,398.603699 
	C227.724091,398.642029 192.118744,398.639069 156.513412,398.628998 
	C150.020142,398.627167 150.020157,398.576813 149.966980,391.944763 
	C149.883072,381.478577 149.883072,381.478577 161.056442,381.497986 
z"/>
<path fill="#273C54" opacity="1.000000" stroke="none" 
	d="
M241.305542,524.480469 
	C237.891418,534.541931 237.891418,534.540405 227.543228,534.497864 
	C225.405029,534.489075 223.266785,534.496521 220.342484,534.496521 
	C221.560989,530.520264 222.457184,527.086304 223.656464,523.761597 
	C234.763397,492.970886 245.850571,462.172607 257.103607,431.435150 
	C261.346649,419.845398 261.537781,419.908997 273.869659,420.147125 
	C275.001160,420.168976 276.129791,420.339447 278.070251,420.513733 
	C265.765900,455.312592 253.602676,489.712372 241.305542,524.480469 
z"/>
<path fill="#293C54" opacity="1.000000" stroke="none" 
	d="
M310.697327,503.586426 
	C303.173096,508.011719 295.963898,512.250183 287.647308,517.139709 
	C287.647308,510.423889 287.457733,505.155426 287.786499,499.919495 
	C287.864441,498.678345 289.459351,497.163513 290.733521,496.425201 
	C300.379822,490.835510 310.122742,485.412628 319.827667,479.923889 
	C321.073395,479.219299 322.274170,478.435272 324.481659,477.084991 
	C316.807037,472.726196 309.942444,468.817810 303.066986,464.928558 
	C301.044647,463.784607 298.922852,462.802673 296.968384,461.555634 
	C293.941742,459.624512 289.126373,458.017029 288.452698,455.401062 
	C287.106110,450.171906 288.053284,444.352081 288.053284,437.905884 
	C295.080353,441.796173 301.575287,445.341888 308.022461,448.972321 
	C319.027161,455.168945 330.011353,461.402069 340.985626,467.652405 
	C347.651428,471.448914 347.819122,482.118744 341.264160,485.929504 
	C331.197144,491.781982 321.097900,497.579010 310.697327,503.586426 
z"/>
<path fill="#283C54" opacity="1.000000" stroke="none" 
	d="
M173.006592,494.921692 
	C167.526901,491.733154 162.371277,488.714172 157.230637,485.669922 
	C153.569916,483.501984 152.146255,472.026001 155.697586,469.909515 
	C173.765503,459.141663 192.025620,448.696289 210.954224,437.711029 
	C210.954224,444.256836 211.110870,449.821198 210.811615,455.360962 
	C210.756958,456.372833 208.976898,457.516388 207.768707,458.205170 
	C198.815308,463.309509 189.793564,468.293823 180.822281,473.367126 
	C178.998306,474.398621 177.297195,475.647369 174.688950,477.351685 
	C183.211487,482.185974 190.547150,487.552490 198.736389,490.693817 
	C209.500641,494.822876 213.703827,501.487457 211.489792,512.565002 
	C211.300369,513.512695 211.299347,514.498047 211.076370,516.935669 
	C198.042526,509.387604 185.689804,502.233978 173.006592,494.921692 
z"/>
<path fill="#16233C" opacity="1.000000" stroke="none" 
	d="
M333.482910,341.530823 
	C332.472473,342.071747 331.002319,342.937164 329.531128,342.938934 
	C271.705902,343.008270 213.880630,343.004089 156.055359,342.965759 
	C154.818237,342.964966 153.581421,342.453217 152.215424,341.830505 
	C159.569870,341.453766 167.053360,341.401306 174.536850,341.402771 
	C227.365463,341.413147 280.194092,341.434601 333.482910,341.530823 
z"/>
<path fill="#16233C" opacity="1.000000" stroke="none" 
	d="
M343.845123,341.563599 
	C343.268951,341.858032 342.300446,342.056946 341.194580,341.929138 
	C341.855743,341.557648 342.654266,341.512848 343.845123,341.563599 
z"/>
<path fill="#16233C" opacity="1.000000" stroke="none" 
	d="
M347.753479,341.621460 
	C347.459900,341.914551 346.785706,342.061737 345.936768,341.925537 
	C346.299011,341.586639 346.835938,341.531128 347.753479,341.621460 
z"/>
<path fill="#B9DEEB" opacity="1.000000" stroke="none" 
	d="
M719.957764,519.118103 
	C719.636841,517.207275 719.036621,515.296570 719.035461,513.385559 
	C718.995789,449.556091 719.253784,385.724854 718.795227,321.898743 
	C718.715027,310.736389 729.074829,299.856781 740.967651,299.907501 
	C791.463623,300.122833 841.961182,299.943665 892.458008,300.016724 
	C899.580505,300.027039 906.812927,299.970825 913.795532,301.136749 
	C922.186096,302.537842 928.934692,311.417328 928.944519,319.894043 
	C929.012451,378.390442 929.004700,436.886932 928.987610,495.383392 
	C928.987244,496.503418 928.575623,497.623291 927.786133,498.774475 
	C915.187012,476.981537 903.162048,455.154968 891.126343,433.334320 
	C886.069092,424.165619 881.350708,414.783630 875.810791,405.915588 
	C870.935120,398.111053 861.229797,398.714844 856.740723,406.794250 
	C846.020874,426.087585 835.491943,445.486908 824.853577,464.825623 
	C818.945557,475.565216 812.972595,486.269012 806.723755,496.831818 
	C804.866333,494.155701 803.274109,491.660370 801.768494,489.113800 
	C794.609192,477.004486 787.411194,464.917389 780.349426,452.751343 
	C774.816528,443.219299 765.025513,444.200470 759.627197,453.633942 
	C754.184509,463.144836 748.390076,472.455414 742.701477,481.824402 
	C735.144714,494.270477 727.541199,506.688202 719.957764,519.118103 
M801.526917,359.113220 
	C790.217041,341.118683 766.099182,340.296722 753.948547,357.846222 
	C746.694946,368.322784 747.199585,379.425995 753.738342,390.262360 
	C758.978638,398.946869 770.440002,403.970795 780.896790,402.238342 
	C801.379578,398.844818 811.137268,379.113892 801.526917,359.113220 
z"/>
<path fill="#92BA5C" opacity="1.000000" stroke="none" 
	d="
M807.028809,496.988953 
	C812.972595,486.269012 818.945557,475.565216 824.853577,464.825623 
	C835.491943,445.486908 846.020874,426.087585 856.740723,406.794250 
	C861.229797,398.714844 870.935120,398.111053 875.810791,405.915588 
	C881.350708,414.783630 886.069092,424.165619 891.126343,433.334320 
	C903.162048,455.154968 915.187012,476.981537 927.443726,499.066010 
	C928.121094,504.752716 928.800232,510.172150 928.965149,515.607239 
	C929.187195,522.928406 929.054626,530.261963 928.999451,537.589661 
	C928.909058,549.601868 919.857483,558.835693 907.836609,558.891479 
	C886.519348,558.990417 865.201233,558.902161 843.432739,558.454956 
	C839.078369,550.976013 835.347595,543.831543 831.234253,536.914490 
	C823.279724,523.538208 815.109558,510.290131 807.028809,496.988953 
z"/>
<path fill="#56A35A" opacity="1.000000" stroke="none" 
	d="
M806.723694,496.831787 
	C815.109558,510.290131 823.279724,523.538208 831.234253,536.914490 
	C835.347595,543.831543 839.078369,550.976013 842.967529,558.376953 
	C808.196350,558.779785 773.439514,558.889954 738.682983,558.818970 
	C730.305542,558.801880 721.613831,552.457275 720.277649,544.063843 
	C719.022156,536.177368 719.830688,527.962219 719.844421,519.504883 
	C727.541199,506.688202 735.144714,494.270477 742.701477,481.824402 
	C748.390076,472.455414 754.184509,463.144836 759.627197,453.633942 
	C765.025513,444.200470 774.816528,443.219299 780.349426,452.751343 
	C787.411194,464.917389 794.609192,477.004486 801.768494,489.113800 
	C803.274109,491.660370 804.866333,494.155701 806.723694,496.831787 
z"/>
<path fill="#01193A" opacity="1.000000" stroke="none" 
	d="
M588.039062,707.992188 
	C588.031616,711.820862 587.908447,715.157715 588.084229,718.478699 
	C588.144775,719.622253 588.816284,721.572266 589.444580,721.672180 
	C590.749268,721.879883 592.211609,721.096680 593.383179,720.781616 
	C593.196228,723.368164 593.196228,723.368164 587.317078,722.304321 
	C587.317078,706.939819 587.317078,691.524536 587.317078,676.109192 
	C587.558289,676.104553 587.799438,676.099854 588.040649,676.095154 
	C588.040649,686.561462 588.040649,697.027832 588.039062,707.992188 
z"/>
<path fill="#01193A" opacity="1.000000" stroke="none" 
	d="
M592.960632,696.257751 
	C592.959290,694.178345 592.959290,692.559204 592.959290,690.940063 
	C593.207275,690.946228 593.455261,690.952454 593.703247,690.958618 
	C593.703247,698.639160 593.703247,706.319763 593.703247,714.000366 
	C593.456177,714.002747 593.209045,714.005066 592.961975,714.007446 
	C592.961975,708.244324 592.961975,702.481140 592.960632,696.257751 
z"/>
<path fill="#09243F" opacity="1.000000" stroke="none" 
	d="
M636.863037,721.847595 
	C636.863037,716.598022 636.863037,711.348450 636.863037,706.098877 
	C637.131714,706.097961 637.400452,706.096985 637.669128,706.096069 
	C637.669128,711.234192 637.669128,716.372253 637.334839,721.759521 
	C637.000549,722.008789 636.863037,721.847595 636.863037,721.847595 
z"/>
<path fill="#09243F" opacity="1.000000" stroke="none" 
	d="
M637.066223,722.091980 
	C636.130798,722.483276 635.129700,722.791321 634.128601,723.099426 
	C634.059326,722.837952 633.990051,722.576477 633.920837,722.315002 
	C634.680237,722.180298 635.439636,722.045593 636.531006,721.879211 
	C636.863037,721.847595 637.000549,722.008789 637.066223,722.091980 
z"/>
<path fill="#0C2242" opacity="1.000000" stroke="none" 
	d="
M386.978821,702.041504 
	C386.980133,707.630371 386.980133,712.727783 386.980133,717.825256 
	C386.750153,717.824341 386.520203,717.823425 386.290222,717.822571 
	C386.290222,709.267517 386.290222,700.712463 386.290222,692.157410 
	C386.519318,692.149780 386.748383,692.142090 386.977478,692.134460 
	C386.977478,695.272949 386.977478,698.411499 386.978821,702.041504 
z"/>
<path fill="#01193A" opacity="1.000000" stroke="none" 
	d="
M767.143738,722.991333 
	C764.537720,722.990540 762.407288,722.990540 760.276917,722.990540 
	C760.270142,722.633240 760.263367,722.276001 760.256531,721.918701 
	C767.290894,721.918701 774.325195,721.918579 781.359558,721.918762 
	C784.342285,721.918884 787.349854,722.147583 790.297668,721.826904 
	C791.842896,721.658752 793.283386,720.527588 794.877319,719.781616 
	C795.567139,721.833130 794.713318,723.073792 791.480774,723.023560 
	C783.528748,722.899963 775.573425,722.988770 767.143738,722.991333 
z"/>
<path fill="#E7E9EA" opacity="1.000000" stroke="none" 
	d="
M680.362671,703.486084 
	C675.244934,704.488159 670.059143,705.112000 663.550171,705.895020 
	C666.573425,697.997070 669.013123,691.623718 671.452759,685.250366 
	C671.892578,685.129883 672.332336,685.009399 672.772156,684.888916 
	C675.279663,690.961853 677.787170,697.034851 680.362671,703.486084 
z"/>
<path fill="#032245" opacity="1.000000" stroke="none" 
	d="
M447.840851,722.211182 
	C447.591553,721.610474 447.123566,721.009338 447.124939,720.409180 
	C447.158691,705.763428 447.242371,691.117737 447.659088,676.232910 
	C448.001068,675.993835 448.175903,676.201538 448.175903,676.201538 
	C448.151917,691.102844 448.127899,706.004211 448.051025,721.458801 
	C447.998138,722.012085 447.840851,722.211182 447.840851,722.211182 
z"/>
<path fill="#032245" opacity="1.000000" stroke="none" 
	d="
M453.155792,675.794495 
	C453.425903,678.716919 453.898010,681.637146 453.928955,684.562073 
	C454.028748,694.002136 453.966156,703.443970 452.879639,712.892334 
	C452.879639,700.960693 452.879639,689.029053 452.940186,676.543701 
	C453.000702,675.989990 453.155792,675.794495 453.155792,675.794495 
z"/>
<path fill="#032245" opacity="1.000000" stroke="none" 
	d="
M448.079651,721.914917 
	C457.159363,721.867065 466.158691,722.002930 475.154541,721.880859 
	C476.656982,721.860474 478.144196,720.719788 480.700592,719.653931 
	C479.198029,720.992615 478.104156,722.815735 476.982574,722.832947 
	C467.499908,722.978699 458.012207,722.794739 448.183411,722.460449 
	C447.840851,722.211182 447.998138,722.012085 448.079651,721.914917 
z"/>
<path fill="#032245" opacity="1.000000" stroke="none" 
	d="
M447.915466,675.888550 
	C449.419617,675.637390 451.009369,675.491638 452.877441,675.570190 
	C453.155792,675.794495 453.000702,675.989990 452.918945,676.087402 
	C451.540131,676.163452 450.243134,676.142151 448.561005,676.161194 
	C448.175903,676.201538 448.001068,675.993835 447.915466,675.888550 
z"/>
<path fill="#2A3952" opacity="1.000000" stroke="none" 
	d="
M571.007324,685.085693 
	C570.429443,688.024048 569.563354,690.483276 569.346375,692.998535 
	C569.071899,696.180054 569.167603,699.418030 569.386353,702.612305 
	C569.777771,708.329224 570.425537,714.028564 570.831482,719.744751 
	C570.875793,720.368835 570.036438,721.055603 569.019043,722.613708 
	C567.886597,720.599182 566.448303,719.212036 566.410767,717.787781 
	C566.118774,706.727783 565.992249,695.659485 566.114014,684.597046 
	C566.130615,683.086487 567.802673,681.594116 568.708191,680.093323 
	C569.474609,681.606018 570.240967,683.118774 571.007324,685.085693 
z"/>
<path fill="#1B283A" opacity="1.000000" stroke="none" 
	d="
M159.260620,354.991608 
	C209.786179,354.991669 259.848572,354.991669 309.910980,354.991669 
	C309.910583,355.237823 309.910217,355.483948 309.909851,355.730103 
	C257.952209,355.730103 205.994568,355.730103 154.036911,355.730103 
	C154.034531,355.483917 154.032150,355.237732 154.029755,354.991547 
	C155.618988,354.991547 157.208221,354.991547 159.260620,354.991608 
z"/>
<path fill="#1B283A" opacity="1.000000" stroke="none" 
	d="
M343.534363,355.997498 
	C335.827301,355.997437 328.561188,355.997437 321.295105,355.997437 
	C321.283661,355.663116 321.272217,355.328766 321.260773,354.994446 
	C325.490936,354.994446 329.721100,354.994415 333.951263,354.994415 
	C338.230072,354.994415 342.508911,354.994446 346.787720,354.994446 
	C346.808990,355.221497 346.830261,355.448517 346.851532,355.675568 
	C345.892822,355.782898 344.934082,355.890228 343.534363,355.997498 
z"/>
<path fill="#F2CA59" opacity="1.000000" stroke="none" 
	d="
M801.715332,359.436798 
	C811.137268,379.113892 801.379578,398.844818 780.896790,402.238342 
	C770.440002,403.970795 758.978638,398.946869 753.738342,390.262360 
	C747.199585,379.425995 746.694946,368.322784 753.948547,357.846222 
	C766.099182,340.296722 790.217041,341.118683 801.715332,359.436798 
z"/>
</svg>