<?xml version="1.0" encoding="UTF-8"?>
<svg version="1.1" xmlns="http://www.w3.org/2000/svg" width="120" height="120">
<path d="M0 0 C0 0.99 0 1.98 0 3 C-0.70125 3.53625 -1.4025 4.0725 -2.125 4.625 C-6.01669146 7.83987555 -8.35330357 11.74345729 -11 16 C-10.21625 16.12375 -9.4325 16.2475 -8.625 16.375 C-6 17 -6 17 -4 19 C-4.2423336 22.47344829 -4.99035399 24.97990416 -6.5 28.125 C-8.80803494 33.1126072 -8.74237842 38.58994674 -9 44 C-8.41347656 44.25136719 -7.82695312 44.50273438 -7.22265625 44.76171875 C-4.72235663 46.15468005 -3.29240124 47.64222406 -1.4375 49.8125 C-0.85871094 50.47894531 -0.27992187 51.14539062 0.31640625 51.83203125 C2.09397482 54.12101166 3.55805151 56.48864291 5 59 C5.04898438 58.08476563 5.09796875 57.16953125 5.1484375 56.2265625 C5.22320312 55.03804687 5.29796875 53.84953125 5.375 52.625 C5.44460937 51.44164062 5.51421875 50.25828125 5.5859375 49.0390625 C6 46 6 46 8 44 C11.125 43.875 11.125 43.875 14 44 C14.09087891 42.17662109 14.09087891 42.17662109 14.18359375 40.31640625 C14.26798332 38.73175772 14.3526321 37.14712298 14.4375 35.5625 C14.47681641 34.76005859 14.51613281 33.95761719 14.55664062 33.13085938 C14.88671875 27.11328125 14.88671875 27.11328125 16 26 C18.6773138 25.90018786 21.32304175 25.86120125 24 25.875 C24.75023437 25.87113281 25.50046875 25.86726563 26.2734375 25.86328125 C31.87338947 25.87338947 31.87338947 25.87338947 33 27 C33.07319621 29.69654854 33.09242537 32.36691458 33.0625 35.0625 C33.05798828 35.82111328 33.05347656 36.57972656 33.04882812 37.36132812 C33.0370068 39.24091871 33.01907078 41.12046899 33 43 C35.97 43.33 38.94 43.66 42 44 C42.33 44.99 42.66 45.98 43 47 C45.64 46.01 48.28 45.02 51 44 C50.68468065 38.11403878 49.53058808 34.59761606 46.15625 29.76171875 C45 28 45 28 44 25 C42.15665942 23.86968635 42.15665942 23.86968635 40 23 C38.05306765 22.02653383 36.10661439 21.05250166 34.1640625 20.0703125 C32.7126785 19.35247998 31.24856188 18.65987538 29.7734375 17.9921875 C29.06445312 17.66476563 28.35546875 17.33734375 27.625 17 C26.65433594 16.566875 26.65433594 16.566875 25.6640625 16.125 C23.48937432 14.65478827 22.8722589 13.46699488 22 11 C21.875 8.25 21.875 8.25 22 6 C34.84875254 1.14487084 45.67985163 -1.31993731 59 4 C69.52249157 9.52430807 76.09631658 21.15139142 80 32 C84.09604473 45.99001191 83.35929281 61.04702763 76.38671875 73.99609375 C74.69641373 76.75829951 72.90721215 79.38391254 71 82 C70.34257812 82.95132813 70.34257812 82.95132813 69.671875 83.921875 C61.55058917 94.58717807 47.03270604 102.01934559 34 104 C17.73575845 104.97660573 3.26362583 101.60586379 -9.3125 90.6875 C-21.30665548 79.1738796 -27.90191143 66.44726833 -28.3125 49.75 C-28.02001358 33.46825608 -22.60643666 20.03861131 -11.35546875 8.16796875 C-7.86407307 4.95449511 -4.09501362 2.38149728 0 0 Z M49 5 C49 5.99 49 6.98 49 8 C50.32 7.67 51.64 7.34 53 7 C52.67 6.34 52.34 5.68 52 5 C51.01 5 50.02 5 49 5 Z M24 56 C23.67 57.98 23.34 59.96 23 62 C24.32 61.67 25.64 61.34 27 61 C26.34 59.35 25.68 57.7 25 56 C24.67 56 24.34 56 24 56 Z " fill="#B93E8B" transform="translate(33,8)"/>
<path d="M0 0 C0 0.99 0 1.98 0 3 C-0.70125 3.53625 -1.4025 4.0725 -2.125 4.625 C-6.01669146 7.83987555 -8.35330357 11.74345729 -11 16 C-10.21625 16.12375 -9.4325 16.2475 -8.625 16.375 C-6 17 -6 17 -4 19 C-4.2423336 22.47344829 -4.99035399 24.97990416 -6.5 28.125 C-8.80803494 33.1126072 -8.74237842 38.58994674 -9 44 C-8.4121875 44.25394531 -7.824375 44.50789063 -7.21875 44.76953125 C-1.2138109 48.09973515 3.16054884 54.90043825 6 61 C6.85054116 64.30982019 7.48358357 67.62290837 8 71 C3.56285662 74.11944626 -0.85156816 75.13968038 -6.0625 76.25 C-6.86494141 76.435625 -7.66738281 76.62125 -8.49414062 76.8125 C-9.27080078 76.98265625 -10.04746094 77.1528125 -10.84765625 77.328125 C-11.54898682 77.4818457 -12.25031738 77.63556641 -12.97290039 77.79394531 C-15.2244885 78.02281926 -16.85209148 77.66886757 -19 77 C-18.484375 76.2575 -17.96875 75.515 -17.4375 74.75 C-15.76110208 71.5429779 -16.08296547 71.27338815 -17 68 C-17.04232018 66.52143886 -17.04100099 65.0410983 -17 63.5625 C-16.95600311 60.22973535 -17.16173781 57.24826597 -18 54 C-19.27875 53.87625 -20.5575 53.7525 -21.875 53.625 C-25.75 53.25 -25.75 53.25 -28 51 C-29.14583681 37.02079091 -24.22895348 24.22949328 -15.859375 13.171875 C-11.19230249 7.72151759 -6.1966988 3.60375391 0 0 Z " fill="#D3438F" transform="translate(33,8)"/>
<path d="M0 0 C4.16470161 4.16470161 4.39739396 9.54585472 4.4765625 15.25390625 C4.46367188 15.97449219 4.45078125 16.69507812 4.4375 17.4375 C3.7775 16.4475 3.1175 15.4575 2.4375 14.4375 C0.58778304 13.38728897 0.58778304 13.38728897 -1.5625 12.4375 C-3.23584039 11.44870795 -4.90401823 10.45101664 -6.5625 9.4375 C-7.42875 10.984375 -7.42875 10.984375 -8.3125 12.5625 C-10.25229442 15.96406807 -12.35459563 19.20449717 -14.5625 22.4375 C-15.8825 22.1075 -17.2025 21.7775 -18.5625 21.4375 C-18.5625 20.7775 -18.5625 20.1175 -18.5625 19.4375 C-19.14515625 19.14617188 -19.7278125 18.85484375 -20.328125 18.5546875 C-26.3125 15.5625 -26.3125 15.5625 -28.3984375 14.5078125 C-29.8498215 13.78997998 -31.31393812 13.09737538 -32.7890625 12.4296875 C-33.49804688 12.10226563 -34.20703125 11.77484375 -34.9375 11.4375 C-35.58460937 11.14875 -36.23171875 10.86 -36.8984375 10.5625 C-39.07312568 9.09228827 -39.6902411 7.90449488 -40.5625 5.4375 C-40.6875 2.6875 -40.6875 2.6875 -40.5625 0.4375 C-25.98848756 -5.06954924 -14.74424027 -6.46677205 0 0 Z M-13.5625 -0.5625 C-13.5625 0.4275 -13.5625 1.4175 -13.5625 2.4375 C-12.2425 2.1075 -10.9225 1.7775 -9.5625 1.4375 C-9.8925 0.7775 -10.2225 0.1175 -10.5625 -0.5625 C-11.5525 -0.5625 -12.5425 -0.5625 -13.5625 -0.5625 Z " fill="#E34A92" transform="translate(95.5625,13.5625)"/>
<path d="M0 0 C1.12535156 0.00580078 1.12535156 0.00580078 2.2734375 0.01171875 C3.02367188 0.00785156 3.77390625 0.00398438 4.546875 0 C10.14682697 0.01010822 10.14682697 0.01010822 11.2734375 1.13671875 C11.34663371 3.83326729 11.36586287 6.50363333 11.3359375 9.19921875 C11.33142578 9.95783203 11.32691406 10.71644531 11.32226562 11.49804688 C11.3104443 13.37763746 11.29250828 15.25718774 11.2734375 17.13671875 C14.2434375 17.46671875 17.2134375 17.79671875 20.2734375 18.13671875 C20.7684375 20.11671875 20.7684375 20.11671875 21.2734375 22.13671875 C15.49536726 22.37255835 10.76018946 22.00454921 5.2734375 20.13671875 C5.2734375 19.47671875 5.2734375 18.81671875 5.2734375 18.13671875 C4.4690625 17.99234375 3.6646875 17.84796875 2.8359375 17.69921875 C0.2734375 17.13671875 0.2734375 17.13671875 -0.7265625 16.13671875 C-0.80778174 17.74004666 -0.86585384 19.34455901 -0.9140625 20.94921875 C-0.94886719 21.84253906 -0.98367187 22.73585938 -1.01953125 23.65625 C-0.66940425 26.62065857 0.13382006 27.18605454 2.2734375 29.13671875 C2.5234375 32.26171875 2.5234375 32.26171875 2.2734375 35.13671875 C0.41709303 36.99306322 -2.55486153 36.31040228 -5.0390625 36.32421875 C-6.19019531 36.33839844 -7.34132813 36.35257813 -8.52734375 36.3671875 C-11.55068487 36.14938881 -13.19222121 35.71989985 -15.7265625 34.13671875 C-15.78040771 31.84530589 -15.81928337 29.55353687 -15.8515625 27.26171875 C-15.87476563 25.98554687 -15.89796875 24.709375 -15.921875 23.39453125 C-15.7265625 20.13671875 -15.7265625 20.13671875 -13.7265625 18.13671875 C-10.6015625 18.01171875 -10.6015625 18.01171875 -7.7265625 18.13671875 C-7.66597656 16.92113281 -7.60539062 15.70554687 -7.54296875 14.453125 C-7.45857918 12.86847647 -7.3739304 11.28384173 -7.2890625 9.69921875 C-7.24974609 8.89677734 -7.21042969 8.09433594 -7.16992188 7.26757812 C-6.77194885 0.01222373 -6.77194885 0.01222373 0 0 Z " fill="#4F68AF" transform="translate(54.7265625,33.86328125)"/>
<path d="M0 0 C9.32396586 2.11595535 9.32396586 2.11595535 11.625 5.125 C12.29007373 10.22389858 12.63936087 15.0819174 11 20 C11.66 20.33 12.32 20.66 13 21 C11.515 23.475 11.515 23.475 10 26 C13.66873322 25.34437087 17.33474904 24.67481291 21 24 C21.92941406 23.83242187 22.85882812 23.66484375 23.81640625 23.4921875 C24.68136719 23.32976562 25.54632812 23.16734375 26.4375 23 C27.21996094 22.855625 28.00242187 22.71125 28.80859375 22.5625 C31.05195751 22.07958405 31.05195751 22.07958405 33.09765625 20.875 C35 20 35 20 38 21 C37.34 21 36.68 21 36 21 C36 22.65 36 24.3 36 26 C32.58583753 27.00868917 29.16829771 28.00542321 25.75 29 C24.78191406 29.28617188 23.81382813 29.57234375 22.81640625 29.8671875 C21.88183594 30.13789062 20.94726562 30.40859375 19.984375 30.6875 C19.12553711 30.93886719 18.26669922 31.19023438 17.38183594 31.44921875 C15 32 15 32 11 32 C3.2997767 22.95223763 0.39749474 11.56709691 0 0 Z " fill="#802C81" transform="translate(5,59)"/>
<path d="M0 0 C0.47050781 0.3609375 0.94101563 0.721875 1.42578125 1.09375 C2.04839844 1.5578125 2.67101562 2.021875 3.3125 2.5 C3.92738281 2.9640625 4.54226562 3.428125 5.17578125 3.90625 C7.07433005 5.25711283 7.07433005 5.25711283 10 5 C10.51788666 13.28618653 8.43986194 18.62766014 3 24.9375 C0.57621323 27.61376456 -0.54133974 28.84711325 -4 30 C-4.18175781 29.34773438 -4.36351563 28.69546875 -4.55078125 28.0234375 C-5.97466596 23.07269989 -7.49407234 18.53453577 -10 14 C-9.34 14 -8.68 14 -8 14 C-7.5978125 13.1646875 -7.5978125 13.1646875 -7.1875 12.3125 C-5.89746881 9.80033399 -4.47011874 7.41099474 -3 5 C-2.443125 4.071875 -1.88625 3.14375 -1.3125 2.1875 C-0.879375 1.465625 -0.44625 0.74375 0 0 Z " fill="#A93287" transform="translate(89,22)"/>
<path d="M0 0 C0.03738281 0.75925781 0.07476562 1.51851562 0.11328125 2.30078125 C0.21189453 3.79158203 0.21189453 3.79158203 0.3125 5.3125 C0.39951172 6.79169922 0.39951172 6.79169922 0.48828125 8.30078125 C1.06216963 11.32793292 1.79480579 11.99368272 4 14 C4.25 17.125 4.25 17.125 4 20 C2.14365553 21.85634447 -0.82829903 21.17368353 -3.3125 21.1875 C-4.46363281 21.20167969 -5.61476563 21.21585938 -6.80078125 21.23046875 C-9.82412237 21.01267006 -11.46565871 20.5831811 -14 19 C-14.05384521 16.70858714 -14.09272087 14.41681812 -14.125 12.125 C-14.14820313 10.84882812 -14.17140625 9.57265625 -14.1953125 8.2578125 C-14 5 -14 5 -12 3 C-8.875 2.875 -8.875 2.875 -6 3 C-6 2.34 -6 1.68 -6 1 C-4 0 -4 0 0 0 Z " fill="#5561A9" transform="translate(53,49)"/>
<path d="M0 0 C1.32 0.66 2.64 1.32 4 2 C2.86146621 10.48011373 -0.44727667 15.84202371 -6.8125 21.5 C-9 23 -9 23 -10 23 C-10.875 20.5 -10.875 20.5 -11 17 C-9.69925441 14.80008128 -8.18925008 12.92645322 -6.5625 10.95703125 C-4.59439848 8.49198409 -3.32626908 5.85147851 -2 3 C-1.34 2.01 -0.68 1.02 0 0 Z " fill="#8E2E82" transform="translate(95,29)"/>
<path d="M0 0 C9.46987952 2.30676552 9.46987952 2.30676552 11.625 5.125 C12.14360094 9.10094056 12.15695239 12.99771396 12 17 C11.76539063 16.36578125 11.53078125 15.7315625 11.2890625 15.078125 C10.17709092 12.81749261 10.17709092 12.81749261 7.8359375 12.171875 C7.02382812 12.03265625 6.21171875 11.8934375 5.375 11.75 C3.93125 11.5025 2.4875 11.255 1 11 C0.67 7.37 0.34 3.74 0 0 Z " fill="#AD3287" transform="translate(5,59)"/>
<path d="M0 0 C1.47968324 0.14049518 2.95874516 0.28754826 4.4375 0.4375 C5.67306641 0.55931641 5.67306641 0.55931641 6.93359375 0.68359375 C9 1 9 1 10 2 C10.04092937 4.33297433 10.04241723 6.66705225 10 9 C10.66 9.33 11.32 9.66 12 10 C10.02 12.97 10.02 12.97 8 16 C4.93159431 13.42649845 3.78713078 10.55050614 2.3125 6.875 C1.87550781 5.79992187 1.43851562 4.72484375 0.98828125 3.6171875 C0 1 0 1 0 0 Z " fill="#7C2C80" transform="translate(6,70)"/>
<path d="M0 0 C1.65 1.32 3.3 2.64 5 4 C4.43410156 4.45890625 3.86820313 4.9178125 3.28515625 5.390625 C2.55167969 6.00421875 1.81820312 6.6178125 1.0625 7.25 C-0.03384766 8.15492187 -0.03384766 8.15492187 -1.15234375 9.078125 C-3.14733096 11.15324912 -3.55114488 12.21709828 -4 15 C-4.6469365 16.6744239 -5.30959426 18.34302621 -6 20 C-7.32 18.35 -8.64 16.7 -10 15 C-9.34 14.67 -8.68 14.34 -8 14 C-7.29605388 12.68596724 -6.63654342 11.3479743 -6 10 C-5.0126546 8.32580562 -4.01187895 6.65948148 -3 5 C-2.443125 4.071875 -1.88625 3.14375 -1.3125 2.1875 C-0.879375 1.465625 -0.44625 0.74375 0 0 Z " fill="#C1378A" transform="translate(89,22)"/>
<path d="M0 0 C0.66 0 1.32 0 2 0 C0.83694321 6.51311803 -1.31781049 11.22819921 -6 16 C-8.1953125 17.2265625 -8.1953125 17.2265625 -10 18 C-7.03574783 11.84347626 -3.9910754 5.56469941 0 0 Z " fill="#7D2C80" transform="translate(97,32)"/>
<path d="M0 0 C0.96099609 0.30744141 0.96099609 0.30744141 1.94140625 0.62109375 C6.97287851 2.18827364 11.75988003 3.43042174 17 4 C16.67 4.66 16.34 5.32 16 6 C13.70858714 6.05384521 11.41681812 6.09272087 9.125 6.125 C7.21074219 6.15980469 7.21074219 6.15980469 5.2578125 6.1953125 C2 6 2 6 0 4 C0 2.68 0 1.36 0 0 Z " fill="#634998" transform="translate(58,64)"/>
<path d="M0 0 C0 3.63 0 7.26 0 11 C-3.35111834 8.76592111 -4.81553956 7.73784176 -5.8125 3.75 C-5.874375 2.8425 -5.93625 1.935 -6 1 C-4 0 -4 0 0 0 Z " fill="#47297B" transform="translate(53,49)"/>
<path d="M0 0 C3.12290635 0.48578543 5.99580359 0.9986012 9 2 C8.67 3.32 8.34 4.64 8 6 C3.545 5.01 3.545 5.01 -1 4 C-0.67 2.68 -0.34 1.36 0 0 Z " fill="#942E83" transform="translate(7,66)"/>
<path d="M0 0 C1.66611905 -0.042721 3.33382885 -0.04063832 5 0 C6 1 6 1 6.0625 4.5625 C6.041875 5.696875 6.02125 6.83125 6 8 C5.01 8 4.02 8 3 8 C0 2.25 0 2.25 0 0 Z " fill="#5A297B" transform="translate(9,77)"/>
</svg>
