<?xml version="1.0" encoding="UTF-8"?>
<svg version="1.1" xmlns="http://www.w3.org/2000/svg" width="192" height="192">
<path d="M0 0 C17.05574122 14.80448126 27.56253152 34.00301675 31.48828125 56.17578125 C33.28688051 83.61620383 27.97645275 107.53507536 9.61523438 128.82470703 C-7.28160597 147.70482899 -30.44235463 157.82287004 -55.5703125 159.36328125 C-81.8205812 159.92105588 -105.18332861 149.59937326 -124.19921875 131.92578125 C-143.55436855 111.41510012 -149.47720515 86.82728299 -148.6953125 59.3359375 C-148.30381019 52.59709992 -146.74142642 46.5421834 -144.51171875 40.17578125 C-144.16109375 39.139375 -143.81046875 38.10296875 -143.44921875 37.03515625 C-134.86630073 14.26658206 -117.26707471 -2.90925287 -95.4609375 -13.1015625 C-64.10438736 -27.11451873 -26.43915915 -21.87070977 0 0 Z " fill="#101010" transform="translate(154.51171875,26.82421875)"/>
<path d="M0 0 C1.06476563 -0.020625 2.12953125 -0.04125 3.2265625 -0.0625 C23.89441872 -0.1628294 42.68748995 8.70042175 57.6875 22.5625 C71.02488942 36.94397799 79.51790762 55.21997312 79.3125 74.9375 C79.30347656 75.98478271 79.29445312 77.03206543 79.28515625 78.11108398 C78.82393133 98.95748963 70.63678504 116.62952114 55.875 131.25 C48.75117005 138.05592176 40.98778971 143.04148607 32.125 147.3125 C31.35736328 147.6827832 30.58972656 148.05306641 29.79882812 148.43457031 C10.42748339 157.24198667 -10.80978212 154.52379961 -30.1328125 147.29296875 C-37.89827047 144.180748 -37.89827047 144.180748 -41.125 142.25 C-41.455 141.26 -41.785 140.27 -42.125 139.25 C-43.45067922 138.88742107 -44.78566518 138.55833607 -46.125 138.25 C-55.55335966 131.5946873 -63.67268611 122.34055838 -67.125 111.25 C-67.46547771 108.96507539 -67.75524259 106.67215027 -68 104.375 C-68.76950324 97.40330069 -71.12946176 92.71192113 -74.6640625 86.796875 C-76.125 84.25 -76.125 84.25 -76.125 82.25 C-78.63583114 83.50541557 -78.99625446 84.75063488 -80.125 87.25 C-85.78855125 76.95263409 -88.09246764 62.43275188 -85.60693359 50.83203125 C-83.76634368 44.68542622 -81.04657747 38.95063897 -78.125 33.25 C-77.135 33.58 -76.145 33.91 -75.125 34.25 C-74.50625 33.775625 -73.8875 33.30125 -73.25 32.8125 C-71.125 31.25 -71.125 31.25 -68.5 30.875 C-67.71625 30.99875 -66.9325 31.1225 -66.125 31.25 C-63.909985 34.5725225 -63.93089124 35.12731591 -64.4375 38.875 C-64.53675781 39.67164063 -64.63601562 40.46828125 -64.73828125 41.2890625 C-65.125 43.25 -65.125 43.25 -66.125 44.25 C-66.35787008 45.93183948 -66.53764166 47.6212416 -66.6875 49.3125 C-66.77128906 50.23160156 -66.85507813 51.15070313 -66.94140625 52.09765625 C-67.03228516 53.16306641 -67.03228516 53.16306641 -67.125 54.25 C-66.465 54.25 -65.805 54.25 -65.125 54.25 C-64.795 52.93 -64.465 51.61 -64.125 50.25 C-62.0625 52.1875 -62.0625 52.1875 -60.125 55.25 C-60.07494112 57.43893829 -60.40470761 59.43598202 -60.75 61.59765625 C-62.72518463 75.56797255 -59.62182738 85.63382216 -52.125 97.25 C-51.11987235 98.91357933 -50.11847009 100.57943274 -49.125 102.25 C-50.115 102.25 -51.105 102.25 -52.125 102.25 C-50.7361804 112.88543428 -48.60930008 124.80928529 -39.96484375 132.0625 C-31.16547254 138.59062702 -23.12348536 141.42037088 -12.125 140.25 C-8.38915224 139.44249999 -4.75908105 138.43090061 -1.125 137.25 C-1.125 136.59 -1.125 135.93 -1.125 135.25 C0.86189731 133.89721885 2.86245218 132.56431695 4.875 131.25 C5.205 130.59 5.535 129.93 5.875 129.25 C7.195 129.25 8.515 129.25 9.875 129.25 C9.875 128.59 9.875 127.93 9.875 127.25 C10.535 127.25 11.195 127.25 11.875 127.25 C11.875 126.26 11.875 125.27 11.875 124.25 C9.99167969 124.31960937 9.99167969 124.31960937 8.0703125 124.390625 C-4.90072201 124.73142241 -13.82229028 123.66452621 -24.14453125 115.1875 C-28.16489239 111.25436563 -31.94577035 105.9994843 -32.22265625 100.20703125 C-32.19010417 98.22135417 -32.15755208 96.23567708 -32.125 94.25 C-26.79339022 92.64340825 -21.45818351 91.46265948 -16 90.375 C-0.72392992 88.06702836 -0.72392992 88.06702836 10.875 79.25 C10.215 79.25 9.555 79.25 8.875 79.25 C7.52221885 77.26310269 6.18931695 75.26254782 4.875 73.25 C4.215 72.92 3.555 72.59 2.875 72.25 C2.38 73.735 2.38 73.735 1.875 75.25 C-0.97923192 75.27718316 -3.83320015 75.29692705 -6.6875 75.3125 C-7.88729492 75.32506836 -7.88729492 75.32506836 -9.11132812 75.33789062 C-13.88502158 75.35737509 -18.44198388 75.22844883 -23.125 74.25 C-23.455 73.59 -23.785 72.93 -24.125 72.25 C-19.43534294 71.13341499 -16.58736469 71.44380477 -12.125 73.25 C-11.898125 72.6725 -11.67125 72.095 -11.4375 71.5 C-10.125 69.25 -10.125 69.25 -7.5 67.1875 C-6.71625 66.548125 -5.9325 65.90875 -5.125 65.25 C-5.125 64.26 -5.125 63.27 -5.125 62.25 C3.59656247 61.59451723 9.60761847 62.91571939 16.5546875 68.34375 C23.6718017 74.53254495 27.07768667 78.84170274 27.875 88.25 C29.93774639 86.97306176 31.89912618 85.65180238 33.875 84.25 C34.73351562 83.71826172 34.73351562 83.71826172 35.609375 83.17578125 C38.86989111 80.7148679 39.77124049 78.93544163 40.390625 74.84375 C40.60778337 67.088094 39.87786261 60.92625461 35.875 54.25 C35.33875 53.26 34.8025 52.27 34.25 51.25 C33.02567206 49.12380015 33.02567206 49.12380015 30.875 48.25 C30.7925 48.971875 30.71 49.69375 30.625 50.4375 C29.71249583 53.85939065 28.29328071 55.68946748 25.875 58.25 C22.16420723 59.48693092 18.73580923 59.68805336 14.875 59.25 C13.946875 58.775625 13.01875 58.30125 12.0625 57.8125 C7.47879667 55.5655866 2.91988168 55.51032308 -2.125 55.25 C-1.5610038 51.20079655 -0.33080999 48.59466008 2 45.25 C2.55945313 44.425 3.11890625 43.6 3.6953125 42.75 C6.44694325 39.59400774 9.40158644 37.5822681 12.875 35.25 C10.97814453 35.28480469 10.97814453 35.28480469 9.04296875 35.3203125 C7.3828184 35.33907126 5.72266167 35.35727135 4.0625 35.375 C3.22912109 35.39175781 2.39574219 35.40851562 1.53710938 35.42578125 C0.33344727 35.43544922 0.33344727 35.43544922 -0.89453125 35.4453125 C-2.00211792 35.46102295 -2.00211792 35.46102295 -3.13208008 35.47705078 C-5.125 35.25 -5.125 35.25 -8.125 33.25 C-7.55555878 29.94724095 -6.89260017 28.20489219 -4.125 26.25 C-1.29830753 25.9214525 1.23894775 25.77448252 4.0625 25.8125 C4.83190918 25.82007324 5.60131836 25.82764648 6.39404297 25.83544922 C12.04438669 25.9999757 16.32134399 26.71066547 20.875 30.25 C21.54273437 30.7553125 22.21046875 31.260625 22.8984375 31.78125 C24.66576261 33.20628684 26.34293556 34.57430452 27.875 36.25 C27.875 36.91 27.875 37.57 27.875 38.25 C31.7786874 34.78005564 34.24088975 30.69775994 36.875 26.25 C22.86701573 17.04399519 7.6347554 11.43168723 -9.30371094 14.66601562 C-21.65783534 17.48142981 -32.14421045 22.26891959 -41.625 30.75 C-42.1300708 31.20068848 -42.6351416 31.65137695 -43.15551758 32.11572266 C-46.40184294 35.16972625 -48.35194125 38.17675694 -50.125 42.25 C-48.87203125 42.21519531 -47.6190625 42.18039063 -46.328125 42.14453125 C-44.67709676 42.11638872 -43.02605399 42.08908906 -41.375 42.0625 C-40.55 42.03736328 -39.725 42.01222656 -38.875 41.98632812 C-32.70202246 41.91165501 -32.70202246 41.91165501 -29.546875 43.76171875 C-29.07765625 44.25285156 -28.6084375 44.74398437 -28.125 45.25 C-29.11371094 45.07984375 -30.10242188 44.9096875 -31.12109375 44.734375 C-35.83075047 44.05665836 -40.51962844 44.31827176 -45.25195312 44.640625 C-49.13997384 44.76014149 -51.5089441 44.32975735 -54.46875 41.89453125 C-59.32197759 37.06271496 -59.32197759 37.06271496 -61.125 34.25 C-60.27382962 27.02251818 -53.31419594 21.16414963 -48.125 16.6875 C-33.5422887 5.21817748 -18.43037556 0.08734775 0 0 Z " fill="#F5F7FB" transform="translate(94.125,19.75)"/>
<path d="M0 0 C17.05574122 14.80448126 27.56253152 34.00301675 31.48828125 56.17578125 C33.28688051 83.61620383 27.97645275 107.53507536 9.61523438 128.82470703 C-7.28160597 147.70482899 -30.44235463 157.82287004 -55.5703125 159.36328125 C-81.8205812 159.92105588 -105.18332861 149.59937326 -124.19921875 131.92578125 C-138.15405396 117.13782155 -148.62174534 96.7117482 -148.64453125 76.11328125 C-148.64582031 74.98664063 -148.64710938 73.86 -148.6484375 72.69921875 C-148.64457031 71.53648438 -148.64070312 70.37375 -148.63671875 69.17578125 C-148.64251953 67.43167969 -148.64251953 67.43167969 -148.6484375 65.65234375 C-148.64714844 64.52570313 -148.64585937 63.3990625 -148.64453125 62.23828125 C-148.64340332 61.21863281 -148.64227539 60.19898437 -148.64111328 59.1484375 C-148.50784639 56.08681933 -148.07627942 53.18527646 -147.51171875 50.17578125 C-146.85171875 50.17578125 -146.19171875 50.17578125 -145.51171875 50.17578125 C-145.4859375 51.17996094 -145.46015625 52.18414062 -145.43359375 53.21875 C-145.08549178 62.51364331 -143.74713675 70.38748306 -140.51171875 79.17578125 C-139.85171875 77.85578125 -139.19171875 76.53578125 -138.51171875 75.17578125 C-137.85171875 75.17578125 -137.19171875 75.17578125 -136.51171875 75.17578125 C-131.32499709 83.78815163 -128.06974074 90.69068176 -127.03125 100.8359375 C-125.30369881 111.94162369 -117.62846752 120.8629981 -109.51171875 128.17578125 C-108.2889125 128.92487607 -107.04730488 129.64411825 -105.7890625 130.33203125 C-102.51171875 132.17578125 -102.51171875 132.17578125 -100.51171875 135.17578125 C-98.67516374 136.17435423 -98.67516374 136.17435423 -96.51171875 136.89453125 C-95.70605469 137.18714844 -94.90039062 137.47976562 -94.0703125 137.78125 C-93.22597656 138.07644531 -92.38164063 138.37164062 -91.51171875 138.67578125 C-90.69832031 138.97097656 -89.88492188 139.26617187 -89.046875 139.5703125 C-86.54426859 140.46777167 -84.03048316 141.32484075 -81.51171875 142.17578125 C-80.70718262 142.46404785 -79.90264648 142.75231445 -79.07373047 143.04931641 C-72.53731115 145.24639923 -66.50468714 145.64682912 -59.63671875 145.55078125 C-58.57316162 145.53917969 -57.50960449 145.52757812 -56.41381836 145.515625 C-38.30165759 145.13733215 -21.99318377 138.30399315 -8.51171875 126.17578125 C-7.58359375 125.45841797 -7.58359375 125.45841797 -6.63671875 124.7265625 C6.55525618 114.44977846 15.45114989 96.56183302 17.48828125 80.17578125 C19.40278371 57.78391674 15.2231869 39.22972815 1.05078125 21.30078125 C-11.14947458 7.13208078 -28.59103999 -3.75725384 -47.51171875 -5.82421875 C-51.55427721 -6.01111204 -55.59025517 -6.0550412 -59.63671875 -6.07421875 C-61.23386719 -6.10515625 -61.23386719 -6.10515625 -62.86328125 -6.13671875 C-73.51754372 -6.18843847 -83.12882171 -4.10086654 -92.57421875 0.86328125 C-93.24831787 1.21068359 -93.92241699 1.55808594 -94.61694336 1.91601562 C-105.16440602 7.49043941 -113.85584049 14.19196386 -120.51171875 24.17578125 C-122.38671875 23.61328125 -122.38671875 23.61328125 -124.51171875 22.17578125 C-125.76171875 18.55078125 -125.76171875 18.55078125 -126.51171875 15.17578125 C-128.95879783 17.96038848 -130.74167959 20.48811373 -132.07421875 23.92578125 C-132.54859375 24.99828125 -133.02296875 26.07078125 -133.51171875 27.17578125 C-134.99671875 27.67078125 -134.99671875 27.67078125 -136.51171875 28.17578125 C-137.22265625 26.49609375 -137.22265625 26.49609375 -137.51171875 24.17578125 C-126.09277775 3.2744448 -105.22876881 -10.88446942 -82.91015625 -17.63671875 C-54.40832947 -25.66330882 -22.80454323 -18.86412286 0 0 Z " fill="#0C50CD" transform="translate(154.51171875,26.82421875)"/>
<path d="M0 0 C0.680625 0.54398438 1.36125 1.08796875 2.0625 1.6484375 C2.0625 5.45049176 0.8624031 6.76000311 -1.3125 9.8359375 C-1.93898438 10.73699219 -2.56546875 11.63804688 -3.2109375 12.56640625 C-4.06558594 13.59701172 -4.06558594 13.59701172 -4.9375 14.6484375 C-5.5975 14.6484375 -6.2575 14.6484375 -6.9375 14.6484375 C-7.453125 13.9265625 -7.96875 13.2046875 -8.5 12.4609375 C-12.19762144 8.19445122 -16.9512096 6.1415827 -21.9375 3.6484375 C-24.76340981 3.49772231 -27.54822462 3.41711149 -30.375 3.3984375 C-31.15166016 3.3778125 -31.92832031 3.3571875 -32.72851562 3.3359375 C-36.98171456 3.19260274 -36.98171456 3.19260274 -40.68383789 4.98144531 C-42.23802412 6.70041174 -42.23802412 6.70041174 -41.9375 9.6484375 C-39.58897472 10.82270014 -38.19975935 10.76351923 -35.5859375 10.74609375 C-34.73515625 10.74287109 -33.884375 10.73964844 -33.0078125 10.73632812 C-31.67363281 10.72375977 -31.67363281 10.72375977 -30.3125 10.7109375 C-29.4153125 10.70642578 -28.518125 10.70191406 -27.59375 10.69726562 C-25.37493352 10.68546341 -23.15624982 10.66899905 -20.9375 10.6484375 C-22.99128073 12.75421268 -24.87867667 14.60818996 -27.3125 16.2734375 C-31.82125289 20.35278535 -35.01742354 25.88820812 -36.9375 31.6484375 C-36.21304688 31.61363281 -35.48859375 31.57882813 -34.7421875 31.54296875 C-28.77374429 31.37585234 -25.26179306 31.80881453 -19.9375 34.6484375 C-16.10298 35.24423941 -12.78320378 34.96792559 -9.125 33.5859375 C-6.11738527 30.92205017 -5.28743335 28.41404105 -3.9375 24.6484375 C-0.51321034 25.78986739 -0.17680484 26.37058471 1.625 29.3359375 C2.03878906 29.99980469 2.45257813 30.66367188 2.87890625 31.34765625 C6.67488776 38.7266434 7.48981131 46.50336158 6.0625 54.6484375 C3.27601798 59.02885704 -0.18284033 62.77706556 -5.234375 64.375 C-5.79640625 64.46523437 -6.3584375 64.55546875 -6.9375 64.6484375 C-7.10765625 64.06835938 -7.2778125 63.48828125 -7.453125 62.890625 C-10.36083001 53.5179163 -15.23698524 46.53994301 -23.84765625 41.5390625 C-27.81795 39.81072107 -31.06481308 39.58734308 -35.375 39.7734375 C-41.44310239 39.97542704 -44.95133627 37.83598506 -49.9375 34.6484375 C-51.58741582 33.94133072 -53.24579042 33.24872154 -54.9375 32.6484375 C-54.9375 30.6684375 -54.9375 28.6884375 -54.9375 26.6484375 C-55.700625 26.3596875 -56.46375 26.0709375 -57.25 25.7734375 C-59.9375 24.6484375 -59.9375 24.6484375 -62.9375 22.6484375 C-62.9375 21.9884375 -62.9375 21.3284375 -62.9375 20.6484375 C-65.74497455 19.8688917 -68.35779808 19.4774226 -71.265625 19.33203125 C-72.06484375 19.29013672 -72.8640625 19.24824219 -73.6875 19.20507812 C-74.5125 19.16576172 -75.3375 19.12644531 -76.1875 19.0859375 C-77.02796875 19.04275391 -77.8684375 18.99957031 -78.734375 18.95507812 C-80.80190671 18.84935207 -82.86968281 18.74842455 -84.9375 18.6484375 C-82.96666081 9.8122985 -74.0065471 3.61385578 -66.9375 -1.3515625 C-45.24872963 -15.02491774 -21.21974093 -12.47224134 0 0 Z " fill="#0438F6" transform="translate(128.9375,43.3515625)"/>
<path d="M0 0 C1.175625 0.185625 1.175625 0.185625 2.375 0.375 C4.590015 3.6975225 4.56910876 4.25231591 4.0625 8 C3.96324219 8.79664063 3.86398438 9.59328125 3.76171875 10.4140625 C3.375 12.375 3.375 12.375 2.375 13.375 C2.14212992 15.05683948 1.96235834 16.7462416 1.8125 18.4375 C1.72871094 19.35660156 1.64492188 20.27570313 1.55859375 21.22265625 C1.46771484 22.28806641 1.46771484 22.28806641 1.375 23.375 C2.035 23.375 2.695 23.375 3.375 23.375 C3.705 22.055 4.035 20.735 4.375 19.375 C6.4375 21.3125 6.4375 21.3125 8.375 24.375 C8.42505888 26.56393829 8.09529239 28.56098202 7.75 30.72265625 C5.77481537 44.69297255 8.87817262 54.75882216 16.375 66.375 C17.38012765 68.03857933 18.38152991 69.70443274 19.375 71.375 C18.385 71.375 17.395 71.375 16.375 71.375 C17.7638196 82.01043428 19.89069992 93.93428529 28.53515625 101.1875 C37.52682348 107.85828867 45.20864346 110.17508162 56.375 109.375 C58.0146875 109.065625 58.0146875 109.065625 59.6875 108.75 C62.375 108.375 62.375 108.375 65.1640625 109.3125 C70.46234165 111.06570186 75.83123345 111.10835351 81.375 111.375 C82.44492188 111.44074219 83.51484375 111.50648438 84.6171875 111.57421875 C94.86382402 111.93748581 103.96377224 109.27293389 113.375 105.375 C110.37503675 110.73973021 107.39381754 112.98774535 101.875 115.5625 C100.79508789 116.07393555 100.79508789 116.07393555 99.69335938 116.59570312 C80.55346897 125.407211 60.81360501 124.44778091 41.21777344 117.48510742 C31.51761952 113.85378053 31.51761952 113.85378053 27.375 111.375 C27.045 110.385 26.715 109.395 26.375 108.375 C25.04932078 108.01242107 23.71433482 107.68333607 22.375 107.375 C12.94664034 100.7196873 4.82731389 91.46555838 1.375 80.375 C1.03452229 78.09007539 0.74475741 75.79715027 0.5 73.5 C-0.26950324 66.52830069 -2.62946176 61.83692113 -6.1640625 55.921875 C-7.625 53.375 -7.625 53.375 -7.625 51.375 C-10.13583114 52.63041557 -10.49625446 53.87563488 -11.625 56.375 C-17.28855125 46.07763409 -19.59246764 31.55775188 -17.10693359 19.95703125 C-15.26634368 13.81042622 -12.54657747 8.07563897 -9.625 2.375 C-8.635 2.705 -7.645 3.035 -6.625 3.375 C-6.00625 2.900625 -5.3875 2.42625 -4.75 1.9375 C-2.625 0.375 -2.625 0.375 0 0 Z " fill="#BCC3C8" transform="translate(25.625,50.625)"/>
<path d="M0 0 C0.680625 1.0209375 0.680625 1.0209375 1.375 2.0625 C5.04364584 6.16788939 9.42918125 8.97314102 14 12 C13.34034961 18.86036401 11.7637236 25.34443923 10 32 C16.98533796 33.56901859 16.98533796 33.56901859 24 35 C21.19431533 41.50918844 15.12894641 44.71246205 8.8125 47.375 C5.3851403 48.73708479 2.6881474 49.17032297 -1 49 C-1 48.34 -1 47.68 -1 47 C-0.34 47 0.32 47 1 47 C1 46.01 1 45.02 1 44 C-0.25554687 44.04640625 -1.51109375 44.0928125 -2.8046875 44.140625 C-15.77572201 44.48142241 -24.69729028 43.41452621 -35.01953125 34.9375 C-39.03989239 31.00436563 -42.82077035 25.7494843 -43.09765625 19.95703125 C-43.06510417 17.97135417 -43.03255208 15.98567708 -43 14 C-37.66844641 12.39342519 -32.33326118 11.21212256 -26.875 10.125 C-12.06968551 7.77427927 -12.06968551 7.77427927 0 0 Z " fill="#1593E3" transform="translate(105,100)"/>
<path d="M0 0 C1.175625 0.185625 1.175625 0.185625 2.375 0.375 C4.590015 3.6975225 4.56910876 4.25231591 4.0625 8 C3.96324219 8.79664063 3.86398438 9.59328125 3.76171875 10.4140625 C3.375 12.375 3.375 12.375 2.375 13.375 C2.14212992 15.05683948 1.96235834 16.7462416 1.8125 18.4375 C1.72871094 19.35660156 1.64492188 20.27570313 1.55859375 21.22265625 C1.46771484 22.28806641 1.46771484 22.28806641 1.375 23.375 C2.035 23.375 2.695 23.375 3.375 23.375 C3.705 22.055 4.035 20.735 4.375 19.375 C6.4375 21.3125 6.4375 21.3125 8.375 24.375 C8.42505888 26.56393829 8.09529239 28.56098202 7.75 30.72265625 C6.60078223 38.85097773 6.95554869 46.38936697 9.640625 54.140625 C10.64854719 57.20728187 11.02693813 60.1728308 11.375 63.375 C10.715 63.375 10.055 63.375 9.375 63.375 C9.375 64.035 9.375 64.695 9.375 65.375 C0.40958755 61.23711733 -5.65547712 55.41669101 -9.625 46.375 C-10.615 47.365 -11.605 48.355 -12.625 49.375 C-13.099375 48.405625 -13.57375 47.43625 -14.0625 46.4375 C-15.32693947 43.57022563 -15.32693947 43.57022563 -16.625 42.375 C-18.70649407 26.94110693 -16.68135161 16.14349094 -9.625 2.375 C-8.635 2.705 -7.645 3.035 -6.625 3.375 C-6.00625 2.900625 -5.3875 2.42625 -4.75 1.9375 C-2.625 0.375 -2.625 0.375 0 0 Z " fill="#EDEFF2" transform="translate(25.625,50.625)"/>
<path d="M0 0 C1.92779492 0.23674674 3.85506453 0.47981092 5.77734375 0.7578125 C8.2292767 1.0847805 8.2292767 1.0847805 11.625 0.8125 C15.94566073 2.33273248 16.33255407 3.8054156 18.375 7.8125 C21.66807583 15.0414178 22.20822462 20.76078473 22.25 28.625 C22.270625 29.57246094 22.29125 30.51992187 22.3125 31.49609375 C22.36436745 40.97487039 20.33166608 51.56854081 14 59 C8.87553829 61.98845281 2.81178928 62.47165552 -3 63 C-5.87866109 52.74476987 -5.87866109 52.74476987 -5 48 C-3.1938041 46.21615801 -1.28933355 44.88059191 0.82421875 43.4765625 C4.8461222 40.74715585 8.43655993 37.6903202 10 33 C11.13519015 19.89878913 7.73328765 10.43993833 0 0 Z " fill="#1276E9" transform="translate(128,64)"/>
<path d="M0 0 C0.77730469 0.62648438 1.55460937 1.25296875 2.35546875 1.8984375 C3.14566406 2.53007813 3.93585938 3.16171875 4.75 3.8125 C5.34167969 4.29460937 5.93335938 4.77671875 6.54296875 5.2734375 C6.29283006 9.5257953 5.97410277 11.74908531 3.23046875 15.0859375 C-0.16957525 17.85341517 -2.04792004 19.2734375 -6.45703125 19.2734375 C-6.45703125 19.9334375 -6.45703125 20.5934375 -6.45703125 21.2734375 C-8.43703125 21.2734375 -10.41703125 21.2734375 -12.45703125 21.2734375 C-12.45703125 21.9334375 -12.45703125 22.5934375 -12.45703125 23.2734375 C-21.35314992 23.75001529 -27.60529645 21.55172583 -34.625 16.02734375 C-37.57053702 13.20741598 -39.72928926 9.96150212 -41.45703125 6.2734375 C-41.45703125 5.6134375 -41.45703125 4.9534375 -41.45703125 4.2734375 C-40.25949219 4.03109375 -39.06195313 3.78875 -37.828125 3.5390625 C-36.18340644 3.20143201 -34.53888939 2.86281901 -32.89453125 2.5234375 C-31.60844971 2.25926025 -31.60844971 2.25926025 -30.29638672 1.98974609 C-23.60550826 0.58603926 -17.08985856 -1.17453812 -10.55859375 -3.1875 C-5.9423232 -3.9898241 -3.73328043 -2.62338625 0 0 Z " fill="#87D8F6" transform="translate(110.45703125,107.7265625)"/>
<path d="M0 0 C0.76940918 0.00757324 1.53881836 0.01514648 2.33154297 0.02294922 C7.9829094 0.18750548 12.25711365 0.89923079 16.8125 4.4375 C17.46863281 4.93121094 18.12476562 5.42492188 18.80078125 5.93359375 C23.59557482 9.78672445 23.59557482 9.78672445 24.8125 13.4375 C24.585625 14.241875 24.35875 15.04625 24.125 15.875 C24.021875 16.720625 23.91875 17.56625 23.8125 18.4375 C25.64608335 20.77204661 25.64608335 20.77204661 27.8125 22.4375 C26.17146548 26.29713985 24.73158322 29.62053714 21.5625 32.4375 C17.92573741 33.75995913 14.60833025 34.01972894 10.8125 33.4375 C9.884375 32.963125 8.95625 32.48875 8 32 C3.41629667 29.7530866 -1.14261832 29.69782308 -6.1875 29.4375 C-5.6235038 25.38829655 -4.39330999 22.78216008 -2.0625 19.4375 C-1.50304687 18.6125 -0.94359375 17.7875 -0.3671875 16.9375 C2.38444325 13.78150774 5.33908644 11.7697681 8.8125 9.4375 C6.91564453 9.47230469 6.91564453 9.47230469 4.98046875 9.5078125 C3.3203184 9.52657126 1.66016167 9.54477135 0 9.5625 C-0.83337891 9.57925781 -1.66675781 9.59601562 -2.52539062 9.61328125 C-3.32783203 9.61972656 -4.13027344 9.62617187 -4.95703125 9.6328125 C-6.06461792 9.64852295 -6.06461792 9.64852295 -7.19458008 9.66455078 C-9.1875 9.4375 -9.1875 9.4375 -12.1875 7.4375 C-10.93279384 0.16020426 -6.67392028 -0.08986044 0 0 Z " fill="#A4E6FB" transform="translate(98.1875,45.5625)"/>
<path d="M0 0 C0.680625 0.54398438 1.36125 1.08796875 2.0625 1.6484375 C2.0625 2.6384375 2.0625 3.6284375 2.0625 4.6484375 C-1.07099732 5.69293661 -1.92718256 5.58267395 -4.9375 4.6484375 C-4.9375 3.9884375 -4.9375 3.3284375 -4.9375 2.6484375 C-5.494375 2.46667969 -6.05125 2.28492188 -6.625 2.09765625 C-7.388125 1.84628906 -8.15125 1.59492187 -8.9375 1.3359375 C-9.68 1.09230469 -10.4225 0.84867188 -11.1875 0.59765625 C-13.9375 -0.3515625 -13.9375 -0.3515625 -17.546875 -1.9375 C-22.70633824 -3.88077671 -27.73572605 -3.75516835 -33.1875 -3.6640625 C-34.1671875 -3.66728516 -35.146875 -3.67050781 -36.15625 -3.67382812 C-40.7379836 -3.63940253 -43.87680217 -3.57747645 -47.9375 -1.3515625 C-51.57940647 -0.24598375 -55.23661843 0.76022592 -58.9375 1.6484375 C-58.90627057 3.61600202 -58.90627057 3.61600202 -57.9375 5.6484375 C-54.94134054 6.9530031 -54.94134054 6.9530031 -51.9375 7.6484375 C-52.51113281 7.8959375 -53.08476563 8.1434375 -53.67578125 8.3984375 C-56.28289758 9.83933081 -58.04289016 11.52335729 -60.125 13.6484375 C-60.81980469 14.3496875 -61.51460937 15.0509375 -62.23046875 15.7734375 C-63.99939325 17.54602082 -63.99939325 17.54602082 -64.9375 19.6484375 C-71.5375 19.3184375 -78.1375 18.9884375 -84.9375 18.6484375 C-82.54926867 9.09551216 -72.59898078 2.21763191 -64.6015625 -2.82421875 C-42.88660958 -14.61955032 -20.64594945 -12.13498625 0 0 Z " fill="#090ECB" transform="translate(128.9375,43.3515625)"/>
<path d="M0 0 C3.53423241 1.38711979 6.79304409 3.05196043 9.9375 5.1875 C9.9375 5.8475 9.9375 6.5075 9.9375 7.1875 C11.9175 7.5175 13.8975 7.8475 15.9375 8.1875 C14.98766642 9.69289661 14.02738109 11.19170347 13.0625 12.6875 C12.52882812 13.5228125 11.99515625 14.358125 11.4453125 15.21875 C10.94773438 15.8684375 10.45015625 16.518125 9.9375 17.1875 C9.2775 17.1875 8.6175 17.1875 7.9375 17.1875 C7.421875 16.465625 6.90625 15.74375 6.375 15 C2.67737856 10.73351372 -2.0762096 8.6806452 -7.0625 6.1875 C-9.88840981 6.03678481 -12.67322462 5.95617399 -15.5 5.9375 C-16.27666016 5.916875 -17.05332031 5.89625 -17.85351562 5.875 C-22.08672917 5.71459068 -22.08672917 5.71459068 -25.74633789 7.52050781 C-27.27715712 9.26533027 -27.27715712 9.26533027 -28.0625 12.1875 C-29.98039713 11.90403722 -31.89679183 11.6103972 -33.8125 11.3125 C-34.87984375 11.15007813 -35.9471875 10.98765625 -37.046875 10.8203125 C-39.73958871 10.25526118 -41.69822439 9.55327086 -44.0625 8.1875 C-44.0625 6.8675 -44.0625 5.5475 -44.0625 4.1875 C-40.17961169 1.03265324 -35.83272201 0.28230505 -31.0625 -0.8125 C-23.18249908 -4.75250046 -8.17592297 -2.68769362 0 0 Z " fill="#2E89DB" transform="translate(114.0625,40.8125)"/>
<path d="M0 0 C8.72156247 -0.65548277 14.73261847 0.66571939 21.6796875 6.09375 C27.34325352 11.01859001 31.71726375 15.23512858 33.1875 22.8125 C33.34605469 23.60269531 33.50460938 24.39289063 33.66796875 25.20703125 C33.77753906 25.79871094 33.88710937 26.39039062 34 27 C28.75951583 26.67246974 24.62705836 23.61858392 21 20 C20.265625 17.80078125 20.265625 17.80078125 20 16 C17.03 16.495 17.03 16.495 14 17 C13.38125 16.030625 12.7625 15.06125 12.125 14.0625 C10.34321154 10.97164638 10.34321154 10.97164638 8 10 C7.67 10.99 7.34 11.98 7 13 C4.14576808 13.02718316 1.29179985 13.04692705 -1.5625 13.0625 C-2.76229492 13.07506836 -2.76229492 13.07506836 -3.98632812 13.08789062 C-8.76002158 13.10737509 -13.31698388 12.97844883 -18 12 C-18.33 11.34 -18.66 10.68 -19 10 C-14.31034294 8.88341499 -11.46236469 9.19380477 -7 11 C-6.773125 10.4225 -6.54625 9.845 -6.3125 9.25 C-5 7 -5 7 -2.375 4.9375 C-1.59125 4.298125 -0.8075 3.65875 0 3 C0 2.01 0 1.02 0 0 Z " fill="#ACE7F4" transform="translate(89,82)"/>
<path d="M0 0 C0.99 0.495 0.99 0.495 2 1 C-1.24815354 5.82174088 -4.77006723 7.7849032 -9.875 10.1875 C-10.56980469 10.52974609 -11.26460937 10.87199219 -11.98046875 11.22460938 C-17.41516127 13.86007703 -22.59410308 16.30424977 -28.75 16.1875 C-29.50796875 16.18105469 -30.2659375 16.17460937 -31.046875 16.16796875 C-33 16 -33 16 -35 15 C-36.89392051 14.75552815 -38.79023897 14.52952986 -40.6875 14.3125 C-46.21491336 13.50345961 -51.09583464 12.07074235 -56.25 10 C-56.90572998 9.73872314 -57.56145996 9.47744629 -58.23706055 9.20825195 C-62.86450079 7.27099843 -62.86450079 7.27099843 -64 5 C-61.62673685 4.60747556 -59.25312786 4.23572726 -56.875 3.875 C-56.20984375 3.76285156 -55.5446875 3.65070313 -54.859375 3.53515625 C-50.25644205 2.85825435 -47.30172643 3.37011718 -43 5 C-38.6828735 5.60133431 -34.35215926 5.79066795 -30 6 C-28.93007812 6.06574219 -27.86015625 6.13148438 -26.7578125 6.19921875 C-17.55405778 6.52551323 -7.80104434 5.20069623 0 0 Z " fill="#DB8B2D" transform="translate(137,156)"/>
<path d="M0 0 C3.3 0 6.6 0 10 0 C10.98414433 1.91411557 11.96213349 3.8313967 12.9375 5.75 C13.48277344 6.81734375 14.02804688 7.8846875 14.58984375 8.984375 C17.33322332 14.85110362 17.216064 20.2365484 17.25 26.625 C17.270625 27.57246094 17.29125 28.51992187 17.3125 29.49609375 C17.36426502 38.95615075 15.34287113 49.59477607 9 57 C4.67798194 59.4674794 -0.02979057 60.48098801 -5 60 C-3 57 -3 57 -0.9375 56.25 C-0.298125 55.8375 0.34125 55.425 1 55 C1.81870185 51.43793339 1.81870185 51.43793339 2 48 C2.66 48 3.32 48 4 48 C4.2475 47.154375 4.495 46.30875 4.75 45.4375 C6.14209487 41.60923912 7.91649003 38.49491995 10 35 C11.66617889 31.66764222 11.22670485 27.97275012 11.25 24.3125 C11.270625 23.52166016 11.29125 22.73082031 11.3125 21.91601562 C11.35474748 15.52080392 10.49310409 10.65994662 5.95703125 5.8203125 C5.24933594 5.26085937 4.54164063 4.70140625 3.8125 4.125 C2.53163565 3.09569279 1.2576719 2.05751984 0 1 C0 0.67 0 0.34 0 0 Z " fill="#0A16D2" transform="translate(133,66)"/>
<path d="M0 0 C5.98561398 6.78369584 6.65856012 13.50878277 6.59765625 22.33984375 C5.77216651 27.395294 3.69930177 29.57782868 -0.15234375 32.77734375 C-2 34 -2 34 -3 34 C-3.12955078 33.07380859 -3.12955078 33.07380859 -3.26171875 32.12890625 C-4.22768005 26.30655234 -5.83606291 21.91135646 -8.9765625 16.91015625 C-10 15 -10 15 -10 12 C-8.906875 11.505 -7.81375 11.01 -6.6875 10.5 C-2.1339992 7.95593882 -1.38295015 4.88100054 0 0 Z " fill="#389BE7" transform="translate(129,72)"/>
<path d="M0 0 C5.30915684 0.08703536 5.30915684 0.08703536 8 1 C9.8125 4.25 9.8125 4.25 11 8 C11.53625 8.845625 12.0725 9.69125 12.625 10.5625 C15.43044507 15.53578899 15.13611622 21.10160081 15.125 26.6875 C15.12886719 28.64236328 15.12886719 28.64236328 15.1328125 30.63671875 C15 34 15 34 14 37 C13.34 37 12.68 37 12 37 C11.92265625 38.03447266 11.92265625 38.03447266 11.84375 39.08984375 C10.86414865 47.20495041 7.88906978 51.453318 2 57 C2.33 57.66 2.66 58.32 3 59 C0.36 59.33 -2.28 59.66 -5 60 C-3 57 -3 57 -0.9375 56.25 C-0.298125 55.8375 0.34125 55.425 1 55 C1.81870185 51.43793339 1.81870185 51.43793339 2 48 C2.66 48 3.32 48 4 48 C4.2475 47.154375 4.495 46.30875 4.75 45.4375 C6.14209487 41.60923912 7.91649003 38.49491995 10 35 C11.66617889 31.66764222 11.22670485 27.97275012 11.25 24.3125 C11.270625 23.52166016 11.29125 22.73082031 11.3125 21.91601562 C11.35474748 15.52080392 10.49310409 10.65994662 5.95703125 5.8203125 C5.24933594 5.26085937 4.54164063 4.70140625 3.8125 4.125 C2.53163565 3.09569279 1.2576719 2.05751984 0 1 C0 0.67 0 0.34 0 0 Z " fill="#064FE7" transform="translate(133,66)"/>
<path d="M0 0 C9.41002278 0.96355353 9.41002278 0.96355353 14 2 C11.19431533 8.50918844 5.12894641 11.71246205 -1.1875 14.375 C-4.6148597 15.73708479 -7.3118526 16.17032297 -11 16 C-11 15.34 -11 14.68 -11 14 C-10.34 14 -9.68 14 -9 14 C-9 13.01 -9 12.02 -9 11 C-9.84763916 11.01571045 -9.84763916 11.01571045 -10.71240234 11.03173828 C-13.26655653 11.07324788 -15.82063982 11.0993096 -18.375 11.125 C-19.26445313 11.14175781 -20.15390625 11.15851563 -21.0703125 11.17578125 C-21.92109375 11.18222656 -22.771875 11.18867188 -23.6484375 11.1953125 C-24.82672119 11.21102295 -24.82672119 11.21102295 -26.02880859 11.22705078 C-28 11 -28 11 -30 9 C-28.92363281 9.03480469 -27.84726563 9.06960937 -26.73828125 9.10546875 C-11.18407583 9.54481817 -11.18407583 9.54481817 3 4 C2.01 3.34 1.02 2.68 0 2 C0 1.34 0 0.68 0 0 Z " fill="#0E1FC7" transform="translate(115,133)"/>
<path d="M0 0 C3.53423241 1.38711979 6.79304409 3.05196043 9.9375 5.1875 C9.9375 5.8475 9.9375 6.5075 9.9375 7.1875 C11.9175 7.5175 13.8975 7.8475 15.9375 8.1875 C13.9575 11.1575 13.9575 11.1575 11.9375 14.1875 C8.41894841 12.78007936 7.55137166 11.52283477 5.9375 8.1875 C4.9475 7.8575 3.9575 7.5275 2.9375 7.1875 C2.9375 6.5275 2.9375 5.8675 2.9375 5.1875 C0.2975 4.5275 -2.3425 3.8675 -5.0625 3.1875 C-5.0625 2.5275 -5.0625 1.8675 -5.0625 1.1875 C-8.24992115 1.12884965 -11.43720118 1.09368741 -14.625 1.0625 C-15.52025391 1.04574219 -16.41550781 1.02898438 -17.33789062 1.01171875 C-22.69820327 0.97244906 -26.9757077 1.5265066 -32.0625 3.1875 C-35.5 3.3125 -35.5 3.3125 -38.0625 3.1875 C-38.0625 3.8475 -38.0625 4.5075 -38.0625 5.1875 C-38.866875 5.31125 -39.67125 5.435 -40.5 5.5625 C-41.7684375 5.871875 -41.7684375 5.871875 -43.0625 6.1875 C-43.3925 6.8475 -43.7225 7.5075 -44.0625 8.1875 C-44.0625 6.8675 -44.0625 5.5475 -44.0625 4.1875 C-40.17961169 1.03265324 -35.83272201 0.28230505 -31.0625 -0.8125 C-23.18249908 -4.75250046 -8.17592297 -2.68769362 0 0 Z " fill="#0D58D2" transform="translate(114.0625,40.8125)"/>
<path d="M0 0 C3.9492568 0.55105909 7.34920174 1.38935371 11 3 C11.16682272 7.92127034 11.24828052 11.50343896 9 16 C6.69 16.33 4.38 16.66 2 17 C-0.91235821 13.76574957 -1.36624942 11.6878536 -1.25 7.375 C-1.23453125 6.41335937 -1.2190625 5.45171875 -1.203125 4.4609375 C-1 2 -1 2 0 0 Z " fill="#DFE5E7" transform="translate(56,71)"/>
<path d="M0 0 C1.19625 0.165 2.3925 0.33 3.625 0.5 C7.82574034 0.99185884 11.89889724 0.97433148 16.125 0.875 C21.61940762 0.81553671 25.24110861 1.28063349 30 4 C29.1875 6.5 29.1875 6.5 27 9 C19.39155438 10.59002059 11.78862904 8.46629835 5 5 C2.97185844 3.4469979 1.61334055 2.00276758 0 0 Z " fill="#3A3B39" transform="translate(55,152)"/>
<path d="M0 0 C3.85025879 0.60355408 6.86101159 1.76772603 10.3125 3.5625 C11.19550781 4.01753906 12.07851562 4.47257812 12.98828125 4.94140625 C13.65214844 5.29074219 14.31601563 5.64007813 15 6 C13.66415278 10.00754167 11.23106172 11.37476236 8 14 C7.67 14.66 7.34 15.32 7 16 C1.25 15.25 1.25 15.25 -1 13 C-0.34 11.35 0.32 9.7 1 8 C0.34 7.67 -0.32 7.34 -1 7 C-0.67 4.69 -0.34 2.38 0 0 Z " fill="#040A21" transform="translate(75,77)"/>
<path d="M0 0 C3.57510089 1.28979121 6.2997323 2.82395184 9.3125 5.125 C17.02807229 10.66766262 30.2136433 19.62656742 40.0625 19 C44 19 44 19 45.72265625 19.92578125 C49.12454463 21.53044558 52.67853608 21.77784034 56.375 22.1875 C57.48875 22.32961914 57.48875 22.32961914 58.625 22.47460938 C63.00018007 22.98092438 66.64329552 22.8636071 71 22 C73.875 22.4375 73.875 22.4375 76 23 C76 23.33 76 23.66 76 24 C52.89860067 27.55406144 28.40383926 22.29720542 9.4453125 8.43359375 C6.23303626 6.02706668 3.06738825 3.58948039 0 1 C0 0.67 0 0.34 0 0 Z " fill="#10B8EE" transform="translate(34,161)"/>
<path d="M0 0 C6.625 -0.125 6.625 -0.125 10 1 C12.39490986 1.06970052 14.79167691 1.08448003 17.1875 1.0625 C18.45980469 1.05347656 19.73210937 1.04445312 21.04296875 1.03515625 C22.01878906 1.02355469 22.99460937 1.01195312 24 1 C22.64599529 3.70800942 20.88162037 3.97826635 18.13598633 4.95483398 C2.12772003 10.28962711 2.12772003 10.28962711 -5.30078125 6.97265625 C-6.14189453 6.49119141 -6.14189453 6.49119141 -7 6 C-6.030625 5.38125 -5.06125 4.7625 -4.0625 4.125 C-0.97164638 2.34321154 -0.97164638 2.34321154 0 0 Z " fill="#F0A429" transform="translate(100,149)"/>
<path d="M0 0 C2 1.0625 2 1.0625 4 3 C4.5694613 6.35349435 4.72036498 8.72156572 3.01171875 11.75390625 C0.60745655 14.84297379 -1.20256008 16.30217984 -5 17 C-7.66580977 7.74807198 -7.66580977 7.74807198 -6 4 C-2.9375 1.6875 -2.9375 1.6875 0 0 Z " fill="#5ABDF2" transform="translate(130,110)"/>
<path d="M0 0 C0.66 0.33 1.32 0.66 2 1 C-1.24815354 5.82174088 -4.77006723 7.7849032 -9.875 10.1875 C-10.56980469 10.52974609 -11.26460937 10.87199219 -11.98046875 11.22460938 C-17.40541856 13.85535245 -22.61014385 16.29234384 -28.75 16.25 C-29.50796875 16.25515625 -30.2659375 16.2603125 -31.046875 16.265625 C-33 16 -33 16 -35 14 C-34.3387915 13.83395264 -33.67758301 13.66790527 -32.99633789 13.49682617 C-30.0148621 12.74023831 -27.03880526 11.96416695 -24.0625 11.1875 C-23.02158203 10.92646484 -21.98066406 10.66542969 -20.90820312 10.39648438 C-19.91884766 10.13544922 -18.92949219 9.87441406 -17.91015625 9.60546875 C-16.99371338 9.36981201 -16.07727051 9.13415527 -15.13305664 8.89135742 C-14.0771936 8.4501355 -14.0771936 8.4501355 -13 8 C-12.67 7.01 -12.34 6.02 -12 5 C-9.53125 3.8671875 -9.53125 3.8671875 -6.5 2.875 C-2.97094293 1.92229962 -2.97094293 1.92229962 0 0 Z " fill="#F0BF59" transform="translate(137,156)"/>
<path d="M0 0 C2.51083114 1.25541557 2.87125446 2.50063488 4 5 C4.66 4.01 5.32 3.02 6 2 C6.68835938 3.10408203 6.68835938 3.10408203 7.390625 4.23046875 C8.00421875 5.20628906 8.6178125 6.18210937 9.25 7.1875 C9.85328125 8.15042969 10.4565625 9.11335938 11.078125 10.10546875 C12.95021327 13.03953688 12.95021327 13.03953688 15.234375 15.67578125 C17 18 17 18 17 21 C17.51433542 23.74595606 18.08406144 26.47731116 18.66015625 29.2109375 C19.01163752 32.09550793 18.72687264 34.20433601 18 37 C17.67 37 17.34 37 17 37 C16.90525391 35.71029297 16.90525391 35.71029297 16.80859375 34.39453125 C15.90401547 25.66297041 13.96614691 20.08620504 9.4609375 12.546875 C8 10 8 10 8 8 C5.48916886 9.25541557 5.12874554 10.50063488 4 13 C1.55302334 8.63799813 0.49730652 4.97306516 0 0 Z " fill="#669DB4" transform="translate(10,94)"/>
<path d="M0 0 C2.64 0.33 5.28 0.66 8 1 C8 1.99 8 2.98 8 4 C9.64281552 5.81412516 11.4394708 7.36940941 13.2734375 8.98828125 C17.46514398 13.87228315 17.36479185 19.76031573 17.375 25.875 C17.39949219 26.63941406 17.42398438 27.40382813 17.44921875 28.19140625 C17.47807239 33.85633738 16.25359136 38.30070199 13 43 C12.01 43.495 12.01 43.495 11 44 C11.20496094 43.33613281 11.40992188 42.67226562 11.62109375 41.98828125 C12.02521484 40.66376953 12.02521484 40.66376953 12.4375 39.3125 C12.70433594 38.44238281 12.97117188 37.57226562 13.24609375 36.67578125 C14.38630815 32.62890632 15.13387805 28.89880487 15.0625 24.6875 C15.041875 23.470625 15.02125 22.25375 15 21 C14.67 21 14.34 21 14 21 C13.67 17.7 13.34 14.4 13 11 C12.34 11 11.68 11 11 11 C11 10.34 11 9.68 11 9 C8.525 8.01 8.525 8.01 6 7 C6 6.34 6 5.68 6 5 C5.38125 4.731875 4.7625 4.46375 4.125 4.1875 C2 3 2 3 0 0 Z " fill="#1662E0" transform="translate(128,64)"/>
<path d="M0 0 C2.97 0.33 5.94 0.66 9 1 C8.01 1.33 7.02 1.66 6 2 C5.814375 2.8971875 5.814375 2.8971875 5.625 3.8125 C4.6628998 7.1798507 2.91636634 8.1165134 0 10 C-2.95618434 11.16365715 -5.947718 12.12221956 -9 13 C-9 12.34 -9 11.68 -9 11 C-9.84763916 11.01571045 -9.84763916 11.01571045 -10.71240234 11.03173828 C-13.26655653 11.07324788 -15.82063982 11.0993096 -18.375 11.125 C-19.26445313 11.14175781 -20.15390625 11.15851563 -21.0703125 11.17578125 C-21.92109375 11.18222656 -22.771875 11.18867188 -23.6484375 11.1953125 C-24.82672119 11.21102295 -24.82672119 11.21102295 -26.02880859 11.22705078 C-28 11 -28 11 -30 9 C-28.92363281 9.03480469 -27.84726563 9.06960937 -26.73828125 9.10546875 C-11.18407583 9.54481817 -11.18407583 9.54481817 3 4 C2.01 3.34 1.02 2.68 0 2 C0 1.34 0 0.68 0 0 Z " fill="#17529E" transform="translate(115,133)"/>
<path d="M0 0 C15.78272858 5.30746625 28.6433025 16.18100237 39 29 C38.67 29.66 38.34 30.32 38 31 C35.46829599 28.47283309 32.9418935 25.94109873 30.4296875 23.39453125 C29.58664063 22.54246094 28.74359375 21.69039062 27.875 20.8125 C27.02679688 19.95269531 26.17859375 19.09289062 25.3046875 18.20703125 C23.00850005 15.87938579 23.00850005 15.87938579 20 14 C20 13.34 20 12.68 20 12 C19.34644531 11.75507813 18.69289062 11.51015625 18.01953125 11.2578125 C14.14580385 9.64417702 10.43067791 7.76833217 6.6875 5.875 C5.94693359 5.50246094 5.20636719 5.12992188 4.44335938 4.74609375 C2.62798783 3.83255194 0.81386718 2.91652513 -1 2 C-0.67 1.34 -0.34 0.68 0 0 Z " fill="#0200BB" transform="translate(130,13)"/>
<path d="M0 0 C5.30915684 0.08703536 5.30915684 0.08703536 8 1 C9.8125 4.25 9.8125 4.25 11 8 C11.53625 8.845625 12.0725 9.69125 12.625 10.5625 C15.41924624 15.51593651 15.15979952 21.11970267 15.1875 26.6875 C15.20167969 27.99074219 15.21585938 29.29398438 15.23046875 30.63671875 C15 34 15 34 13 37 C12.96132812 35.11667969 12.96132812 35.11667969 12.921875 33.1953125 C12.88076767 18.3996558 12.88076767 18.3996558 5.95703125 5.88671875 C4.54526082 4.6398631 3.09776334 3.43165952 1.609375 2.27734375 C1.07828125 1.85582031 0.5471875 1.43429688 0 1 C0 0.67 0 0.34 0 0 Z " fill="#012CE4" transform="translate(133,66)"/>
<path d="M0 0 C0.33 0 0.66 0 1 0 C1.19627391 1.58226965 1.38165538 3.16589271 1.5625 4.75 C1.66691406 5.63171875 1.77132812 6.5134375 1.87890625 7.421875 C1.99456676 9.88432451 1.73638695 11.66538064 1 14 C1.99 14.33 2.98 14.66 4 15 C3.02738378 18.27152729 2.34232413 19.74545129 -0.4375 21.8125 C-3 23 -3 23 -6 23 C-5.55123384 21.35153231 -5.09069512 19.70626545 -4.625 18.0625 C-4.36976562 17.14597656 -4.11453125 16.22945312 -3.8515625 15.28515625 C-3 13 -3 13 -1 12 C-0.53101037 9.1840151 -0.53101037 9.1840151 -0.375 5.9375 C-0.26285156 4.28041016 -0.26285156 4.28041016 -0.1484375 2.58984375 C-0.09945312 1.73519531 -0.05046875 0.88054687 0 0 Z " fill="#A85616" transform="translate(73,70)"/>
<path d="M0 0 C5.13503344 0.64187918 9.9943454 1.68272247 15 3 C15 3.66 15 4.32 15 5 C17.97 5.495 17.97 5.495 21 6 C19.02 8.97 19.02 8.97 17 12 C13.48144841 10.59257936 12.61387166 9.33533477 11 6 C10.01 5.67 9.02 5.34 8 5 C8 4.34 8 3.68 8 3 C5.36 2.34 2.72 1.68 0 1 C0 0.67 0 0.34 0 0 Z " fill="#196ED2" transform="translate(109,43)"/>
<path d="M0 0 C4.74018901 1.83491188 9.36413251 3.91941459 14 6 C13.34 6.66 12.68 7.32 12 8 C9.6171875 7.7578125 9.6171875 7.7578125 6.875 7.125 C5.50988281 6.81949219 5.50988281 6.81949219 4.1171875 6.5078125 C3.41851562 6.34023437 2.71984375 6.17265625 2 6 C2 6.99 2 7.98 2 9 C-1.13349732 10.04449911 -1.98968256 9.93423645 -5 9 C-4.1875 6.0625 -4.1875 6.0625 -3 3 C-2.01 2.67 -1.02 2.34 0 2 C0 1.34 0 0.68 0 0 Z " fill="#333536" transform="translate(71,136)"/>
<path d="M0 0 C5.94 0 11.88 0 18 0 C16.42274555 3.1545089 13.29937091 3.56584818 10.125 4.625 C9.45331787 4.85082764 8.78163574 5.07665527 8.08959961 5.30932617 C2.33523352 7.12350718 -2.97457935 7.56370879 -9 7 C-9 6.67 -9 6.34 -9 6 C-8.30132812 5.97421875 -7.60265625 5.9484375 -6.8828125 5.921875 C-5.97273438 5.86515625 -5.06265625 5.8084375 -4.125 5.75 C-3.22007813 5.70359375 -2.31515625 5.6571875 -1.3828125 5.609375 C1.17110544 5.24388852 1.17110544 5.24388852 2.3203125 2.953125 C2.65675781 1.98632812 2.65675781 1.98632812 3 1 C2.01 0.67 1.02 0.34 0 0 Z " fill="#FCC65D" transform="translate(106,150)"/>
<path d="M0 0 C0.66 0 1.32 0 2 0 C2.33 0.99 2.66 1.98 3 3 C2.443125 3.680625 1.88625 4.36125 1.3125 5.0625 C-4.50732172 12.45524651 -5.61527385 20.4513741 -5.75 29.625 C-5.79447266 31.13126953 -5.79447266 31.13126953 -5.83984375 32.66796875 C-5.9096748 35.11205537 -5.9627929 37.55523679 -6 40 C-6.33 40 -6.66 40 -7 40 C-8.75366898 24.44017346 -7.13368611 13.91938753 0 0 Z " fill="#4AD4E7" transform="translate(16,53)"/>
<path d="M0 0 C-1.15234375 1.98046875 -1.15234375 1.98046875 -3 4 C-5.62890625 4.42578125 -5.62890625 4.42578125 -8.5625 4.3125 C-9.53316406 4.28800781 -10.50382812 4.26351562 -11.50390625 4.23828125 C-14 4 -14 4 -16 3 C-16 2.01 -16 1.02 -16 0 C-13.7089095 -0.19441368 -11.41709663 -0.38033135 -9.125 -0.5625 C-7.21074219 -0.71912109 -7.21074219 -0.71912109 -5.2578125 -0.87890625 C-2 -1 -2 -1 0 0 Z " fill="#36332E" transform="translate(85,157)"/>
<path d="M0 0 C1.98 0 3.96 0 6 0 C12.60409314 11.65766007 12.60409314 11.65766007 11.875 16.25 C11.58625 17.1575 11.2975 18.065 11 19 C10.67 19 10.34 19 10 19 C9.7525 18.01 9.505 17.02 9.25 16 C8.21949452 12.32602392 6.633844 9.13475182 4.8046875 5.796875 C4 4 4 4 4 1 C2.68 1.33 1.36 1.66 0 2 C0 1.34 0 0.68 0 0 Z " fill="#191BCC" transform="translate(137,66)"/>
<path d="M0 0 C0.45375 0.680625 0.9075 1.36125 1.375 2.0625 C5.04364584 6.16788939 9.42918125 8.97314102 14 12 C13.67 14.64 13.34 17.28 13 20 C12.34 19.67 11.68 19.34 11 19 C11.165 18.13375 11.33 17.2675 11.5 16.375 C10.91629339 12.43498036 10.35817686 12.0699715 7.3125 9.75 C4.32470387 7.72464439 1.45154286 6.11667563 -2 5 C-2.66 4.67 -3.32 4.34 -4 4 C-2.68 2.68 -1.36 1.36 0 0 Z " fill="#52ADE2" transform="translate(105,100)"/>
<path d="M0 0 C-4.95 2.475 -4.95 2.475 -10 5 C-10 5.99 -10 6.98 -10 8 C-12.31 7.67 -14.62 7.34 -17 7 C-17 6.01 -17 5.02 -17 4 C-15.35 3.67 -13.7 3.34 -12 3 C-12 2.34 -12 1.68 -12 1 C-10.56496445 0.63597631 -9.12683494 0.28413409 -7.6875 -0.0625 C-6.88699219 -0.25972656 -6.08648437 -0.45695312 -5.26171875 -0.66015625 C-3 -1 -3 -1 0 0 Z " fill="#207AD9" transform="translate(88,43)"/>
<path d="M0 0 C0.33 0 0.66 0 1 0 C1.02903577 3.10414702 1.0468107 6.20825909 1.0625 9.3125 C1.07087891 10.19357422 1.07925781 11.07464844 1.08789062 11.98242188 C1.09111328 12.82998047 1.09433594 13.67753906 1.09765625 14.55078125 C1.10289307 15.33106689 1.10812988 16.11135254 1.11352539 16.9152832 C1 19 1 19 0 22 C-0.66 22 -1.32 22 -2 22 C-2.33 23.32 -2.66 24.64 -3 26 C-3.66 26 -4.32 26 -5 26 C-5 26.66 -5 27.32 -5 28 C-5.66 28 -6.32 28 -7 28 C-5.86287396 24.96766389 -4.63663077 22.40539581 -2.9375 19.625 C0.17182436 13.6375278 -0.1720662 6.60734222 0 0 Z " fill="#054EE8" transform="translate(145,84)"/>
<path d="M0 0 C2.6875 0.3125 2.6875 0.3125 5 1 C4.42636719 1.2475 3.85273437 1.495 3.26171875 1.75 C0.65460242 3.19089331 -1.10539016 4.87491979 -3.1875 7 C-3.88230469 7.70125 -4.57710938 8.4025 -5.29296875 9.125 C-7.06189325 10.89758332 -7.06189325 10.89758332 -8 13 C-8.66 13 -9.32 13 -10 13 C-10.33 11.68 -10.66 10.36 -11 9 C-10.45730469 8.60167969 -9.91460937 8.20335937 -9.35546875 7.79296875 C-8.64003906 7.26316406 -7.92460938 6.73335937 -7.1875 6.1875 C-6.47980469 5.66542969 -5.77210937 5.14335938 -5.04296875 4.60546875 C-2.98728723 3.07615992 -2.98728723 3.07615992 -1.40625 1.28125 C-0.9421875 0.8584375 -0.478125 0.435625 0 0 Z " fill="#021DDC" transform="translate(72,50)"/>
<path d="M0 0 C2.58871694 3.88307541 2.36771657 7.18269806 2.375 11.6875 C2.39949219 12.46544922 2.42398438 13.24339844 2.44921875 14.04492188 C2.47785379 19.76715739 1.29919911 24.25540118 -2 29 C-2.66 29.33 -3.32 29.66 -4 30 C-3.79503906 29.33613281 -3.59007812 28.67226562 -3.37890625 27.98828125 C-3.10949219 27.10527344 -2.84007812 26.22226563 -2.5625 25.3125 C-2.29566406 24.44238281 -2.02882812 23.57226562 -1.75390625 22.67578125 C-0.27646176 17.43200157 0.13018294 12.62816737 0.0625 7.1875 C0.05798828 6.49462891 0.05347656 5.80175781 0.04882812 5.08789062 C0.03713156 3.39188932 0.01919924 1.69593297 0 0 Z " fill="#0861E7" transform="translate(143,78)"/>
<path d="M0 0 C0.66 0.33 1.32 0.66 2 1 C0.8553125 2.2684375 0.8553125 2.2684375 -0.3125 3.5625 C-2.27240257 5.88125797 -3.53183192 7.9831238 -4.625 10.8125 C-5.07875 11.864375 -5.5325 12.91625 -6 14 C-6.99 14.33 -7.98 14.66 -9 15 C-10.237691 11.51612903 -10.237691 11.51612903 -9.1796875 9.21875 C-6.42886293 5.59490925 -3.74260383 2.67328845 0 0 Z " fill="#71708E" transform="translate(27,40)"/>
<path d="M0 0 C0.33 0 0.66 0 1 0 C1.19627391 1.58226965 1.38165538 3.16589271 1.5625 4.75 C1.66691406 5.63171875 1.77132812 6.5134375 1.87890625 7.421875 C1.99456676 9.88432451 1.73638695 11.66538064 1 14 C1.99 14.33 2.98 14.66 4 15 C3.67 15.99 3.34 16.98 3 18 C1.35 17.67 -0.3 17.34 -2 17 C-1.34 11.39 -0.68 5.78 0 0 Z " fill="#97795F" transform="translate(73,70)"/>
<path d="M0 0 C0.66 0.33 1.32 0.66 2 1 C-2.95 5.95 -7.9 10.9 -13 16 C-13 10.79628205 -8.49504984 7.5790344 -5 4 C-3.37707762 2.6137538 -1.7331451 1.24569804 0 0 Z " fill="#DCE3F7" transform="translate(49,34)"/>
<path d="M0 0 C0.86367188 0.02707031 1.72734375 0.05414063 2.6171875 0.08203125 C10.45596322 0.45703441 10.45596322 0.45703441 13.625 3.75 C12.64144531 3.58371094 11.65789062 3.41742188 10.64453125 3.24609375 C5.80388726 2.55248347 1.02152119 2.73188891 -3.85351562 2.87695312 C-5.69426058 2.90644668 -7.53600014 2.83538957 -9.375 2.75 C-10.035 2.09 -10.695 1.43 -11.375 0.75 C-7.8565663 -1.00921685 -3.85700332 -0.18828566 0 0 Z " fill="#9A9AC2" transform="translate(52.375,61.25)"/>
<path d="M0 0 C-0.55774272 3.23490776 -1.37211508 4.97855006 -4 7 C-4.99 7 -5.98 7 -7 7 C-7.33 5.68 -7.66 4.36 -8 3 C-3.375 0 -3.375 0 0 0 Z " fill="#D3923F" transform="translate(110,92)"/>
<path d="M0 0 C5.32520406 0.08729843 5.32520406 0.08729843 8 1 C10.09371609 4.53314591 11 6.89506993 11 11 C7.33333333 7.33333333 3.66666667 3.66666667 0 0 Z " fill="#001AE1" transform="translate(133,66)"/>
<path d="M0 0 C2.58361518 -0.05407567 5.16609255 -0.093707 7.75 -0.125 C8.84441406 -0.15013672 8.84441406 -0.15013672 9.9609375 -0.17578125 C13.8044624 -0.21072239 16.74606772 -0.17499684 20 2 C14.375 3.125 14.375 3.125 11 2 C9.10529184 1.9314505 7.2083166 1.91519628 5.3125 1.9375 C4.31863281 1.94652344 3.32476562 1.95554688 2.30078125 1.96484375 C1.54152344 1.97644531 0.78226562 1.98804688 0 2 C0 1.34 0 0.68 0 0 Z " fill="#1F76D2" transform="translate(89,41)"/>
<path d="M0 0 C-0.66 2.31 -1.32 4.62 -2 7 C-4.31 7.33 -6.62 7.66 -9 8 C-8.54625 7.5875 -8.0925 7.175 -7.625 6.75 C-5.9085616 5.06583565 -5.9085616 5.06583565 -4.9375 2.875 C-3.68897609 0.37795219 -2.76297958 0 0 0 Z " fill="#B7C5CB" transform="translate(67,80)"/>
<path d="M0 0 C6.45280438 0.4870041 6.45280438 0.4870041 9 2.875 C10 5 10 5 9 8 C8.34 8 7.68 8 7 8 C5.62926214 6.36395804 4.29944744 4.69321939 3 3 C2.01769502 1.9826127 1.02530403 0.97403883 0 0 Z " fill="#358FDE" transform="translate(115,50)"/>
<path d="M0 0 C0.66 0.33 1.32 0.66 2 1 C-0.64116988 4.61938095 -2.97413046 6.98706523 -7 9 C-7.66 9 -8.32 9 -9 9 C-9 8.34 -9 7.68 -9 7 C-8.01 7 -7.02 7 -6 7 C-6 6.34 -6 5.68 -6 5 C-6.99 4.67 -7.98 4.34 -9 4 C-7.54618103 3.30300448 -6.08677047 2.61766134 -4.625 1.9375 C-3.40683594 1.36322266 -3.40683594 1.36322266 -2.1640625 0.77734375 C-1.44992188 0.52082031 -0.73578125 0.26429688 0 0 Z " fill="#F7CD6A" transform="translate(137,156)"/>
<path d="M0 0 C1.65 0.33 3.3 0.66 5 1 C1.88983545 4.28788824 -1.01618925 6.83735988 -5 9 C-3.50163895 5.88801935 -1.80066242 2.9465385 0 0 Z " fill="#D4DADE" transform="translate(140,153)"/>
<path d="M0 0 C0 0.66 0 1.32 0 2 C-3.50776784 3.60355101 -6.14354879 4.22036864 -10 4 C-10 3.34 -10 2.68 -10 2 C-6.3558226 -0.4294516 -4.28758728 -0.16179575 0 0 Z " fill="#090CB3" transform="translate(114,145)"/>
<path d="M0 0 C1.32 0.33 2.64 0.66 4 1 C4 1.66 4 2.32 4 3 C6.97 3.495 6.97 3.495 10 4 C9.01 5.485 9.01 5.485 8 7 C6.125 6.75 6.125 6.75 4 6 C2.75 3.9375 2.75 3.9375 2 2 C1.34 2 0.68 2 0 2 C0 1.34 0 0.68 0 0 Z " fill="#0E47D1" transform="translate(120,45)"/>
<path d="M0 0 C0.99 1.32 1.98 2.64 3 4 C2.01 4 1.02 4 0 4 C0 6.31 0 8.62 0 11 C-0.99 10.67 -1.98 10.34 -3 10 C-3.08226668 6.95613276 -2.97608217 4.92824652 -2 2 C-1.34 2 -0.68 2 0 2 C0 1.34 0 0.68 0 0 Z " fill="#99999E" transform="translate(42,118)"/>
<path d="M0 0 C1.07310858 3.27185553 0.89263102 5.42947592 0.0625 8.75 C-0.22947266 9.94882813 -0.22947266 9.94882813 -0.52734375 11.171875 C-0.68332031 11.77515625 -0.83929688 12.3784375 -1 13 C-0.01 13.33 0.98 13.66 2 14 C0.68 14.33 -0.64 14.66 -2 15 C-3.09644404 9.05542387 -3.41029848 5.32006564 0 0 Z " fill="#2476CC" transform="translate(116,119)"/>
<path d="M0 0 C2.51083114 1.25541557 2.87125446 2.50063488 4 5 C4.33 5 4.66 5 5 5 C5 7.64 5 10.28 5 13 C2.03472242 10.5546615 1.44417786 8.55397653 0.8125 4.8125 C0.65394531 3.91144531 0.49539063 3.01039062 0.33203125 2.08203125 C0.22246094 1.39496094 0.11289063 0.70789063 0 0 Z " fill="#80C2D6" transform="translate(10,94)"/>
<path d="M0 0 C0.99 0.33 1.98 0.66 3 1 C3 1.66 3 2.32 3 3 C1.18674449 2.88648483 -0.62563357 2.75887039 -2.4375 2.625 C-3.95150391 2.52058594 -3.95150391 2.52058594 -5.49609375 2.4140625 C-6.32238281 2.27742188 -7.14867188 2.14078125 -8 2 C-8.33 1.34 -8.66 0.68 -9 0 C-5.90998791 -1.54500605 -3.32822635 -0.58389936 0 0 Z " fill="#2A8DC8" transform="translate(79,92)"/>
<path d="M0 0 C0.99 0.33 1.98 0.66 3 1 C3 2.98 3 4.96 3 7 C1.02 7.99 -0.96 8.98 -3 10 C-3.33 8.35 -3.66 6.7 -4 5 C-3.34 4.67 -2.68 4.34 -2 4 C-2 4.66 -2 5.32 -2 6 C-0.68 6 0.64 6 2 6 C1.34 4.02 0.68 2.04 0 0 Z " fill="#CDDEE6" transform="translate(64,73)"/>
<path d="M0 0 C0.66 0 1.32 0 2 0 C2 0.66 2 1.32 2 2 C3.32 2.66 4.64 3.32 6 4 C6 6.97 6 9.94 6 13 C3.29024273 8.9353641 1.54210281 4.62630843 0 0 Z " fill="#2D8AE3" transform="translate(132,69)"/>
<path d="M0 0 C6.91428571 0.94285714 6.91428571 0.94285714 10 3 C10.33 3.99 10.66 4.98 11 6 C9.53775201 5.57576756 8.08026588 5.13509755 6.625 4.6875 C5.81289063 4.44386719 5.00078125 4.20023438 4.1640625 3.94921875 C2 3 2 3 0 0 Z " fill="#8DC1DC" transform="translate(52,160)"/>
<path d="M0 0 C-2.99738941 1.99825961 -3.63347508 2.27550398 -7 2.25 C-7.680625 2.25515625 -8.36125 2.2603125 -9.0625 2.265625 C-11 2 -11 2 -14 0 C-8.97703996 -1.13016601 -5.02125926 -0.77916092 0 0 Z " fill="#504F4A" transform="translate(82,154)"/>
<path d="M0 0 C2.62400522 2.37409996 4.44568209 4.81364829 6 8 C5.6875 10.3125 5.6875 10.3125 5 12 C4.34 10.02 3.68 8.04 3 6 C2.01 6.33 1.02 6.66 0 7 C0 4.69 0 2.38 0 0 Z " fill="#4DA4C1" transform="translate(15,96)"/>
<path d="M0 0 C0.66 0 1.32 0 2 0 C4.22923777 4.32734391 3.92470553 7.28400182 3 12 C2.67 12 2.34 12 2 12 C0.70756464 7.8803623 -0.26252625 4.33168317 0 0 Z " fill="#2428D0" transform="translate(145,73)"/>
<path d="M0 0 C0.66 0.33 1.32 0.66 2 1 C-0.97 3.97 -3.94 6.94 -7 10 C-7.66 9.67 -8.32 9.34 -9 9 C-8.06725891 7.87105124 -7.12859878 6.74699124 -6.1875 5.625 C-5.66542969 4.99851562 -5.14335938 4.37203125 -4.60546875 3.7265625 C-3 2 -3 2 0 0 Z " fill="#80D8F6" transform="translate(105,56)"/>
<path d="M0 0 C2.31 0 4.62 0 7 0 C7 0.33 7 0.66 7 1 C5.63875 1.37125 5.63875 1.37125 4.25 1.75 C0.92997238 2.76619144 0.92997238 2.76619144 -1.125 5.1875 C-1.74375 5.785625 -2.3625 6.38375 -3 7 C-5.25 6.75 -5.25 6.75 -7 6 C-6.030625 5.38125 -5.06125 4.7625 -4.0625 4.125 C-0.97164638 2.34321154 -0.97164638 2.34321154 0 0 Z " fill="#AE7A41" transform="translate(100,149)"/>
<path d="M0 0 C0.95651196 2.58258228 1.03620881 3.8650399 0.3125 6.5625 C-1.12035293 9.22351258 -2.47085828 10.39821025 -5 12 C-4.67 10.35 -4.34 8.7 -4 7 C-3.34 7 -2.68 7 -2 7 C-1.855625 6.21625 -1.71125 5.4325 -1.5625 4.625 C-1 2 -1 2 0 0 Z " fill="#0138E5" transform="translate(143,106)"/>
<path d="M0 0 C4.84659077 0.59104765 8.60748167 1.97944157 13 4 C9.75784173 5.08557659 7.97678191 4.94015194 4.8125 3.6875 C3.77029297 3.29111328 3.77029297 3.29111328 2.70703125 2.88671875 C1 2 1 2 0 0 Z " fill="#094CD0" transform="translate(107,40)"/>
<path d="M0 0 C-1.75 2.0625 -1.75 2.0625 -4 4 C-7.01811422 3.82246387 -7.83735215 3.16264785 -10 1 C-8.71073008 0.63720544 -7.41846728 0.28503302 -6.125 -0.0625 C-5.40570313 -0.25972656 -4.68640625 -0.45695313 -3.9453125 -0.66015625 C-2 -1 -2 -1 0 0 Z " fill="#0550BF" transform="translate(117,140)"/>
<path d="M0 0 C6.2049038 0.2757735 10.10160999 1.10640794 15 5 C11.5317263 5 9.08733513 4.12682499 5.8125 3 C4.72582031 2.62875 3.63914062 2.2575 2.51953125 1.875 C1.68808594 1.58625 0.85664062 1.2975 0 1 C0 0.67 0 0.34 0 0 Z " fill="#0016D5" transform="translate(107,39)"/>
<path d="M0 0 C2.475 0.99 2.475 0.99 5 2 C4.67 4.64 4.34 7.28 4 10 C3.34 9.67 2.68 9.34 2 9 C2 7.02 2 5.04 2 3 C1.34 2.67 0.68 2.34 0 2 C0 1.34 0 0.68 0 0 Z " fill="#3797E4" transform="translate(114,110)"/>
<path d="M0 0 C0.66 0.33 1.32 0.66 2 1 C-2.455 4.465 -2.455 4.465 -7 8 C-7 7.01 -7 6.02 -7 5 C-5.46875 3.61328125 -5.46875 3.61328125 -3.5 2.3125 C-2.8503125 1.87550781 -2.200625 1.43851563 -1.53125 0.98828125 C-1.0259375 0.66214844 -0.520625 0.33601563 0 0 Z " fill="#0010D5" transform="translate(69,53)"/>
<path d="M0 0 C0.33 0.66 0.66 1.32 1 2 C0.22265625 4.1640625 0.22265625 4.1640625 -0.9375 6.625 C-1.31777344 7.44226562 -1.69804687 8.25953125 -2.08984375 9.1015625 C-2.39019531 9.72804688 -2.69054687 10.35453125 -3 11 C-3.66 9.68 -4.32 8.36 -5 7 C-3.35 4.69 -1.7 2.38 0 0 Z " fill="#070782" transform="translate(22,44)"/>
<path d="M0 0 C0.66 0.33 1.32 0.66 2 1 C2 1.99 2 2.98 2 4 C-0.64 4.33 -3.28 4.66 -6 5 C-4.00856305 2.01284458 -3.23356015 1.21258505 0 0 Z " fill="#0B3EDA" transform="translate(134,121)"/>
<path d="M0 0 C0.33 0.99 0.66 1.98 1 3 C-0.25 5.1875 -0.25 5.1875 -2 7 C-2.99 7 -3.98 7 -5 7 C-3.70700306 4.11562221 -2.34058637 2.12780579 0 0 Z " fill="#191BCB" transform="translate(143,117)"/>
<path d="M0 0 C0.66 0.33 1.32 0.66 2 1 C2.6328125 3.06640625 2.6328125 3.06640625 3.125 5.5625 C3.29257813 6.38878906 3.46015625 7.21507813 3.6328125 8.06640625 C3.75398438 8.70449219 3.87515625 9.34257813 4 10 C2.35 9.67 0.7 9.34 -1 9 C-1 8.34 -1 7.68 -1 7 C-0.34 7 0.32 7 1 7 C0.67 4.69 0.34 2.38 0 0 Z " fill="#77CAF1" transform="translate(119,99)"/>
<path d="M0 0 C4.29 0 8.58 0 13 0 C11.68 1.32 10.36 2.64 9 4 C8.67 3.01 8.34 2.02 8 1 C5.36 1 2.72 1 0 1 C0 0.67 0 0.34 0 0 Z " fill="#1350E7" transform="translate(95,54)"/>
<path d="M0 0 C2.66666667 2.66666667 5.33333333 5.33333333 8 8 C7.67 8.66 7.34 9.32 7 10 C4.66666667 7.66666667 2.33333333 5.33333333 0 3 C0 2.01 0 1.02 0 0 Z " fill="#0D01B6" transform="translate(161,34)"/>
<path d="M0 0 C0.66 0 1.32 0 2 0 C2.66 1.98 3.32 3.96 4 6 C2.68 6 1.36 6 0 6 C-1 3 -1 3 0 0 Z " fill="#E4F2F8" transform="translate(62,73)"/>
<path d="M0 0 C3.08089673 2.77280706 4.68775452 5.06326356 6 9 C3.5067466 8.00269864 2.22532561 7.34925469 0.75 5.0625 C0 3 0 3 0 0 Z " fill="#0801BB" transform="translate(169,44)"/>
<path d="M0 0 C2.0625 0.4375 2.0625 0.4375 4 1 C3.01 1.66 2.02 2.32 1 3 C0.74984127 6.58357241 0.74984127 6.58357241 1 10 C0.34 9.67 -0.32 9.34 -1 9 C-1.09765625 2.84765625 -1.09765625 2.84765625 -1 1 C-0.67 0.67 -0.34 0.34 0 0 Z " fill="#33B9E5" transform="translate(63,113)"/>
<path d="M0 0 C1.5 1.3125 1.5 1.3125 3 3 C3 3.99 3 4.98 3 6 C0.03 5.505 0.03 5.505 -3 5 C-2.01 3.35 -1.02 1.7 0 0 Z " fill="#B7B7BE" transform="translate(39,114)"/>
<path d="M0 0 C0.33 0 0.66 0 1 0 C1.36923077 7.50769231 1.36923077 7.50769231 -0.5 10 C-0.995 10.33 -1.49 10.66 -2 11 C-1.125 3.375 -1.125 3.375 0 0 Z " fill="#001CDD" transform="translate(145,103)"/>
</svg>
